<?xml version="1.0" encoding="UTF-8"?>
<svg xmlns="http://www.w3.org/2000/svg" width="186" height="155" viewBox="0 0 186 155" fill="none">
    <g clip-path="url(#clip0_1604_153)">
        <path d="M0.381565 77.0985C0.381565 77.0803 0.366363 77.062 0.345079 77.062C0.326836 77.062 0.308594 77.0772 0.308594 77.0985C0.308594 77.1167 0.323796 77.135 0.345079 77.135C0.366363 77.135 0.381565 77.1198 0.381565 77.0985Z"
              fill="#1A1A1A"></path>
        <path d="M0.253906 83.4895C0.253906 83.5382 0.293426 83.5777 0.342075 83.5777C0.390724 83.5777 0.430254 83.5382 0.430254 83.4895C0.430254 83.4409 0.390724 83.4014 0.342075 83.4014C0.293426 83.4014 0.253906 83.4409 0.253906 83.4895Z"
              fill="#1A1A1A"></path>
        <path d="M6.72903 83.8848C6.94491 83.8848 7.11822 83.7115 7.11822 83.4956C7.11822 83.2798 6.94491 83.1064 6.72903 83.1064C6.51315 83.1064 6.33984 83.2798 6.33984 83.4956C6.33984 83.7115 6.51315 83.8848 6.72903 83.8848Z"
              fill="#1A1A1A"></path>
        <path d="M0.195312 89.8778C0.195312 89.9568 0.259165 90.0207 0.338219 90.0207C0.417273 90.0207 0.481126 89.9568 0.481126 89.8778C0.481126 89.7987 0.417273 89.7349 0.338219 89.7349C0.259165 89.7349 0.195312 89.7987 0.195312 89.8778Z"
              fill="#1A1A1A"></path>
        <path d="M6.72322 90.3248C6.96646 90.3248 7.16714 90.1272 7.16714 89.8809C7.16714 89.6377 6.9695 89.437 6.72322 89.437C6.47997 89.437 6.2793 89.6347 6.2793 89.8809C6.2793 90.1242 6.47693 90.3248 6.72322 90.3248Z"
              fill="#1A1A1A"></path>
        <path d="M13.1118 90.6503C13.5314 90.6503 13.875 90.3097 13.875 89.8901C13.875 89.4705 13.5344 89.127 13.1148 89.127C12.6952 89.127 12.3516 89.4675 12.3516 89.8871C12.3516 90.3067 12.6922 90.6503 13.1118 90.6503Z"
              fill="#1A1A1A"></path>
        <path d="M0.331934 96.1079C0.243758 96.1079 0.173828 96.1778 0.173828 96.266C0.173828 96.3542 0.243758 96.4241 0.331934 96.4241C0.42011 96.4241 0.490049 96.3542 0.490049 96.266C0.490049 96.1778 0.42011 96.1079 0.331934 96.1079Z"
              fill="#1A1A1A"></path>
        <path d="M6.72085 96.7313C6.97625 96.7313 7.18301 96.5246 7.18301 96.2722C7.18301 96.0168 6.97626 95.8101 6.72389 95.8101C6.46848 95.8101 6.26172 96.0168 6.26172 96.2692C6.26172 96.5216 6.46848 96.7313 6.72085 96.7313Z"
              fill="#1A1A1A"></path>
        <path d="M13.1085 97.0564C13.5403 97.0564 13.8869 96.7067 13.8899 96.278C13.8899 95.8462 13.5403 95.4996 13.1116 95.4966C12.6798 95.4966 12.3332 95.8462 12.3301 96.275C12.3301 96.7067 12.6798 97.0533 13.1085 97.0564Z"
              fill="#1A1A1A"></path>
        <path d="M0.326501 102.515C0.247447 102.515 0.183594 102.578 0.183594 102.658C0.183594 102.737 0.247447 102.8 0.326501 102.8C0.405555 102.8 0.469407 102.737 0.469407 102.658C0.469407 102.578 0.405555 102.515 0.326501 102.515Z"
              fill="#1A1A1A"></path>
        <path d="M7.15738 102.66C7.15738 102.417 6.95975 102.216 6.71346 102.216C6.47022 102.216 6.26953 102.414 6.26953 102.66C6.26953 102.903 6.46718 103.104 6.71346 103.104C6.95671 103.104 7.15738 102.907 7.15738 102.66Z"
              fill="#1A1A1A"></path>
        <path d="M13.103 101.903C12.6834 101.903 12.3398 102.244 12.3398 102.663C12.3398 103.083 12.6804 103.427 13.1 103.427C13.5196 103.427 13.8631 103.086 13.8631 102.667C13.8631 102.247 13.5226 101.903 13.103 101.903Z"
              fill="#1A1A1A"></path>
        <path d="M0.425734 109.042C0.425734 108.985 0.377083 108.936 0.319312 108.936C0.261542 108.936 0.212891 108.985 0.212891 109.042C0.212891 109.1 0.261542 109.149 0.319312 109.149C0.377083 109.149 0.425734 109.1 0.425734 109.042Z"
              fill="#1A1A1A"></path>
        <path d="M6.70755 109.438C6.92343 109.438 7.09674 109.264 7.09674 109.048C7.09674 108.832 6.92343 108.659 6.70755 108.659C6.49167 108.659 6.31836 108.832 6.31836 109.048C6.31836 109.264 6.49167 109.438 6.70755 109.438Z"
              fill="#1A1A1A"></path>
        <path d="M13.0964 108.364C12.7133 108.364 12.4062 108.674 12.4062 109.054C12.4062 109.435 12.7164 109.745 13.0964 109.745C13.4765 109.745 13.7866 109.435 13.7866 109.054C13.7866 108.671 13.4765 108.364 13.0964 108.364Z"
              fill="#1A1A1A"></path>
        <path d="M0.261719 115.434C0.261719 115.464 0.286038 115.485 0.313403 115.488C0.343809 115.488 0.3651 115.464 0.36814 115.437C0.36814 115.406 0.343812 115.385 0.316447 115.382C0.286041 115.382 0.26476 115.406 0.261719 115.434Z"
              fill="#1A1A1A"></path>
        <path d="M6.7014 115.738C6.86863 115.738 7.00241 115.604 7.00241 115.437C7.00241 115.27 6.86863 115.136 6.7014 115.136C6.53417 115.136 6.40039 115.27 6.40039 115.437C6.40039 115.604 6.53417 115.738 6.7014 115.738Z"
              fill="#1A1A1A"></path>
        <path d="M13.0936 114.859C12.7713 114.859 12.5098 115.12 12.5098 115.443C12.5098 115.765 12.7713 116.026 13.0936 116.026C13.4159 116.026 13.6774 115.765 13.6774 115.443C13.6774 115.12 13.4159 114.859 13.0936 114.859Z"
              fill="#1A1A1A"></path>
        <path d="M19.4809 114.58C19.0005 114.58 18.6113 114.969 18.6113 115.446C18.6113 115.927 19.0005 116.316 19.4779 116.316C19.9583 116.316 20.3475 115.927 20.3475 115.449C20.3475 114.969 19.9583 114.58 19.4809 114.58Z"
              fill="#1A1A1A"></path>
        <path d="M6.87615 121.828C6.87615 121.731 6.79709 121.652 6.69979 121.652C6.60249 121.652 6.52344 121.731 6.52344 121.828C6.52344 121.926 6.60249 122.005 6.69979 122.005C6.79709 122.005 6.87615 121.926 6.87615 121.828Z"
              fill="#1A1A1A"></path>
        <path d="M13.5462 121.831C13.5462 121.576 13.3395 121.369 13.0871 121.369C12.8317 121.369 12.625 121.576 12.625 121.828C12.625 122.084 12.8317 122.29 13.0841 122.29C13.3395 122.29 13.5462 122.084 13.5462 121.831Z"
              fill="#1A1A1A"></path>
        <path d="M19.4747 121.11C19.0733 121.11 18.748 121.436 18.748 121.837C18.748 122.238 19.0733 122.564 19.4747 122.564C19.876 122.564 20.2014 122.238 20.2014 121.837C20.2014 121.436 19.876 121.11 19.4747 121.11Z"
              fill="#1A1A1A"></path>
        <path d="M6.63867 128.216C6.63867 128.247 6.66299 128.268 6.69036 128.268C6.71772 128.268 6.74509 128.244 6.74509 128.216C6.74509 128.186 6.72077 128.162 6.6934 128.162C6.66604 128.162 6.64171 128.186 6.63867 128.213V128.216Z"
              fill="#1A1A1A"></path>
        <path d="M13.3643 128.222C13.3643 128.067 13.2366 127.939 13.0816 127.939C12.9265 127.939 12.7988 128.067 12.7988 128.222C12.7988 128.377 12.9265 128.505 13.0816 128.505C13.2397 128.505 13.3643 128.377 13.3643 128.222Z"
              fill="#1A1A1A"></path>
        <path d="M20.0195 128.225C20.0195 127.921 19.7733 127.675 19.4722 127.675C19.1682 127.675 18.9219 127.921 18.9219 128.222C18.9219 128.526 19.1682 128.772 19.4692 128.772C19.7732 128.772 20.0195 128.526 20.0195 128.225Z"
              fill="#1A1A1A"></path>
        <path d="M26.6399 128.232C26.6399 127.8 26.2902 127.453 25.8615 127.45C25.4297 127.45 25.0831 127.8 25.0801 128.229C25.0801 128.66 25.4297 129.007 25.8584 129.01C26.2902 129.01 26.6368 128.66 26.6399 128.232Z"
              fill="#1A1A1A"></path>
        <path d="M32.2494 127.261C31.7112 127.261 31.2734 127.696 31.2734 128.234C31.2734 128.772 31.7082 129.21 32.2463 129.21C32.7845 129.21 33.2224 128.775 33.2224 128.237C33.2224 127.699 32.7876 127.261 32.2494 127.261Z"
              fill="#1A1A1A"></path>
        <path d="M12.9688 134.61C12.9688 134.668 13.0173 134.717 13.0751 134.717C13.1329 134.717 13.1816 134.668 13.1816 134.61C13.1816 134.553 13.1329 134.504 13.0751 134.504C13.0173 134.504 12.9688 134.553 12.9688 134.61Z"
              fill="#1A1A1A"></path>
        <path d="M19.8 134.613C19.8 134.428 19.651 134.276 19.4625 134.276C19.277 134.276 19.125 134.425 19.125 134.613C19.125 134.799 19.274 134.951 19.4625 134.951C19.648 134.951 19.8 134.802 19.8 134.613Z"
              fill="#1A1A1A"></path>
        <path d="M26.4024 134.62C26.4024 134.316 26.1561 134.069 25.8551 134.069C25.551 134.069 25.3047 134.316 25.3047 134.617C25.3047 134.921 25.551 135.167 25.852 135.167C26.1561 135.167 26.4024 134.921 26.4024 134.62Z"
              fill="#1A1A1A"></path>
        <path d="M32.9689 134.626C32.9689 134.224 32.6436 133.899 32.2422 133.899C31.8409 133.899 31.5156 134.224 31.5156 134.626C31.5156 135.027 31.8409 135.352 32.2422 135.352C32.6436 135.352 32.9689 135.027 32.9689 134.626Z"
              fill="#1A1A1A"></path>
        <path d="M38.63 133.744C38.1405 133.744 37.7452 134.139 37.7422 134.628C37.7422 135.118 38.1375 135.513 38.627 135.516C39.1165 135.516 39.5118 135.121 39.5149 134.631C39.5149 134.142 39.1196 133.747 38.63 133.744Z"
              fill="#1A1A1A"></path>
        <path d="M45.0193 133.625C44.4629 133.625 44.0098 134.075 44.0098 134.635C44.0098 135.191 44.4598 135.644 45.0193 135.644C45.5757 135.644 46.0288 135.194 46.0288 134.635C46.0288 134.079 45.5788 133.625 45.0193 133.625Z"
              fill="#1A1A1A"></path>
        <path d="M52.5049 134.644C52.5049 134.039 52.0154 133.546 51.4073 133.543C50.7991 133.543 50.3096 134.032 50.3066 134.641C50.3066 135.246 50.7961 135.738 51.4042 135.741C52.0123 135.741 52.5019 135.252 52.5049 134.644Z"
              fill="#1A1A1A"></path>
        <path d="M57.7995 133.531C57.1823 133.531 56.6836 134.03 56.6836 134.647C56.6836 135.264 57.1823 135.763 57.7995 135.763C58.4168 135.763 58.9154 135.264 58.9154 134.647C58.9154 134.03 58.4168 133.531 57.7995 133.531Z"
              fill="#1A1A1A"></path>
        <path d="M64.1865 133.555C63.5784 133.555 63.0889 134.045 63.0859 134.653C63.0859 135.258 63.5754 135.75 64.1835 135.754C64.7916 135.754 65.2811 135.264 65.2842 134.656C65.2842 134.048 64.7946 133.558 64.1865 133.555Z"
              fill="#1A1A1A"></path>
        <path d="M71.6024 134.659C71.6024 134.09 71.1432 133.631 70.5747 133.631C70.0061 133.631 69.5469 134.09 69.5469 134.659C69.5469 135.228 70.0061 135.687 70.5747 135.687C71.1432 135.687 71.6024 135.228 71.6024 134.659Z"
              fill="#1A1A1A"></path>
        <path d="M77.9547 134.665C77.9547 134.206 77.6081 133.829 77.1612 133.783C77.0973 133.768 77.0304 133.762 76.9635 133.762C76.4649 133.762 76.0605 134.167 76.0605 134.665C76.0605 135.164 76.4649 135.568 76.9635 135.568C77.0304 135.568 77.0973 135.559 77.1612 135.547C77.6081 135.501 77.9547 135.124 77.9547 134.665Z"
              fill="#1A1A1A"></path>
        <path d="M19.3535 141.005C19.3535 141.063 19.4022 141.111 19.4599 141.111C19.5177 141.111 19.5664 141.063 19.5664 141.005C19.5664 140.947 19.5177 140.898 19.4599 140.898C19.4022 140.898 19.3535 140.947 19.3535 141.005Z"
              fill="#1A1A1A"></path>
        <path d="M26.1489 141.008C26.1489 140.84 26.0151 140.707 25.8479 140.707C25.6806 140.707 25.5469 140.84 25.5469 141.008C25.5469 141.175 25.6806 141.309 25.8479 141.309C26.0151 141.309 26.1489 141.175 26.1489 141.008Z"
              fill="#1A1A1A"></path>
        <path d="M32.6967 141.014C32.6967 140.759 32.4899 140.552 32.2375 140.552C31.9821 140.552 31.7754 140.759 31.7754 141.011C31.7754 141.266 31.9821 141.473 32.2345 141.473C32.4899 141.473 32.6967 141.266 32.6967 141.014Z"
              fill="#1A1A1A"></path>
        <path d="M39.2274 141.02C39.2274 140.689 38.9568 140.418 38.6254 140.418C38.294 140.418 38.0234 140.689 38.0234 141.02C38.0234 141.351 38.294 141.622 38.6254 141.622C38.9568 141.622 39.2274 141.351 39.2274 141.02Z"
              fill="#1A1A1A"></path>
        <path d="M45.7405 141.026C45.7405 140.625 45.4151 140.299 45.0138 140.299C44.6124 140.299 44.2871 140.625 44.2871 141.026C44.2871 141.427 44.6124 141.753 45.0138 141.753C45.4151 141.753 45.7405 141.427 45.7405 141.026Z"
              fill="#1A1A1A"></path>
        <path d="M52.1829 141.032C52.1829 140.6 51.8332 140.254 51.4045 140.25C50.9727 140.25 50.6261 140.6 50.6231 141.029C50.62 141.458 50.9727 141.807 51.4015 141.81C51.8332 141.81 52.1798 141.461 52.1829 141.032Z"
              fill="#1A1A1A"></path>
        <path d="M58.6082 141.038C58.6082 140.588 58.2433 140.224 57.7933 140.224C57.3433 140.224 56.9785 140.588 56.9785 141.038C56.9785 141.489 57.3433 141.853 57.7933 141.853C58.2433 141.853 58.6082 141.489 58.6082 141.038Z"
              fill="#1A1A1A"></path>
        <path d="M64.978 141.041C64.978 140.6 64.6223 140.245 64.1814 140.245C63.7405 140.245 63.3848 140.6 63.3848 141.041C63.3848 141.482 63.7405 141.838 64.1814 141.838C64.6223 141.838 64.978 141.482 64.978 141.041Z"
              fill="#1A1A1A"></path>
        <path d="M71.2951 141.047C71.2951 140.646 70.9698 140.321 70.5685 140.321C70.1671 140.321 69.8418 140.646 69.8418 141.047C69.8418 141.449 70.1671 141.774 70.5685 141.774C70.9698 141.774 71.2951 141.449 71.2951 141.047Z"
              fill="#1A1A1A"></path>
        <path d="M25.7715 147.399C25.7715 147.439 25.8019 147.469 25.8414 147.469C25.881 147.469 25.9114 147.439 25.9114 147.399C25.9114 147.36 25.881 147.329 25.8414 147.329C25.8019 147.329 25.7715 147.36 25.7715 147.399Z"
              fill="#1A1A1A"></path>
        <path d="M32.4244 147.402C32.4244 147.296 32.3362 147.208 32.2298 147.208C32.1234 147.208 32.0352 147.296 32.0352 147.402C32.0352 147.509 32.1234 147.597 32.2298 147.597C32.3362 147.597 32.4244 147.509 32.4244 147.402Z"
              fill="#1A1A1A"></path>
        <path d="M38.9373 147.408C38.9373 147.232 38.7944 147.089 38.618 147.089C38.4417 147.089 38.2988 147.232 38.2988 147.408C38.2988 147.584 38.4417 147.727 38.618 147.727C38.7944 147.727 38.9373 147.584 38.9373 147.408Z"
              fill="#1A1A1A"></path>
        <path d="M45.4145 147.414C45.4145 147.189 45.2321 147.007 45.0071 147.007C44.7821 147.007 44.5996 147.189 44.5996 147.414C44.5996 147.639 44.7821 147.822 45.0071 147.822C45.2321 147.822 45.4145 147.639 45.4145 147.414Z"
              fill="#1A1A1A"></path>
        <path d="M51.8747 147.42C51.8747 147.156 51.6618 146.943 51.3973 146.943C51.1328 146.943 50.9199 147.156 50.9199 147.42C50.9199 147.685 51.1328 147.898 51.3973 147.898C51.6618 147.898 51.8747 147.685 51.8747 147.42Z"
              fill="#1A1A1A"></path>
        <path d="M58.2823 147.426C58.2823 147.153 58.0603 146.931 57.7866 146.931C57.513 146.931 57.291 147.153 57.291 147.426C57.291 147.7 57.513 147.922 57.7866 147.922C58.0603 147.922 58.2823 147.7 58.2823 147.426Z"
              fill="#1A1A1A"></path>
        <path d="M64.1746 147.91C64.4392 147.91 64.652 147.697 64.652 147.432C64.652 147.168 64.4392 146.955 64.1746 146.955C63.9101 146.955 63.6973 147.168 63.6973 147.432C63.6973 147.697 63.9101 147.91 64.1746 147.91Z"
              fill="#1A1A1A"></path>
        <path d="M70.9881 147.435C70.9881 147.201 70.7996 147.01 70.5624 147.01C70.3283 147.01 70.1367 147.198 70.1367 147.435C70.1367 147.67 70.3253 147.861 70.5624 147.861C70.7966 147.861 70.9881 147.673 70.9881 147.435Z"
              fill="#1A1A1A"></path>
        <path d="M32.207 153.791C32.207 153.791 32.2163 153.809 32.2257 153.809C32.235 153.809 32.2444 153.8 32.2444 153.791C32.2444 153.781 32.235 153.772 32.2257 153.772C32.2163 153.772 32.207 153.781 32.207 153.791Z"
              fill="#1A1A1A"></path>
        <path d="M38.5605 153.796C38.5605 153.827 38.5848 153.848 38.6122 153.848C38.6426 153.848 38.6639 153.824 38.6639 153.796C38.6639 153.766 38.6395 153.742 38.6122 153.742C38.5848 153.742 38.5605 153.766 38.5605 153.793V153.796Z"
              fill="#1A1A1A"></path>
        <path d="M44.8789 153.802C44.8789 153.872 44.9336 153.927 45.0035 153.927C45.0735 153.927 45.1282 153.872 45.1282 153.802C45.1282 153.732 45.0735 153.678 45.0035 153.678C44.9336 153.678 44.8789 153.732 44.8789 153.802Z"
              fill="#1A1A1A"></path>
        <path d="M51.2148 153.809C51.2148 153.906 51.2939 153.985 51.3912 153.985C51.4885 153.985 51.5675 153.906 51.5675 153.809C51.5675 153.711 51.4885 153.632 51.3912 153.632C51.2939 153.632 51.2148 153.711 51.2148 153.809Z"
              fill="#1A1A1A"></path>
        <path d="M57.5859 153.814C57.5859 153.921 57.674 154.009 57.7804 154.009C57.8869 154.009 57.975 153.921 57.975 153.814C57.975 153.708 57.8869 153.62 57.7804 153.62C57.674 153.62 57.5859 153.708 57.5859 153.814Z"
              fill="#1A1A1A"></path>
        <path d="M64.1685 153.997C64.2658 153.997 64.3449 153.918 64.3449 153.821C64.3449 153.724 64.2658 153.645 64.1685 153.645C64.0712 153.645 63.9922 153.724 63.9922 153.821C63.9922 153.918 64.0712 153.997 64.1685 153.997Z"
              fill="#1A1A1A"></path>
        <path d="M70.5563 153.699C70.4864 153.699 70.4316 153.753 70.4316 153.823C70.4316 153.893 70.4864 153.948 70.5563 153.948C70.6232 153.948 70.681 153.893 70.681 153.823C70.681 153.757 70.6262 153.699 70.5563 153.699Z"
              fill="#1A1A1A"></path>
        <path d="M83.4586 133.659C82.9022 133.659 82.4492 134.109 82.4492 134.669C82.4492 135.225 82.8992 135.678 83.4586 135.678C84.015 135.678 84.4681 135.228 84.4681 134.669C84.4681 134.112 84.0181 133.659 83.4586 133.659Z"
              fill="#1A1A1A"></path>
        <path d="M77.6646 141.053C77.6646 140.737 77.4213 140.479 77.1112 140.454C77.0625 140.442 77.0109 140.433 76.9561 140.433C76.6126 140.433 76.3359 140.71 76.3359 141.053C76.3359 141.397 76.6126 141.674 76.9561 141.674C77.0109 141.674 77.0595 141.668 77.1112 141.652C77.4213 141.628 77.6646 141.37 77.6646 141.053Z"
              fill="#1A1A1A"></path>
        <path d="M84.178 141.059C84.178 140.658 83.8527 140.333 83.4513 140.333C83.05 140.333 82.7246 140.658 82.7246 141.059C82.7246 141.461 83.05 141.786 83.4513 141.786C83.8527 141.786 84.178 141.461 84.178 141.059Z"
              fill="#1A1A1A"></path>
        <path d="M77.3774 147.442C77.3774 147.265 77.2345 147.122 77.0581 147.122C77.0247 147.11 76.9912 147.104 76.9547 147.104C76.7693 147.104 76.6172 147.253 76.6172 147.442C76.6172 147.627 76.7662 147.779 76.9547 147.779C76.9912 147.779 77.0247 147.773 77.0581 147.761C77.2345 147.761 77.3774 147.618 77.3774 147.442Z"
              fill="#1A1A1A"></path>
        <path d="M83.854 147.447C83.854 147.222 83.6715 147.04 83.4465 147.04C83.2215 147.04 83.0391 147.222 83.0391 147.447C83.0391 147.672 83.2215 147.855 83.4465 147.855C83.6715 147.855 83.854 147.672 83.854 147.447Z"
              fill="#1A1A1A"></path>
        <path d="M76.9999 153.83C76.9999 153.8 76.9756 153.778 76.9482 153.778C76.9178 153.778 76.8965 153.803 76.8965 153.83C76.8965 153.86 76.9208 153.885 76.9482 153.885C76.9786 153.885 76.9999 153.86 76.9999 153.833C76.9999 153.863 77.0242 153.885 77.0516 153.885C77.082 153.885 77.1063 153.86 77.1063 153.833C77.1063 153.803 77.082 153.781 77.0546 153.781C77.0272 153.781 77.0029 153.806 77.0029 153.833L76.9999 153.83Z"
              fill="#1A1A1A"></path>
        <path d="M83.3184 153.836C83.3184 153.906 83.3732 153.96 83.4431 153.96C83.513 153.96 83.5678 153.906 83.5678 153.836C83.5678 153.766 83.513 153.711 83.4431 153.711C83.3762 153.711 83.3184 153.766 83.3184 153.836Z"
              fill="#1A1A1A"></path>
        <path d="M38.7799 0.555533C38.7799 0.537289 38.7647 0.519043 38.7435 0.519043C38.7222 0.519043 38.707 0.534249 38.707 0.555533C38.707 0.576817 38.7222 0.592018 38.7435 0.592018C38.7647 0.592018 38.7799 0.576817 38.7799 0.555533Z"
              fill="#1A1A1A"></path>
        <path d="M45.2233 0.561323C45.2233 0.512674 45.1837 0.473145 45.1351 0.473145C45.0864 0.473145 45.0469 0.512674 45.0469 0.561323C45.0469 0.609972 45.0864 0.649496 45.1351 0.649496C45.1837 0.649496 45.2233 0.609972 45.2233 0.561323Z"
              fill="#1A1A1A"></path>
        <path d="M51.6628 0.567711C51.6628 0.488657 51.599 0.424805 51.5199 0.424805C51.4408 0.424805 51.377 0.488657 51.377 0.567711C51.377 0.646766 51.4408 0.710618 51.5199 0.710618C51.599 0.710618 51.6628 0.646766 51.6628 0.567711Z"
              fill="#1A1A1A"></path>
        <path d="M58.0701 0.573637C58.0701 0.485461 58.0002 0.415527 57.912 0.415527C57.8238 0.415527 57.7539 0.485461 57.7539 0.573637C57.7539 0.661814 57.8238 0.731748 57.912 0.731748C58.0002 0.731748 58.0701 0.661814 58.0701 0.573637Z"
              fill="#1A1A1A"></path>
        <path d="M64.442 0.5765C64.442 0.497446 64.3781 0.433594 64.2991 0.433594C64.22 0.433594 64.1562 0.497446 64.1562 0.5765C64.1562 0.655555 64.22 0.719407 64.2991 0.719407C64.3781 0.719407 64.442 0.655555 64.442 0.5765Z"
              fill="#1A1A1A"></path>
        <path d="M70.7949 0.582984C70.7949 0.525213 70.7462 0.476562 70.6884 0.476562C70.6307 0.476562 70.582 0.525213 70.582 0.582984C70.582 0.640754 70.6307 0.689406 70.6884 0.689406C70.7462 0.689406 70.7949 0.640754 70.7949 0.582984Z"
              fill="#1A1A1A"></path>
        <path d="M77.1307 0.588912C77.1307 0.558507 77.1064 0.53722 77.079 0.53418C77.0486 0.53418 77.0273 0.558504 77.0273 0.585869C77.0273 0.616274 77.0517 0.637562 77.079 0.637562C77.1094 0.637562 77.1307 0.613234 77.1338 0.585869L77.1307 0.588912Z"
              fill="#1A1A1A"></path>
        <path d="M26.0155 6.93461C26.0155 6.90421 25.9912 6.87988 25.9638 6.87988C25.9365 6.87988 25.9121 6.9042 25.9121 6.93157C25.9121 6.95893 25.9365 6.98326 25.9638 6.98326C25.9942 6.98326 26.0186 6.95893 26.0186 6.93157L26.0155 6.93461Z"
              fill="#1A1A1A"></path>
        <path d="M32.5096 6.94082C32.5096 6.85264 32.4397 6.78271 32.3515 6.78271C32.2633 6.78271 32.1934 6.85264 32.1934 6.94082C32.1934 7.029 32.2633 7.09894 32.3515 7.09894C32.4397 7.09894 32.5096 7.029 32.5096 6.94082Z"
              fill="#1A1A1A"></path>
        <path d="M38.4355 6.94359C38.4355 7.11082 38.5693 7.2446 38.7366 7.2446C38.9038 7.2446 39.0376 7.11082 39.0376 6.94359C39.0376 6.77636 38.9038 6.64258 38.7366 6.64258C38.5693 6.64258 38.4355 6.77636 38.4355 6.94359Z"
              fill="#1A1A1A"></path>
        <path d="M44.7363 6.94974C44.7363 7.16562 44.9096 7.33893 45.1255 7.33893C45.3414 7.33893 45.5147 7.16562 45.5147 6.94974C45.5147 6.73386 45.3414 6.56055 45.1255 6.56055C44.9096 6.56055 44.7363 6.73386 44.7363 6.94974Z"
              fill="#1A1A1A"></path>
        <path d="M51.0723 6.95564C51.0723 7.19888 51.2699 7.39956 51.5162 7.39956C51.7594 7.39956 51.9601 7.20192 51.9601 6.95564C51.9601 6.71239 51.7625 6.51172 51.5162 6.51172C51.273 6.51172 51.0723 6.70935 51.0723 6.95564Z"
              fill="#1A1A1A"></path>
        <path d="M57.4453 6.96206C57.4453 7.21746 57.6521 7.42423 57.9044 7.42423C58.1598 7.42423 58.3666 7.21747 58.3666 6.9651C58.3666 6.71273 58.1598 6.50293 57.9075 6.50293C57.6521 6.50293 57.4453 6.70969 57.4453 6.96206Z"
              fill="#1A1A1A"></path>
        <path d="M63.8516 6.96491C63.8516 7.20816 64.0492 7.40883 64.2955 7.40883C64.5388 7.40883 64.7394 7.2112 64.7394 6.96491C64.7394 6.72167 64.5418 6.521 64.2955 6.521C64.0523 6.521 63.8516 6.71863 63.8516 6.96491Z"
              fill="#1A1A1A"></path>
        <path d="M70.293 6.97073C70.293 7.18661 70.4663 7.35992 70.6822 7.35992C70.8981 7.35992 71.0714 7.18661 71.0714 6.97073C71.0714 6.75485 70.8981 6.58154 70.6822 6.58154C70.4663 6.58154 70.293 6.75485 70.293 6.97073Z"
              fill="#1A1A1A"></path>
        <path d="M76.7695 6.97729C76.7695 7.14452 76.9033 7.2783 77.0705 7.2783C77.2377 7.2783 77.3715 7.14452 77.3715 6.97729C77.3715 6.81006 77.2377 6.67627 77.0705 6.67627C76.9033 6.67627 76.7695 6.81006 76.7695 6.97729Z"
              fill="#1A1A1A"></path>
        <path d="M83.6379 6.983C83.6379 6.8857 83.5589 6.80664 83.4616 6.80664C83.3643 6.80664 83.2852 6.8857 83.2852 6.983C83.2852 7.0803 83.3643 7.15935 83.4616 7.15935C83.5589 7.15935 83.6379 7.0803 83.6379 6.983Z"
              fill="#1A1A1A"></path>
        <path d="M89.9013 6.98918C89.9013 6.95878 89.877 6.9375 89.8496 6.9375C89.8192 6.9375 89.7979 6.96182 89.7949 6.98918C89.7949 7.01959 89.8192 7.04088 89.8466 7.04088C89.877 7.04088 89.8983 7.01655 89.8983 6.98918H89.9013Z"
              fill="#1A1A1A"></path>
        <path d="M19.6548 13.3167C19.6548 13.268 19.6153 13.2285 19.5666 13.2285C19.518 13.2285 19.4785 13.268 19.4785 13.3167C19.4785 13.3653 19.518 13.4049 19.5666 13.4049C19.6153 13.4049 19.6548 13.3653 19.6548 13.3167Z"
              fill="#1A1A1A"></path>
        <path d="M25.6895 13.3226C25.6895 13.4686 25.8081 13.5872 25.954 13.5872C26.1 13.5872 26.2186 13.4686 26.2186 13.3226C26.2186 13.1767 26.1 13.0581 25.954 13.0581C25.8081 13.0581 25.6895 13.1767 25.6895 13.3226Z"
              fill="#1A1A1A"></path>
        <path d="M13.2603 19.7019C13.2603 19.6533 13.2208 19.6138 13.1721 19.6138C13.1235 19.6138 13.084 19.6533 13.084 19.7019C13.084 19.7506 13.1235 19.7901 13.1721 19.7901C13.2208 19.7901 13.2603 19.7506 13.2603 19.7019Z"
              fill="#1A1A1A"></path>
        <path d="M19.2598 19.7048C19.2598 19.8721 19.3936 20.0058 19.5608 20.0058C19.728 20.0058 19.8618 19.8721 19.8618 19.7048C19.8618 19.5376 19.728 19.4038 19.5608 19.4038C19.3936 19.4038 19.2598 19.5376 19.2598 19.7048Z"
              fill="#1A1A1A"></path>
        <path d="M6.83298 26.084C6.83298 26.0536 6.80866 26.0323 6.7813 26.0293C6.75089 26.0293 6.72656 26.0536 6.72656 26.081C6.72656 26.1084 6.75089 26.1327 6.77825 26.1357C6.80866 26.1357 6.82995 26.1114 6.82995 26.084H6.83298Z"
              fill="#1A1A1A"></path>
        <path d="M12.9023 26.0902C12.9023 26.2362 13.0209 26.3547 13.1668 26.3547C13.3128 26.3547 13.4313 26.2362 13.4313 26.0902C13.4313 25.9443 13.3128 25.8257 13.1668 25.8257C13.0209 25.8257 12.9023 25.9443 12.9023 26.0902Z"
              fill="#1A1A1A"></path>
        <path d="M6.61328 32.4721C6.61328 32.5602 6.68322 32.6302 6.7714 32.6302C6.85957 32.6302 6.9295 32.5602 6.9295 32.4721C6.9295 32.3839 6.85957 32.314 6.7714 32.314C6.68322 32.314 6.61328 32.3839 6.61328 32.4721Z"
              fill="#1A1A1A"></path>
        <path d="M12.7188 32.4781C12.7188 32.7214 12.9164 32.922 13.1627 32.922C13.406 32.922 13.6065 32.7244 13.6065 32.4781C13.6065 32.2349 13.409 32.0342 13.1627 32.0342C12.9195 32.0342 12.7188 32.2318 12.7188 32.4781Z"
              fill="#1A1A1A"></path>
        <path d="M0.414776 38.8573C0.414776 38.839 0.399575 38.8208 0.378291 38.8208C0.357007 38.8208 0.341797 38.836 0.341797 38.8573C0.341797 38.8786 0.357007 38.8938 0.378291 38.8938C0.399575 38.8938 0.414776 38.8786 0.414776 38.8573Z"
              fill="#1A1A1A"></path>
        <path d="M6.46875 38.8606C6.46875 39.0278 6.60253 39.1616 6.76976 39.1616C6.93699 39.1616 7.07077 39.0278 7.07077 38.8606C7.07077 38.6934 6.93699 38.5596 6.76976 38.5596C6.60253 38.5596 6.46875 38.6934 6.46875 38.8606Z"
              fill="#1A1A1A"></path>
        <path d="M13.158 39.4503C13.4803 39.4503 13.7417 39.1888 13.7417 38.8665C13.7417 38.5442 13.4803 38.2827 13.158 38.2827C12.8357 38.2827 12.5742 38.5442 12.5742 38.8665C12.5742 39.1888 12.8357 39.4503 13.158 39.4503Z"
              fill="#1A1A1A"></path>
        <path d="M0.287109 45.2454C0.287109 45.2941 0.326639 45.3336 0.375288 45.3336C0.423937 45.3336 0.463466 45.2941 0.463466 45.2454C0.463466 45.1968 0.423937 45.1572 0.375288 45.1572C0.326639 45.1572 0.287109 45.1968 0.287109 45.2454Z"
              fill="#1A1A1A"></path>
        <path d="M6.76224 45.6407C6.97812 45.6407 7.15143 45.4674 7.15143 45.2515C7.15143 45.0356 6.97812 44.8623 6.76224 44.8623C6.54636 44.8623 6.37305 45.0356 6.37305 45.2515C6.37305 45.4674 6.54636 45.6407 6.76224 45.6407Z"
              fill="#1A1A1A"></path>
        <path d="M13.1511 45.9478C13.5342 45.9478 13.8413 45.6377 13.8413 45.2576C13.8413 44.8775 13.5312 44.5674 13.1511 44.5674C12.768 44.5674 12.4609 44.8775 12.4609 45.2576C12.4609 45.6377 12.771 45.9478 13.1511 45.9478Z"
              fill="#1A1A1A"></path>
        <path d="M0.226562 51.6336C0.226562 51.7127 0.290415 51.7765 0.369469 51.7765C0.448524 51.7765 0.512376 51.7127 0.512376 51.6336C0.512376 51.5546 0.448524 51.4907 0.369469 51.4907C0.290415 51.4907 0.226562 51.5546 0.226562 51.6336Z"
              fill="#1A1A1A"></path>
        <path d="M6.75641 52.0807C6.99966 52.0807 7.20034 51.8831 7.20034 51.6368C7.20034 51.3935 7.0027 51.1929 6.75641 51.1929C6.51317 51.1929 6.3125 51.3905 6.3125 51.6368C6.3125 51.88 6.51013 52.0807 6.75641 52.0807Z"
              fill="#1A1A1A"></path>
        <path d="M0.363183 57.8638C0.275007 57.8638 0.205078 57.9337 0.205078 58.0219C0.205078 58.1101 0.275007 58.18 0.363183 58.18C0.451359 58.18 0.521292 58.1101 0.524332 58.0219C0.524332 57.9337 0.454403 57.8638 0.366227 57.8638H0.363183Z"
              fill="#1A1A1A"></path>
        <path d="M6.75014 58.4872C7.00555 58.4872 7.2123 58.2805 7.2123 58.0281C7.2123 57.7727 7.00555 57.5659 6.75319 57.5659C6.49778 57.5659 6.29102 57.7727 6.29102 58.025C6.29102 58.2805 6.49778 58.4872 6.75014 58.4872Z"
              fill="#1A1A1A"></path>
        <path d="M0.355797 64.2705C0.276743 64.2705 0.212891 64.3344 0.212891 64.4134C0.212891 64.4925 0.276743 64.5563 0.355797 64.5563C0.434852 64.5563 0.498704 64.4925 0.498704 64.4134C0.498704 64.3344 0.434852 64.2705 0.355797 64.2705Z"
              fill="#1A1A1A"></path>
        <path d="M6.74665 63.9722C6.5034 63.9722 6.30273 64.1698 6.30273 64.4161C6.30273 64.6593 6.50036 64.86 6.74665 64.86C6.98989 64.86 7.19058 64.6624 7.19058 64.4161C7.19058 64.1728 6.99293 63.9722 6.74665 63.9722Z"
              fill="#1A1A1A"></path>
        <path d="M0.352516 70.6919C0.294745 70.6919 0.246094 70.7405 0.246094 70.7983C0.246094 70.8561 0.294745 70.9047 0.352516 70.9047C0.410286 70.9047 0.458937 70.8561 0.458937 70.7983C0.458937 70.7405 0.410286 70.6919 0.352516 70.6919Z"
              fill="#1A1A1A"></path>
        <path d="M6.74075 70.415C6.52487 70.415 6.35156 70.5884 6.35156 70.8042C6.35156 71.0201 6.52487 71.1934 6.74075 71.1934C6.95663 71.1934 7.12994 71.0201 7.12994 70.8042C7.12994 70.5884 6.95663 70.415 6.74075 70.415Z"
              fill="#1A1A1A"></path>
        <path d="M0.292969 77.1894C0.292969 77.2198 0.317288 77.2411 0.344653 77.2441C0.375058 77.2441 0.399381 77.2198 0.399381 77.1924C0.399381 77.162 0.375061 77.1407 0.347696 77.1377C0.317291 77.1377 0.292969 77.162 0.292969 77.1894Z"
              fill="#1A1A1A"></path>
        <path d="M6.73461 77.4935C6.90184 77.4935 7.03562 77.3598 7.03562 77.1925C7.03562 77.1773 7.03562 77.1621 7.03258 77.1469C7.03258 77.1317 7.03562 77.1165 7.03562 77.1013C7.03562 76.9341 6.90184 76.8003 6.73461 76.8003C6.56738 76.8003 6.43359 76.9341 6.43359 77.1013C6.43359 77.1165 6.43359 77.1317 6.43663 77.1469C6.43663 77.1621 6.43359 77.1773 6.43359 77.1925C6.43359 77.3598 6.56738 77.4935 6.73461 77.4935Z"
              fill="#1A1A1A"></path>
        <path d="M177.794 41.8373C177.338 38.1917 176.763 34.5582 175.906 31.0281C175.69 30.1464 175.456 29.2738 175.191 28.4163C174.93 27.5558 174.641 26.7136 174.31 25.8987C174.23 25.692 174.139 25.4974 174.057 25.2937C173.966 25.0991 173.881 24.8984 173.784 24.7068C173.598 24.3207 173.397 23.9467 173.185 23.597C172.972 23.2474 172.741 22.919 172.5 22.6332C172.44 22.5663 172.379 22.4903 172.318 22.4295L172.224 22.3352L172.178 22.2866L172.117 22.2318L171.628 21.7788C171.546 21.7028 171.467 21.6268 171.385 21.5538L171.135 21.3379C170.968 21.195 170.804 21.046 170.634 20.9092L170.123 20.4987C170.038 20.4288 169.952 20.3649 169.864 20.3011L169.603 20.1095C168.9 19.6017 168.177 19.1517 167.417 18.7747C166.656 18.3946 165.857 18.0845 165.008 17.8017C164.16 17.5159 163.26 17.2484 162.348 16.9321C161.649 16.7041 160.922 16.4943 160.168 16.3271L159.605 16.1994C159.417 16.1568 159.225 16.1234 159.034 16.0838C158.651 16.0078 158.271 15.9288 157.884 15.8679C157.498 15.8041 157.115 15.7281 156.723 15.6733L155.555 15.497C154.774 15.3906 153.99 15.2811 153.202 15.1929C152.418 15.0926 151.627 15.0166 150.836 14.9284C150.046 14.8524 149.255 14.7703 148.462 14.7034L147.273 14.6L146.081 14.5058C145.287 14.4419 144.494 14.3872 143.697 14.3325C140.517 14.1166 137.327 13.9554 134.138 13.8247C130.945 13.694 127.753 13.5967 124.557 13.5206C115.153 13.3048 105.739 13.2652 96.3256 13.3412C96.2617 13.3412 96.1949 13.3412 96.131 13.3412C94.1273 13.3564 92.1235 13.3808 90.1198 13.4051C89.9343 13.4051 89.7457 13.4112 89.5602 13.4112C88.4322 13.4264 87.3043 13.4416 86.1762 13.4598C85.413 13.472 84.6499 13.4902 83.8897 13.5024C83.5978 13.5085 83.309 13.5146 83.0171 13.5176C81.2049 13.5541 79.3897 13.5906 77.5775 13.6362C77.237 13.6453 76.8995 13.6514 76.5589 13.6605C74.7711 13.7031 72.9862 13.7548 71.1983 13.8065C70.8578 13.8156 70.5173 13.8277 70.1768 13.8369C69.1126 13.8673 68.0515 13.9007 66.9873 13.9341C66.2119 13.9585 65.4366 13.9858 64.6612 14.0132C64.4271 14.0223 64.19 14.0315 63.9558 14.0375C58.5741 14.2291 53.1923 14.4571 47.8287 14.7764C46.2355 14.8706 44.6453 14.9771 43.0611 15.0987C42.2676 15.1595 41.4801 15.2233 40.6926 15.2963C39.9081 15.3693 39.1236 15.4483 38.3665 15.5487C38.1811 15.576 37.9834 15.5973 37.8101 15.6277C37.6338 15.6581 37.4392 15.6825 37.2963 15.719L37.1807 15.7433L37.1229 15.7554C37.1047 15.7585 37.0834 15.7646 37.0591 15.7706L36.7763 15.8406C36.5878 15.8862 36.3993 15.9348 36.2138 15.9835C35.4658 16.1781 34.7331 16.3909 34.0064 16.6281C33.2827 16.8683 32.5712 17.1298 31.8689 17.4186C31.1726 17.7136 30.4793 18.0207 29.8104 18.3703C28.4665 19.0575 27.1803 19.848 25.9854 20.7572L25.5415 21.1038L25.3195 21.2771C25.2496 21.3318 25.2009 21.3805 25.1401 21.4291C24.906 21.6328 24.678 21.8609 24.459 22.1163C24.0182 22.618 23.6168 23.2048 23.2459 23.8251C22.504 25.0687 21.8928 26.4612 21.3637 27.8933C20.8712 29.2281 20.4485 30.6086 20.0746 32.0072C20.0472 32.1106 20.0168 32.217 19.9894 32.3204C19.9164 32.5971 19.8465 32.8768 19.7796 33.1535C19.0955 35.9052 18.5786 38.7177 18.156 41.5515C17.6938 44.6711 17.3533 47.8211 17.1039 50.9772C16.6022 57.2925 16.4472 63.6503 16.581 69.9929C16.7178 76.3355 17.1465 82.675 17.9431 88.9477C18.2168 91.0913 18.5391 93.2288 18.9191 95.3481C19.0377 96.02 19.1654 96.6889 19.2962 97.3579C19.357 97.6649 19.4178 97.9721 19.4816 98.2761C19.7431 99.5319 20.0259 100.778 20.336 102.019C20.4029 102.293 20.4729 102.563 20.5428 102.837C20.9411 104.354 21.382 105.85 21.8806 107.319C22.3793 108.781 22.9357 110.21 23.5742 111.582C24.0546 112.612 24.5837 113.613 25.1736 114.54C25.3651 114.841 25.5628 115.136 25.7695 115.422C26.0128 115.762 26.2712 116.085 26.5357 116.395C26.7212 116.614 26.9128 116.823 27.1074 117.024C27.3415 117.267 27.5878 117.486 27.8371 117.696L28.0256 117.845L28.1199 117.921L28.2324 118.003L28.6854 118.329C29.8955 119.195 31.1878 119.946 32.5317 120.609C32.6989 120.694 32.8692 120.773 33.0395 120.852C33.2097 120.931 33.38 121.01 33.5503 121.086C33.8969 121.235 34.2405 121.387 34.5902 121.524C35.2895 121.804 36.001 122.065 36.7246 122.303C36.9435 122.376 37.1655 122.445 37.3875 122.515C37.5334 122.561 37.6763 122.607 37.8223 122.649L38.3848 122.819C38.5733 122.874 38.774 122.938 38.9534 122.984L39.3425 123.087L40.0571 123.279L40.6105 123.428C40.7959 123.476 40.9875 123.513 41.173 123.558C44.177 124.255 47.2936 124.738 50.4223 125.13C53.5571 125.507 56.7163 125.793 59.8845 126.027L62.2623 126.185L62.8582 126.225L63.4541 126.258L64.646 126.325C66.2332 126.423 67.8264 126.486 69.4166 126.559C75.7835 126.824 82.1656 126.93 88.5508 126.964H89.3931L89.7489 126.97L90.3204 128.01C90.5332 128.396 90.7339 128.788 90.9194 129.189C91.2022 129.794 91.4546 130.415 91.6735 131.05C92.0414 132.105 92.2969 133.203 92.4641 134.31C92.7833 136.532 92.6678 138.798 92.1995 140.944C92.084 141.482 91.9472 142.014 91.7921 142.534C91.6371 143.057 91.4637 143.574 91.2722 144.082C91.0806 144.59 90.8739 145.088 90.6519 145.581L90.4816 145.949C90.4725 145.97 90.4756 145.97 90.4664 145.982C90.4664 145.992 90.4664 145.998 90.4604 146.004C90.4543 146.028 90.4512 146.034 90.4543 146.037C90.4543 146.043 90.4543 146.049 90.4604 146.065C90.4664 146.08 90.4786 146.104 90.4999 146.125C90.5425 146.171 90.6002 146.198 90.6245 146.198C90.6367 146.198 90.6457 146.198 90.6609 146.198C90.664 146.198 90.6702 146.198 90.6762 146.195C90.6823 146.195 90.6884 146.195 90.6945 146.189C90.7006 146.189 90.7096 146.186 90.7188 146.177C90.7248 146.177 90.7279 146.171 90.734 146.171H90.737L90.7552 146.159L90.7918 146.137L91.3817 145.782C91.5762 145.66 91.7769 145.554 91.9654 145.417C93.51 144.41 94.9726 143.231 96.3408 141.938C96.3682 141.914 96.3955 141.887 96.4229 141.859C96.6236 141.671 96.8212 141.476 97.0158 141.282C98.1317 140.172 99.1836 138.989 100.172 137.752C100.759 137.013 101.321 136.25 101.859 135.471C102.267 134.881 102.662 134.279 103.045 133.668C103.173 133.464 103.297 133.261 103.422 133.057C104.41 131.427 105.301 129.737 106.092 127.998L106.596 126.885L107.797 126.86C115.204 126.711 122.611 126.474 130.015 126.14C133.715 125.973 137.415 125.784 141.11 125.562C144.804 125.337 148.498 125.091 152.174 124.775C154.011 124.616 155.847 124.446 157.656 124.227C158.109 124.176 158.556 124.115 159 124.054L159.66 123.957L159.979 123.902C160.086 123.884 160.195 123.865 160.293 123.844L160.594 123.783L160.846 123.723L160.91 123.707L160.986 123.683L161.141 123.637C161.244 123.607 161.348 123.577 161.451 123.543C161.655 123.476 161.862 123.412 162.062 123.339C162.266 123.269 162.464 123.193 162.664 123.117C163.795 122.683 164.884 122.129 165.93 121.488C166.064 121.406 166.2 121.32 166.334 121.235C166.623 121.05 166.912 120.858 167.195 120.658C167.909 120.156 168.605 119.621 169.274 119.046L169.527 118.833L169.776 118.611L170.269 118.17C170.533 117.927 170.792 117.641 171.038 117.331C171.284 117.024 171.518 116.69 171.737 116.337C171.962 115.987 172.169 115.616 172.37 115.239C172.768 114.479 173.127 113.683 173.452 112.862C174.103 111.217 174.641 109.496 175.106 107.744C175.574 105.993 175.97 104.214 176.316 102.42C176.666 100.626 176.964 98.8173 177.232 96.9991C177.761 93.3656 178.153 89.7017 178.448 86.0287C178.743 82.3558 178.943 78.6676 179.062 74.9794C179.104 73.6355 179.135 72.2946 179.156 70.9506C179.156 70.8868 179.156 70.8229 179.156 70.7591C179.244 64.7844 179.129 58.8006 178.773 52.8411C178.551 49.159 178.241 45.4829 177.791 41.8343L177.794 41.8373Z"
              fill="white"></path>
        <path d="M110.041 134.693C110.041 134.124 109.582 133.665 109.014 133.665C108.445 133.665 107.986 134.124 107.986 134.693C107.986 135.261 108.445 135.72 109.014 135.72C109.582 135.72 110.041 135.261 110.041 134.693Z"
              fill="#1A1A1A"></path>
        <path d="M109.734 141.081C109.734 140.679 109.409 140.354 109.008 140.354C108.606 140.354 108.281 140.679 108.281 141.081C108.281 141.482 108.606 141.807 109.008 141.807C109.409 141.807 109.734 141.482 109.734 141.081Z"
              fill="#1A1A1A"></path>
        <path d="M103.092 147.463C103.092 147.198 102.879 146.985 102.614 146.985C102.35 146.985 102.137 147.198 102.137 147.463C102.137 147.727 102.35 147.94 102.614 147.94C102.879 147.94 103.092 147.727 103.092 147.463Z"
              fill="#1A1A1A"></path>
        <path d="M109.427 147.469C109.427 147.235 109.239 147.043 109.002 147.043C108.767 147.043 108.576 147.232 108.576 147.469C108.576 147.703 108.764 147.895 109.002 147.895C109.236 147.895 109.427 147.706 109.427 147.469Z"
              fill="#1A1A1A"></path>
        <path d="M89.8306 153.663C89.7333 153.663 89.6543 153.742 89.6543 153.839C89.6543 153.936 89.7333 154.015 89.8306 154.015C89.9279 154.015 90.007 153.936 90.007 153.839C90.007 153.742 89.9279 153.663 89.8306 153.663Z"
              fill="#1A1A1A"></path>
        <path d="M96.4126 153.845C96.4126 153.739 96.3244 153.65 96.218 153.65C96.1116 153.65 96.0234 153.739 96.0234 153.845C96.0234 153.951 96.1116 154.04 96.218 154.04C96.3244 154.04 96.4126 153.951 96.4126 153.845Z"
              fill="#1A1A1A"></path>
        <path d="M102.432 153.851C102.432 153.948 102.511 154.028 102.608 154.028C102.706 154.028 102.785 153.948 102.785 153.851C102.785 153.754 102.706 153.675 102.608 153.675C102.511 153.675 102.432 153.754 102.432 153.851Z"
              fill="#1A1A1A"></path>
        <path d="M108.873 153.857C108.873 153.927 108.928 153.982 108.997 153.982C109.067 153.982 109.122 153.927 109.122 153.857C109.122 153.787 109.067 153.732 108.997 153.732C108.928 153.732 108.873 153.787 108.873 153.857Z"
              fill="#1A1A1A"></path>
        <path d="M185.733 70.8688C185.733 70.8688 185.723 70.8501 185.714 70.8501C185.705 70.8501 185.695 70.8594 185.695 70.8688C185.695 70.8781 185.705 70.8875 185.714 70.8875C185.723 70.8875 185.733 70.8781 185.733 70.8688Z"
              fill="#1A1A1A"></path>
        <path d="M185.656 77.2563C185.656 77.2867 185.68 77.308 185.708 77.308C185.735 77.308 185.762 77.2836 185.762 77.2563C185.762 77.2289 185.738 77.2046 185.711 77.2046C185.68 77.2046 185.659 77.2289 185.659 77.2563H185.656Z"
              fill="#1A1A1A"></path>
        <path d="M185.703 83.5229C185.633 83.5229 185.578 83.5777 185.578 83.6476C185.578 83.7176 185.633 83.7723 185.703 83.7723C185.773 83.7723 185.827 83.7176 185.827 83.6476C185.827 83.5777 185.773 83.5229 185.703 83.5229Z"
              fill="#1A1A1A"></path>
        <path d="M185.7 89.8564C185.602 89.8564 185.523 89.9355 185.523 90.0328C185.523 90.1301 185.602 90.2091 185.7 90.2091C185.797 90.2091 185.876 90.1301 185.876 90.0328C185.876 89.9355 185.797 89.8564 185.7 89.8564Z"
              fill="#1A1A1A"></path>
        <path d="M185.693 96.2295C185.586 96.2295 185.498 96.3177 185.498 96.4241C185.498 96.5305 185.586 96.6187 185.693 96.6187C185.799 96.6187 185.887 96.5305 185.887 96.4241C185.887 96.3177 185.799 96.2295 185.693 96.2295Z"
              fill="#1A1A1A"></path>
        <path d="M185.865 102.812C185.865 102.715 185.786 102.636 185.688 102.636C185.591 102.636 185.512 102.715 185.512 102.812C185.512 102.909 185.591 102.988 185.688 102.988C185.786 102.988 185.865 102.909 185.865 102.812Z"
              fill="#1A1A1A"></path>
        <path d="M179.293 108.772C179.059 108.772 178.867 108.96 178.867 109.198C178.867 109.432 179.056 109.623 179.293 109.623C179.527 109.623 179.719 109.435 179.719 109.198C179.719 108.964 179.53 108.772 179.293 108.772Z"
              fill="#1A1A1A"></path>
        <path d="M185.806 109.201C185.806 109.131 185.751 109.076 185.681 109.076C185.611 109.076 185.557 109.131 185.557 109.201C185.557 109.271 185.611 109.325 185.681 109.325C185.751 109.325 185.806 109.271 185.806 109.201Z"
              fill="#1A1A1A"></path>
        <path d="M179.624 115.586C179.624 115.4 179.475 115.248 179.287 115.248C179.101 115.248 178.949 115.397 178.949 115.586C178.949 115.771 179.098 115.923 179.287 115.923C179.475 115.923 179.624 115.774 179.624 115.586Z"
              fill="#1A1A1A"></path>
        <path d="M185.73 115.589C185.73 115.559 185.706 115.534 185.678 115.534C185.651 115.534 185.627 115.558 185.627 115.586C185.627 115.616 185.651 115.638 185.678 115.638C185.706 115.638 185.733 115.613 185.733 115.586L185.73 115.589Z"
              fill="#1A1A1A"></path>
        <path d="M173.387 121.968C173.387 121.694 173.165 121.472 172.892 121.472C172.618 121.472 172.396 121.694 172.396 121.968C172.396 122.241 172.618 122.463 172.892 122.463C173.165 122.463 173.387 122.241 173.387 121.968Z"
              fill="#1A1A1A"></path>
        <path d="M179.494 121.974C179.494 121.855 179.399 121.761 179.281 121.761C179.162 121.761 179.068 121.855 179.068 121.974C179.068 122.092 179.162 122.186 179.281 122.186C179.399 122.186 179.494 122.092 179.494 121.974Z"
              fill="#1A1A1A"></path>
        <path d="M185.654 121.978C185.654 121.978 185.663 121.996 185.673 121.996C185.682 121.996 185.691 121.987 185.691 121.978C185.691 121.968 185.682 121.959 185.673 121.959C185.663 121.959 185.654 121.968 185.654 121.978Z"
              fill="#1A1A1A"></path>
        <path d="M160.907 128.347C160.907 127.906 160.551 127.55 160.11 127.55C159.669 127.55 159.314 127.906 159.314 128.347C159.314 128.788 159.669 129.144 160.11 129.144C160.551 129.144 160.907 128.788 160.907 128.347Z"
              fill="#1A1A1A"></path>
        <path d="M167.068 128.35C167.068 128.037 166.816 127.781 166.502 127.781C166.189 127.781 165.934 128.034 165.934 128.347C165.934 128.66 166.186 128.915 166.499 128.915C166.813 128.915 167.068 128.663 167.068 128.35Z"
              fill="#1A1A1A"></path>
        <path d="M173.205 128.356C173.205 128.18 173.062 128.037 172.886 128.037C172.709 128.037 172.566 128.18 172.566 128.356C172.566 128.532 172.709 128.675 172.886 128.675C173.062 128.675 173.205 128.532 173.205 128.356Z"
              fill="#1A1A1A"></path>
        <path d="M179.205 128.362C179.205 128.402 179.235 128.432 179.275 128.432C179.314 128.432 179.345 128.402 179.345 128.362C179.345 128.323 179.314 128.292 179.275 128.292C179.235 128.292 179.205 128.323 179.205 128.362Z"
              fill="#1A1A1A"></path>
        <path d="M115.383 133.686C114.826 133.686 114.373 134.136 114.373 134.695C114.373 135.252 114.823 135.705 115.383 135.705C115.939 135.705 116.392 135.255 116.392 134.695C116.392 134.139 115.942 133.686 115.383 133.686Z"
              fill="#1A1A1A"></path>
        <path d="M122.873 134.702C122.873 134.094 122.383 133.604 121.775 133.601C121.167 133.598 120.677 134.091 120.674 134.699C120.674 135.304 121.164 135.796 121.772 135.799C122.38 135.799 122.869 135.31 122.873 134.702Z"
              fill="#1A1A1A"></path>
        <path d="M128.163 133.592C127.546 133.592 127.047 134.09 127.047 134.708C127.047 135.325 127.546 135.824 128.163 135.824C128.78 135.824 129.279 135.325 129.279 134.708C129.279 134.09 128.78 133.592 128.163 133.592Z"
              fill="#1A1A1A"></path>
        <path d="M134.551 133.613C133.943 133.613 133.454 134.103 133.451 134.711C133.451 135.319 133.94 135.809 134.548 135.812C135.156 135.812 135.646 135.322 135.649 134.714C135.652 134.106 135.159 133.616 134.551 133.613Z"
              fill="#1A1A1A"></path>
        <path d="M141.967 134.72C141.967 134.151 141.508 133.692 140.94 133.692C140.371 133.692 139.912 134.151 139.912 134.72C139.912 135.288 140.371 135.747 140.94 135.747C141.508 135.747 141.967 135.288 141.967 134.72Z"
              fill="#1A1A1A"></path>
        <path d="M148.232 134.723C148.232 134.224 147.827 133.82 147.329 133.82C146.83 133.82 146.426 134.224 146.426 134.723C146.426 135.222 146.83 135.626 147.329 135.626C147.827 135.626 148.232 135.222 148.232 134.723Z"
              fill="#1A1A1A"></path>
        <path d="M154.461 134.729C154.461 134.318 154.129 133.984 153.716 133.984C153.305 133.984 152.971 134.315 152.971 134.729C152.971 135.139 153.302 135.474 153.716 135.474C154.126 135.474 154.461 135.142 154.461 134.729Z"
              fill="#1A1A1A"></path>
        <path d="M160.673 134.735C160.673 134.422 160.42 134.17 160.107 134.167C159.794 134.167 159.539 134.419 159.539 134.732C159.539 135.045 159.791 135.301 160.104 135.301C160.417 135.301 160.673 135.048 160.673 134.735Z"
              fill="#1A1A1A"></path>
        <path d="M166.849 134.741C166.849 134.546 166.691 134.385 166.496 134.385C166.302 134.385 166.141 134.543 166.141 134.738C166.141 134.933 166.299 135.094 166.493 135.094C166.688 135.094 166.849 134.936 166.849 134.741Z"
              fill="#1A1A1A"></path>
        <path d="M173.005 134.744C173.005 134.674 172.951 134.62 172.881 134.62C172.811 134.62 172.756 134.674 172.756 134.744C172.756 134.814 172.811 134.869 172.881 134.869C172.951 134.869 173.005 134.814 173.005 134.744Z"
              fill="#1A1A1A"></path>
        <path d="M116.103 141.087C116.103 140.686 115.778 140.36 115.377 140.36C114.975 140.36 114.65 140.686 114.65 141.087C114.65 141.488 114.975 141.814 115.377 141.814C115.778 141.814 116.103 141.488 116.103 141.087Z"
              fill="#1A1A1A"></path>
        <path d="M122.546 141.09C122.546 140.658 122.197 140.311 121.768 140.308C121.336 140.308 120.989 140.658 120.986 141.086C120.986 141.518 121.336 141.865 121.765 141.868C122.194 141.871 122.543 141.518 122.546 141.09Z"
              fill="#1A1A1A"></path>
        <path d="M128.972 141.096C128.972 140.646 128.607 140.281 128.157 140.281C127.707 140.281 127.342 140.646 127.342 141.096C127.342 141.546 127.707 141.911 128.157 141.911C128.607 141.911 128.972 141.546 128.972 141.096Z"
              fill="#1A1A1A"></path>
        <path d="M135.341 141.102C135.341 140.661 134.985 140.305 134.544 140.305C134.103 140.305 133.748 140.661 133.748 141.102C133.748 141.543 134.103 141.898 134.544 141.898C134.985 141.898 135.341 141.543 135.341 141.102Z"
              fill="#1A1A1A"></path>
        <path d="M141.66 141.108C141.66 140.707 141.335 140.381 140.933 140.381C140.532 140.381 140.207 140.707 140.207 141.108C140.207 141.509 140.532 141.835 140.933 141.835C141.335 141.835 141.66 141.509 141.66 141.108Z"
              fill="#1A1A1A"></path>
        <path d="M147.942 141.111C147.942 140.768 147.665 140.491 147.322 140.491C146.978 140.491 146.701 140.768 146.701 141.111C146.701 141.455 146.978 141.732 147.322 141.732C147.665 141.732 147.942 141.455 147.942 141.111Z"
              fill="#1A1A1A"></path>
        <path d="M154.208 141.117C154.208 140.844 153.987 140.622 153.713 140.622C153.439 140.622 153.217 140.844 153.217 141.117C153.217 141.391 153.439 141.613 153.713 141.613C153.987 141.613 154.208 141.391 154.208 141.117Z"
              fill="#1A1A1A"></path>
        <path d="M160.417 141.123C160.417 140.947 160.274 140.804 160.098 140.804C159.922 140.804 159.779 140.947 159.779 141.123C159.779 141.3 159.922 141.443 160.098 141.443C160.274 141.443 160.417 141.3 160.417 141.123Z"
              fill="#1A1A1A"></path>
        <path d="M166.365 141.129C166.365 141.199 166.419 141.254 166.489 141.254C166.559 141.254 166.614 141.199 166.614 141.129C166.614 141.059 166.559 141.004 166.489 141.004C166.419 141.004 166.365 141.059 166.365 141.129Z"
              fill="#1A1A1A"></path>
        <path d="M172.859 141.133C172.859 141.133 172.869 141.152 172.878 141.152C172.887 141.152 172.897 141.142 172.897 141.133C172.897 141.124 172.887 141.114 172.878 141.114C172.869 141.114 172.859 141.124 172.859 141.133Z"
              fill="#1A1A1A"></path>
        <path d="M115.782 147.475C115.782 147.25 115.6 147.068 115.375 147.068C115.15 147.068 114.967 147.25 114.967 147.475C114.967 147.7 115.15 147.883 115.375 147.883C115.6 147.883 115.782 147.7 115.782 147.475Z"
              fill="#1A1A1A"></path>
        <path d="M122.24 147.478C122.24 147.214 122.027 147.001 121.763 147.001C121.498 147.001 121.285 147.214 121.285 147.478C121.285 147.743 121.498 147.956 121.763 147.956C122.027 147.956 122.24 147.743 122.24 147.478Z"
              fill="#1A1A1A"></path>
        <path d="M128.646 147.484C128.646 147.211 128.424 146.989 128.15 146.989C127.876 146.989 127.654 147.211 127.654 147.484C127.654 147.758 127.876 147.98 128.15 147.98C128.424 147.98 128.646 147.758 128.646 147.484Z"
              fill="#1A1A1A"></path>
        <path d="M135.017 147.491C135.017 147.226 134.805 147.013 134.54 147.013C134.276 147.013 134.062 147.226 134.062 147.491C134.062 147.755 134.276 147.968 134.54 147.968C134.805 147.968 135.017 147.755 135.017 147.491Z"
              fill="#1A1A1A"></path>
        <path d="M141.353 147.496C141.353 147.262 141.164 147.071 140.927 147.071C140.693 147.071 140.502 147.259 140.502 147.496C140.502 147.731 140.69 147.922 140.927 147.922C141.161 147.922 141.353 147.734 141.353 147.496Z"
              fill="#1A1A1A"></path>
        <path d="M147.654 147.503C147.654 147.317 147.505 147.165 147.317 147.165C147.131 147.165 146.979 147.314 146.979 147.503C146.979 147.688 147.128 147.84 147.317 147.84C147.502 147.84 147.654 147.691 147.654 147.503Z"
              fill="#1A1A1A"></path>
        <path d="M153.916 147.505C153.916 147.387 153.821 147.292 153.703 147.292C153.584 147.292 153.49 147.387 153.49 147.505C153.49 147.624 153.584 147.718 153.703 147.718C153.821 147.718 153.916 147.624 153.916 147.505Z"
              fill="#1A1A1A"></path>
        <path d="M160.021 147.511C160.021 147.551 160.051 147.581 160.091 147.581C160.13 147.581 160.161 147.551 160.161 147.511C160.161 147.472 160.13 147.441 160.091 147.441C160.051 147.441 160.021 147.472 160.021 147.511Z"
              fill="#1A1A1A"></path>
        <path d="M115.244 153.863C115.244 153.933 115.298 153.988 115.368 153.988C115.438 153.988 115.493 153.933 115.493 153.863C115.493 153.793 115.438 153.738 115.368 153.738C115.298 153.738 115.244 153.793 115.244 153.863Z"
              fill="#1A1A1A"></path>
        <path d="M121.58 153.866C121.58 153.964 121.659 154.043 121.757 154.043C121.854 154.043 121.933 153.964 121.933 153.866C121.933 153.769 121.854 153.69 121.757 153.69C121.659 153.69 121.58 153.769 121.58 153.866Z"
              fill="#1A1A1A"></path>
        <path d="M127.949 153.872C127.949 153.979 128.037 154.067 128.144 154.067C128.25 154.067 128.338 153.979 128.338 153.872C128.338 153.766 128.25 153.678 128.144 153.678C128.037 153.678 127.949 153.766 127.949 153.872Z"
              fill="#1A1A1A"></path>
        <path d="M134.357 153.879C134.357 153.976 134.436 154.055 134.533 154.055C134.63 154.055 134.709 153.976 134.709 153.879C134.709 153.781 134.63 153.702 134.533 153.702C134.436 153.702 134.357 153.781 134.357 153.879Z"
              fill="#1A1A1A"></path>
        <path d="M140.801 153.884C140.801 153.954 140.855 154.009 140.925 154.009C140.995 154.009 141.05 153.954 141.05 153.884C141.05 153.815 140.995 153.76 140.925 153.76C140.855 153.76 140.801 153.815 140.801 153.884Z"
              fill="#1A1A1A"></path>
        <path d="M147.258 153.891C147.258 153.921 147.282 153.942 147.309 153.942C147.34 153.942 147.361 153.918 147.364 153.891C147.364 153.86 147.34 153.836 147.313 153.836C147.285 153.836 147.261 153.86 147.258 153.888V153.891Z"
              fill="#1A1A1A"></path>
        <path d="M153.682 153.894C153.682 153.894 153.692 153.913 153.701 153.913C153.711 153.913 153.72 153.904 153.72 153.894C153.72 153.885 153.711 153.875 153.701 153.875C153.692 153.875 153.682 153.885 153.682 153.894Z"
              fill="#1A1A1A"></path>
        <path d="M180.504 41.4996C180.267 39.6418 180 37.784 179.677 35.9293C179.355 34.0746 178.984 32.2259 178.528 30.3833C178.069 28.5407 177.537 26.7042 176.804 24.889C176.716 24.661 176.612 24.436 176.518 24.211C176.415 23.986 176.317 23.761 176.205 23.536C175.989 23.086 175.749 22.639 175.478 22.1982C175.208 21.7573 174.907 21.3194 174.548 20.8968C174.454 20.7934 174.368 20.687 174.268 20.5836L174.119 20.4316L174.043 20.3556L173.976 20.2917L173.444 19.7992C173.356 19.7171 173.268 19.635 173.177 19.5529L172.9 19.3127C172.714 19.1546 172.535 18.9934 172.343 18.8383L171.769 18.3792C171.674 18.3002 171.574 18.2272 171.474 18.1542L171.173 17.9353C170.37 17.3545 169.513 16.8224 168.61 16.3755C167.71 15.9255 166.77 15.5667 165.858 15.2626C164.946 14.9586 164.064 14.6971 163.222 14.4052C162.401 14.1346 161.583 13.9035 160.774 13.7211L160.166 13.5812C159.962 13.5356 159.762 13.4991 159.561 13.4566C159.157 13.3775 158.752 13.2924 158.351 13.2285C157.545 13.0826 156.739 12.9609 155.934 12.8393C155.128 12.7299 154.325 12.6174 153.522 12.5261C152.72 12.4228 151.914 12.3437 151.111 12.2555C150.308 12.1795 149.506 12.0944 148.703 12.0275L147.499 11.9211L146.295 11.8268C145.492 11.7599 144.69 11.7052 143.887 11.6505C137.465 11.2065 131.047 10.9633 124.631 10.79C118.215 10.6197 111.8 10.5346 105.384 10.5042C98.9683 10.4707 92.5558 10.4951 86.1433 10.5619C79.7307 10.6288 73.3182 10.7413 66.9057 10.9055C60.4931 11.0728 54.0806 11.2886 47.659 11.614C46.0535 11.6961 44.4481 11.7903 42.8366 11.8998C42.0309 11.9545 41.2251 12.0153 40.4164 12.0822C39.6076 12.1491 38.7957 12.2251 37.9626 12.3285C37.7528 12.3559 37.5491 12.3772 37.3302 12.4136C37.1113 12.4501 36.9076 12.4745 36.6613 12.5261L36.4849 12.5626L36.3967 12.5809C36.3663 12.587 36.339 12.593 36.3147 12.5991L36.0136 12.6691C35.813 12.7147 35.6123 12.7663 35.4116 12.818C34.6059 13.0218 33.8001 13.2468 33.0004 13.4991C32.9001 13.5326 32.7998 13.566 32.6994 13.5995C32.7572 13.5234 32.7937 13.4322 32.7937 13.3288C32.7937 13.0856 32.596 12.8849 32.3498 12.8849C32.1065 12.8849 31.9058 13.0826 31.9058 13.3288C31.9058 13.5356 32.0457 13.7059 32.2373 13.7545C31.696 13.943 31.1579 14.1407 30.6258 14.3535C29.8443 14.6758 29.069 15.0133 28.3149 15.3995C26.8007 16.1596 25.3413 17.0414 23.9761 18.0569L23.4683 18.4431L23.2159 18.6377C23.1278 18.7076 23.0305 18.7927 22.9362 18.8687C22.5653 19.188 22.2247 19.5255 21.9176 19.8752C21.2973 20.5745 20.7865 21.3133 20.3305 22.0613C19.4213 23.5634 18.7342 25.1171 18.1382 26.6799C17.5483 28.2458 17.0558 29.8269 16.624 31.4141C15.7635 34.5915 15.1402 37.7962 14.6355 41.007C14.1308 44.2209 13.7598 47.4408 13.477 50.6669C13.4679 50.7581 13.4618 50.8463 13.4558 50.9375C13.3645 50.8979 13.2612 50.8767 13.1547 50.8767C12.7351 50.8767 12.3916 51.2172 12.3916 51.6368C12.3916 52.0564 12.7321 52.4 13.1517 52.4C13.2155 52.4 13.2794 52.3909 13.3372 52.3757C13.2125 54.0024 13.1091 55.6291 13.0301 57.2557C12.6561 57.3135 12.3672 57.6358 12.3672 58.025C12.3672 58.3899 12.6196 58.697 12.9601 58.7821C12.8902 60.4301 12.8446 62.0781 12.8172 63.726C12.5588 63.8477 12.3824 64.1092 12.3824 64.4132C12.3824 64.7112 12.5527 64.9666 12.799 65.0913C12.7838 66.7453 12.7868 68.3994 12.8081 70.0534C12.8081 70.0991 12.8081 70.1477 12.8081 70.1933C12.5922 70.3088 12.4433 70.5399 12.4433 70.8014C12.4433 71.0751 12.6014 71.3092 12.8294 71.4217C12.8659 73.1244 12.9237 74.8271 13.0027 76.5298C12.7382 76.5876 12.5436 76.8187 12.5406 77.1014C12.5406 77.1166 12.5406 77.1319 12.5406 77.1471C12.5406 77.1623 12.5406 77.1775 12.5406 77.1927C12.5406 77.4937 12.7686 77.743 13.0635 77.7734C13.1 78.4332 13.1365 79.09 13.1791 79.7498C13.246 80.7896 13.322 81.8265 13.4071 82.8633C13.3189 82.8238 13.2247 82.7995 13.1213 82.7995C12.7412 82.7995 12.4311 83.1096 12.4311 83.4897C12.4311 83.8697 12.7412 84.1799 13.1213 84.1799C13.2642 84.1799 13.398 84.1373 13.5105 84.0613C13.5257 84.2376 13.5409 84.414 13.5561 84.5903C13.7051 86.2049 13.8784 87.8164 14.073 89.4248C14.4683 92.6448 14.9669 95.8617 15.6085 99.0603C16.2561 102.259 17.0467 105.445 18.0987 108.592C18.6277 110.164 19.2267 111.724 19.9352 113.263C20.6467 114.798 21.4615 116.315 22.4923 117.76C23.0092 118.48 23.5778 119.183 24.2284 119.846C24.5507 120.177 24.9004 120.496 25.2653 120.803L25.4538 120.952C25.1224 121.107 24.8943 121.442 24.8943 121.834C24.8943 122.372 25.3291 122.81 25.8673 122.81C26.3629 122.81 26.7734 122.439 26.8342 121.959C28.0839 122.816 29.3974 123.57 30.7444 124.236C30.9329 124.333 31.1275 124.425 31.319 124.513C31.5136 124.601 31.7052 124.695 31.8998 124.78C32.289 124.951 32.6781 125.121 33.0734 125.276C33.8579 125.592 34.6545 125.887 35.4481 126.149C35.8464 126.279 36.2417 126.407 36.6369 126.529L37.2238 126.705C37.4184 126.763 37.6008 126.821 37.8076 126.875L38.5221 127.07C37.9322 127.128 37.4701 127.626 37.4701 128.231C37.4701 128.876 37.993 129.402 38.6376 129.402C39.2822 129.402 39.8082 128.879 39.8082 128.234C39.8082 127.845 39.6167 127.502 39.3248 127.289L39.6319 127.371C39.8356 127.426 40.0363 127.465 40.237 127.514C41.4045 127.791 42.5691 128.028 43.7336 128.241C43.7336 128.955 44.3113 129.533 45.0258 129.536C45.5944 129.536 46.0748 129.171 46.2481 128.663L46.2937 128.669C46.6981 128.733 47.0995 128.803 47.5039 128.852L49.9242 129.177C50.0914 129.198 50.2586 129.217 50.4259 129.235C50.6782 129.487 51.0279 129.645 51.414 129.645C51.6877 129.645 51.9401 129.566 52.1559 129.432C54.634 129.7 57.112 129.916 59.5901 130.101L62.0043 130.266L62.6094 130.305L63.2144 130.339L64.4215 130.405C66.03 130.503 67.6415 130.567 69.2499 130.64C75.2702 130.883 81.2844 130.989 87.2987 131.014C87.5024 131.457 87.6848 131.907 87.846 132.364C88.1348 133.184 88.3325 134.03 88.4632 134.884C88.7125 136.596 88.6304 138.359 88.2656 140.096C88.1744 140.53 88.0649 140.962 87.9402 141.391C87.8125 141.82 87.6757 142.248 87.5145 142.668C87.3564 143.091 87.1862 143.51 87.0007 143.924L86.8578 144.234C86.8152 144.328 86.7696 144.441 86.727 144.544C86.6875 144.65 86.651 144.766 86.6145 144.875C86.4838 145.328 86.423 145.824 86.4595 146.314C86.496 146.803 86.6206 147.287 86.8213 147.721C87.022 148.156 87.2926 148.551 87.6149 148.886C88.2625 149.555 89.1291 150.02 90.0929 150.148C90.5733 150.212 91.069 150.187 91.5342 150.081C91.6528 150.053 91.7683 150.026 91.8777 149.987C91.9902 149.95 92.1027 149.914 92.2092 149.865C92.3156 149.822 92.422 149.774 92.5224 149.722L92.6744 149.643L92.7109 149.622L92.7321 149.61L92.7747 149.582L93.4619 149.166C93.6899 149.026 93.924 148.892 94.1399 148.74C94.6933 148.378 95.2315 147.995 95.7544 147.603C95.8183 147.8 96.0038 147.943 96.2227 147.943C96.4964 147.943 96.7183 147.721 96.7183 147.448C96.7183 147.274 96.6271 147.119 96.4933 147.031C97.3872 146.32 98.2447 145.572 99.0626 144.79C100.115 143.784 101.109 142.723 102.049 141.622C102.195 141.768 102.395 141.862 102.617 141.862C103.058 141.862 103.414 141.506 103.414 141.066C103.414 140.789 103.271 140.543 103.055 140.4C103.116 140.321 103.18 140.245 103.241 140.166C105.545 137.219 107.488 134.021 109.082 130.652C116.12 130.448 123.156 130.165 130.189 129.791C131.445 129.724 132.704 129.654 133.959 129.581C134.139 129.667 134.339 129.715 134.552 129.715C134.823 129.715 135.078 129.636 135.291 129.502C136.854 129.408 138.414 129.308 139.974 129.204C140.214 129.466 140.557 129.633 140.941 129.633C141.388 129.633 141.783 129.408 142.02 129.068C143.422 128.967 144.823 128.867 146.222 128.757C146.392 129.201 146.824 129.518 147.329 129.518C147.9 129.518 148.378 129.113 148.49 128.575C149.819 128.466 151.151 128.347 152.479 128.222C152.565 128.213 152.65 128.207 152.735 128.198C152.729 128.244 152.723 128.289 152.723 128.335C152.723 128.882 153.167 129.326 153.714 129.329C154.261 129.329 154.705 128.885 154.708 128.338C154.708 128.222 154.687 128.11 154.65 128.006C155.788 127.888 156.928 127.76 158.074 127.614C158.542 127.556 159.014 127.486 159.488 127.42L160.205 127.304L160.57 127.24C160.692 127.219 160.814 127.198 160.941 127.17L161.324 127.091C161.458 127.061 161.607 127.021 161.747 126.985L161.853 126.957L161.942 126.93L162.121 126.875C162.24 126.839 162.358 126.802 162.477 126.763C162.714 126.684 162.951 126.608 163.185 126.52C163.422 126.437 163.653 126.346 163.888 126.252C165.755 125.513 167.503 124.513 169.099 123.367C169.899 122.792 170.671 122.187 171.401 121.548L171.677 121.311L171.948 121.068L172.489 120.575C172.903 120.186 173.265 119.776 173.593 119.356C173.924 118.936 174.216 118.505 174.484 118.067C174.758 117.632 174.998 117.188 175.229 116.744C175.685 115.853 176.077 114.953 176.43 114.047C177.129 112.232 177.68 110.399 178.154 108.556C178.604 106.805 178.981 105.047 179.312 103.287C179.568 103.278 179.771 103.068 179.771 102.809C179.771 102.612 179.653 102.441 179.48 102.368C179.775 100.727 180.033 99.0847 180.261 97.4397C180.772 93.7211 181.143 89.9934 181.413 86.2657C181.684 82.5349 181.857 78.8042 181.952 75.0704C182.137 67.6058 182.012 60.1352 181.541 52.6767C181.301 48.949 180.966 45.2212 180.498 41.5026L180.504 41.4996ZM179.157 70.7649C179.157 70.8288 179.157 70.8926 179.157 70.9565C179.136 72.3004 179.106 73.6443 179.063 74.9852C178.944 78.6734 178.744 82.3616 178.449 86.0346C178.154 89.7076 177.762 93.3715 177.233 97.0049C176.965 98.8201 176.667 100.629 176.317 102.426C175.971 104.22 175.572 106.002 175.107 107.75C174.639 109.499 174.104 111.223 173.453 112.867C173.125 113.688 172.766 114.485 172.371 115.245C172.17 115.622 171.963 115.993 171.738 116.343C171.516 116.696 171.285 117.03 171.039 117.337C170.793 117.644 170.537 117.93 170.27 118.176L169.777 118.617L169.528 118.839L169.275 119.052C168.604 119.627 167.907 120.162 167.196 120.663C166.913 120.864 166.624 121.053 166.335 121.241C166.201 121.326 166.068 121.411 165.931 121.494C164.885 122.135 163.796 122.688 162.665 123.123C162.468 123.199 162.267 123.275 162.063 123.345C161.863 123.418 161.659 123.482 161.452 123.549C161.352 123.582 161.245 123.613 161.142 123.643L160.987 123.689L160.911 123.713L160.847 123.728L160.595 123.789L160.294 123.85C160.196 123.871 160.09 123.889 159.98 123.908L159.661 123.962L159.001 124.06C158.558 124.121 158.111 124.181 157.658 124.233C155.848 124.449 154.012 124.619 152.175 124.78C148.499 125.094 144.805 125.343 141.111 125.568C137.413 125.79 133.716 125.978 130.016 126.146C122.615 126.483 115.205 126.72 107.798 126.866L106.597 126.891L106.093 128.003C105.302 129.74 104.411 131.43 103.423 133.063C103.298 133.267 103.174 133.47 103.046 133.674C102.666 134.285 102.271 134.884 101.86 135.477C101.322 136.255 100.76 137.016 100.173 137.757C99.1842 138.998 98.1322 140.181 97.0163 141.288C96.8217 141.482 96.624 141.674 96.4234 141.865C96.396 141.89 96.3687 141.917 96.3413 141.944C94.973 143.237 93.5105 144.416 91.9659 145.423C91.7774 145.556 91.5767 145.666 91.3821 145.788L90.7923 146.143L90.7558 146.165L90.7375 146.177H90.7345C90.7345 146.177 90.7254 146.183 90.7193 146.186C90.7102 146.192 90.7011 146.195 90.695 146.198C90.6889 146.204 90.6798 146.204 90.6767 146.204C90.6707 146.207 90.6676 146.207 90.6615 146.207C90.6433 146.21 90.6372 146.207 90.625 146.207C90.6007 146.207 90.5429 146.177 90.5004 146.134C90.4791 146.113 90.4669 146.089 90.4608 146.073C90.4548 146.058 90.4548 146.052 90.4548 146.046C90.4548 146.04 90.4548 146.034 90.4608 146.013C90.4669 146.006 90.4669 146 90.4669 145.991C90.473 145.979 90.473 145.979 90.4821 145.958L90.6524 145.59C90.8744 145.097 91.0811 144.599 91.2727 144.091C91.4642 143.583 91.6375 143.066 91.7926 142.543C91.9507 142.02 92.0875 141.488 92.2 140.953C92.6683 138.806 92.7838 136.541 92.4646 134.319C92.2974 133.209 92.0419 132.114 91.674 131.059C91.4551 130.424 91.2027 129.803 90.92 129.198C90.7315 128.797 90.5338 128.405 90.321 128.019L89.7493 126.979H89.3936L88.5514 126.973C82.1662 126.939 75.7841 126.833 69.4172 126.568C67.827 126.495 66.2337 126.431 64.6465 126.334L63.4546 126.267L62.8587 126.234L62.2627 126.194L59.885 126.036C56.7168 125.802 53.5576 125.516 50.4228 125.139C47.2941 124.747 44.1806 124.263 41.1735 123.567C40.9849 123.525 40.7934 123.488 40.6109 123.436L40.0576 123.287L39.343 123.096L38.9539 122.993C38.7745 122.947 38.5738 122.883 38.3853 122.828L37.8228 122.658C37.6768 122.612 37.5309 122.567 37.388 122.524C37.166 122.454 36.944 122.384 36.7251 122.311C35.9984 122.074 35.29 121.813 34.5907 121.533C34.2379 121.396 33.8944 121.244 33.5508 121.095C33.3775 121.019 33.2102 120.937 33.04 120.861C32.8697 120.782 32.6994 120.703 32.5322 120.618C31.1883 119.958 29.893 119.204 28.6859 118.337L28.2329 118.012L28.1204 117.93L28.0261 117.854L27.8376 117.705C27.5913 117.495 27.345 117.276 27.1079 117.033C26.9133 116.835 26.7217 116.623 26.5362 116.404C26.2717 116.097 26.0163 115.771 25.77 115.431C25.5632 115.145 25.3656 114.85 25.1741 114.549C24.5842 113.622 24.0551 112.624 23.5747 111.59C22.9362 110.222 22.3798 108.79 21.8811 107.328C21.3825 105.859 20.9386 104.36 20.5433 102.846C20.4734 102.575 20.4034 102.302 20.3365 102.028C20.0264 100.79 19.7436 99.5407 19.4821 98.285C19.4183 97.9779 19.3575 97.6708 19.2967 97.3667C19.1659 96.6978 19.0413 96.0289 18.9196 95.3569C18.5426 93.2346 18.2203 91.1002 17.9436 88.9566C17.147 82.6839 16.7183 76.3444 16.5814 70.0018C16.4507 63.6561 16.6058 57.3014 17.1044 50.9861C17.3568 47.83 17.6943 44.68 18.1565 41.5604C18.5791 38.7266 19.096 35.9141 19.7801 33.1624C19.85 32.8857 19.9169 32.606 19.9899 32.3293C20.0173 32.2259 20.0446 32.1195 20.075 32.0161C20.449 30.6174 20.8747 29.2401 21.3642 27.9022C21.8933 26.4701 22.5044 25.0775 23.2463 23.834C23.6173 23.2137 24.0186 22.6269 24.4595 22.1252C24.6784 21.8698 24.9065 21.6417 25.1406 21.438C25.2014 21.3863 25.2531 21.3407 25.32 21.286L25.542 21.1127L25.9859 20.766C27.1839 19.8569 28.467 19.0664 29.8109 18.3792C30.4798 18.0296 31.17 17.7225 31.8694 17.4275C32.5687 17.1387 33.2832 16.8772 34.0069 16.637C34.7336 16.3998 35.4663 16.187 36.2143 15.9924C36.3998 15.9437 36.5883 15.8951 36.7768 15.8495L37.0596 15.7795C37.0839 15.7735 37.1052 15.7674 37.1234 15.7643L37.1812 15.7522L37.2967 15.7279C37.4397 15.6944 37.6373 15.667 37.8106 15.6366C37.9839 15.6062 38.1816 15.5849 38.367 15.5576C39.1241 15.4572 39.9055 15.3782 40.693 15.3052C41.4775 15.2322 42.268 15.1653 43.0616 15.1076C44.6458 14.986 46.236 14.8795 47.8292 14.7853C53.1928 14.466 58.5745 14.238 63.9563 14.0464C64.1904 14.0373 64.4276 14.0282 64.6617 14.0221C65.4371 13.9947 66.2124 13.9674 66.9878 13.943C68.052 13.9096 69.1131 13.8762 70.1773 13.8457C70.5178 13.8366 70.8584 13.8245 71.1989 13.8153C72.9868 13.7637 74.7716 13.715 76.5594 13.6694C76.9 13.6603 77.2375 13.6542 77.578 13.6451C79.3902 13.6025 81.2054 13.563 83.0176 13.5265C83.3095 13.5204 83.5983 13.5143 83.8902 13.5113C84.6534 13.4961 85.4135 13.4809 86.1767 13.4687C87.3047 13.4505 88.4328 13.4353 89.5608 13.4201C89.7463 13.4201 89.9348 13.414 90.1203 13.414C92.124 13.3866 94.1278 13.3653 96.1315 13.3501C96.1953 13.3501 96.2622 13.3501 96.3261 13.3501C105.74 13.2741 115.154 13.3136 124.558 13.5295C127.754 13.6055 130.949 13.7059 134.139 13.8336C137.331 13.9643 140.518 14.1224 143.698 14.3414C144.492 14.3961 145.289 14.4508 146.082 14.5147L147.274 14.6089L148.463 14.7123C149.256 14.7792 150.047 14.8613 150.838 14.9373C151.625 15.0224 152.416 15.1015 153.203 15.2018C153.991 15.293 154.772 15.3995 155.556 15.5059L156.724 15.6822C157.113 15.737 157.496 15.813 157.886 15.8768C158.275 15.9407 158.655 16.0197 159.035 16.0927C159.226 16.1322 159.418 16.1657 159.606 16.2083L160.169 16.336C160.923 16.5032 161.647 16.713 162.349 16.941C163.261 17.2572 164.161 17.5248 165.01 17.8106C165.858 18.0964 166.658 18.4035 167.418 18.7836C168.178 19.1606 168.901 19.6106 169.604 20.1184L169.865 20.31C169.954 20.3738 170.042 20.4377 170.124 20.5076L170.635 20.9181C170.805 21.0579 170.969 21.2039 171.136 21.3468L171.386 21.5627C171.468 21.6357 171.55 21.7147 171.629 21.7877L172.118 22.2407L172.179 22.2954L172.225 22.3441L172.319 22.4383C172.383 22.4992 172.441 22.5752 172.502 22.6421C172.745 22.9279 172.973 23.2563 173.186 23.6059C173.402 23.9556 173.599 24.3296 173.785 24.7157C173.882 24.9073 173.967 25.108 174.058 25.3026C174.143 25.5032 174.232 25.7009 174.311 25.9076C174.639 26.7225 174.931 27.5647 175.192 28.4252C175.454 29.2826 175.691 30.1583 175.907 31.037C176.764 34.5671 177.339 38.2006 177.795 41.8462C178.245 45.4979 178.555 49.1709 178.777 52.853C179.133 58.8155 179.248 64.7963 179.16 70.771L179.157 70.7649Z"
              fill="#1A1A1A"></path>
        <path d="M140.977 6.49963C167.688 6.88274 183.764 11.8966 185.497 41.0069C187.914 15.5909 176.299 3.31617 140.977 6.49963Z"
              fill="#1A1A1A"></path>
        <path d="M27.159 59.0757H27.4573C27.7535 59.2153 27.9016 59.5116 27.9016 59.9644C27.9016 61.0477 27.927 62.751 27.9778 65.0742L28.1238 65.144H29.3806C30.6671 65.144 31.3103 65.4657 31.3103 66.1089V66.2549C31.1326 66.8473 30.811 67.1436 30.3455 67.1436C29.3172 66.9954 28.602 66.9214 28.2 66.9214L28.0476 67.1436V69.0732C27.9715 69.8138 27.6266 70.1841 27.013 70.1841C26.6871 70.1841 26.4163 69.9619 26.2005 69.5176C26.2005 68.8109 26.2491 68.0195 26.3465 67.1436C26.2491 67.1436 26.2005 67.0949 26.2005 66.9976C23.9153 67.243 22.5823 67.3657 22.2014 67.3657C21.8037 67.3657 21.482 67.1689 21.2366 66.7754V66.3311C21.2366 66.056 22.0999 64.797 23.8264 62.5542L26.5686 59.2979C26.8141 59.1497 27.0109 59.0757 27.159 59.0757ZM23.3885 65.6646C23.435 65.6646 23.4583 65.6899 23.4583 65.7407C25.2864 65.491 26.2491 65.3175 26.3465 65.2202V64.4775C26.3465 63.9147 26.3719 63.0514 26.4226 61.8877L26.2703 61.8179C24.8188 63.4175 23.8582 64.6743 23.3885 65.5884V65.6646ZM33.2296 66.6992H33.7501C34.241 67.0378 34.4864 67.4334 34.4864 67.8862V68.4067C34.4864 69.1938 34.0442 69.9344 33.1598 70.6284H32.7155C32.4192 70.6284 32.1463 70.4062 31.8966 69.9619V69.8857C31.8966 69.7249 32.1928 69.1812 32.7853 68.2544L32.8614 67.8101V67.0737C32.8614 67.006 32.9842 66.8812 33.2296 66.6992ZM40.8237 59.374H41.8584C44.08 59.6449 45.1909 60.5081 45.1909 61.9639C45.1909 63.2376 43.8092 64.4966 41.0459 65.7407C40.9951 65.8381 40.2799 66.2316 38.9004 66.9214C38.0625 67.4842 37.6435 67.8799 37.6435 68.1084C37.7366 68.1592 37.8107 68.1846 37.8657 68.1846C40.5698 68.0365 42.0996 67.9624 42.455 67.9624H42.9692C43.5151 67.9624 43.788 68.1846 43.788 68.6289V68.7749C43.788 68.8426 43.6399 68.9907 43.3437 69.2192H43.2675L37.7133 69.5874H37.6435C36.8099 69.5874 36.2407 69.342 35.936 68.8511V68.2544C35.936 67.2388 37.4912 65.9798 40.6015 64.4775C42.4296 63.5169 43.3437 62.7785 43.3437 62.2622C43.3437 61.839 42.7745 61.5915 41.6362 61.5195H41.268C39.9139 61.5195 38.5809 62.1374 37.269 63.373L36.7548 63.4429H36.5327C36.0756 63.4429 35.8027 63.1234 35.7138 62.4844C35.7138 61.7269 36.5538 60.8869 38.2338 59.9644C39.1183 59.5708 39.9816 59.374 40.8237 59.374ZM50.2015 59.7422H50.868C51.1176 59.9411 51.2658 60.0405 51.3123 60.0405C51.3758 60.0405 51.6233 60.0151 52.055 59.9644C53.6842 59.9644 55.0172 61.0265 56.054 63.1509C56.2487 63.8999 56.346 64.467 56.346 64.8521C56.346 66.6421 55.1378 67.9497 52.7215 68.7749C52.1375 68.8722 51.5451 68.9463 50.9441 68.9971C48.6421 68.8743 47.2096 67.937 46.6468 66.1851C46.5621 65.9227 46.4881 65.5524 46.4246 65.0742C46.4246 63.555 47.1652 62.1226 48.6463 60.7769C48.6463 60.5314 48.8685 60.36 49.3128 60.2627C49.6725 59.9157 49.9687 59.7422 50.2015 59.7422ZM47.91 64.998C47.91 65.8105 48.3289 66.4771 49.1668 66.9976C49.6492 67.2938 50.1909 67.4419 50.7918 67.4419H51.1663C52.1904 67.4419 53.1023 67.0716 53.9021 66.3311C54.2492 65.9079 54.4227 65.4635 54.4227 64.998C54.4227 64.2279 53.9529 63.4132 53.0135 62.5542C52.0783 62.2114 51.215 61.8179 50.4236 61.3735H50.3475C49.7127 61.3735 48.9743 62.2622 48.1321 64.0396C48.0306 64.3231 47.9565 64.6426 47.91 64.998ZM64.3971 59.2979H64.6891C65.0361 59.4544 65.2096 59.6766 65.2096 59.9644V60.2627C65.2096 60.4574 64.7653 60.5801 63.8766 60.6309C61.9427 61.4857 60.7832 62.3743 60.3981 63.2969L60.5441 63.373H60.7663C61.0498 63.373 61.2233 63.3477 61.2868 63.2969C63.7158 63.2969 65.2202 64.0861 65.7999 65.6646C65.8507 65.9312 65.8761 66.1533 65.8761 66.3311V66.4072C65.8761 67.6725 65.0361 68.5845 63.3561 69.1431C62.789 69.2446 62.3701 69.2954 62.0993 69.2954C60.3092 69.2954 59.0503 68.5041 58.3224 66.9214C58.1743 66.604 58.1002 66.2104 58.1002 65.7407V65.2964C58.1002 63.3709 59.556 61.5195 62.4674 59.7422C63.2249 59.446 63.8681 59.2979 64.3971 59.2979ZM59.4332 65.4424C59.4332 65.4932 59.41 65.5186 59.3634 65.5186C59.3634 66.5723 59.9538 67.3128 61.1344 67.7402L61.9533 67.8862C63.2863 67.6408 63.9528 67.2451 63.9528 66.6992V66.6294C63.9528 65.8888 62.6684 65.5186 60.0997 65.5186C60.0997 65.4678 59.8776 65.4424 59.4332 65.4424ZM67.897 66.6992H68.4175C68.9083 67.0378 69.1538 67.4334 69.1538 67.8862V68.4067C69.1538 69.1938 68.7116 69.9344 67.8271 70.6284H67.3828C67.0866 70.6284 66.8136 70.4062 66.5639 69.9619V69.8857C66.5639 69.7249 66.8602 69.1812 67.4526 68.2544L67.5288 67.8101V67.0737C67.5288 67.006 67.6515 66.8812 67.897 66.6992ZM71.2889 59.7422C71.8559 59.793 72.3997 59.8184 72.9202 59.8184C73.3688 59.8184 73.665 60.1632 73.8089 60.853C73.8089 66.8241 73.536 69.8096 72.9901 69.8096C72.9097 70.0085 72.7383 70.1079 72.4759 70.1079H72.1014C71.4624 69.9302 71.1429 69.634 71.1429 69.2192L71.3651 66.1851C71.2677 66.1343 71.1937 66.1089 71.1429 66.1089C70.7451 66.3543 70.3981 66.4771 70.1019 66.4771H69.5115C68.0854 66.4771 67.1227 65.7132 66.6234 64.1855V63.519C66.6234 62.2918 67.4634 61.2064 69.1434 60.2627C69.6131 60.013 70.3283 59.8395 71.2889 59.7422ZM67.9564 63.7412C68.2314 64.6764 68.7012 65.144 69.3655 65.144C69.429 65.1948 69.6004 65.2202 69.8797 65.2202C71.0181 65.0213 71.5872 63.665 71.5872 61.1514L71.3651 60.999C70.2479 61.2275 69.3846 61.5978 68.7752 62.1099C68.2293 62.77 67.9564 63.3138 67.9564 63.7412ZM79.4733 59.7422H80.1398C80.3895 59.9411 80.5376 60.0405 80.5841 60.0405C80.6476 60.0405 80.8952 60.0151 81.3268 59.9644C82.956 59.9644 84.2891 61.0265 85.3258 63.1509C85.5205 63.8999 85.6178 64.467 85.6178 64.8521C85.6178 66.6421 84.4097 67.9497 81.9933 68.7749C81.4093 68.8722 80.8169 68.9463 80.216 68.9971C77.9139 68.8743 76.4814 67.937 75.9186 66.1851C75.834 65.9227 75.7599 65.5524 75.6964 65.0742C75.6964 63.555 76.437 62.1226 77.9181 60.7769C77.9181 60.5314 78.1403 60.36 78.5846 60.2627C78.9443 59.9157 79.2406 59.7422 79.4733 59.7422ZM77.1818 64.998C77.1818 65.8105 77.6007 66.4771 78.4386 66.9976C78.9211 67.2938 79.4627 67.4419 80.0636 67.4419H80.4381C81.4622 67.4419 82.3742 67.0716 83.174 66.3311C83.521 65.9079 83.6945 65.4635 83.6945 64.998C83.6945 64.2279 83.2248 63.4132 82.2853 62.5542C81.3501 62.2114 80.4868 61.8179 79.6955 61.3735H79.6193C78.9845 61.3735 78.2461 62.2622 77.404 64.0396C77.3024 64.3231 77.2283 64.6426 77.1818 64.998ZM91.1489 59.7422H91.8154C92.0651 59.9411 92.2132 60.0405 92.2598 60.0405C92.3232 60.0405 92.5708 60.0151 93.0024 59.9644C94.6317 59.9644 95.9647 61.0265 97.0015 63.1509C97.1961 63.8999 97.2935 64.467 97.2935 64.8521C97.2935 66.6421 96.0853 67.9497 93.6689 68.7749C93.085 68.8722 92.4925 68.9463 91.8916 68.9971C89.5895 68.8743 88.1571 67.937 87.5942 66.1851C87.5096 65.9227 87.4355 65.5524 87.3721 65.0742C87.3721 63.555 88.1126 62.1226 89.5938 60.7769C89.5938 60.5314 89.8159 60.36 90.2603 60.2627C90.62 59.9157 90.9162 59.7422 91.1489 59.7422ZM88.8574 64.998C88.8574 65.8105 89.2764 66.4771 90.1143 66.9976C90.5967 67.2938 91.1383 67.4419 91.7393 67.4419H92.1138C93.1379 67.4419 94.0498 67.0716 94.8496 66.3311C95.1966 65.9079 95.3701 65.4635 95.3701 64.998C95.3701 64.2279 94.9004 63.4132 93.9609 62.5542C93.0257 62.2114 92.1624 61.8179 91.3711 61.3735H91.2949C90.6602 61.3735 89.9217 62.2622 89.0796 64.0396C88.978 64.3231 88.904 64.6426 88.8574 64.998ZM98.7684 66.6992H99.2889C99.7798 67.0378 100.025 67.4334 100.025 67.8862V68.4067C100.025 69.1938 99.583 69.9344 98.6986 70.6284H98.2542C97.958 70.6284 97.6851 70.4062 97.4354 69.9619V69.8857C97.4354 69.7249 97.7316 69.1812 98.3241 68.2544L98.4002 67.8101V67.0737C98.4002 67.006 98.523 66.8812 98.7684 66.6992ZM105.029 59.7422H105.696C105.946 59.9411 106.094 60.0405 106.14 60.0405C106.204 60.0405 106.451 60.0151 106.883 59.9644C108.512 59.9644 109.845 61.0265 110.882 63.1509C111.077 63.8999 111.174 64.467 111.174 64.8521C111.174 66.6421 109.966 67.9497 107.549 68.7749C106.966 68.8722 106.373 68.9463 105.772 68.9971C103.47 68.8743 102.038 67.937 101.475 66.1851C101.39 65.9227 101.316 65.5524 101.253 65.0742C101.253 63.555 101.993 62.1226 103.474 60.7769C103.474 60.5314 103.696 60.36 104.141 60.2627C104.501 59.9157 104.797 59.7422 105.029 59.7422ZM102.738 64.998C102.738 65.8105 103.157 66.4771 103.995 66.9976C104.477 67.2938 105.019 67.4419 105.62 67.4419H105.994C107.018 67.4419 107.93 67.0716 108.73 66.3311C109.077 65.9079 109.251 65.4635 109.251 64.998C109.251 64.2279 108.781 63.4132 107.841 62.5542C106.906 62.2114 106.043 61.8179 105.252 61.3735H105.175C104.541 61.3735 103.802 62.2622 102.96 64.0396C102.859 64.3231 102.785 64.6426 102.738 64.998ZM116.705 59.7422H117.372C117.621 59.9411 117.769 60.0405 117.816 60.0405C117.879 60.0405 118.127 60.0151 118.559 59.9644C120.188 59.9644 121.521 61.0265 122.558 63.1509C122.752 63.8999 122.85 64.467 122.85 64.8521C122.85 66.6421 121.641 67.9497 119.225 68.7749C118.641 68.8722 118.049 68.9463 117.448 68.9971C115.146 68.8743 113.713 67.937 113.15 66.1851C113.066 65.9227 112.992 65.5524 112.928 65.0742C112.928 63.555 113.669 62.1226 115.15 60.7769C115.15 60.5314 115.372 60.36 115.816 60.2627C116.176 59.9157 116.472 59.7422 116.705 59.7422ZM114.414 64.998C114.414 65.8105 114.833 66.4771 115.67 66.9976C116.153 67.2938 116.695 67.4419 117.295 67.4419H117.67C118.694 67.4419 119.606 67.0716 120.406 66.3311C120.753 65.9079 120.926 65.4635 120.926 64.998C120.926 64.2279 120.457 63.4132 119.517 62.5542C118.582 62.2114 117.719 61.8179 116.927 61.3735H116.851C116.216 61.3735 115.478 62.2622 114.636 64.0396C114.534 64.3231 114.46 64.6426 114.414 64.998ZM128.381 59.7422H129.047C129.297 59.9411 129.445 60.0405 129.492 60.0405C129.555 60.0405 129.803 60.0151 130.234 59.9644C131.863 59.9644 133.196 61.0265 134.233 63.1509C134.428 63.8999 134.525 64.467 134.525 64.8521C134.525 66.6421 133.317 67.9497 130.901 68.7749C130.317 68.8722 129.724 68.9463 129.123 68.9971C126.821 68.8743 125.389 67.937 124.826 66.1851C124.741 65.9227 124.667 65.5524 124.604 65.0742C124.604 63.555 125.344 62.1226 126.826 60.7769C126.826 60.5314 127.048 60.36 127.492 60.2627C127.852 59.9157 128.148 59.7422 128.381 59.7422ZM126.089 64.998C126.089 65.8105 126.508 66.4771 127.346 66.9976C127.828 67.2938 128.37 67.4419 128.971 67.4419H129.346C130.37 67.4419 131.282 67.0716 132.081 66.3311C132.428 65.9079 132.602 65.4635 132.602 64.998C132.602 64.2279 132.132 63.4132 131.193 62.5542C130.258 62.2114 129.394 61.8179 128.603 61.3735H128.527C127.892 61.3735 127.154 62.2622 126.311 64.0396C126.21 64.3231 126.136 64.6426 126.089 64.998ZM136 66.6992H136.521C137.012 67.0378 137.257 67.4334 137.257 67.8862V68.4067C137.257 69.1938 136.815 69.9344 135.93 70.6284H135.486C135.19 70.6284 134.917 70.4062 134.667 69.9619V69.8857C134.667 69.7249 134.963 69.1812 135.556 68.2544L135.632 67.8101V67.0737C135.632 67.006 135.755 66.8812 136 66.6992ZM142.261 59.7422H142.928C143.177 59.9411 143.326 60.0405 143.372 60.0405C143.436 60.0405 143.683 60.0151 144.115 59.9644C145.744 59.9644 147.077 61.0265 148.114 63.1509C148.308 63.8999 148.406 64.467 148.406 64.8521C148.406 66.6421 147.198 67.9497 144.781 68.7749C144.197 68.8722 143.605 68.9463 143.004 68.9971C140.702 68.8743 139.269 67.937 138.707 66.1851C138.622 65.9227 138.548 65.5524 138.484 65.0742C138.484 63.555 139.225 62.1226 140.706 60.7769C140.706 60.5314 140.928 60.36 141.373 60.2627C141.732 59.9157 142.029 59.7422 142.261 59.7422ZM139.97 64.998C139.97 65.8105 140.389 66.4771 141.227 66.9976C141.709 67.2938 142.251 67.4419 142.852 67.4419H143.226C144.25 67.4419 145.162 67.0716 145.962 66.3311C146.309 65.9079 146.482 65.4635 146.482 64.998C146.482 64.2279 146.013 63.4132 145.073 62.5542C144.138 62.2114 143.275 61.8179 142.483 61.3735H142.407C141.772 61.3735 141.034 62.2622 140.192 64.0396C140.09 64.3231 140.016 64.6426 139.97 64.998ZM153.937 59.7422H154.603C154.853 59.9411 155.001 60.0405 155.048 60.0405C155.111 60.0405 155.359 60.0151 155.79 59.9644C157.42 59.9644 158.753 61.0265 159.789 63.1509C159.984 63.8999 160.081 64.467 160.081 64.8521C160.081 66.6421 158.873 67.9497 156.457 68.7749C155.873 68.8722 155.28 68.9463 154.68 68.9971C152.377 68.8743 150.945 67.937 150.382 66.1851C150.298 65.9227 150.224 65.5524 150.16 65.0742C150.16 63.555 150.901 62.1226 152.382 60.7769C152.382 60.5314 152.604 60.36 153.048 60.2627C153.408 59.9157 153.704 59.7422 153.937 59.7422ZM151.645 64.998C151.645 65.8105 152.064 66.4771 152.902 66.9976C153.385 67.2938 153.926 67.4419 154.527 67.4419H154.902C155.926 67.4419 156.838 67.0716 157.638 66.3311C157.985 65.9079 158.158 65.4635 158.158 64.998C158.158 64.2279 157.688 63.4132 156.749 62.5542C155.814 62.2114 154.95 61.8179 154.159 61.3735H154.083C153.448 61.3735 152.71 62.2622 151.868 64.0396C151.766 64.3231 151.692 64.6426 151.645 64.998ZM165.613 59.7422H166.279C166.529 59.9411 166.677 60.0405 166.723 60.0405C166.787 60.0405 167.034 60.0151 167.466 59.9644C169.095 59.9644 170.428 61.0265 171.465 63.1509C171.66 63.8999 171.757 64.467 171.757 64.8521C171.757 66.6421 170.549 67.9497 168.133 68.7749C167.549 68.8722 166.956 68.9463 166.355 68.9971C164.053 68.8743 162.621 67.937 162.058 66.1851C161.973 65.9227 161.899 65.5524 161.836 65.0742C161.836 63.555 162.576 62.1226 164.057 60.7769C164.057 60.5314 164.28 60.36 164.724 60.2627C165.084 59.9157 165.38 59.7422 165.613 59.7422ZM163.321 64.998C163.321 65.8105 163.74 66.4771 164.578 66.9976C165.06 67.2938 165.602 67.4419 166.203 67.4419H166.577C167.601 67.4419 168.513 67.0716 169.313 66.3311C169.66 65.9079 169.834 65.4635 169.834 64.998C169.834 64.2279 169.364 63.4132 168.425 62.5542C167.489 62.2114 166.626 61.8179 165.835 61.3735H165.759C165.124 61.3735 164.385 62.2622 163.543 64.0396C163.442 64.3231 163.368 64.6426 163.321 64.998ZM71.2338 73.187C71.8262 73.3436 72.1225 73.6885 72.1225 74.2217L72.2685 74.2979H72.4208C74.8879 74.4629 76.1215 75.0807 76.1215 76.1514C75.9353 76.7438 75.6391 77.04 75.2328 77.04H74.9345C74.8414 77.04 74.2743 76.7671 73.2333 76.2212C72.7086 76.0731 72.2642 75.999 71.9003 75.999H71.8241C71.5956 75.999 71.4475 76.8644 71.3798 78.5952C71.3798 78.701 71.949 78.7983 73.0873 78.8872C74.2722 79.3569 74.8646 79.924 74.8646 80.5884V81.0327C74.8646 82.0018 73.7771 82.8672 71.602 83.6289L71.5321 83.7749V84.2192C71.4813 84.8117 71.2338 85.1079 70.7895 85.1079C70.3578 85.1079 70.0616 84.7376 69.9008 83.9971L69.7548 83.9209C67.8801 83.9209 66.9428 83.2311 66.9428 81.8516C67.0105 81.6484 67.1332 81.5003 67.3109 81.4072H67.6093C67.7659 81.4834 68.0113 81.8537 68.3456 82.5181C68.5995 82.6662 68.8471 82.7402 69.0883 82.7402H69.4564C69.5284 82.7402 69.6024 82.6662 69.6786 82.5181C69.6786 81.1216 69.5559 80.381 69.3104 80.2964H68.7138C66.8391 80.2964 65.9018 79.6299 65.9018 78.2969C65.9018 76.9596 67.0867 75.7493 69.4564 74.666C69.9516 74.666 70.1991 74.3952 70.1991 73.8535C70.508 73.4092 70.8529 73.187 71.2338 73.187ZM67.4569 78.373C67.4569 78.6693 68.0748 78.8407 69.3104 78.8872C69.4289 78.8872 69.5517 78.098 69.6786 76.5195C69.5855 76.4688 69.5115 76.4434 69.4564 76.4434C68.1234 77.0824 67.4569 77.7256 67.4569 78.373ZM71.3798 80.3662V82.0737C71.3798 82.2218 71.4792 82.2959 71.6781 82.2959C72.9138 81.8516 73.5316 81.3818 73.5316 80.8867V80.8105C73.2989 80.417 72.6557 80.2202 71.602 80.2202H71.5321C71.4306 80.2371 71.3798 80.2858 71.3798 80.3662ZM84.636 75.0405C86.8577 75.0405 87.9685 75.4108 87.9685 76.1514C87.9685 76.693 87.6469 76.9639 87.0037 76.9639C85.3363 76.8158 84.2022 76.7417 83.6013 76.7417L83.449 76.9639V78.2207C83.449 79.7822 83.523 81.6823 83.6711 83.9209C83.6711 84.763 83.4257 85.1841 82.9348 85.1841C82.3424 85.0444 82.0461 84.3779 82.0461 83.1846C82.0123 83.0322 81.9615 81.9954 81.8938 80.0742L82.0461 76.9639C81.9446 76.9639 81.8938 76.9152 81.8938 76.8179C80.0106 77.0633 78.9019 77.186 78.5676 77.186H78.4914C78.2248 77.186 78.0513 77.0866 77.9709 76.8877V76.3735C78.2164 75.7388 80.4381 75.2944 84.636 75.0405ZM97.3463 74.8882C97.8414 75.0828 98.0889 75.3558 98.0889 75.707V79.6997C98.0889 80.2668 98.163 81.9214 98.3111 84.6636C98.1926 85.256 97.8964 85.5522 97.4224 85.5522H97.1241C96.4343 85.5522 96.0894 84.5895 96.0894 82.6641V82.2959C96.0894 82.1943 96.0408 82.1436 95.9434 82.1436C94.9532 83.43 93.8424 84.0732 92.6109 84.0732C91.1933 84.0732 90.1819 83.2078 89.5767 81.4771C89.3778 81.0031 89.253 80.3366 89.2022 79.4775C89.2022 78.2969 89.5492 76.9406 90.2432 75.4087C90.5606 75.0828 90.8166 74.9982 91.0113 75.1548C91.206 75.3114 91.2462 75.5441 91.1319 75.853C90.421 77.5754 90.1861 79.0163 90.4273 80.1758C90.6728 81.3353 91.1044 82.116 91.7222 82.5181C91.9169 82.7127 92.2131 82.8101 92.6109 82.8101C94.1936 82.8101 95.3785 81.0094 96.1656 77.4082C96.1656 75.7282 96.5592 74.8882 97.3463 74.8882ZM107.93 74.8184H108C109.185 74.8184 109.877 75.0405 110.076 75.4849C110.173 75.6626 110.222 75.8594 110.222 76.0752C110.222 76.7734 109.062 77.9816 106.743 79.6997L103.265 82.5879C103.049 82.7106 102.901 82.8841 102.82 83.1084C102.867 83.1084 102.89 83.1338 102.89 83.1846C106.648 82.6895 109.191 82.4419 110.52 82.4419H110.964C111.358 82.7212 111.555 82.992 111.555 83.2544V83.4067C111.555 83.9992 110.913 84.2954 109.631 84.2954L101.119 84.8857C100.573 84.8857 100.226 84.5895 100.078 83.9971V83.7749C100.078 83.2629 101.608 81.7585 104.667 79.2617C107.037 77.4971 108.222 76.4836 108.222 76.2212C108.116 76.1746 107.746 76.126 107.111 76.0752C104.813 76.1725 103.038 76.3693 101.786 76.6655C101.388 76.619 101.189 76.4222 101.189 76.0752C101.189 75.4193 103.436 75.0003 107.93 74.8184ZM114.528 74.4438H114.972C115.141 74.4438 115.264 74.7168 115.34 75.2627C114.849 79.7695 114.604 82.262 114.604 82.7402C114.65 82.7402 114.674 82.7635 114.674 82.8101C114.792 82.8101 115.459 82.0208 116.673 80.4424C119.957 76.7396 121.882 74.8882 122.449 74.8882H122.672C123.167 74.9855 123.414 75.2331 123.414 75.6309V75.7769C123.414 76.1366 122.722 76.7798 121.339 77.7065C120.056 78.866 119.415 79.5812 119.415 79.8521C120.596 81.2909 121.607 82.2536 122.449 82.7402L122.894 83.3306V83.8511C122.894 84.3039 122.572 84.5747 121.929 84.6636H121.859C120.903 84.6636 119.667 83.5041 118.152 81.1851H118.006C117.888 81.1893 117.098 82.078 115.638 83.8511C115.253 84.4901 114.834 84.8096 114.382 84.8096C113.688 84.6107 113.341 84.0182 113.341 83.0322C113.341 82.0081 113.662 79.1961 114.305 74.5962L114.528 74.4438ZM125.981 75.7769H126.133C126.772 75.8657 127.092 76.1387 127.092 76.5957V76.8179C126.601 79.5897 126.356 81.9087 126.356 83.7749C126.356 84.3039 126.182 84.6488 125.835 84.8096H125.315C124.87 84.8096 124.648 83.8468 124.648 81.9214V80.4424C124.809 77.4336 125.105 75.9292 125.537 75.9292C125.698 75.8276 125.846 75.7769 125.981 75.7769Z"
              fill="black"></path>
    </g>
    <defs>
        <clipPath id="clip0_1604_153">
            <rect width="186" height="155" fill="white"></rect>
        </clipPath>
    </defs>
</svg>