<?xml version="1.0" encoding="UTF-8"?> <svg xmlns="http://www.w3.org/2000/svg" width="187" height="154" viewBox="0 0 187 154" fill="none"> <path d="M178.352 41.4887C177.896 37.8431 177.321 34.2096 176.464 30.6795C176.248 29.7978 176.014 28.9251 175.749 28.0677C175.488 27.2072 175.199 26.365 174.867 25.5501C174.788 25.3433 174.697 25.1488 174.615 24.945C174.524 24.7504 174.439 24.5498 174.341 24.3582C174.156 23.9721 173.955 23.5981 173.742 23.2484C173.53 22.8987 173.298 22.5704 173.058 22.2845C172.997 22.2177 172.937 22.1416 172.876 22.0808L172.782 21.9866L172.736 21.9379L172.675 21.8832L172.186 21.4302C172.104 21.3541 172.024 21.2781 171.942 21.2051L171.693 20.9893C171.526 20.8464 171.362 20.6974 171.191 20.5606L170.681 20.1501C170.595 20.0801 170.51 20.0163 170.422 19.9524L170.161 19.7609C169.458 19.2531 168.735 18.8031 167.974 18.4261C167.214 18.046 166.415 17.7359 165.566 17.4531C164.718 17.1673 163.818 16.8997 162.906 16.5835C162.207 16.3555 161.48 16.1457 160.726 15.9784L160.163 15.8507C159.975 15.8082 159.783 15.7747 159.592 15.7352C159.209 15.6592 158.828 15.5801 158.442 15.5193C158.056 15.4555 157.673 15.3794 157.281 15.3247L156.113 15.1484C155.332 15.0419 154.547 14.9325 153.76 14.8443C152.975 14.744 152.185 14.668 151.394 14.5798C150.604 14.5038 149.813 14.4217 149.02 14.3548L147.831 14.2514L146.639 14.1571C145.845 14.0933 145.052 14.0386 144.255 13.9838C141.075 13.7679 137.885 13.6068 134.696 13.4761C131.503 13.3453 128.31 13.248 125.115 13.172C115.71 12.9561 106.297 12.9166 96.8832 12.9926C96.8194 12.9926 96.7525 12.9926 96.6887 12.9926C94.6849 13.0078 92.6812 13.0321 90.6775 13.0565C90.492 13.0565 90.3035 13.0625 90.118 13.0625C88.99 13.0777 87.8619 13.0929 86.7339 13.1112C85.9707 13.1234 85.2075 13.1416 84.4474 13.1538C84.1555 13.1598 83.8666 13.1659 83.5747 13.169C81.7626 13.2054 79.9474 13.2419 78.1352 13.2875C77.7946 13.2967 77.4572 13.3027 77.1166 13.3119C75.3288 13.3544 73.544 13.4061 71.7561 13.4578C71.4156 13.4669 71.075 13.4791 70.7345 13.4882C69.6703 13.5186 68.6091 13.5521 67.5449 13.5855C66.7696 13.6098 65.9942 13.6372 65.2189 13.6646C64.9848 13.6737 64.7476 13.6828 64.5135 13.6889C59.1317 13.8805 53.7499 14.1085 48.3864 14.4278C46.7931 14.522 45.2029 14.6284 43.6188 14.7501C42.8252 14.8109 42.0377 14.8747 41.2502 14.9477C40.4658 15.0207 39.6813 15.0997 38.9242 15.2001C38.7387 15.2274 38.5411 15.2487 38.3678 15.2791C38.1914 15.3095 37.9968 15.3338 37.8539 15.3703L37.7384 15.3947L37.6806 15.4068C37.6624 15.4099 37.6411 15.4159 37.6168 15.422L37.334 15.492C37.1455 15.5376 36.957 15.5862 36.7715 15.6349C36.0235 15.8295 35.2907 16.0423 34.564 16.2795C33.8404 16.5197 33.1289 16.7811 32.4265 17.07C31.7302 17.3649 31.037 17.672 30.3681 18.0217C29.0241 18.7089 27.738 19.4994 26.5431 20.4085L26.0991 20.7552L25.8772 20.9285C25.8072 20.9832 25.7586 21.0318 25.6978 21.0805C25.4637 21.2842 25.2356 21.5122 25.0167 21.7677C24.5758 22.2693 24.1745 22.8562 23.8035 23.4764C23.0616 24.72 22.4505 26.1126 21.9214 27.5447C21.4288 28.8795 21.0062 30.2599 20.6322 31.6586C20.6049 31.762 20.5744 31.8684 20.5471 31.9718C20.4741 32.2484 20.4042 32.5282 20.3373 32.8049C19.6532 35.5566 19.1363 38.3691 18.7136 41.2029C18.2515 44.3225 17.9109 47.4725 17.6616 50.6286C17.1599 56.9438 17.0048 63.3016 17.1386 69.6442C17.2754 75.9868 17.7042 82.3264 18.5008 88.5991C18.7744 90.7426 19.0967 92.8802 19.4768 94.9994C19.5954 95.6714 19.7231 96.3403 19.8538 97.0092C19.9146 97.3163 19.9755 97.6234 20.0393 97.9275C20.3008 99.1832 20.5836 100.43 20.8937 101.67C20.9606 101.944 21.0305 102.215 21.1005 102.488C21.4988 104.006 21.9397 105.501 22.4383 106.97C22.937 108.433 23.4934 109.862 24.1319 111.233C24.6123 112.264 25.1414 113.264 25.7312 114.191C25.9228 114.492 26.1204 114.787 26.3272 115.073C26.5704 115.414 26.8289 115.736 27.0934 116.046C27.2789 116.265 27.4704 116.475 27.665 116.676C27.8991 116.919 28.1454 117.138 28.3948 117.347L28.5833 117.496L28.6775 117.572L28.79 117.655L29.2431 117.98C30.4532 118.846 31.7454 119.598 33.0894 120.26C33.2566 120.345 33.4269 120.425 33.5971 120.504C33.7674 120.583 33.9377 120.662 34.1079 120.738C34.4546 120.887 34.7982 121.039 35.1478 121.176C35.8472 121.455 36.5586 121.717 37.2823 121.954C37.5012 122.027 37.7232 122.097 37.9451 122.167C38.0911 122.212 38.234 122.258 38.3799 122.301L38.9424 122.471C39.131 122.526 39.3316 122.589 39.511 122.635L39.9002 122.738L40.6147 122.93L41.1681 123.079C41.3536 123.128 41.5451 123.164 41.7306 123.21C44.7347 123.906 47.8513 124.389 50.98 124.782C54.1148 125.159 57.2739 125.445 60.4422 125.679L62.8199 125.837L63.4159 125.876L64.0118 125.91L65.2037 125.977C66.7909 126.074 68.3841 126.138 69.9743 126.211C76.3413 126.475 82.7234 126.582 89.1085 126.615H89.9508L90.3065 126.621L90.8781 127.661C91.091 128.047 91.2917 128.439 91.4771 128.841C91.7599 129.446 92.0123 130.066 92.2312 130.702C92.5991 131.757 92.8545 132.854 93.0218 133.961C93.341 136.184 93.2255 138.449 92.7572 140.596C92.6417 141.134 92.5048 141.666 92.3498 142.186C92.1947 142.709 92.0214 143.226 91.8298 143.733C91.6383 144.241 91.4315 144.74 91.2096 145.232L91.0393 145.6C91.0302 145.622 91.0332 145.622 91.0241 145.634C91.0241 145.643 91.0241 145.649 91.018 145.655C91.0119 145.679 91.0089 145.685 91.0119 145.689C91.0119 145.695 91.0119 145.701 91.018 145.716C91.0241 145.731 91.0363 145.755 91.0575 145.777C91.1001 145.822 91.1579 145.85 91.1822 145.85C91.1944 145.85 91.2035 145.85 91.2187 145.85C91.2217 145.85 91.2278 145.85 91.2339 145.847C91.24 145.847 91.2461 145.847 91.2521 145.841C91.2582 145.841 91.2673 145.837 91.2765 145.828C91.2825 145.828 91.2856 145.822 91.2917 145.822H91.2947L91.3129 145.81L91.3494 145.789L91.9393 145.433C92.1339 145.311 92.3346 145.205 92.5231 145.068C94.0677 144.062 95.5302 142.882 96.8985 141.59C96.9258 141.566 96.9532 141.538 96.9805 141.511C97.1812 141.322 97.3789 141.128 97.5735 140.933C98.6893 139.823 99.7414 138.641 100.73 137.403C101.316 136.664 101.879 135.901 102.417 135.123C102.824 134.533 103.22 133.931 103.603 133.32C103.731 133.116 103.855 132.912 103.98 132.708C104.968 131.079 105.859 129.388 106.65 127.649L107.154 126.536L108.355 126.512C115.762 126.363 123.169 126.126 130.573 125.791C134.273 125.624 137.973 125.435 141.668 125.213C145.362 124.988 149.056 124.742 152.732 124.426C154.569 124.268 156.405 124.098 158.214 123.879C158.667 123.827 159.114 123.766 159.558 123.705L160.218 123.608L160.537 123.553C160.644 123.535 160.753 123.517 160.85 123.496L161.151 123.435L161.404 123.374L161.468 123.359L161.544 123.334L161.699 123.289C161.802 123.258 161.906 123.228 162.009 123.194C162.213 123.128 162.419 123.064 162.62 122.991C162.824 122.921 163.021 122.845 163.222 122.769C164.353 122.334 165.442 121.781 166.488 121.139C166.621 121.057 166.758 120.972 166.892 120.887C167.181 120.701 167.47 120.51 167.753 120.309C168.467 119.807 169.163 119.272 169.832 118.698L170.085 118.485L170.334 118.263L170.826 117.822C171.091 117.579 171.349 117.293 171.596 116.983C171.842 116.676 172.076 116.341 172.295 115.988C172.52 115.639 172.727 115.268 172.928 114.891C173.326 114.131 173.685 113.334 174.01 112.513C174.661 110.868 175.199 109.147 175.664 107.396C176.132 105.644 176.528 103.866 176.874 102.072C177.224 100.278 177.522 98.4687 177.789 96.6504C178.318 93.017 178.711 89.3531 179.006 85.6801C179.301 82.0071 179.501 78.3189 179.62 74.6307C179.662 73.2868 179.693 71.9459 179.714 70.602C179.714 70.5382 179.714 70.4743 179.714 70.4105C179.802 64.4358 179.687 58.452 179.331 52.4925C179.109 48.8104 178.799 45.1343 178.349 41.4857L178.352 41.4887Z" fill="#16C1F3"></path> <path d="M0.938571 76.7499C0.938571 76.7316 0.92337 76.7134 0.902086 76.7134C0.883842 76.7134 0.865601 76.7286 0.865601 76.7499C0.865601 76.7681 0.880802 76.7863 0.902086 76.7863C0.92337 76.7863 0.938571 76.7711 0.938571 76.7499Z" fill="#1A1A1A"></path> <path d="M0.810913 83.1409C0.810913 83.1896 0.850434 83.2291 0.899082 83.2291C0.947731 83.2291 0.987261 83.1896 0.987261 83.1409C0.987261 83.0923 0.947731 83.0527 0.899082 83.0527C0.850434 83.0527 0.810913 83.0923 0.810913 83.1409Z" fill="#1A1A1A"></path> <path d="M7.28726 83.5362C7.50314 83.5362 7.67645 83.3629 7.67645 83.147C7.67645 82.9311 7.50314 82.7578 7.28726 82.7578C7.07138 82.7578 6.89807 82.9311 6.89807 83.147C6.89807 83.3629 7.07138 83.5362 7.28726 83.5362Z" fill="#1A1A1A"></path> <path d="M0.753174 89.5291C0.753174 89.6082 0.817026 89.672 0.89608 89.672C0.975135 89.672 1.03899 89.6082 1.03899 89.5291C1.03899 89.4501 0.975135 89.3862 0.89608 89.3862C0.817026 89.3862 0.753174 89.4501 0.753174 89.5291Z" fill="#1A1A1A"></path> <path d="M7.2812 89.9762C7.52444 89.9762 7.72512 89.7786 7.72512 89.5323C7.72512 89.2891 7.52748 89.0884 7.2812 89.0884C7.03795 89.0884 6.83728 89.286 6.83728 89.5323C6.83728 89.7756 7.03491 89.9762 7.2812 89.9762Z" fill="#1A1A1A"></path> <path d="M13.6694 90.3016C14.089 90.3016 14.4326 89.9611 14.4326 89.5415C14.4326 89.1219 14.0921 88.7783 13.6725 88.7783C13.2529 88.7783 12.9093 89.1189 12.9093 89.5385C12.9093 89.9581 13.2498 90.3016 13.6694 90.3016Z" fill="#1A1A1A"></path> <path d="M0.889978 95.7593C0.801802 95.7593 0.731873 95.8292 0.731873 95.9174C0.731873 96.0056 0.801802 96.0755 0.889978 96.0755C0.978154 96.0755 1.04809 96.0056 1.04809 95.9174C1.04809 95.8292 0.978154 95.7593 0.889978 95.7593Z" fill="#1A1A1A"></path> <path d="M7.27816 96.3827C7.53356 96.3827 7.74032 96.1759 7.74032 95.9236C7.74032 95.6682 7.53357 95.4614 7.2812 95.4614C7.02579 95.4614 6.81903 95.6682 6.81903 95.9206C6.81903 96.1729 7.02579 96.3827 7.27816 96.3827Z" fill="#1A1A1A"></path> <path d="M13.6664 96.7078C14.0981 96.7078 14.4448 96.3581 14.4478 95.9294C14.4478 95.4976 14.0981 95.151 13.6694 95.1479C13.2377 95.1479 12.891 95.4976 12.888 95.9263C12.888 96.3581 13.2377 96.7047 13.6664 96.7078Z" fill="#1A1A1A"></path> <path d="M0.883873 102.166C0.804819 102.166 0.740967 102.23 0.740967 102.309C0.740967 102.388 0.804819 102.452 0.883873 102.452C0.962928 102.452 1.02678 102.388 1.02678 102.309C1.02678 102.23 0.962928 102.166 0.883873 102.166Z" fill="#1A1A1A"></path> <path d="M7.71597 102.312C7.71597 102.068 7.51834 101.868 7.27205 101.868C7.02881 101.868 6.82812 102.065 6.82812 102.312C6.82812 102.555 7.02577 102.756 7.27205 102.756C7.5153 102.756 7.71597 102.558 7.71597 102.312Z" fill="#1A1A1A"></path> <path d="M13.6603 101.555C13.2407 101.555 12.8971 101.895 12.8971 102.315C12.8971 102.734 13.2376 103.078 13.6572 103.078C14.0768 103.078 14.4204 102.737 14.4204 102.318C14.4204 101.898 14.0799 101.555 13.6603 101.555Z" fill="#1A1A1A"></path> <path d="M0.984144 108.694C0.984144 108.636 0.935493 108.587 0.877723 108.587C0.819952 108.587 0.771301 108.636 0.771301 108.694C0.771301 108.752 0.819952 108.8 0.877723 108.8C0.935493 108.8 0.984144 108.752 0.984144 108.694Z" fill="#1A1A1A"></path> <path d="M7.26596 109.089C7.48184 109.089 7.65515 108.916 7.65515 108.7C7.65515 108.484 7.48184 108.311 7.26596 108.311C7.05008 108.311 6.87677 108.484 6.87677 108.7C6.87677 108.916 7.05008 109.089 7.26596 109.089Z" fill="#1A1A1A"></path> <path d="M13.6542 108.016C13.2711 108.016 12.964 108.326 12.964 108.706C12.964 109.086 13.2741 109.396 13.6542 109.396C14.0343 109.396 14.3444 109.086 14.3444 108.706C14.3444 108.323 14.0343 108.016 13.6542 108.016Z" fill="#1A1A1A"></path> <path d="M0.820068 115.085C0.820068 115.115 0.844388 115.137 0.871753 115.14C0.902158 115.14 0.923449 115.115 0.92649 115.088C0.92649 115.058 0.902161 115.036 0.874796 115.033C0.844391 115.033 0.823109 115.058 0.820068 115.085Z" fill="#1A1A1A"></path> <path d="M7.25987 115.389C7.4271 115.389 7.56089 115.255 7.56089 115.088C7.56089 114.921 7.4271 114.787 7.25987 114.787C7.09264 114.787 6.95886 114.921 6.95886 115.088C6.95886 115.255 7.09264 115.389 7.25987 115.389Z" fill="#1A1A1A"></path> <path d="M13.6512 114.51C13.3289 114.51 13.0674 114.772 13.0674 115.094C13.0674 115.416 13.3289 115.678 13.6512 115.678C13.9735 115.678 14.235 115.416 14.235 115.094C14.235 114.772 13.9735 114.51 13.6512 114.51Z" fill="#1A1A1A"></path> <path d="M20.0394 114.231C19.559 114.231 19.1698 114.62 19.1698 115.098C19.1698 115.578 19.559 115.967 20.0364 115.967C20.5168 115.967 20.906 115.578 20.906 115.101C20.906 114.62 20.5168 114.231 20.0394 114.231Z" fill="#1A1A1A"></path> <path d="M7.43321 121.48C7.43321 121.382 7.35415 121.303 7.25685 121.303C7.15956 121.303 7.08051 121.382 7.08051 121.48C7.08051 121.577 7.15956 121.656 7.25685 121.656C7.35415 121.656 7.43321 121.577 7.43321 121.48Z" fill="#1A1A1A"></path> <path d="M14.1042 121.483C14.1042 121.227 13.8974 121.021 13.6451 121.021C13.3897 121.021 13.1829 121.227 13.1829 121.48C13.1829 121.735 13.3897 121.942 13.642 121.942C13.8974 121.942 14.1042 121.735 14.1042 121.483Z" fill="#1A1A1A"></path> <path d="M20.0333 120.762C19.632 120.762 19.3066 121.087 19.3066 121.488C19.3066 121.89 19.632 122.215 20.0333 122.215C20.4347 122.215 20.76 121.89 20.76 121.488C20.76 121.087 20.4347 120.762 20.0333 120.762Z" fill="#1A1A1A"></path> <path d="M7.19604 127.868C7.19604 127.898 7.22036 127.919 7.24773 127.919C7.27509 127.919 7.30247 127.895 7.30247 127.868C7.30247 127.837 7.27814 127.813 7.25077 127.813C7.22341 127.813 7.19909 127.837 7.19604 127.865V127.868Z" fill="#1A1A1A"></path> <path d="M13.9218 127.874C13.9218 127.719 13.7941 127.591 13.639 127.591C13.484 127.591 13.3563 127.719 13.3563 127.874C13.3563 128.029 13.484 128.156 13.639 128.156C13.7971 128.156 13.9218 128.029 13.9218 127.874Z" fill="#1A1A1A"></path> <path d="M20.5775 127.877C20.5775 127.572 20.3312 127.326 20.0302 127.326C19.7261 127.326 19.4799 127.572 19.4799 127.873C19.4799 128.178 19.7261 128.424 20.0272 128.424C20.3312 128.424 20.5775 128.178 20.5775 127.877Z" fill="#1A1A1A"></path> <path d="M27.1968 127.883C27.1968 127.451 26.8472 127.105 26.4184 127.102C25.9867 127.102 25.6401 127.451 25.637 127.88C25.637 128.312 25.9867 128.658 26.4154 128.661C26.8472 128.661 27.1938 128.312 27.1968 127.883Z" fill="#1A1A1A"></path> <path d="M32.8066 126.913C32.2685 126.913 31.8306 127.347 31.8306 127.886C31.8306 128.424 32.2654 128.862 32.8036 128.862C33.3418 128.862 33.7796 128.427 33.7796 127.889C33.7796 127.35 33.3448 126.913 32.8066 126.913Z" fill="#1A1A1A"></path> <path d="M13.5266 134.262C13.5266 134.319 13.5752 134.368 13.633 134.368C13.6907 134.368 13.7394 134.319 13.7394 134.262C13.7394 134.204 13.6907 134.155 13.633 134.155C13.5752 134.155 13.5266 134.204 13.5266 134.262Z" fill="#1A1A1A"></path> <path d="M20.3586 134.265C20.3586 134.079 20.2097 133.927 20.0212 133.927C19.8357 133.927 19.6837 134.076 19.6837 134.265C19.6837 134.45 19.8326 134.602 20.0212 134.602C20.2066 134.602 20.3586 134.453 20.3586 134.265Z" fill="#1A1A1A"></path> <path d="M26.9596 134.271C26.9596 133.967 26.7134 133.721 26.4123 133.721C26.1083 133.721 25.862 133.967 25.862 134.268C25.862 134.572 26.1083 134.818 26.4093 134.818C26.7134 134.818 26.9596 134.572 26.9596 134.271Z" fill="#1A1A1A"></path> <path d="M33.5273 134.277C33.5273 133.876 33.202 133.55 32.8006 133.55C32.3992 133.55 32.0739 133.876 32.0739 134.277C32.0739 134.678 32.3992 135.004 32.8006 135.004C33.202 135.004 33.5273 134.678 33.5273 134.277Z" fill="#1A1A1A"></path> <path d="M39.1888 133.395C38.6993 133.395 38.304 133.79 38.301 134.28C38.301 134.769 38.6962 135.165 39.1858 135.168C39.6753 135.168 40.0706 134.772 40.0736 134.283C40.0736 133.793 39.6783 133.398 39.1888 133.395Z" fill="#1A1A1A"></path> <path d="M45.577 133.277C45.0205 133.277 44.5675 133.727 44.5675 134.286C44.5675 134.843 45.0175 135.296 45.577 135.296C46.1334 135.296 46.5864 134.846 46.5864 134.286C46.5864 133.73 46.1364 133.277 45.577 133.277Z" fill="#1A1A1A"></path> <path d="M53.0628 134.295C53.0628 133.69 52.5732 133.197 51.9651 133.194C51.357 133.194 50.8675 133.684 50.8644 134.292C50.8644 134.897 51.354 135.39 51.9621 135.393C52.5702 135.393 53.0597 134.903 53.0628 134.295Z" fill="#1A1A1A"></path> <path d="M58.3565 133.183C57.7392 133.183 57.2406 133.681 57.2406 134.298C57.2406 134.916 57.7392 135.414 58.3565 135.414C58.9737 135.414 59.4724 134.916 59.4724 134.298C59.4724 133.681 58.9737 133.183 58.3565 133.183Z" fill="#1A1A1A"></path> <path d="M64.7446 133.207C64.1365 133.207 63.647 133.696 63.6439 134.304C63.6439 134.909 64.1334 135.402 64.7416 135.405C65.3497 135.405 65.8392 134.915 65.8422 134.307C65.8422 133.699 65.3527 133.21 64.7446 133.207Z" fill="#1A1A1A"></path> <path d="M72.1605 134.31C72.1605 133.742 71.7014 133.283 71.1328 133.283C70.5642 133.283 70.1051 133.742 70.1051 134.31C70.1051 134.879 70.5642 135.338 71.1328 135.338C71.7014 135.338 72.1605 134.879 72.1605 134.31Z" fill="#1A1A1A"></path> <path d="M78.5123 134.317C78.5123 133.857 78.1657 133.48 77.7187 133.435C77.6549 133.42 77.588 133.414 77.5211 133.414C77.0224 133.414 76.618 133.818 76.618 134.317C76.618 134.815 77.0224 135.22 77.5211 135.22C77.588 135.22 77.6549 135.211 77.7187 135.198C78.1657 135.153 78.5123 134.776 78.5123 134.317Z" fill="#1A1A1A"></path> <path d="M19.9117 140.656C19.9117 140.714 19.9603 140.763 20.0181 140.763C20.0759 140.763 20.1245 140.714 20.1245 140.656C20.1245 140.598 20.0759 140.55 20.0181 140.55C19.9603 140.55 19.9117 140.598 19.9117 140.656Z" fill="#1A1A1A"></path> <path d="M26.7072 140.659C26.7072 140.492 26.5735 140.358 26.4062 140.358C26.239 140.358 26.1052 140.492 26.1052 140.659C26.1052 140.826 26.239 140.96 26.4062 140.96C26.5735 140.96 26.7072 140.826 26.7072 140.659Z" fill="#1A1A1A"></path> <path d="M33.2536 140.665C33.2536 140.41 33.0469 140.203 32.7945 140.203C32.5391 140.203 32.3323 140.41 32.3323 140.662C32.3323 140.918 32.5391 141.124 32.7915 141.124C33.0469 141.124 33.2536 140.918 33.2536 140.665Z" fill="#1A1A1A"></path> <path d="M39.7847 140.671C39.7847 140.34 39.5141 140.069 39.1827 140.069C38.8512 140.069 38.5806 140.34 38.5806 140.671C38.5806 141.003 38.8512 141.273 39.1827 141.273C39.5141 141.273 39.7847 141.003 39.7847 140.671Z" fill="#1A1A1A"></path> <path d="M46.2976 140.677C46.2976 140.276 45.9723 139.951 45.5709 139.951C45.1696 139.951 44.8442 140.276 44.8442 140.677C44.8442 141.079 45.1696 141.404 45.5709 141.404C45.9723 141.404 46.2976 141.079 46.2976 140.677Z" fill="#1A1A1A"></path> <path d="M52.7405 140.683C52.7405 140.252 52.3909 139.905 51.9622 139.902C51.5304 139.902 51.1838 140.252 51.1807 140.68C51.1777 141.109 51.5304 141.459 51.9591 141.462C52.3909 141.462 52.7375 141.112 52.7405 140.683Z" fill="#1A1A1A"></path> <path d="M59.1653 140.69C59.1653 140.24 58.8004 139.875 58.3504 139.875C57.9004 139.875 57.5355 140.24 57.5355 140.69C57.5355 141.14 57.9004 141.505 58.3504 141.505C58.8004 141.505 59.1653 141.14 59.1653 140.69Z" fill="#1A1A1A"></path> <path d="M65.5352 140.693C65.5352 140.252 65.1795 139.896 64.7386 139.896C64.2977 139.896 63.942 140.252 63.942 140.693C63.942 141.134 64.2977 141.489 64.7386 141.489C65.1795 141.489 65.5352 141.134 65.5352 140.693Z" fill="#1A1A1A"></path> <path d="M71.8534 140.699C71.8534 140.298 71.5281 139.972 71.1267 139.972C70.7254 139.972 70.4 140.298 70.4 140.699C70.4 141.1 70.7254 141.426 71.1267 141.426C71.5281 141.426 71.8534 141.1 71.8534 140.699Z" fill="#1A1A1A"></path> <path d="M26.3303 147.05C26.3303 147.09 26.3607 147.12 26.4002 147.12C26.4397 147.12 26.4701 147.09 26.4701 147.05C26.4701 147.011 26.4397 146.98 26.4002 146.98C26.3607 146.98 26.3303 147.011 26.3303 147.05Z" fill="#1A1A1A"></path> <path d="M32.9831 147.053C32.9831 146.947 32.8949 146.859 32.7885 146.859C32.682 146.859 32.5939 146.947 32.5939 147.053C32.5939 147.16 32.682 147.248 32.7885 147.248C32.8949 147.248 32.9831 147.16 32.9831 147.053Z" fill="#1A1A1A"></path> <path d="M39.4959 147.06C39.4959 146.883 39.353 146.74 39.1767 146.74C39.0003 146.74 38.8574 146.883 38.8574 147.06C38.8574 147.236 39.0003 147.379 39.1767 147.379C39.353 147.379 39.4959 147.236 39.4959 147.06Z" fill="#1A1A1A"></path> <path d="M45.9723 147.066C45.9723 146.841 45.7898 146.658 45.5648 146.658C45.3398 146.658 45.1574 146.841 45.1574 147.066C45.1574 147.291 45.3398 147.473 45.5648 147.473C45.7898 147.473 45.9723 147.291 45.9723 147.066Z" fill="#1A1A1A"></path> <path d="M52.4334 147.072C52.4334 146.807 52.2206 146.594 51.9561 146.594C51.6915 146.594 51.4787 146.807 51.4787 147.072C51.4787 147.336 51.6915 147.549 51.9561 147.549C52.2206 147.549 52.4334 147.336 52.4334 147.072Z" fill="#1A1A1A"></path> <path d="M58.8399 147.078C58.8399 146.804 58.618 146.582 58.3443 146.582C58.0707 146.582 57.8487 146.804 57.8487 147.078C57.8487 147.351 58.0707 147.573 58.3443 147.573C58.618 147.573 58.8399 147.351 58.8399 147.078Z" fill="#1A1A1A"></path> <path d="M64.7325 147.561C64.997 147.561 65.2099 147.348 65.2099 147.084C65.2099 146.819 64.997 146.606 64.7325 146.606C64.468 146.606 64.2551 146.819 64.2551 147.084C64.2551 147.348 64.468 147.561 64.7325 147.561Z" fill="#1A1A1A"></path> <path d="M71.5464 147.087C71.5464 146.853 71.3579 146.661 71.1207 146.661C70.8866 146.661 70.695 146.85 70.695 147.087C70.695 147.321 70.8835 147.513 71.1207 147.513C71.3548 147.513 71.5464 147.324 71.5464 147.087Z" fill="#1A1A1A"></path> <path d="M32.7642 153.442C32.7642 153.442 32.7735 153.461 32.7829 153.461C32.7922 153.461 32.8015 153.451 32.8015 153.442C32.8015 153.433 32.7922 153.423 32.7829 153.423C32.7735 153.423 32.7642 153.433 32.7642 153.442Z" fill="#1A1A1A"></path> <path d="M39.1188 153.448C39.1188 153.478 39.1432 153.499 39.1705 153.499C39.2009 153.499 39.2222 153.475 39.2222 153.448C39.2222 153.417 39.1979 153.393 39.1705 153.393C39.1432 153.393 39.1188 153.417 39.1188 153.445V153.448Z" fill="#1A1A1A"></path> <path d="M45.4371 153.454C45.4371 153.524 45.4919 153.578 45.5618 153.578C45.6317 153.578 45.6865 153.524 45.6865 153.454C45.6865 153.384 45.6317 153.329 45.5618 153.329C45.4919 153.329 45.4371 153.384 45.4371 153.454Z" fill="#1A1A1A"></path> <path d="M51.7737 153.46C51.7737 153.557 51.8527 153.636 51.95 153.636C52.0473 153.636 52.1264 153.557 52.1264 153.46C52.1264 153.363 52.0473 153.284 51.95 153.284C51.8527 153.284 51.7737 153.363 51.7737 153.46Z" fill="#1A1A1A"></path> <path d="M58.1436 153.466C58.1436 153.572 58.2318 153.66 58.3382 153.66C58.4446 153.66 58.5328 153.572 58.5328 153.466C58.5328 153.359 58.4446 153.271 58.3382 153.271C58.2318 153.271 58.1436 153.359 58.1436 153.466Z" fill="#1A1A1A"></path> <path d="M64.7264 153.649C64.8237 153.649 64.9027 153.57 64.9027 153.472C64.9027 153.375 64.8237 153.296 64.7264 153.296C64.6291 153.296 64.55 153.375 64.55 153.472C64.55 153.57 64.6291 153.649 64.7264 153.649Z" fill="#1A1A1A"></path> <path d="M71.1146 153.35C71.0447 153.35 70.99 153.405 70.99 153.475C70.99 153.545 71.0447 153.599 71.1146 153.599C71.1815 153.599 71.2393 153.545 71.2393 153.475C71.2393 153.408 71.1846 153.35 71.1146 153.35Z" fill="#1A1A1A"></path> <path d="M84.0157 133.311C83.4593 133.311 83.0062 133.761 83.0062 134.32C83.0062 134.876 83.4562 135.329 84.0157 135.329C84.5721 135.329 85.0251 134.879 85.0251 134.32C85.0251 133.764 84.5751 133.311 84.0157 133.311Z" fill="#1A1A1A"></path> <path d="M110.599 134.344C110.599 133.776 110.14 133.316 109.572 133.316C109.003 133.316 108.544 133.776 108.544 134.344C108.544 134.913 109.003 135.372 109.572 135.372C110.14 135.372 110.599 134.913 110.599 134.344Z" fill="#1A1A1A"></path> <path d="M78.2234 140.705C78.2234 140.389 77.9802 140.13 77.6701 140.106C77.6214 140.094 77.5697 140.084 77.515 140.084C77.1714 140.084 76.8947 140.361 76.8947 140.705C76.8947 141.048 77.1714 141.325 77.515 141.325C77.5697 141.325 77.6184 141.319 77.6701 141.304C77.9802 141.279 78.2234 141.021 78.2234 140.705Z" fill="#1A1A1A"></path> <path d="M84.7363 140.711C84.7363 140.309 84.4109 139.984 84.0096 139.984C83.6082 139.984 83.2829 140.309 83.2829 140.711C83.2829 141.112 83.6082 141.437 84.0096 141.437C84.4109 141.437 84.7363 141.112 84.7363 140.711Z" fill="#1A1A1A"></path> <path d="M110.292 140.732C110.292 140.331 109.967 140.005 109.566 140.005C109.164 140.005 108.839 140.331 108.839 140.732C108.839 141.133 109.164 141.459 109.566 141.459C109.967 141.459 110.292 141.133 110.292 140.732Z" fill="#1A1A1A"></path> <path d="M77.9345 147.093C77.9345 146.917 77.7916 146.774 77.6153 146.774C77.5818 146.761 77.5484 146.755 77.5119 146.755C77.3264 146.755 77.1744 146.904 77.1744 147.093C77.1744 147.278 77.3234 147.43 77.5119 147.43C77.5484 147.43 77.5818 147.424 77.6153 147.412C77.7916 147.412 77.9345 147.269 77.9345 147.093Z" fill="#1A1A1A"></path> <path d="M84.4109 147.099C84.4109 146.874 84.2285 146.691 84.0035 146.691C83.7785 146.691 83.5961 146.874 83.5961 147.099C83.5961 147.324 83.7785 147.506 84.0035 147.506C84.2285 147.506 84.4109 147.324 84.4109 147.099Z" fill="#1A1A1A"></path> <path d="M103.649 147.114C103.649 146.85 103.436 146.637 103.171 146.637C102.907 146.637 102.694 146.85 102.694 147.114C102.694 147.379 102.907 147.591 103.171 147.591C103.436 147.591 103.649 147.379 103.649 147.114Z" fill="#1A1A1A"></path> <path d="M109.985 147.12C109.985 146.886 109.796 146.695 109.559 146.695C109.325 146.695 109.134 146.883 109.134 147.12C109.134 147.355 109.322 147.546 109.559 147.546C109.793 147.546 109.985 147.358 109.985 147.12Z" fill="#1A1A1A"></path> <path d="M77.5575 153.481C77.5575 153.451 77.5332 153.43 77.5058 153.43C77.4754 153.43 77.4542 153.454 77.4542 153.481C77.4542 153.512 77.4785 153.536 77.5058 153.536C77.5363 153.536 77.5575 153.512 77.5575 153.484C77.5575 153.515 77.5819 153.536 77.6092 153.536C77.6396 153.536 77.664 153.512 77.664 153.484C77.664 153.454 77.6396 153.433 77.6123 153.433C77.5849 153.433 77.5606 153.457 77.5606 153.484L77.5575 153.481Z" fill="#1A1A1A"></path> <path d="M83.8758 153.487C83.8758 153.557 83.9305 153.612 84.0004 153.612C84.0704 153.612 84.1251 153.557 84.1251 153.487C84.1251 153.417 84.0704 153.362 84.0004 153.362C83.9336 153.362 83.8758 153.417 83.8758 153.487Z" fill="#1A1A1A"></path> <path d="M90.3887 153.314C90.2914 153.314 90.2123 153.393 90.2123 153.49C90.2123 153.588 90.2914 153.667 90.3887 153.667C90.486 153.667 90.5651 153.588 90.5651 153.49C90.5651 153.393 90.486 153.314 90.3887 153.314Z" fill="#1A1A1A"></path> <path d="M96.9715 153.496C96.9715 153.39 96.8833 153.302 96.7769 153.302C96.6705 153.302 96.5823 153.39 96.5823 153.496C96.5823 153.603 96.6705 153.691 96.7769 153.691C96.8833 153.691 96.9715 153.603 96.9715 153.496Z" fill="#1A1A1A"></path> <path d="M102.989 153.503C102.989 153.6 103.068 153.679 103.165 153.679C103.262 153.679 103.341 153.6 103.341 153.503C103.341 153.405 103.262 153.326 103.165 153.326C103.068 153.326 102.989 153.405 102.989 153.503Z" fill="#1A1A1A"></path> <path d="M109.432 153.508C109.432 153.578 109.486 153.633 109.556 153.633C109.626 153.633 109.681 153.578 109.681 153.508C109.681 153.439 109.626 153.384 109.556 153.384C109.486 153.384 109.432 153.439 109.432 153.508Z" fill="#1A1A1A"></path> <path d="M186.292 70.5202C186.292 70.5202 186.282 70.5015 186.273 70.5015C186.264 70.5015 186.254 70.5108 186.254 70.5202C186.254 70.5295 186.264 70.5388 186.273 70.5388C186.282 70.5388 186.292 70.5295 186.292 70.5202Z" fill="#1A1A1A"></path> <path d="M186.215 76.9076C186.215 76.938 186.239 76.9593 186.267 76.9593C186.294 76.9593 186.321 76.935 186.321 76.9076C186.321 76.8803 186.297 76.856 186.27 76.856C186.239 76.856 186.218 76.8803 186.218 76.9076H186.215Z" fill="#1A1A1A"></path> <path d="M186.26 83.1743C186.19 83.1743 186.136 83.2291 186.136 83.299C186.136 83.3689 186.19 83.4236 186.26 83.4236C186.33 83.4236 186.385 83.3689 186.385 83.299C186.385 83.2291 186.33 83.1743 186.26 83.1743Z" fill="#1A1A1A"></path> <path d="M186.257 89.5078C186.16 89.5078 186.081 89.5869 186.081 89.6842C186.081 89.7815 186.16 89.8605 186.257 89.8605C186.355 89.8605 186.434 89.7815 186.434 89.6842C186.434 89.5869 186.355 89.5078 186.257 89.5078Z" fill="#1A1A1A"></path> <path d="M186.251 95.8809C186.145 95.8809 186.057 95.969 186.057 96.0754C186.057 96.1819 186.145 96.27 186.251 96.27C186.358 96.27 186.446 96.1819 186.446 96.0754C186.446 95.969 186.358 95.8809 186.251 95.8809Z" fill="#1A1A1A"></path> <path d="M186.422 102.463C186.422 102.366 186.343 102.287 186.245 102.287C186.148 102.287 186.069 102.366 186.069 102.463C186.069 102.561 186.148 102.64 186.245 102.64C186.343 102.64 186.422 102.561 186.422 102.463Z" fill="#1A1A1A"></path> <path d="M179.851 108.423C179.617 108.423 179.425 108.612 179.425 108.849C179.425 109.083 179.614 109.275 179.851 109.275C180.085 109.275 180.277 109.086 180.277 108.849C180.277 108.615 180.088 108.423 179.851 108.423Z" fill="#1A1A1A"></path> <path d="M186.364 108.852C186.364 108.782 186.309 108.728 186.239 108.728C186.169 108.728 186.114 108.782 186.114 108.852C186.114 108.922 186.169 108.977 186.239 108.977C186.309 108.977 186.364 108.922 186.364 108.852Z" fill="#1A1A1A"></path> <path d="M180.182 115.237C180.182 115.051 180.033 114.899 179.845 114.899C179.659 114.899 179.507 115.048 179.507 115.237C179.507 115.422 179.656 115.574 179.845 115.574C180.033 115.574 180.182 115.425 180.182 115.237Z" fill="#1A1A1A"></path> <path d="M186.288 115.24C186.288 115.21 186.263 115.186 186.236 115.186C186.209 115.186 186.184 115.21 186.184 115.237C186.184 115.268 186.209 115.289 186.236 115.289C186.263 115.289 186.291 115.265 186.291 115.237L186.288 115.24Z" fill="#1A1A1A"></path> <path d="M173.946 121.619C173.946 121.345 173.724 121.124 173.451 121.124C173.177 121.124 172.955 121.345 172.955 121.619C172.955 121.893 173.177 122.115 173.451 122.115C173.724 122.115 173.946 121.893 173.946 121.619Z" fill="#1A1A1A"></path> <path d="M180.052 121.625C180.052 121.506 179.957 121.412 179.839 121.412C179.72 121.412 179.626 121.506 179.626 121.625C179.626 121.744 179.72 121.838 179.839 121.838C179.957 121.838 180.052 121.744 180.052 121.625Z" fill="#1A1A1A"></path> <path d="M186.212 121.629C186.212 121.629 186.221 121.648 186.23 121.648C186.24 121.648 186.249 121.638 186.249 121.629C186.249 121.62 186.24 121.61 186.23 121.61C186.221 121.61 186.212 121.62 186.212 121.629Z" fill="#1A1A1A"></path> <path d="M161.465 127.998C161.465 127.557 161.109 127.202 160.668 127.202C160.227 127.202 159.871 127.557 159.871 127.998C159.871 128.439 160.227 128.795 160.668 128.795C161.109 128.795 161.465 128.439 161.465 127.998Z" fill="#1A1A1A"></path> <path d="M167.625 128.001C167.625 127.688 167.373 127.433 167.059 127.433C166.746 127.433 166.491 127.685 166.491 127.998C166.491 128.311 166.743 128.567 167.056 128.567C167.369 128.567 167.625 128.314 167.625 128.001Z" fill="#1A1A1A"></path> <path d="M173.764 128.007C173.764 127.831 173.621 127.688 173.445 127.688C173.268 127.688 173.125 127.831 173.125 128.007C173.125 128.184 173.268 128.326 173.445 128.326C173.621 128.326 173.764 128.184 173.764 128.007Z" fill="#1A1A1A"></path> <path d="M179.763 128.014C179.763 128.053 179.793 128.084 179.833 128.084C179.872 128.084 179.903 128.053 179.903 128.014C179.903 127.974 179.872 127.944 179.833 127.944C179.793 127.944 179.763 127.974 179.763 128.014Z" fill="#1A1A1A"></path> <path d="M115.942 133.337C115.385 133.337 114.932 133.787 114.932 134.347C114.932 134.903 115.382 135.356 115.942 135.356C116.498 135.356 116.951 134.906 116.951 134.347C116.951 133.79 116.501 133.337 115.942 133.337Z" fill="#1A1A1A"></path> <path d="M123.43 134.353C123.43 133.745 122.941 133.255 122.333 133.252C121.725 133.249 121.235 133.742 121.232 134.35C121.232 134.955 121.722 135.448 122.33 135.451C122.938 135.451 123.427 134.961 123.43 134.353Z" fill="#1A1A1A"></path> <path d="M128.721 133.243C128.104 133.243 127.605 133.742 127.605 134.359C127.605 134.976 128.104 135.475 128.721 135.475C129.338 135.475 129.837 134.976 129.837 134.359C129.837 133.742 129.338 133.243 128.721 133.243Z" fill="#1A1A1A"></path> <path d="M135.109 133.265C134.501 133.265 134.012 133.754 134.009 134.362C134.009 134.97 134.498 135.46 135.106 135.463C135.714 135.463 136.204 134.973 136.207 134.365C136.21 133.757 135.717 133.268 135.109 133.265Z" fill="#1A1A1A"></path> <path d="M142.525 134.371C142.525 133.802 142.066 133.343 141.497 133.343C140.929 133.343 140.47 133.802 140.47 134.371C140.47 134.94 140.929 135.399 141.497 135.399C142.066 135.399 142.525 134.94 142.525 134.371Z" fill="#1A1A1A"></path> <path d="M148.789 134.374C148.789 133.876 148.384 133.471 147.886 133.471C147.387 133.471 146.983 133.876 146.983 134.374C146.983 134.873 147.387 135.277 147.886 135.277C148.384 135.277 148.789 134.873 148.789 134.374Z" fill="#1A1A1A"></path> <path d="M155.019 134.38C155.019 133.97 154.687 133.635 154.274 133.635C153.863 133.635 153.529 133.967 153.529 134.38C153.529 134.791 153.86 135.125 154.274 135.125C154.684 135.125 155.019 134.794 155.019 134.38Z" fill="#1A1A1A"></path> <path d="M161.231 134.386C161.231 134.073 160.978 133.821 160.665 133.818C160.352 133.818 160.096 134.07 160.096 134.383C160.096 134.697 160.349 134.952 160.662 134.952C160.975 134.952 161.231 134.7 161.231 134.386Z" fill="#1A1A1A"></path> <path d="M167.406 134.392C167.406 134.198 167.248 134.037 167.053 134.037C166.859 134.037 166.698 134.195 166.698 134.389C166.698 134.584 166.856 134.745 167.05 134.745C167.245 134.745 167.406 134.587 167.406 134.392Z" fill="#1A1A1A"></path> <path d="M173.563 134.396C173.563 134.326 173.508 134.271 173.438 134.271C173.368 134.271 173.314 134.326 173.314 134.396C173.314 134.466 173.368 134.52 173.438 134.52C173.508 134.52 173.563 134.466 173.563 134.396Z" fill="#1A1A1A"></path> <path d="M116.662 140.738C116.662 140.337 116.337 140.012 115.935 140.012C115.534 140.012 115.209 140.337 115.209 140.738C115.209 141.14 115.534 141.465 115.935 141.465C116.337 141.465 116.662 141.14 116.662 140.738Z" fill="#1A1A1A"></path> <path d="M123.105 140.741C123.105 140.309 122.755 139.963 122.327 139.959C121.895 139.959 121.548 140.309 121.545 140.738C121.545 141.17 121.895 141.516 122.324 141.519C122.752 141.522 123.102 141.17 123.105 140.741Z" fill="#1A1A1A"></path> <path d="M129.53 140.747C129.53 140.297 129.165 139.933 128.715 139.933C128.265 139.933 127.9 140.297 127.9 140.747C127.9 141.197 128.265 141.562 128.715 141.562C129.165 141.562 129.53 141.197 129.53 140.747Z" fill="#1A1A1A"></path> <path d="M135.9 140.753C135.9 140.312 135.544 139.957 135.103 139.957C134.662 139.957 134.307 140.312 134.307 140.753C134.307 141.194 134.662 141.55 135.103 141.55C135.544 141.55 135.9 141.194 135.9 140.753Z" fill="#1A1A1A"></path> <path d="M142.218 140.759C142.218 140.358 141.893 140.033 141.491 140.033C141.09 140.033 140.765 140.358 140.765 140.759C140.765 141.161 141.09 141.486 141.491 141.486C141.893 141.486 142.218 141.161 142.218 140.759Z" fill="#1A1A1A"></path> <path d="M148.5 140.763C148.5 140.419 148.223 140.143 147.879 140.143C147.536 140.143 147.259 140.419 147.259 140.763C147.259 141.106 147.536 141.383 147.879 141.383C148.223 141.383 148.5 141.106 148.5 140.763Z" fill="#1A1A1A"></path> <path d="M154.766 140.769C154.766 140.495 154.544 140.273 154.271 140.273C153.997 140.273 153.775 140.495 153.775 140.769C153.775 141.042 153.997 141.264 154.271 141.264C154.544 141.264 154.766 141.042 154.766 140.769Z" fill="#1A1A1A"></path> <path d="M160.975 140.775C160.975 140.598 160.832 140.456 160.656 140.456C160.48 140.456 160.337 140.598 160.337 140.775C160.337 140.951 160.48 141.094 160.656 141.094C160.832 141.094 160.975 140.951 160.975 140.775Z" fill="#1A1A1A"></path> <path d="M166.922 140.78C166.922 140.85 166.977 140.905 167.047 140.905C167.117 140.905 167.172 140.85 167.172 140.78C167.172 140.711 167.117 140.656 167.047 140.656C166.977 140.656 166.922 140.711 166.922 140.78Z" fill="#1A1A1A"></path> <path d="M173.417 140.784C173.417 140.784 173.426 140.803 173.436 140.803C173.445 140.803 173.454 140.794 173.454 140.784C173.454 140.775 173.445 140.766 173.436 140.766C173.426 140.766 173.417 140.775 173.417 140.784Z" fill="#1A1A1A"></path> <path d="M116.34 147.127C116.34 146.902 116.157 146.719 115.932 146.719C115.707 146.719 115.525 146.902 115.525 147.127C115.525 147.352 115.707 147.534 115.932 147.534C116.157 147.534 116.34 147.352 116.34 147.127Z" fill="#1A1A1A"></path> <path d="M122.798 147.13C122.798 146.865 122.585 146.652 122.321 146.652C122.056 146.652 121.843 146.865 121.843 147.13C121.843 147.394 122.056 147.607 122.321 147.607C122.585 147.607 122.798 147.394 122.798 147.13Z" fill="#1A1A1A"></path> <path d="M129.204 147.136C129.204 146.862 128.982 146.64 128.709 146.64C128.435 146.64 128.213 146.862 128.213 147.136C128.213 147.409 128.435 147.631 128.709 147.631C128.982 147.631 129.204 147.409 129.204 147.136Z" fill="#1A1A1A"></path> <path d="M135.574 147.142C135.574 146.877 135.362 146.665 135.097 146.665C134.832 146.665 134.62 146.877 134.62 147.142C134.62 147.406 134.832 147.619 135.097 147.619C135.362 147.619 135.574 147.406 135.574 147.142Z" fill="#1A1A1A"></path> <path d="M141.911 147.148C141.911 146.914 141.722 146.722 141.485 146.722C141.251 146.722 141.06 146.911 141.06 147.148C141.06 147.382 141.248 147.574 141.485 147.574C141.719 147.574 141.911 147.385 141.911 147.148Z" fill="#1A1A1A"></path> <path d="M148.211 147.154C148.211 146.968 148.062 146.816 147.873 146.816C147.688 146.816 147.536 146.965 147.536 147.154C147.536 147.339 147.685 147.491 147.873 147.491C148.059 147.491 148.211 147.342 148.211 147.154Z" fill="#1A1A1A"></path> <path d="M154.475 147.157C154.475 147.038 154.38 146.944 154.262 146.944C154.143 146.944 154.049 147.038 154.049 147.157C154.049 147.275 154.143 147.37 154.262 147.37C154.38 147.37 154.475 147.275 154.475 147.157Z" fill="#1A1A1A"></path> <path d="M160.58 147.163C160.58 147.202 160.61 147.233 160.65 147.233C160.689 147.233 160.72 147.202 160.72 147.163C160.72 147.123 160.689 147.093 160.65 147.093C160.61 147.093 160.58 147.123 160.58 147.163Z" fill="#1A1A1A"></path> <path d="M115.802 153.514C115.802 153.584 115.856 153.639 115.926 153.639C115.996 153.639 116.051 153.584 116.051 153.514C116.051 153.444 115.996 153.39 115.926 153.39C115.856 153.39 115.802 153.444 115.802 153.514Z" fill="#1A1A1A"></path> <path d="M122.138 153.518C122.138 153.615 122.217 153.694 122.315 153.694C122.412 153.694 122.491 153.615 122.491 153.518C122.491 153.42 122.412 153.341 122.315 153.341C122.217 153.341 122.138 153.42 122.138 153.518Z" fill="#1A1A1A"></path> <path d="M128.508 153.524C128.508 153.63 128.596 153.718 128.703 153.718C128.809 153.718 128.897 153.63 128.897 153.524C128.897 153.417 128.809 153.329 128.703 153.329C128.596 153.329 128.508 153.417 128.508 153.524Z" fill="#1A1A1A"></path> <path d="M134.915 153.53C134.915 153.627 134.994 153.706 135.091 153.706C135.188 153.706 135.267 153.627 135.267 153.53C135.267 153.433 135.188 153.354 135.091 153.354C134.994 153.354 134.915 153.433 134.915 153.53Z" fill="#1A1A1A"></path> <path d="M141.358 153.536C141.358 153.606 141.412 153.66 141.482 153.66C141.552 153.66 141.607 153.606 141.607 153.536C141.607 153.466 141.552 153.411 141.482 153.411C141.412 153.411 141.358 153.466 141.358 153.536Z" fill="#1A1A1A"></path> <path d="M147.816 153.542C147.816 153.572 147.84 153.594 147.867 153.594C147.898 153.594 147.919 153.569 147.922 153.542C147.922 153.512 147.898 153.487 147.87 153.487C147.843 153.487 147.819 153.512 147.816 153.539V153.542Z" fill="#1A1A1A"></path> <path d="M154.24 153.546C154.24 153.546 154.25 153.564 154.259 153.564C154.268 153.564 154.278 153.555 154.278 153.546C154.278 153.536 154.268 153.527 154.259 153.527C154.25 153.527 154.24 153.536 154.24 153.546Z" fill="#1A1A1A"></path> <path d="M39.3378 0.2069C39.3378 0.188657 39.3226 0.17041 39.3013 0.17041C39.28 0.17041 39.2648 0.185616 39.2648 0.2069C39.2648 0.228184 39.28 0.243385 39.3013 0.243385C39.3226 0.243385 39.3378 0.228184 39.3378 0.2069Z" fill="#1A1A1A"></path> <path d="M45.7807 0.21269C45.7807 0.164042 45.7412 0.124512 45.6925 0.124512C45.6439 0.124512 45.6044 0.164042 45.6044 0.21269C45.6044 0.261339 45.6439 0.300864 45.6925 0.300864C45.7412 0.300864 45.7807 0.261339 45.7807 0.21269Z" fill="#1A1A1A"></path> <path d="M52.2206 0.219078C52.2206 0.140024 52.1567 0.0761719 52.0777 0.0761719C51.9986 0.0761719 51.9348 0.140024 51.9348 0.219078C51.9348 0.298133 51.9986 0.361985 52.0777 0.361985C52.1567 0.361985 52.2206 0.298133 52.2206 0.219078Z" fill="#1A1A1A"></path> <path d="M58.6271 0.225005C58.6271 0.136829 58.5571 0.0668945 58.469 0.0668945C58.3808 0.0668945 58.3109 0.136829 58.3109 0.225005C58.3109 0.313181 58.3808 0.383115 58.469 0.383115C58.5571 0.383115 58.6271 0.313181 58.6271 0.225005Z" fill="#1A1A1A"></path> <path d="M65 0.227867C65 0.148813 64.9362 0.0849609 64.8571 0.0849609C64.7781 0.0849609 64.7142 0.148813 64.7142 0.227867C64.7142 0.306922 64.7781 0.370774 64.8571 0.370774C64.9362 0.370774 65 0.306922 65 0.227867Z" fill="#1A1A1A"></path> <path d="M71.3518 0.234351C71.3518 0.17658 71.3032 0.12793 71.2454 0.12793C71.1876 0.12793 71.139 0.17658 71.139 0.234351C71.139 0.292122 71.1876 0.340772 71.2454 0.340772C71.3032 0.340772 71.3518 0.292122 71.3518 0.234351Z" fill="#1A1A1A"></path> <path d="M77.6883 0.240279C77.6883 0.209874 77.6639 0.188587 77.6366 0.185547C77.6062 0.185547 77.5849 0.209871 77.5849 0.237236C77.5849 0.267641 77.6092 0.288929 77.6366 0.288929C77.667 0.288929 77.6883 0.264601 77.6913 0.237236L77.6883 0.240279Z" fill="#1A1A1A"></path> <path d="M26.5735 6.58598C26.5735 6.55557 26.5492 6.53125 26.5218 6.53125C26.4944 6.53125 26.4701 6.55557 26.4701 6.58293C26.4701 6.6103 26.4944 6.63463 26.5218 6.63463C26.5522 6.63463 26.5765 6.6103 26.5765 6.58293L26.5735 6.58598Z" fill="#1A1A1A"></path> <path d="M33.0682 6.59219C33.0682 6.50401 32.9982 6.43408 32.9101 6.43408C32.8219 6.43408 32.752 6.50401 32.752 6.59219C32.752 6.68036 32.8219 6.7503 32.9101 6.7503C32.9982 6.7503 33.0682 6.68036 33.0682 6.59219Z" fill="#1A1A1A"></path> <path d="M38.9942 6.59496C38.9942 6.76219 39.128 6.89597 39.2952 6.89597C39.4625 6.89597 39.5962 6.76219 39.5962 6.59496C39.5962 6.42773 39.4625 6.29395 39.2952 6.29395C39.128 6.29395 38.9942 6.42773 38.9942 6.59496Z" fill="#1A1A1A"></path> <path d="M45.2943 6.6011C45.2943 6.81698 45.4676 6.9903 45.6834 6.9903C45.8993 6.9903 46.0726 6.81698 46.0726 6.6011C46.0726 6.38523 45.8993 6.21191 45.6834 6.21191C45.4676 6.21191 45.2943 6.38523 45.2943 6.6011Z" fill="#1A1A1A"></path> <path d="M51.6307 6.607C51.6307 6.85025 51.8284 7.05092 52.0747 7.05092C52.3179 7.05092 52.5186 6.85329 52.5186 6.607C52.5186 6.36376 52.3209 6.16309 52.0747 6.16309C51.8314 6.16309 51.6307 6.36072 51.6307 6.607Z" fill="#1A1A1A"></path> <path d="M58.0038 6.61342C58.0038 6.86883 58.2105 7.07559 58.4629 7.07559C58.7183 7.07559 58.9251 6.86883 58.9251 6.61647C58.9251 6.3641 58.7183 6.1543 58.4659 6.1543C58.2105 6.1543 58.0038 6.36106 58.0038 6.61342Z" fill="#1A1A1A"></path> <path d="M64.4102 6.61628C64.4102 6.85953 64.6078 7.0602 64.8541 7.0602C65.0973 7.0602 65.298 6.86257 65.298 6.61628C65.298 6.37304 65.1004 6.17236 64.8541 6.17236C64.6108 6.17236 64.4102 6.37 64.4102 6.61628Z" fill="#1A1A1A"></path> <path d="M70.85 6.6221C70.85 6.83798 71.0234 7.01129 71.2392 7.01129C71.4551 7.01129 71.6284 6.83798 71.6284 6.6221C71.6284 6.40622 71.4551 6.23291 71.2392 6.23291C71.0234 6.23291 70.85 6.40622 70.85 6.6221Z" fill="#1A1A1A"></path> <path d="M77.3264 6.62866C77.3264 6.79589 77.4602 6.92967 77.6274 6.92967C77.7947 6.92967 77.9285 6.79589 77.9285 6.62866C77.9285 6.46143 77.7947 6.32764 77.6274 6.32764C77.4602 6.32764 77.3264 6.46143 77.3264 6.62866Z" fill="#1A1A1A"></path> <path d="M84.1951 6.63437C84.1951 6.53707 84.116 6.45801 84.0187 6.45801C83.9214 6.45801 83.8424 6.53707 83.8424 6.63437C83.8424 6.73166 83.9214 6.81071 84.0187 6.81071C84.116 6.81071 84.1951 6.73166 84.1951 6.63437Z" fill="#1A1A1A"></path> <path d="M90.4586 6.64055C90.4586 6.61015 90.4343 6.58887 90.407 6.58887C90.3766 6.58887 90.3553 6.61319 90.3522 6.64055C90.3522 6.67096 90.3766 6.69224 90.4039 6.69224C90.4343 6.69224 90.4556 6.66792 90.4556 6.64055H90.4586Z" fill="#1A1A1A"></path> <path d="M20.2127 12.9681C20.2127 12.9194 20.1731 12.8799 20.1245 12.8799C20.0758 12.8799 20.0363 12.9194 20.0363 12.9681C20.0363 13.0167 20.0758 13.0562 20.1245 13.0562C20.1731 13.0562 20.2127 13.0167 20.2127 12.9681Z" fill="#1A1A1A"></path> <path d="M26.2482 12.974C26.2482 13.1199 26.3667 13.2385 26.5127 13.2385C26.6586 13.2385 26.7772 13.1199 26.7772 12.974C26.7772 12.8281 26.6586 12.7095 26.5127 12.7095C26.3667 12.7095 26.2482 12.8281 26.2482 12.974Z" fill="#1A1A1A"></path> <path d="M13.8184 19.3533C13.8184 19.3047 13.7789 19.2651 13.7302 19.2651C13.6816 19.2651 13.642 19.3047 13.642 19.3533C13.642 19.402 13.6816 19.4415 13.7302 19.4415C13.7789 19.4415 13.8184 19.402 13.8184 19.3533Z" fill="#1A1A1A"></path> <path d="M19.8174 19.3562C19.8174 19.5234 19.9512 19.6572 20.1185 19.6572C20.2857 19.6572 20.4195 19.5234 20.4195 19.3562C20.4195 19.189 20.2857 19.0552 20.1185 19.0552C19.9512 19.0552 19.8174 19.189 19.8174 19.3562Z" fill="#1A1A1A"></path> <path d="M7.39066 25.7354C7.39066 25.705 7.36634 25.6837 7.33898 25.6807C7.30857 25.6807 7.28424 25.705 7.28424 25.7324C7.28424 25.7597 7.30857 25.784 7.33593 25.7871C7.36634 25.7871 7.38763 25.7628 7.38763 25.7354H7.39066Z" fill="#1A1A1A"></path> <path d="M13.4597 25.7416C13.4597 25.8875 13.5782 26.0061 13.7242 26.0061C13.8701 26.0061 13.9887 25.8875 13.9887 25.7416C13.9887 25.5956 13.8701 25.4771 13.7242 25.4771C13.5782 25.4771 13.4597 25.5956 13.4597 25.7416Z" fill="#1A1A1A"></path> <path d="M7.17175 32.1234C7.17175 32.2116 7.24169 32.2816 7.32987 32.2816C7.41804 32.2816 7.48797 32.2116 7.48797 32.1234C7.48797 32.0353 7.41804 31.9653 7.32987 31.9653C7.24169 31.9653 7.17175 32.0353 7.17175 32.1234Z" fill="#1A1A1A"></path> <path d="M13.2772 32.1295C13.2772 32.3727 13.4748 32.5734 13.7211 32.5734C13.9643 32.5734 14.165 32.3758 14.165 32.1295C14.165 31.8862 13.9674 31.6855 13.7211 31.6855C13.4778 31.6855 13.2772 31.8832 13.2772 32.1295Z" fill="#1A1A1A"></path> <path d="M0.972089 38.5087C0.972089 38.4904 0.956887 38.4722 0.935603 38.4722C0.914319 38.4722 0.899109 38.4874 0.899109 38.5087C0.899109 38.5299 0.914319 38.5451 0.935603 38.5451C0.956887 38.5451 0.972089 38.5299 0.972089 38.5087Z" fill="#1A1A1A"></path> <path d="M7.02576 38.5119C7.02576 38.6792 7.15954 38.813 7.32677 38.813C7.494 38.813 7.62778 38.6792 7.62778 38.5119C7.62778 38.3447 7.494 38.2109 7.32677 38.2109C7.15954 38.2109 7.02576 38.3447 7.02576 38.5119Z" fill="#1A1A1A"></path> <path d="M13.715 39.1017C14.0373 39.1017 14.2988 38.8402 14.2988 38.5179C14.2988 38.1956 14.0373 37.9341 13.715 37.9341C13.3927 37.9341 13.1312 38.1956 13.1312 38.5179C13.1312 38.8402 13.3927 39.1017 13.715 39.1017Z" fill="#1A1A1A"></path> <path d="M0.84436 44.8968C0.84436 44.9454 0.88389 44.985 0.932539 44.985C0.981188 44.985 1.02072 44.9454 1.02072 44.8968C1.02072 44.8481 0.981188 44.8086 0.932539 44.8086C0.88389 44.8086 0.84436 44.8481 0.84436 44.8968Z" fill="#1A1A1A"></path> <path d="M7.32077 45.2921C7.53665 45.2921 7.70996 45.1187 7.70996 44.9029C7.70996 44.687 7.53665 44.5137 7.32077 44.5137C7.10489 44.5137 6.93158 44.687 6.93158 44.9029C6.93158 45.1187 7.10489 45.2921 7.32077 45.2921Z" fill="#1A1A1A"></path> <path d="M13.7089 45.5992C14.092 45.5992 14.3991 45.289 14.3991 44.909C14.3991 44.5289 14.0889 44.2188 13.7089 44.2188C13.3258 44.2188 13.0187 44.5289 13.0187 44.909C13.0187 45.289 13.3288 45.5992 13.7089 45.5992Z" fill="#1A1A1A"></path> <path d="M0.783508 51.285C0.783508 51.3641 0.84736 51.4279 0.926415 51.4279C1.00547 51.4279 1.06932 51.3641 1.06932 51.285C1.06932 51.2059 1.00547 51.1421 0.926415 51.1421C0.84736 51.1421 0.783508 51.2059 0.783508 51.285Z" fill="#1A1A1A"></path> <path d="M7.31465 51.7321C7.55789 51.7321 7.75857 51.5344 7.75857 51.2882C7.75857 51.0449 7.56093 50.8442 7.31465 50.8442C7.0714 50.8442 6.87073 51.0419 6.87073 51.2882C6.87073 51.5314 7.06836 51.7321 7.31465 51.7321Z" fill="#1A1A1A"></path> <path d="M0.920374 57.5151C0.832197 57.5151 0.762268 57.5851 0.762268 57.6732C0.762268 57.7614 0.832197 57.8314 0.920374 57.8314C1.00855 57.8314 1.07848 57.7614 1.08152 57.6732C1.08152 57.5851 1.01159 57.5151 0.923417 57.5151H0.920374Z" fill="#1A1A1A"></path> <path d="M7.30861 58.1386C7.56402 58.1386 7.77078 57.9318 7.77078 57.6795C7.77078 57.424 7.56402 57.2173 7.31166 57.2173C7.05625 57.2173 6.84949 57.424 6.84949 57.6764C6.84949 57.9318 7.05625 58.1386 7.30861 58.1386Z" fill="#1A1A1A"></path> <path d="M181.061 41.151C180.824 39.2932 180.556 37.4354 180.234 35.5807C179.912 33.7259 179.541 31.8773 179.085 30.0347C178.626 28.1921 178.093 26.3556 177.361 24.5404C177.273 24.3124 177.169 24.0874 177.075 23.8624C176.972 23.6374 176.874 23.4124 176.762 23.1874C176.546 22.7374 176.306 22.2904 176.035 21.8495C175.764 21.4086 175.463 20.9708 175.105 20.5482C175.01 20.4448 174.925 20.3384 174.825 20.235L174.676 20.083L174.6 20.0069L174.533 19.9431L174.001 19.4505C173.913 19.3684 173.825 19.2863 173.733 19.2042L173.457 18.964C173.271 18.8059 173.092 18.6448 172.9 18.4897L172.326 18.0306C172.231 17.9515 172.131 17.8785 172.031 17.8056L171.73 17.5867C170.927 17.0059 170.069 16.4738 169.166 16.0268C168.266 15.5768 167.327 15.2181 166.415 14.914C165.503 14.61 164.621 14.3485 163.779 14.0566C162.958 13.786 162.14 13.5549 161.331 13.3725L160.723 13.2326C160.519 13.187 160.318 13.1505 160.118 13.1079C159.713 13.0289 159.309 12.9437 158.908 12.8799C158.102 12.7339 157.296 12.6123 156.49 12.4907C155.685 12.3812 154.882 12.2687 154.079 12.1775C153.277 12.0741 152.471 11.9951 151.668 11.9069C150.865 11.8309 150.063 11.7458 149.26 11.6789L148.056 11.5724L146.852 11.4782C146.049 11.4113 145.246 11.3566 144.444 11.3018C138.022 10.8579 131.603 10.6147 125.188 10.4414C118.772 10.2711 112.357 10.1859 105.941 10.1555C99.5256 10.1221 93.113 10.1464 86.7005 10.2133C80.288 10.2802 73.8755 10.3927 67.4629 10.5569C61.0504 10.7241 54.6379 10.94 48.2162 11.2653C46.6108 11.3474 45.0054 11.4417 43.3939 11.5512C42.5881 11.6059 41.7824 11.6667 40.9736 11.7336C40.1648 11.8005 39.353 11.8765 38.5199 11.9799C38.3101 12.0072 38.1064 12.0285 37.8875 12.065C37.6685 12.1015 37.4648 12.1258 37.2185 12.1775L37.0422 12.214L36.954 12.2322C36.9236 12.2383 36.8962 12.2444 36.8719 12.2505L36.5709 12.3204C36.3702 12.366 36.1695 12.4177 35.9689 12.4694C35.1631 12.6731 34.3574 12.8981 33.5577 13.1505C33.4574 13.1839 33.357 13.2174 33.2567 13.2508C33.3145 13.1748 33.3509 13.0836 33.3509 12.9802C33.3509 12.737 33.1533 12.5363 32.907 12.5363C32.6638 12.5363 32.4631 12.7339 32.4631 12.9802C32.4631 13.187 32.603 13.3572 32.7945 13.4059C32.2533 13.5944 31.7151 13.792 31.183 14.0049C30.4016 14.3272 29.6263 14.6647 28.8722 15.0508C27.358 15.811 25.8985 16.6927 24.5333 17.7083L24.0256 18.0944L23.7732 18.289C23.685 18.359 23.5877 18.4441 23.4935 18.5201C23.1225 18.8394 22.782 19.1769 22.4749 19.5265C21.8546 20.2259 21.3438 20.9647 20.8877 21.7127C19.9786 23.2147 19.2914 24.7684 18.6955 26.3313C18.1056 27.8972 17.613 29.4783 17.1813 31.0654C16.3208 34.2428 15.6975 37.4476 15.1928 40.6584C14.688 43.8723 14.3171 47.0922 14.0343 50.3182C14.0252 50.4094 14.0191 50.4976 14.013 50.5888C13.9218 50.5493 13.8184 50.528 13.712 50.528C13.2924 50.528 12.9488 50.8686 12.9488 51.2882C12.9488 51.7078 13.2894 52.0513 13.709 52.0513C13.7728 52.0513 13.8367 52.0422 13.8944 52.027C13.7698 53.6537 13.6664 55.2804 13.5873 56.9071C13.2133 56.9649 12.9245 57.2872 12.9245 57.6764C12.9245 58.0412 13.1769 58.3483 13.5174 58.4335C13.4475 60.0815 13.4019 61.7294 13.3745 63.3774C13.1161 63.499 12.9397 63.7605 12.9397 64.0646C12.9397 64.3626 13.11 64.618 13.3563 64.7426C13.3411 66.3967 13.3441 68.0507 13.3654 69.7048C13.3654 69.7504 13.3654 69.7991 13.3654 69.8447C13.1495 69.9602 13.0005 70.1913 13.0005 70.4528C13.0005 70.7264 13.1586 70.9606 13.3867 71.0731C13.4231 72.7758 13.4809 74.4785 13.56 76.1812C13.2954 76.239 13.1009 76.47 13.0978 76.7528C13.0978 76.768 13.0978 76.7832 13.0978 76.7984C13.0978 76.8136 13.0978 76.8288 13.0978 76.844C13.0978 77.1451 13.3259 77.3944 13.6208 77.4248C13.6573 78.0846 13.6938 78.7413 13.7363 79.4011C13.8032 80.441 13.8792 81.4778 13.9644 82.5147C13.8762 82.4751 13.7819 82.4508 13.6786 82.4508C13.2985 82.4508 12.9883 82.761 12.9883 83.141C12.9883 83.5211 13.2985 83.8312 13.6786 83.8312C13.8215 83.8312 13.9553 83.7887 14.0678 83.7126C14.083 83.889 14.0982 84.0653 14.1134 84.2417C14.2623 85.8562 14.4357 87.4677 14.6302 89.0762C15.0255 92.2961 15.5242 95.513 16.1657 98.7117C16.8134 101.91 17.6039 105.097 18.6559 108.244C19.185 109.816 19.784 111.376 20.4924 112.914C21.2039 114.45 22.0188 115.967 23.0495 117.411C23.5664 118.132 24.135 118.834 24.7857 119.497C25.108 119.828 25.4577 120.148 25.8225 120.455L26.0111 120.604C25.6796 120.759 25.4516 121.093 25.4516 121.485C25.4516 122.024 25.8864 122.461 26.4246 122.461C26.9202 122.461 27.3306 122.091 27.3915 121.61C28.6411 122.468 29.9546 123.222 31.3016 123.887C31.4901 123.985 31.6847 124.076 31.8763 124.164C32.0709 124.252 32.2624 124.347 32.457 124.432C32.8462 124.602 33.2354 124.772 33.6307 124.927C34.4151 125.244 35.2118 125.539 36.0054 125.8C36.4037 125.931 36.7989 126.058 37.1942 126.18L37.781 126.356C37.9756 126.414 38.1581 126.472 38.3648 126.527L39.0793 126.721C38.4895 126.779 38.0273 127.278 38.0273 127.883C38.0273 128.527 38.5503 129.053 39.1949 129.053C39.8395 129.053 40.3655 128.53 40.3655 127.886C40.3655 127.497 40.174 127.153 39.8821 126.94L40.1891 127.022C40.3929 127.077 40.5935 127.117 40.7942 127.165C41.9618 127.442 43.1263 127.679 44.2909 127.892C44.2909 128.606 44.8686 129.184 45.5831 129.187C46.1517 129.187 46.6321 128.822 46.8054 128.315L46.851 128.321C47.2554 128.384 47.6568 128.454 48.0612 128.503L50.4814 128.828C50.6487 128.85 50.8159 128.868 50.9831 128.886C51.2355 129.139 51.5851 129.297 51.9713 129.297C52.2449 129.297 52.4973 129.218 52.7132 129.084C55.1912 129.351 57.6693 129.567 60.1474 129.753L62.5616 129.917L63.1666 129.956L63.7717 129.99L64.9788 130.057C66.5872 130.154 68.1987 130.218 69.8072 130.291C75.8275 130.534 81.8417 130.641 87.8559 130.665C88.0596 131.109 88.2421 131.559 88.4032 132.015C88.6921 132.836 88.8897 133.681 89.0205 134.536C89.2698 136.247 89.1877 138.011 88.8228 139.747C88.7316 140.182 88.6222 140.614 88.4975 141.042C88.3698 141.471 88.233 141.9 88.0718 142.319C87.9137 142.742 87.7434 143.162 87.558 143.575L87.4151 143.885C87.3725 143.979 87.3269 144.092 87.2843 144.195C87.2448 144.302 87.2083 144.417 87.1718 144.527C87.0411 144.98 86.9803 145.475 87.0167 145.965C87.0532 146.454 87.1779 146.938 87.3786 147.373C87.5792 147.808 87.8499 148.203 88.1722 148.537C88.8198 149.206 89.6863 149.671 90.6502 149.799C91.1306 149.863 91.6262 149.839 92.0914 149.732C92.21 149.705 92.3255 149.677 92.435 149.638C92.5475 149.601 92.66 149.565 92.7664 149.516C92.8728 149.474 92.9793 149.425 93.0796 149.373L93.2316 149.294L93.2681 149.273L93.2894 149.261L93.332 149.234L94.0191 148.817C94.2472 148.677 94.4813 148.543 94.6972 148.391C95.2506 148.029 95.7887 147.646 96.3117 147.254C96.3756 147.452 96.561 147.595 96.78 147.595C97.0536 147.595 97.2756 147.373 97.2756 147.099C97.2756 146.926 97.1844 146.771 97.0506 146.683C97.9445 145.971 98.8019 145.223 99.6198 144.442C100.672 143.435 101.666 142.374 102.606 141.273C102.752 141.419 102.952 141.514 103.174 141.514C103.615 141.514 103.971 141.158 103.971 140.717C103.971 140.44 103.828 140.194 103.612 140.051C103.673 139.972 103.737 139.896 103.798 139.817C106.102 136.871 108.045 133.672 109.638 130.303C116.677 130.099 123.713 129.817 130.746 129.443C132.002 129.376 133.261 129.306 134.516 129.233C134.696 129.318 134.896 129.367 135.109 129.367C135.38 129.367 135.635 129.288 135.848 129.154C137.411 129.059 138.971 128.959 140.531 128.856C140.771 129.117 141.114 129.284 141.497 129.284C141.944 129.284 142.34 129.059 142.577 128.719C143.978 128.619 145.38 128.518 146.779 128.409C146.949 128.853 147.381 129.169 147.886 129.169C148.457 129.169 148.935 128.765 149.047 128.226C150.376 128.117 151.708 127.998 153.036 127.874C153.121 127.865 153.207 127.858 153.292 127.849C153.286 127.895 153.28 127.941 153.28 127.986C153.28 128.533 153.723 128.977 154.271 128.98C154.818 128.98 155.262 128.537 155.265 127.989C155.265 127.874 155.244 127.761 155.207 127.658C156.344 127.539 157.485 127.411 158.631 127.266C159.099 127.208 159.57 127.138 160.045 127.071L160.762 126.955L161.127 126.892C161.249 126.87 161.37 126.849 161.498 126.822L161.881 126.743C162.015 126.712 162.164 126.673 162.304 126.636L162.41 126.609L162.499 126.581L162.678 126.527C162.796 126.49 162.915 126.454 163.034 126.414C163.271 126.335 163.508 126.259 163.742 126.171C163.979 126.089 164.21 125.998 164.444 125.903C166.311 125.165 168.06 124.164 169.656 123.018C170.456 122.443 171.228 121.838 171.958 121.2L172.234 120.962L172.505 120.719L173.046 120.227C173.46 119.837 173.822 119.427 174.15 119.007C174.481 118.588 174.773 118.156 175.041 117.718C175.314 117.283 175.555 116.839 175.786 116.396C176.242 115.505 176.634 114.605 176.987 113.699C177.686 111.883 178.236 110.05 178.711 108.207C179.161 106.456 179.538 104.699 179.869 102.938C180.125 102.929 180.328 102.719 180.328 102.461C180.328 102.263 180.21 102.093 180.036 102.02C180.331 100.378 180.59 98.736 180.818 97.0911C181.329 93.3725 181.7 89.6448 181.97 85.917C182.241 82.1863 182.414 78.4555 182.508 74.7217C182.694 67.2572 182.569 59.7865 182.098 52.328C181.858 48.6003 181.523 44.8726 181.055 41.154L181.061 41.151ZM179.714 70.4163C179.714 70.4801 179.714 70.544 179.714 70.6079C179.693 71.9518 179.662 73.2957 179.62 74.6366C179.501 78.3248 179.301 82.013 179.006 85.686C178.711 89.359 178.319 93.0228 177.789 96.6563C177.522 98.4715 177.224 100.281 176.874 102.078C176.528 103.872 176.129 105.653 175.664 107.402C175.196 109.15 174.661 110.874 174.01 112.519C173.682 113.34 173.323 114.136 172.928 114.897C172.727 115.274 172.52 115.645 172.295 115.994C172.073 116.347 171.842 116.681 171.596 116.988C171.35 117.296 171.094 117.581 170.827 117.828L170.334 118.269L170.085 118.491L169.832 118.703C169.16 119.278 168.464 119.813 167.753 120.315C167.47 120.516 167.181 120.704 166.892 120.893C166.758 120.978 166.625 121.063 166.488 121.145C165.442 121.786 164.353 122.34 163.222 122.775C163.025 122.851 162.824 122.927 162.62 122.997C162.419 123.07 162.216 123.133 162.009 123.2C161.909 123.234 161.802 123.264 161.699 123.295L161.544 123.34L161.468 123.365L161.404 123.38L161.152 123.441L160.851 123.501C160.753 123.523 160.647 123.541 160.537 123.559L160.218 123.614L159.558 123.711C159.114 123.772 158.667 123.833 158.214 123.884C156.405 124.1 154.569 124.271 152.732 124.432C149.056 124.745 145.362 124.994 141.668 125.219C137.97 125.441 134.273 125.63 130.573 125.797C123.172 126.134 115.762 126.372 108.355 126.518L107.154 126.542L106.65 127.655C105.859 129.391 104.968 131.081 103.98 132.714C103.855 132.918 103.731 133.122 103.603 133.325C103.223 133.937 102.828 134.536 102.417 135.128C101.879 135.907 101.316 136.667 100.73 137.409C99.7415 138.649 98.6894 139.832 97.5735 140.939C97.3789 141.134 97.1813 141.325 96.9806 141.517C96.9533 141.541 96.9259 141.568 96.8985 141.596C95.5303 142.888 94.0678 144.068 92.5232 145.074C92.3347 145.208 92.134 145.317 91.9394 145.439L91.3495 145.795L91.313 145.816L91.2948 145.828H91.2918C91.2918 145.828 91.2826 145.834 91.2765 145.837C91.2674 145.843 91.2583 145.846 91.2522 145.849C91.2462 145.855 91.237 145.856 91.234 145.856C91.2279 145.859 91.2249 145.859 91.2188 145.859C91.2005 145.862 91.1945 145.859 91.1823 145.859C91.158 145.859 91.1002 145.828 91.0576 145.786C91.0364 145.764 91.0242 145.74 91.0181 145.725C91.012 145.71 91.012 145.703 91.012 145.697C91.012 145.691 91.012 145.685 91.0181 145.664C91.0242 145.658 91.0242 145.652 91.0242 145.643C91.0303 145.63 91.0303 145.631 91.0394 145.609L91.2097 145.241C91.4316 144.749 91.6384 144.25 91.8299 143.742C92.0215 143.235 92.1948 142.718 92.3499 142.195C92.508 141.672 92.6448 141.14 92.7573 140.604C93.2255 138.458 93.3411 136.193 93.0218 133.97C92.8546 132.86 92.5992 131.766 92.2313 130.711C92.0124 130.075 91.76 129.455 91.4772 128.85C91.2887 128.448 91.0911 128.056 90.8782 127.67L90.3066 126.63H89.9509L89.1086 126.624C82.7235 126.591 76.3413 126.484 69.9744 126.22C68.3842 126.147 66.791 126.083 65.2038 125.985L64.0119 125.919L63.416 125.885L62.82 125.846L60.4423 125.687C57.274 125.453 54.1149 125.168 50.9801 124.791C47.8514 124.398 44.7378 123.915 41.7307 123.219C41.5422 123.176 41.3506 123.14 41.1682 123.088L40.6148 122.939L39.9003 122.747L39.5111 122.644C39.3317 122.598 39.131 122.534 38.9425 122.48L38.38 122.309C38.2341 122.264 38.0881 122.218 37.9452 122.176C37.7233 122.106 37.5013 122.036 37.2824 121.963C36.5557 121.726 35.8472 121.464 35.1479 121.184C34.7952 121.048 34.4516 120.896 34.108 120.747C33.9347 120.671 33.7675 120.588 33.5972 120.512C33.427 120.433 33.2567 120.354 33.0895 120.269C31.7455 119.609 30.4503 118.855 29.2432 117.989L28.7901 117.663L28.6776 117.581L28.5834 117.505L28.3948 117.356C28.1486 117.147 27.9023 116.928 27.6651 116.684C27.4705 116.487 27.279 116.274 27.0935 116.055C26.829 115.748 26.5735 115.423 26.3273 115.082C26.1205 114.796 25.9229 114.501 25.7313 114.2C25.1414 113.273 24.6124 112.276 24.132 111.242C23.4935 109.874 22.937 108.441 22.4384 106.979C21.9397 105.51 21.4958 104.011 21.1005 102.497C21.0306 102.227 20.9607 101.953 20.8938 101.679C20.5837 100.442 20.3009 99.1921 20.0394 97.9363C19.9755 97.6293 19.9147 97.3222 19.8539 97.0181C19.7232 96.3492 19.5985 95.6803 19.4769 95.0083C19.0999 92.886 18.7776 90.7515 18.5009 88.6079C17.7043 82.3353 17.2755 75.9957 17.1387 69.6531C17.008 63.3075 17.163 56.9527 17.6617 50.6375C17.914 47.4814 18.2516 44.3314 18.7137 41.2118C19.1364 38.378 19.6532 35.5655 20.3374 32.8138C20.4073 32.5371 20.4742 32.2573 20.5472 31.9806C20.5745 31.8773 20.6019 31.7708 20.6323 31.6675C21.0063 30.2688 21.432 28.8914 21.9215 27.5536C22.4506 26.1215 23.0617 24.7289 23.8036 23.4853C24.1746 22.8651 24.5759 22.2782 25.0168 21.7765C25.2357 21.5211 25.4638 21.2931 25.6979 21.0894C25.7587 21.0377 25.8104 20.9921 25.8773 20.9374L26.0992 20.764L26.5431 20.4174C27.7411 19.5083 29.0242 18.7177 30.3682 18.0306C31.0371 17.6809 31.7273 17.3738 32.4266 17.0789C33.1259 16.79 33.8405 16.5285 34.5641 16.2883C35.2908 16.0512 36.0236 15.8383 36.7716 15.6437C36.957 15.5951 37.1456 15.5464 37.3341 15.5008L37.6168 15.4309C37.6412 15.4248 37.6624 15.4187 37.6807 15.4157L37.7385 15.4035L37.854 15.3792C37.9969 15.3458 38.1945 15.3184 38.3679 15.288C38.5412 15.2576 38.7388 15.2363 38.9243 15.2089C39.6814 15.1086 40.4628 15.0296 41.2503 14.9566C42.0348 14.8836 42.8253 14.8167 43.6189 14.7589C45.203 14.6373 46.7932 14.5309 48.3865 14.4366C53.75 14.1174 59.1318 13.8893 64.5136 13.6978C64.7477 13.6887 64.9849 13.6795 65.219 13.6735C65.9943 13.6461 66.7697 13.6187 67.545 13.5944C68.6092 13.561 69.6704 13.5275 70.7346 13.4971C71.0751 13.488 71.4157 13.4758 71.7562 13.4667C73.544 13.415 75.3289 13.3664 77.1167 13.3208C77.4572 13.3116 77.7947 13.3056 78.1353 13.2964C79.9474 13.2539 81.7627 13.2143 83.5748 13.1779C83.8667 13.1718 84.1556 13.1657 84.4475 13.1627C85.2107 13.1474 85.9708 13.1322 86.734 13.1201C87.862 13.1018 88.9901 13.0866 90.1181 13.0714C90.3036 13.0714 90.4921 13.0654 90.6776 13.0654C92.6813 13.038 94.685 13.0167 96.6888 13.0015C96.7526 13.0015 96.8195 13.0015 96.8833 13.0015C106.297 12.9255 115.71 12.965 125.115 13.1809C128.311 13.2569 131.506 13.3572 134.696 13.485C137.888 13.6157 141.075 13.7738 144.255 13.9927C145.049 14.0475 145.845 14.1022 146.639 14.166L147.831 14.2603L149.02 14.3637C149.813 14.4306 150.604 14.5127 151.394 14.5887C152.182 14.6738 152.972 14.7529 153.76 14.8532C154.547 14.9444 155.329 15.0508 156.113 15.1573L157.281 15.3336C157.67 15.3883 158.053 15.4644 158.442 15.5282C158.832 15.5921 159.212 15.6711 159.592 15.7441C159.783 15.7836 159.975 15.8171 160.163 15.8596L160.726 15.9873C161.48 16.1546 162.204 16.3644 162.906 16.5924C163.818 16.9086 164.718 17.1762 165.566 17.462C166.415 17.7478 167.214 18.0549 167.975 18.435C168.735 18.812 169.458 19.262 170.161 19.7698L170.422 19.9613C170.51 20.0252 170.599 20.089 170.681 20.159L171.191 20.5694C171.362 20.7093 171.526 20.8553 171.693 20.9982L171.942 21.214C172.025 21.287 172.107 21.3661 172.186 21.439L172.675 21.8921L172.736 21.9468L172.782 21.9955L172.876 22.0897C172.94 22.1505 172.998 22.2265 173.058 22.2934C173.302 22.5792 173.53 22.9076 173.742 23.2573C173.958 23.607 174.156 23.9809 174.341 24.3671C174.439 24.5587 174.524 24.7593 174.615 24.9539C174.7 25.1546 174.788 25.3522 174.867 25.559C175.196 26.3739 175.488 27.2161 175.749 28.0766C176.011 28.934 176.248 29.8097 176.464 30.6884C177.321 34.2185 177.896 37.852 178.352 41.4976C178.802 45.1493 179.112 48.8223 179.334 52.5044C179.69 58.4669 179.805 64.4477 179.717 70.4224L179.714 70.4163Z" fill="#1A1A1A"></path> <path d="M0.914208 63.9219C0.835153 63.9219 0.771301 63.9857 0.771301 64.0648C0.771301 64.1438 0.835153 64.2077 0.914208 64.2077C0.993262 64.2077 1.05711 64.1438 1.05711 64.0648C1.05711 63.9857 0.993262 63.9219 0.914208 63.9219Z" fill="#1A1A1A"></path> <path d="M7.30549 63.6235C7.06225 63.6235 6.86157 63.8212 6.86157 64.0675C6.86157 64.3107 7.05921 64.5114 7.30549 64.5114C7.54874 64.5114 7.74942 64.3137 7.74942 64.0675C7.74942 63.8242 7.55178 63.6235 7.30549 63.6235Z" fill="#1A1A1A"></path> <path d="M0.911231 70.3433C0.85346 70.3433 0.80481 70.3919 0.80481 70.4497C0.80481 70.5075 0.85346 70.5561 0.911231 70.5561C0.969001 70.5561 1.01765 70.5075 1.01765 70.4497C1.01765 70.3919 0.969001 70.3433 0.911231 70.3433Z" fill="#1A1A1A"></path> <path d="M7.29947 70.0664C7.08359 70.0664 6.91028 70.2397 6.91028 70.4556C6.91028 70.6715 7.08359 70.8448 7.29947 70.8448C7.51535 70.8448 7.68866 70.6715 7.68866 70.4556C7.68866 70.2397 7.51535 70.0664 7.29947 70.0664Z" fill="#1A1A1A"></path> <path d="M0.850464 76.8407C0.850464 76.8712 0.874783 76.8924 0.902148 76.8955C0.932554 76.8955 0.956876 76.8712 0.956876 76.8438C0.956876 76.8134 0.932557 76.7921 0.905192 76.7891C0.874786 76.7891 0.850464 76.8134 0.850464 76.8407Z" fill="#1A1A1A"></path> <path d="M7.29339 77.1449C7.46062 77.1449 7.5944 77.0111 7.5944 76.8439C7.5944 76.8287 7.5944 76.8135 7.59136 76.7983C7.59136 76.7831 7.5944 76.7679 7.5944 76.7527C7.5944 76.5854 7.46062 76.4517 7.29339 76.4517C7.12616 76.4517 6.99237 76.5854 6.99237 76.7527C6.99237 76.7679 6.99237 76.7831 6.99541 76.7983C6.99541 76.8135 6.99237 76.8287 6.99237 76.8439C6.99237 77.0111 7.12616 77.1449 7.29339 77.1449Z" fill="#1A1A1A"></path> <path d="M141.534 6.151C168.245 6.53411 184.321 11.548 186.054 40.6583C188.471 15.2423 176.856 2.96754 141.534 6.151Z" fill="#1A1A1A"></path> <path d="M42.3781 50.75C42.925 50.8438 43.1984 51.1172 43.1984 51.5703L42.5578 58.7656C42.5578 59.8594 42.9536 60.4062 43.7453 60.4062H44.1047C47.1047 60.224 48.7167 60.1328 48.9406 60.1328H49.7609C50.3078 60.4349 50.5812 60.7995 50.5812 61.2266V61.4062C50.5812 62.3177 49.8208 62.7734 48.3 62.7734C48.3 62.8359 47.9042 62.8672 47.1125 62.8672C44.3677 62.8672 42.6385 62.5625 41.925 61.9531C41.2531 61.4635 40.9172 60.5833 40.9172 59.3125V58.9453C41.2453 53.4818 41.701 50.75 42.2844 50.75H42.3781ZM53.3391 52.2031H53.5266C54.313 52.3125 54.7062 52.6484 54.7062 53.2109V53.4844C54.1021 56.8958 53.8 59.75 53.8 62.0469C53.8 62.6979 53.5864 63.1224 53.1594 63.3203H52.5187C51.9719 63.3203 51.6984 62.1354 51.6984 59.7656V57.9453C51.8963 54.2422 52.2609 52.3906 52.7922 52.3906C52.9901 52.2656 53.1724 52.2031 53.3391 52.2031ZM62.4094 60.2891C62.2531 60.0182 62.175 59.7995 62.175 59.6328V59.0859C62.175 59.0026 62.3286 58.849 62.6359 58.625H62.9094C63.2114 58.625 63.5864 58.9115 64.0344 59.4844C64.5812 59.0156 64.8547 58.4115 64.8547 57.6719V57.4922C64.8547 55.6068 63.701 54.1797 61.3937 53.2109C60.8 52.9661 60.3729 52.8438 60.1125 52.8438C57.925 53.7812 56.8312 55.1172 56.8312 56.8516V57.3047C56.8312 58.2682 57.4406 59.1797 58.6594 60.0391C59.0083 60.237 59.7375 60.4193 60.8469 60.5859C61.4302 60.5182 61.951 60.4193 62.4094 60.2891ZM65.4484 60.9844C66.3651 61.8385 66.8234 62.3281 66.8234 62.4531V62.7266C66.6307 63.0911 66.2974 63.2734 65.8234 63.2734C65.1724 63.2734 64.4614 62.849 63.6906 62C62.7375 62.276 61.9094 62.4141 61.2062 62.4141C58.2583 62.4141 56.2844 61.0156 55.2844 58.2188L55.1047 57.0312C55.1047 55.1927 56.0448 53.5234 57.925 52.0234C57.925 51.4245 58.8989 50.9688 60.8469 50.6562H60.9328C63.4588 50.6562 65.4042 51.9635 66.7687 54.5781C67.0708 55.2604 67.2219 56.0495 67.2219 56.9453V57.6719C67.2219 58.9635 66.6307 60.0677 65.4484 60.9844ZM78.3781 51.1094C78.9875 51.349 79.2922 51.6849 79.2922 52.1172V57.0312C79.2922 57.7292 79.3833 59.7656 79.5656 63.1406C79.4198 63.8698 79.0552 64.2344 78.4719 64.2344H78.1047C77.2557 64.2344 76.8312 63.0495 76.8312 60.6797V60.2266C76.8312 60.1016 76.7713 60.0391 76.6516 60.0391C75.4328 61.6224 74.0656 62.4141 72.55 62.4141C70.8052 62.4141 69.5604 61.349 68.8156 59.2188C68.5708 58.6354 68.4172 57.8151 68.3547 56.7578C68.3547 55.3047 68.7818 53.6354 69.6359 51.75C70.0266 51.349 70.3417 51.2448 70.5812 51.4375C70.8208 51.6302 70.8703 51.9167 70.7297 52.2969C69.8547 54.4167 69.5656 56.1901 69.8625 57.6172C70.1646 59.0443 70.6958 60.0052 71.4562 60.5C71.6958 60.7396 72.0604 60.8594 72.55 60.8594C74.4979 60.8594 75.9562 58.6432 76.925 54.2109C76.925 52.1432 77.4094 51.1094 78.3781 51.1094ZM82.2609 52.2031H82.4484C83.2349 52.3125 83.6281 52.6484 83.6281 53.2109V53.4844C83.0239 56.8958 82.7219 59.75 82.7219 62.0469C82.7219 62.6979 82.5083 63.1224 82.0812 63.3203H81.4406C80.8937 63.3203 80.6203 62.1354 80.6203 59.7656V57.9453C80.8182 54.2422 81.1828 52.3906 81.7141 52.3906C81.912 52.2656 82.0943 52.2031 82.2609 52.2031ZM90.5031 50.5625C92.1073 50.5625 93.4745 51.2005 94.6047 52.4766C95.8807 53.8984 96.5187 55.3255 96.5187 56.7578V57.3047C96.5187 60.0286 94.6047 61.7917 90.7766 62.5938C89.6776 62.7135 88.7349 62.7734 87.9484 62.7734H87.4953C87.1568 62.7734 86.701 62.7135 86.1281 62.5938C85.7635 62.8385 85.4901 62.9609 85.3078 62.9609H85.2219C85.1385 62.9609 84.9849 62.8073 84.7609 62.5V62.3203C84.7609 62.1172 84.7922 61.9661 84.8547 61.8672C84.8547 61.7422 84.8234 61.6797 84.7609 61.6797C84.7609 61.5807 84.7922 61.2161 84.8547 60.5859L84.7609 55.2109C84.7609 53.1016 85.7323 51.7057 87.675 51.0234C88.6177 50.7161 89.5604 50.5625 90.5031 50.5625ZM86.3156 57.4922V59.9531C86.3312 60.0729 86.3911 60.1328 86.4953 60.1328C89.9172 59.888 91.8911 59.5234 92.4172 59.0391C93.5734 58.5495 94.1516 57.6693 94.1516 56.3984C93.5474 53.7266 92.2713 52.3906 90.3234 52.3906H90.1359C87.6463 52.3906 86.4016 53.3932 86.4016 55.3984C86.3443 55.8203 86.3156 56.5182 86.3156 57.4922ZM99.4016 52.2031H99.5891C100.376 52.3125 100.769 52.6484 100.769 53.2109V53.4844C100.165 56.8958 99.8625 59.75 99.8625 62.0469C99.8625 62.6979 99.6489 63.1224 99.2219 63.3203H98.5812C98.0344 63.3203 97.7609 62.1354 97.7609 59.7656V57.9453C97.9588 54.2422 98.3234 52.3906 98.8547 52.3906C99.0526 52.2656 99.2349 52.2031 99.4016 52.2031ZM110.105 51.2969C112.839 51.2969 114.206 51.7526 114.206 52.6641C114.206 53.3307 113.81 53.6641 113.019 53.6641C110.967 53.4818 109.571 53.3906 108.831 53.3906L108.644 53.6641V55.2109C108.644 57.1328 108.735 59.4714 108.917 62.2266C108.917 63.263 108.615 63.7812 108.011 63.7812C107.282 63.6094 106.917 62.7891 106.917 61.3203C106.876 61.1328 106.813 59.8568 106.73 57.4922L106.917 53.6641C106.792 53.6641 106.73 53.6042 106.73 53.4844C104.412 53.7865 103.047 53.9375 102.636 53.9375H102.542C102.214 53.9375 102.001 53.8151 101.902 53.5703V52.9375C102.204 52.1562 104.938 51.6094 110.105 51.2969ZM125.956 50.75C126.566 50.8698 126.87 51.1719 126.87 51.6562V51.8438C126.87 52.1406 126.019 53.2344 124.316 55.125C121.701 58.2865 120.092 60.6536 119.487 62.2266C119.102 62.5911 118.706 62.7734 118.3 62.7734C117.394 62.7734 116.941 62.1979 116.941 61.0469C116.941 60.6146 117.821 59.2161 119.581 56.8516V56.7578C117.883 56.7578 116.547 55.4531 115.573 52.8438C115.448 52.2969 115.386 51.901 115.386 51.6562L115.847 51.2969C116.394 51.2969 116.849 51.9948 117.214 53.3906C117.917 54.7292 118.735 55.3984 119.667 55.3984H119.941C120.711 55.3984 121.472 54.8516 122.222 53.7578C124.175 51.7526 125.36 50.75 125.777 50.75H125.956ZM138.277 52.2031H138.464C139.251 52.3125 139.644 52.6484 139.644 53.2109V53.4844C139.04 56.8958 138.737 59.75 138.737 62.0469C138.737 62.6979 138.524 63.1224 138.097 63.3203H137.456C136.909 63.3203 136.636 62.1354 136.636 59.7656V57.9453C136.834 54.2422 137.198 52.3906 137.73 52.3906C137.928 52.2656 138.11 52.2031 138.277 52.2031ZM149.066 50.75C151.165 50.75 152.532 51.1745 153.167 52.0234C153.349 52.2578 153.441 52.5312 153.441 52.8438V53.1172C153.441 53.6953 153.016 54.1198 152.167 54.3906H151.8C151.498 54.224 151.347 53.9505 151.347 53.5703C150.467 53.2057 149.464 53.0234 148.339 53.0234H147.519C145.284 53.0234 143.402 53.7839 141.87 55.3047L141.777 55.6719C141.777 56.125 143.355 56.6406 146.511 57.2188C149.428 58.0469 150.886 59.0495 150.886 60.2266V60.8594C150.886 61.9271 149.581 62.901 146.972 63.7812C146.482 63.901 145.964 63.9609 145.417 63.9609H144.964C142.902 63.9609 141.506 62.9896 140.777 61.0469C140.652 60.7656 140.589 60.4609 140.589 60.1328C140.751 59.5234 141.055 59.2188 141.503 59.2188H141.683C141.948 59.2188 142.102 59.7057 142.144 60.6797C142.67 61.8932 143.732 62.5 145.331 62.5C146.487 62.5 147.732 61.9844 149.066 60.9531C149.128 60.849 149.159 60.7266 149.159 60.5859C149.159 59.8932 146.758 59.0443 141.956 58.0391C140.68 57.4297 140.042 56.7917 140.042 56.125V55.3984C140.042 54.0964 141.469 52.8203 144.323 51.5703C146.021 51.0234 147.602 50.75 149.066 50.75ZM62.7062 68.75C63.2531 68.8438 63.5266 69.1172 63.5266 69.5703L62.8859 76.7656C62.8859 77.8594 63.2818 78.4062 64.0734 78.4062H64.4328C67.4328 78.224 69.0448 78.1328 69.2687 78.1328H70.0891C70.6359 78.4349 70.9094 78.7995 70.9094 79.2266V79.4062C70.9094 80.3177 70.1489 80.7734 68.6281 80.7734C68.6281 80.8359 68.2323 80.8672 67.4406 80.8672C64.6958 80.8672 62.9667 80.5625 62.2531 79.9531C61.5812 79.4635 61.2453 78.5833 61.2453 77.3125V76.9453C61.5734 71.4818 62.0292 68.75 62.6125 68.75H62.7062ZM76.0344 68.6562H76.1281C78.6489 68.6562 80.5917 69.9635 81.9562 72.5781C82.2635 73.2604 82.4172 74.0495 82.4172 74.9453V75.6719C82.4172 77.4531 81.2922 78.8802 79.0422 79.9531C78.0266 80.2604 77.1463 80.4141 76.4016 80.4141C73.4484 80.4141 71.4745 79.0156 70.4797 76.2188L70.2922 75.0312C70.2922 73.1927 71.2349 71.5234 73.1203 70.0234C73.1203 69.4245 74.0917 68.9688 76.0344 68.6562ZM72.0266 74.8516V75.3047C72.0266 76.2682 72.6333 77.1797 73.8469 78.0391C74.1958 78.237 74.925 78.4193 76.0344 78.5859C78.7062 78.2786 80.0422 77.3073 80.0422 75.6719V75.4922C80.0422 73.6068 78.8885 72.1797 76.5812 71.2109C75.9927 70.9661 75.5682 70.8438 75.3078 70.8438C73.1203 71.7812 72.0266 73.1172 72.0266 74.8516ZM90.7453 68.9297C92.0422 68.9297 92.9224 69.5365 93.3859 70.75V71.0234C93.2453 71.6953 93.063 72.0312 92.8391 72.0312H92.4719C92.3573 72.0312 92.1463 71.6953 91.8391 71.0234C91.3703 70.8411 91.0344 70.75 90.8312 70.75C89.5031 70.75 88.076 71.5417 86.55 73.125C85.8833 74.3698 85.55 75.3698 85.55 76.125V76.3984C85.55 77.9036 86.1568 78.9688 87.3703 79.5938C87.9328 79.8333 88.5109 79.9531 89.1047 79.9531C90.063 79.9531 91.2766 79.5599 92.7453 78.7734C92.9901 78.7109 93.2036 78.6797 93.3859 78.6797C93.6307 78.6797 93.8729 78.862 94.1125 79.2266V80.0469C94.1125 80.8333 93.2323 81.5312 91.4719 82.1406C90.8989 82.2656 90.4432 82.3281 90.1047 82.3281H88.7375C86.4927 82.3281 84.8833 81.1432 83.9094 78.7734C83.6646 77.987 83.5422 77.2266 83.5422 76.4922C83.5422 73.2943 85.1516 70.9245 88.3703 69.3828C89.0578 69.0807 89.8495 68.9297 90.7453 68.9297ZM96.7687 68.5625H97.3156C97.5239 68.5625 97.675 68.8984 97.7687 69.5703C97.1646 75.1172 96.8625 78.1849 96.8625 78.7734C96.9198 78.7734 96.9484 78.8021 96.9484 78.8594C97.0943 78.8594 97.9146 77.888 99.4094 75.9453C103.451 71.388 105.821 69.1094 106.519 69.1094H106.792C107.402 69.2292 107.706 69.5339 107.706 70.0234V70.2031C107.706 70.6458 106.855 71.4375 105.152 72.5781C103.573 74.0052 102.784 74.8854 102.784 75.2188C104.237 76.9896 105.482 78.1745 106.519 78.7734L107.066 79.5V80.1406C107.066 80.6979 106.67 81.0312 105.878 81.1406H105.792C104.615 81.1406 103.094 79.7135 101.23 76.8594H101.05C100.904 76.8646 99.9328 77.9583 98.1359 80.1406C97.662 80.9271 97.1463 81.3203 96.5891 81.3203C95.7349 81.0755 95.3078 80.3464 95.3078 79.1328C95.3078 77.8724 95.7036 74.4115 96.4953 68.75L96.7687 68.5625ZM113.667 68.6562H114.761C115.928 68.6562 117.112 68.9297 118.316 69.4766L118.675 69.9297V70.3906C118.675 70.4844 118.555 70.6042 118.316 70.75C116.347 70.4479 115.008 70.2969 114.3 70.2969C111.81 70.4271 110.566 70.974 110.566 71.9375C110.326 72.6042 110.144 73.5755 110.019 74.8516C110.144 74.8724 110.206 74.9323 110.206 75.0312C111.305 74.849 113.157 74.7292 115.761 74.6719C116.49 74.8229 116.855 75.1562 116.855 75.6719V76.2188C116.698 76.5417 116.456 76.7839 116.128 76.9453H113.753C113.081 76.9453 111.836 76.8854 110.019 76.7656L109.839 77.0391V77.2188C109.839 78.5573 110.232 79.2266 111.019 79.2266C111.743 79.2266 114.053 78.9219 117.948 78.3125C118.318 78.2552 118.774 78.2266 119.316 78.2266C119.925 78.4453 120.23 78.7786 120.23 79.2266C120.23 80.0755 119.347 80.5 117.581 80.5C114.753 80.9271 112.688 81.1406 111.386 81.1406C109.198 81.1406 108.105 79.8958 108.105 77.4062V77.1328C108.485 72.3307 109.032 69.9297 109.745 69.9297C110.693 69.0807 112.001 68.6562 113.667 68.6562ZM127.097 68.5625C128.701 68.5625 130.068 69.2005 131.198 70.4766C132.474 71.8984 133.112 73.3255 133.112 74.7578V75.3047C133.112 78.0286 131.198 79.7917 127.37 80.5938C126.271 80.7135 125.329 80.7734 124.542 80.7734H124.089C123.751 80.7734 123.295 80.7135 122.722 80.5938C122.357 80.8385 122.084 80.9609 121.902 80.9609H121.816C121.732 80.9609 121.579 80.8073 121.355 80.5V80.3203C121.355 80.1172 121.386 79.9661 121.448 79.8672C121.448 79.7422 121.417 79.6797 121.355 79.6797C121.355 79.5807 121.386 79.2161 121.448 78.5859L121.355 73.2109C121.355 71.1016 122.326 69.7057 124.269 69.0234C125.211 68.7161 126.154 68.5625 127.097 68.5625ZM122.909 75.4922V77.9531C122.925 78.0729 122.985 78.1328 123.089 78.1328C126.511 77.888 128.485 77.5234 129.011 77.0391C130.167 76.5495 130.745 75.6693 130.745 74.3984C130.141 71.7266 128.865 70.3906 126.917 70.3906H126.73C124.24 70.3906 122.995 71.3932 122.995 73.3984C122.938 73.8203 122.909 74.5182 122.909 75.4922ZM62.4328 86.4766H62.6125C65.2271 86.5964 66.5344 87.2031 66.5344 88.2969C66.4354 88.5729 66.2531 88.7865 65.9875 88.9375H65.5344L62.1594 88.3906H62.0656C59.701 88.5938 58.5187 89.1693 58.5187 90.1172C58.4562 91.0286 58.425 91.6979 58.425 92.125V92.5781C58.425 92.6667 58.5161 92.7578 58.6984 92.8516C61.4068 92.7318 62.8937 92.6719 63.1594 92.6719C63.9302 92.6719 64.4484 92.9141 64.7141 93.3984V94.0391C64.7141 94.5859 64.3495 94.888 63.6203 94.9453H62.4328C61.5005 94.9453 60.2245 94.9167 58.6047 94.8594C58.4849 95.0052 58.425 95.125 58.425 95.2188C58.425 95.7396 58.4562 96.651 58.5187 97.9531C58.5187 98.3542 58.3364 98.6589 57.9719 98.8672H57.425C57.1177 98.7109 56.9641 98.4688 56.9641 98.1406C56.7818 95.4792 56.6906 93.4427 56.6906 92.0312C56.6906 89.6146 57.0552 88.2188 57.7844 87.8438C58.9042 86.9323 60.4536 86.4766 62.4328 86.4766ZM71.4797 86.6562H71.5734C74.0943 86.6562 76.037 87.9635 77.4016 90.5781C77.7088 91.2604 77.8625 92.0495 77.8625 92.9453V93.6719C77.8625 95.4531 76.7375 96.8802 74.4875 97.9531C73.4719 98.2604 72.5917 98.4141 71.8469 98.4141C68.8937 98.4141 66.9198 97.0156 65.925 94.2188L65.7375 93.0312C65.7375 91.1927 66.6802 89.5234 68.5656 88.0234C68.5656 87.4245 69.537 86.9688 71.4797 86.6562ZM67.4719 92.8516V93.3047C67.4719 94.2682 68.0786 95.1797 69.2922 96.0391C69.6411 96.237 70.3703 96.4193 71.4797 96.5859C74.1516 96.2786 75.4875 95.3073 75.4875 93.6719V93.4922C75.4875 91.6068 74.3338 90.1797 72.0266 89.2109C71.438 88.9661 71.0135 88.8438 70.7531 88.8438C68.5656 89.7812 67.4719 91.1172 67.4719 92.8516ZM80.5422 93.3984L80.7219 93.4922C82.2062 93.487 83.7922 93.2604 85.4797 92.8125C87.1672 92.3594 88.0109 91.8568 88.0109 91.3047V91.2109C88.0109 90.2318 87.0396 89.474 85.0969 88.9375C84.7896 88.849 84.4536 88.8177 84.0891 88.8438C82.5891 88.8438 81.4667 89.3906 80.7219 90.4844C80.5396 91.3958 80.4641 91.9688 80.4953 92.2031C80.5266 92.4323 80.5422 92.8307 80.5422 93.3984ZM83.3937 96C84.8833 96.8125 86.4562 97.5104 88.1125 98.0938C88.7792 98.4531 89.1125 98.8177 89.1125 99.1875V99.2812C89.1125 99.7448 88.8651 100.023 88.3703 100.117C87.8755 100.216 87.0917 100.062 86.0187 99.6562C84.9719 99.2656 83.2896 98.0443 80.9719 95.9922L80.9016 96.1328V97.4062C80.9016 98.6823 80.5995 99.3203 79.9953 99.3203C79.7505 99.3203 79.5682 99.2005 79.4484 98.9609V97.6797L78.9875 91.6719C78.9875 89.4688 80.1125 88.0703 82.3625 87.4766C82.6229 87.3568 83.1073 87.2969 83.8156 87.2969H84.9094C87.0552 87.2969 88.7271 88.3594 89.925 90.4844C90.0448 90.9062 90.1047 91.2708 90.1047 91.5781C90.1047 93.4688 88.6177 94.8359 85.6437 95.6797C84.8677 95.8359 84.1177 95.9427 83.3937 96ZM96.0656 86.6562H97.1594C98.326 86.6562 99.5109 86.9297 100.714 87.4766L101.073 87.9297V88.3906C101.073 88.4844 100.954 88.6042 100.714 88.75C98.7453 88.4479 97.4068 88.2969 96.6984 88.2969C94.2088 88.4271 92.9641 88.974 92.9641 89.9375C92.7245 90.6042 92.5422 91.5755 92.4172 92.8516C92.5422 92.8724 92.6047 92.9323 92.6047 93.0312C93.7036 92.849 95.5552 92.7292 98.1594 92.6719C98.8885 92.8229 99.2531 93.1562 99.2531 93.6719V94.2188C99.0969 94.5417 98.8547 94.7839 98.5266 94.9453H96.1516C95.4797 94.9453 94.2349 94.8854 92.4172 94.7656L92.2375 95.0391V95.2188C92.2375 96.5573 92.6307 97.2266 93.4172 97.2266C94.1411 97.2266 96.451 96.9219 100.347 96.3125C100.717 96.2552 101.172 96.2266 101.714 96.2266C102.323 96.4453 102.628 96.7786 102.628 97.2266C102.628 98.0755 101.745 98.5 99.9797 98.5C97.1516 98.9271 95.0864 99.1406 93.7844 99.1406C91.5969 99.1406 90.5031 97.8958 90.5031 95.4062V95.1328C90.8833 90.3307 91.4302 87.9297 92.1437 87.9297C93.0917 87.0807 94.3989 86.6562 96.0656 86.6562ZM113.112 86.0156H113.3C113.623 86.0156 113.956 86.2604 114.3 86.75V87.4766C114.3 87.7057 113.813 88.3438 112.839 89.3906C111.678 91.4062 110.31 94.4141 108.737 98.4141C108.264 99.0182 107.808 99.3203 107.37 99.3203C105.381 99.3203 103.68 95.4948 102.269 87.8438V87.5703C102.269 87.4714 102.391 87.349 102.636 87.2031H103.183C103.568 87.2031 104.084 88.8125 104.73 92.0312C105.657 94.7812 106.417 96.4531 107.011 97.0469H107.097C107.31 96.9062 107.829 95.5391 108.652 92.9453C110.469 88.3255 111.956 86.0156 113.112 86.0156ZM119.597 86.6562H120.691C121.857 86.6562 123.042 86.9297 124.245 87.4766L124.605 87.9297V88.3906C124.605 88.4844 124.485 88.6042 124.245 88.75C122.277 88.4479 120.938 88.2969 120.23 88.2969C117.74 88.4271 116.495 88.974 116.495 89.9375C116.256 90.6042 116.073 91.5755 115.948 92.8516C116.073 92.8724 116.136 92.9323 116.136 93.0312C117.235 92.849 119.086 92.7292 121.691 92.6719C122.42 92.8229 122.784 93.1562 122.784 93.6719V94.2188C122.628 94.5417 122.386 94.7839 122.058 94.9453H119.683C119.011 94.9453 117.766 94.8854 115.948 94.7656L115.769 95.0391V95.2188C115.769 96.5573 116.162 97.2266 116.948 97.2266C117.672 97.2266 119.982 96.9219 123.878 96.3125C124.248 96.2552 124.704 96.2266 125.245 96.2266C125.855 96.4453 126.159 96.7786 126.159 97.2266C126.159 98.0755 125.277 98.5 123.511 98.5C120.683 98.9271 118.618 99.1406 117.316 99.1406C115.128 99.1406 114.034 97.8958 114.034 95.4062V95.1328C114.415 90.3307 114.961 87.9297 115.675 87.9297C116.623 87.0807 117.93 86.6562 119.597 86.6562ZM128.105 93.3984L128.284 93.4922C129.769 93.487 131.355 93.2604 133.042 92.8125C134.73 92.3594 135.573 91.8568 135.573 91.3047V91.2109C135.573 90.2318 134.602 89.474 132.659 88.9375C132.352 88.849 132.016 88.8177 131.652 88.8438C130.152 88.8438 129.029 89.3906 128.284 90.4844C128.102 91.3958 128.027 91.9688 128.058 92.2031C128.089 92.4323 128.105 92.8307 128.105 93.3984ZM130.956 96C132.446 96.8125 134.019 97.5104 135.675 98.0938C136.342 98.4531 136.675 98.8177 136.675 99.1875V99.2812C136.675 99.7448 136.428 100.023 135.933 100.117C135.438 100.216 134.654 100.062 133.581 99.6562C132.534 99.2656 130.852 98.0443 128.534 95.9922L128.464 96.1328V97.4062C128.464 98.6823 128.162 99.3203 127.558 99.3203C127.313 99.3203 127.131 99.2005 127.011 98.9609V97.6797L126.55 91.6719C126.55 89.4688 127.675 88.0703 129.925 87.4766C130.185 87.3568 130.67 87.2969 131.378 87.2969H132.472C134.618 87.2969 136.29 88.3594 137.487 90.4844C137.607 90.9062 137.667 91.2708 137.667 91.5781C137.667 93.4688 136.18 94.8359 133.206 95.6797C132.43 95.8359 131.68 95.9427 130.956 96Z" fill="black"></path> </svg> 