<?xml version="1.0" encoding="UTF-8"?> <svg xmlns="http://www.w3.org/2000/svg" width="186" height="155" viewBox="0 0 186 155" fill="none"> <path d="M8.36027 41.9242C8.81635 38.2786 9.391 34.6451 10.2484 31.1151C10.4643 30.2333 10.6985 29.3607 10.963 28.5032C11.2245 27.6428 11.5133 26.8005 11.8447 25.9856C11.9238 25.7789 12.015 25.5843 12.0971 25.3806C12.1883 25.186 12.2735 24.9853 12.3708 24.7938C12.5562 24.4076 12.7569 24.0336 12.9697 23.6839C13.1826 23.3343 13.4137 23.0059 13.6539 22.7201C13.7147 22.6532 13.7755 22.5772 13.8363 22.5164L13.9306 22.4221L13.9762 22.3735L14.037 22.3187L14.5265 21.8657C14.6086 21.7897 14.6876 21.7137 14.7697 21.6407L15.0191 21.4248C15.1863 21.2819 15.3505 21.1329 15.5208 20.9961L16.0316 20.5856C16.1167 20.5157 16.2018 20.4518 16.29 20.388L16.5515 20.1964C17.2539 19.6887 17.9775 19.2387 18.7377 18.8616C19.4978 18.4816 20.2975 18.1714 21.1458 17.8886C21.9941 17.6028 22.8941 17.3353 23.8063 17.0191C24.5056 16.791 25.2323 16.5812 25.9863 16.414L26.5489 16.2863C26.7374 16.2437 26.9289 16.2103 27.1205 16.1707C27.5036 16.0947 27.8837 16.0157 28.2698 15.9549C28.656 15.891 29.0391 15.815 29.4313 15.7603L30.5989 15.5839C31.3803 15.4775 32.1648 15.368 32.9523 15.2799C33.7367 15.1795 34.5273 15.1035 35.3178 15.0153C36.1084 14.9393 36.8989 14.8572 37.6925 14.7903L38.8813 14.6869L40.0732 14.5927C40.8668 14.5288 41.6604 14.4741 42.457 14.4194C45.6374 14.2035 48.827 14.0424 52.0165 13.9116C55.2091 13.7809 58.4017 13.6836 61.5973 13.6076C71.0018 13.3917 80.4153 13.3521 89.8289 13.4282C89.8927 13.4282 89.9596 13.4282 90.0235 13.4282C92.0272 13.4434 94.0309 13.4677 96.0347 13.492C96.2201 13.492 96.4086 13.4981 96.5941 13.4981C97.7222 13.5133 98.8502 13.5285 99.9783 13.5467C100.741 13.5589 101.505 13.5771 102.265 13.5893C102.557 13.5954 102.845 13.6015 103.137 13.6045C104.95 13.641 106.765 13.6775 108.577 13.7231C108.917 13.7322 109.255 13.7383 109.596 13.7474C111.383 13.79 113.168 13.8417 114.956 13.8934C115.297 13.9025 115.637 13.9147 115.978 13.9238C117.042 13.9542 118.103 13.9876 119.167 14.0211C119.943 14.0454 120.718 14.0728 121.493 14.1001C121.727 14.1092 121.965 14.1184 122.199 14.1245C127.58 14.316 132.962 14.544 138.326 14.8633C139.919 14.9576 141.509 15.064 143.093 15.1856C143.887 15.2464 144.674 15.3103 145.462 15.3832C146.246 15.4562 147.031 15.5353 147.788 15.6356C147.973 15.663 148.171 15.6842 148.344 15.7147C148.521 15.7451 148.715 15.7694 148.858 15.8059L148.974 15.8302L149.032 15.8424C149.05 15.8454 149.071 15.8515 149.095 15.8576L149.378 15.9275C149.567 15.9731 149.755 16.0218 149.941 16.0704C150.689 16.265 151.421 16.4778 152.148 16.715C152.872 16.9552 153.583 17.2167 154.286 17.5055C154.982 17.8005 155.675 18.1076 156.344 18.4572C157.688 19.1444 158.974 19.9349 160.169 20.8441L160.613 21.1907L160.835 21.364C160.905 21.4187 160.954 21.4674 161.014 21.516C161.248 21.7198 161.477 21.9478 161.695 22.2032C162.136 22.7049 162.538 23.2917 162.909 23.912C163.651 25.1556 164.262 26.5482 164.791 27.9803C165.283 29.3151 165.706 30.6955 166.08 32.0941C166.107 32.1975 166.138 32.3039 166.165 32.4073C166.238 32.684 166.308 32.9637 166.375 33.2404C167.059 35.9921 167.576 38.8046 167.998 41.6384C168.461 44.758 168.801 47.9081 169.051 51.0641C169.552 57.3794 169.707 63.7372 169.574 70.0798C169.437 76.4224 169.008 82.7619 168.211 89.0346C167.938 91.1782 167.615 93.3157 167.235 95.435C167.117 96.1069 166.989 96.7758 166.858 97.4448C166.797 97.7519 166.737 98.059 166.673 98.363C166.411 99.6188 166.129 100.865 165.818 102.106C165.752 102.38 165.682 102.65 165.612 102.924C165.213 104.441 164.772 105.937 164.274 107.406C163.775 108.868 163.219 110.297 162.58 111.668C162.1 112.699 161.571 113.7 160.981 114.627C160.789 114.928 160.592 115.223 160.385 115.509C160.142 115.849 159.883 116.172 159.619 116.482C159.433 116.701 159.242 116.91 159.047 117.111C158.813 117.354 158.567 117.573 158.317 117.783L158.129 117.932L158.035 118.008L157.922 118.09L157.469 118.415C156.259 119.282 154.967 120.033 153.623 120.696C153.456 120.781 153.285 120.86 153.115 120.939C152.945 121.018 152.774 121.097 152.604 121.173C152.258 121.322 151.914 121.474 151.564 121.611C150.865 121.891 150.153 122.152 149.43 122.389C149.211 122.462 148.989 122.532 148.767 122.602C148.621 122.648 148.478 122.694 148.332 122.736L147.77 122.906C147.581 122.961 147.381 123.025 147.201 123.071L146.812 123.174L146.097 123.365L145.544 123.514C145.359 123.563 145.167 123.6 144.982 123.645C141.977 124.342 138.861 124.825 135.732 125.217C132.597 125.594 129.438 125.88 126.27 126.114L123.892 126.272L123.296 126.312L122.7 126.345L121.508 126.412C119.921 126.509 118.328 126.573 116.738 126.646C110.371 126.911 103.989 127.017 97.6036 127.051H96.7613L96.4056 127.057L95.834 128.097C95.6211 128.483 95.4205 128.875 95.235 129.276C94.9522 129.881 94.6999 130.502 94.4809 131.137C94.113 132.192 93.8576 133.29 93.6904 134.397C93.3711 136.619 93.4867 138.884 93.9549 141.031C94.0705 141.569 94.2073 142.101 94.3623 142.621C94.5174 143.144 94.6907 143.661 94.8823 144.169C95.0738 144.677 95.2806 145.175 95.5026 145.668L95.6728 146.036C95.6819 146.057 95.6789 146.057 95.688 146.069C95.688 146.078 95.688 146.085 95.6941 146.091C95.7002 146.115 95.7032 146.121 95.7002 146.124C95.7002 146.13 95.7002 146.136 95.6941 146.151C95.688 146.167 95.6759 146.191 95.6546 146.212C95.612 146.258 95.5543 146.285 95.5299 146.285C95.5178 146.285 95.5086 146.285 95.4934 146.285C95.4904 146.285 95.4843 146.285 95.4782 146.282C95.4721 146.282 95.4661 146.282 95.46 146.276C95.4539 146.276 95.4448 146.273 95.4357 146.264C95.4296 146.264 95.4265 146.258 95.4205 146.258H95.4174L95.3992 146.246L95.3627 146.224L94.7728 145.869C94.5782 145.747 94.3775 145.641 94.189 145.504C92.6444 144.497 91.1819 143.318 89.8137 142.025C89.7863 142.001 89.7589 141.974 89.7316 141.946C89.5309 141.758 89.3333 141.563 89.1387 141.369C88.0228 140.259 86.9708 139.076 85.9826 137.839C85.3957 137.1 84.8332 136.337 84.2951 135.558C83.8876 134.968 83.4924 134.366 83.1092 133.755C82.9815 133.551 82.8569 133.348 82.7322 133.144C81.744 131.514 80.8532 129.824 80.0626 128.084L79.5579 126.972L78.3569 126.947C70.9501 126.798 63.5433 126.561 56.1395 126.227C52.4392 126.059 48.7388 125.871 45.0445 125.649C41.3503 125.424 37.656 125.178 33.98 124.861C32.1435 124.703 30.307 124.533 28.4978 124.314C28.0448 124.262 27.5978 124.202 27.1539 124.141L26.4941 124.044L26.1749 123.989C26.0684 123.971 25.959 123.952 25.8617 123.931L25.5607 123.87L25.3083 123.809L25.2444 123.794L25.1684 123.77L25.0134 123.724C24.91 123.694 24.8066 123.663 24.7032 123.63C24.4995 123.563 24.2928 123.499 24.0921 123.426C23.8884 123.356 23.6907 123.28 23.4901 123.204C22.359 122.77 21.2704 122.216 20.2245 121.575C20.0907 121.493 19.9539 121.407 19.8201 121.322C19.5313 121.137 19.2424 120.945 18.9596 120.745C18.2451 120.243 17.5488 119.708 16.8799 119.133L16.6275 118.92L16.3782 118.698L15.8856 118.257C15.6211 118.014 15.3626 117.728 15.1164 117.418C14.8701 117.111 14.636 116.777 14.417 116.424C14.192 116.074 13.9853 115.703 13.7846 115.326C13.3863 114.566 13.0275 113.77 12.7022 112.949C12.0515 111.304 11.5133 109.583 11.0481 107.831C10.5799 106.08 10.1846 104.301 9.83797 102.507C9.48831 100.713 9.19033 98.9042 8.92276 97.086C8.3937 93.4525 8.00147 89.7886 7.70654 86.1157C7.4116 82.4427 7.21092 78.7545 7.09234 75.0663C7.04977 73.7224 7.01937 72.3815 6.99808 71.0376C6.99808 70.9737 6.99808 70.9099 6.99808 70.846C6.90991 64.8713 7.02545 58.8875 7.3812 52.928C7.60316 49.2459 7.91331 45.5699 8.36331 41.9212L8.36027 41.9242Z" fill="#2AB773"></path> <path d="M185.774 77.1859C185.774 77.1677 185.789 77.1494 185.81 77.1494C185.828 77.1494 185.847 77.1646 185.847 77.1859C185.847 77.2041 185.831 77.2224 185.81 77.2224C185.789 77.2224 185.774 77.2072 185.774 77.1859Z" fill="#1A1A1A"></path> <path d="M185.901 83.5769C185.901 83.6256 185.862 83.6651 185.813 83.6651C185.764 83.6651 185.725 83.6256 185.725 83.5769C185.725 83.5283 185.764 83.4888 185.813 83.4888C185.862 83.4888 185.901 83.5283 185.901 83.5769Z" fill="#1A1A1A"></path> <path d="M179.425 83.9722C179.209 83.9722 179.036 83.7989 179.036 83.583C179.036 83.3672 179.209 83.1938 179.425 83.1938C179.641 83.1938 179.814 83.3672 179.814 83.583C179.814 83.7989 179.641 83.9722 179.425 83.9722Z" fill="#1A1A1A"></path> <path d="M185.959 89.9652C185.959 90.0442 185.895 90.1081 185.816 90.1081C185.737 90.1081 185.673 90.0442 185.673 89.9652C185.673 89.8861 185.737 89.8223 185.816 89.8223C185.895 89.8223 185.959 89.8861 185.959 89.9652Z" fill="#1A1A1A"></path> <path d="M179.431 90.4123C179.188 90.4123 178.987 90.2146 178.987 89.9683C178.987 89.7251 179.185 89.5244 179.431 89.5244C179.674 89.5244 179.875 89.7221 179.875 89.9683C179.875 90.2116 179.677 90.4123 179.431 90.4123Z" fill="#1A1A1A"></path> <path d="M173.043 90.7377C172.623 90.7377 172.28 90.3971 172.28 89.9775C172.28 89.5579 172.62 89.2144 173.04 89.2144C173.459 89.2144 173.803 89.5549 173.803 89.9745C173.803 90.3941 173.462 90.7377 173.043 90.7377Z" fill="#1A1A1A"></path> <path d="M185.822 96.1953C185.91 96.1953 185.98 96.2653 185.98 96.3534C185.98 96.4416 185.91 96.5115 185.822 96.5115C185.734 96.5115 185.664 96.4416 185.664 96.3534C185.664 96.2653 185.734 96.1953 185.822 96.1953Z" fill="#1A1A1A"></path> <path d="M179.434 96.8187C179.179 96.8187 178.972 96.612 178.972 96.3596C178.972 96.1042 179.179 95.8975 179.431 95.8975C179.686 95.8975 179.893 96.1042 179.893 96.3566C179.893 96.609 179.686 96.8187 179.434 96.8187Z" fill="#1A1A1A"></path> <path d="M173.046 97.1438C172.614 97.1438 172.267 96.7941 172.264 96.3654C172.264 95.9337 172.614 95.587 173.043 95.584C173.475 95.584 173.821 95.9336 173.824 96.3624C173.824 96.7941 173.475 97.1407 173.046 97.1438Z" fill="#1A1A1A"></path> <path d="M185.828 102.602C185.907 102.602 185.971 102.666 185.971 102.745C185.971 102.824 185.907 102.888 185.828 102.888C185.749 102.888 185.685 102.824 185.685 102.745C185.685 102.666 185.749 102.602 185.828 102.602Z" fill="#1A1A1A"></path> <path d="M178.996 102.748C178.996 102.504 179.194 102.304 179.44 102.304C179.683 102.304 179.884 102.501 179.884 102.748C179.884 102.991 179.686 103.192 179.44 103.192C179.197 103.192 178.996 102.994 178.996 102.748Z" fill="#1A1A1A"></path> <path d="M173.052 101.991C173.471 101.991 173.815 102.331 173.815 102.751C173.815 103.17 173.474 103.514 173.055 103.514C172.635 103.514 172.292 103.174 172.292 102.754C172.292 102.334 172.632 101.991 173.052 101.991Z" fill="#1A1A1A"></path> <path d="M185.728 109.13C185.728 109.072 185.777 109.023 185.834 109.023C185.892 109.023 185.941 109.072 185.941 109.13C185.941 109.188 185.892 109.236 185.834 109.236C185.777 109.236 185.728 109.188 185.728 109.13Z" fill="#1A1A1A"></path> <path d="M179.446 109.525C179.23 109.525 179.057 109.352 179.057 109.136C179.057 108.92 179.23 108.747 179.446 108.747C179.662 108.747 179.835 108.92 179.835 109.136C179.835 109.352 179.662 109.525 179.446 109.525Z" fill="#1A1A1A"></path> <path d="M173.058 108.452C173.441 108.452 173.748 108.762 173.748 109.142C173.748 109.522 173.438 109.832 173.058 109.832C172.678 109.832 172.368 109.522 172.368 109.142C172.368 108.759 172.678 108.452 173.058 108.452Z" fill="#1A1A1A"></path> <path d="M185.892 115.521C185.892 115.551 185.868 115.573 185.84 115.576C185.81 115.576 185.789 115.551 185.786 115.524C185.786 115.494 185.81 115.472 185.837 115.469C185.868 115.469 185.889 115.494 185.892 115.521Z" fill="#1A1A1A"></path> <path d="M179.452 115.825C179.285 115.825 179.151 115.691 179.151 115.524C179.151 115.357 179.285 115.223 179.452 115.223C179.62 115.223 179.753 115.357 179.753 115.524C179.753 115.691 179.62 115.825 179.452 115.825Z" fill="#1A1A1A"></path> <path d="M173.061 114.946C173.383 114.946 173.645 115.208 173.645 115.53C173.645 115.852 173.383 116.114 173.061 116.114C172.739 116.114 172.477 115.852 172.477 115.53C172.477 115.208 172.739 114.946 173.061 114.946Z" fill="#1A1A1A"></path> <path d="M166.673 114.667C167.153 114.667 167.542 115.056 167.542 115.534C167.542 116.014 167.153 116.403 166.676 116.403C166.195 116.403 165.806 116.014 165.806 115.537C165.806 115.056 166.195 114.667 166.673 114.667Z" fill="#1A1A1A"></path> <path d="M179.279 121.916C179.279 121.818 179.358 121.739 179.455 121.739C179.553 121.739 179.632 121.818 179.632 121.916C179.632 122.013 179.553 122.092 179.455 122.092C179.358 122.092 179.279 122.013 179.279 121.916Z" fill="#1A1A1A"></path> <path d="M172.608 121.919C172.608 121.663 172.815 121.457 173.067 121.457C173.322 121.457 173.529 121.663 173.529 121.916C173.529 122.171 173.322 122.378 173.07 122.378C172.815 122.378 172.608 122.171 172.608 121.919Z" fill="#1A1A1A"></path> <path d="M166.679 121.198C167.08 121.198 167.406 121.523 167.406 121.924C167.406 122.326 167.08 122.651 166.679 122.651C166.277 122.651 165.952 122.326 165.952 121.924C165.952 121.523 166.277 121.198 166.679 121.198Z" fill="#1A1A1A"></path> <path d="M179.516 128.304C179.516 128.334 179.492 128.355 179.464 128.355C179.437 128.355 179.41 128.331 179.41 128.304C179.41 128.273 179.434 128.249 179.461 128.249C179.489 128.249 179.513 128.273 179.516 128.301V128.304Z" fill="#1A1A1A"></path> <path d="M172.79 128.31C172.79 128.155 172.918 128.027 173.073 128.027C173.228 128.027 173.356 128.155 173.356 128.31C173.356 128.465 173.228 128.592 173.073 128.592C172.915 128.592 172.79 128.465 172.79 128.31Z" fill="#1A1A1A"></path> <path d="M166.135 128.313C166.135 128.008 166.381 127.762 166.682 127.762C166.986 127.762 167.232 128.008 167.232 128.31C167.232 128.614 166.986 128.86 166.685 128.86C166.381 128.86 166.135 128.614 166.135 128.313Z" fill="#1A1A1A"></path> <path d="M159.515 128.319C159.515 127.887 159.865 127.541 160.294 127.538C160.725 127.538 161.072 127.887 161.075 128.316C161.075 128.748 160.725 129.094 160.297 129.097C159.865 129.097 159.518 128.748 159.515 128.319Z" fill="#1A1A1A"></path> <path d="M153.906 127.349C154.444 127.349 154.882 127.783 154.882 128.322C154.882 128.86 154.447 129.298 153.909 129.298C153.37 129.298 152.933 128.863 152.933 128.325C152.933 127.786 153.367 127.349 153.906 127.349Z" fill="#1A1A1A"></path> <path d="M173.186 134.698C173.186 134.755 173.137 134.804 173.079 134.804C173.021 134.804 172.973 134.755 172.973 134.698C172.973 134.64 173.021 134.591 173.079 134.591C173.137 134.591 173.186 134.64 173.186 134.698Z" fill="#1A1A1A"></path> <path d="M166.354 134.701C166.354 134.515 166.502 134.363 166.691 134.363C166.876 134.363 167.029 134.512 167.029 134.701C167.029 134.886 166.88 135.038 166.691 135.038C166.506 135.038 166.354 134.889 166.354 134.701Z" fill="#1A1A1A"></path> <path d="M159.752 134.707C159.752 134.403 159.999 134.157 160.3 134.157C160.604 134.157 160.85 134.403 160.85 134.704C160.85 135.008 160.604 135.254 160.303 135.254C159.999 135.254 159.752 135.008 159.752 134.707Z" fill="#1A1A1A"></path> <path d="M153.185 134.713C153.185 134.312 153.51 133.986 153.912 133.986C154.313 133.986 154.638 134.312 154.638 134.713C154.638 135.114 154.313 135.44 153.912 135.44C153.51 135.44 153.185 135.114 153.185 134.713Z" fill="#1A1A1A"></path> <path d="M147.523 133.831C148.013 133.831 148.408 134.226 148.411 134.716C148.411 135.205 148.016 135.601 147.526 135.604C147.037 135.604 146.642 135.208 146.639 134.719C146.639 134.229 147.034 133.834 147.523 133.831Z" fill="#1A1A1A"></path> <path d="M141.135 133.713C141.692 133.713 142.145 134.163 142.145 134.722C142.145 135.279 141.695 135.732 141.135 135.732C140.579 135.732 140.126 135.282 140.126 134.722C140.126 134.166 140.576 133.713 141.135 133.713Z" fill="#1A1A1A"></path> <path d="M133.649 134.731C133.649 134.126 134.139 133.633 134.747 133.63C135.355 133.63 135.845 134.12 135.848 134.728C135.848 135.333 135.358 135.826 134.75 135.829C134.142 135.829 133.652 135.339 133.649 134.731Z" fill="#1A1A1A"></path> <path d="M128.356 133.618C128.973 133.618 129.472 134.117 129.472 134.734C129.472 135.351 128.973 135.85 128.356 135.85C127.738 135.85 127.24 135.351 127.24 134.734C127.24 134.117 127.738 133.618 128.356 133.618Z" fill="#1A1A1A"></path> <path d="M121.968 133.643C122.576 133.643 123.065 134.132 123.068 134.74C123.068 135.345 122.579 135.838 121.971 135.841C121.362 135.841 120.873 135.351 120.87 134.743C120.87 134.135 121.359 133.646 121.968 133.643Z" fill="#1A1A1A"></path> <path d="M114.552 134.746C114.552 134.178 115.011 133.719 115.579 133.719C116.148 133.719 116.607 134.178 116.607 134.746C116.607 135.315 116.148 135.774 115.579 135.774C115.011 135.774 114.552 135.315 114.552 134.746Z" fill="#1A1A1A"></path> <path d="M108.2 134.753C108.2 134.294 108.546 133.916 108.993 133.871C109.057 133.856 109.124 133.85 109.191 133.85C109.69 133.85 110.094 134.254 110.094 134.753C110.094 135.251 109.69 135.656 109.191 135.656C109.124 135.656 109.057 135.647 108.993 135.634C108.546 135.589 108.2 135.212 108.2 134.753Z" fill="#1A1A1A"></path> <path d="M166.8 141.092C166.8 141.15 166.752 141.199 166.694 141.199C166.636 141.199 166.588 141.15 166.588 141.092C166.588 141.034 166.636 140.986 166.694 140.986C166.752 140.986 166.8 141.034 166.8 141.092Z" fill="#1A1A1A"></path> <path d="M160.005 141.095C160.005 140.928 160.139 140.794 160.306 140.794C160.473 140.794 160.607 140.928 160.607 141.095C160.607 141.262 160.473 141.396 160.306 141.396C160.139 141.396 160.005 141.262 160.005 141.095Z" fill="#1A1A1A"></path> <path d="M153.459 141.101C153.459 140.846 153.665 140.639 153.918 140.639C154.173 140.639 154.38 140.846 154.38 141.098C154.38 141.354 154.173 141.56 153.921 141.56C153.665 141.56 153.459 141.354 153.459 141.101Z" fill="#1A1A1A"></path> <path d="M146.927 141.107C146.927 140.776 147.198 140.505 147.529 140.505C147.861 140.505 148.132 140.776 148.132 141.107C148.132 141.439 147.861 141.709 147.529 141.709C147.198 141.709 146.927 141.439 146.927 141.107Z" fill="#1A1A1A"></path> <path d="M140.415 141.113C140.415 140.712 140.74 140.387 141.141 140.387C141.543 140.387 141.868 140.712 141.868 141.113C141.868 141.515 141.543 141.84 141.141 141.84C140.74 141.84 140.415 141.515 140.415 141.113Z" fill="#1A1A1A"></path> <path d="M133.972 141.119C133.972 140.688 134.321 140.341 134.75 140.338C135.182 140.338 135.528 140.688 135.531 141.116C135.534 141.545 135.182 141.895 134.753 141.898C134.321 141.898 133.975 141.548 133.972 141.119Z" fill="#1A1A1A"></path> <path d="M127.547 141.125C127.547 140.675 127.912 140.311 128.362 140.311C128.812 140.311 129.177 140.675 129.177 141.125C129.177 141.575 128.812 141.94 128.362 141.94C127.912 141.94 127.547 141.575 127.547 141.125Z" fill="#1A1A1A"></path> <path d="M121.177 141.129C121.177 140.688 121.533 140.332 121.974 140.332C122.414 140.332 122.77 140.688 122.77 141.129C122.77 141.57 122.414 141.925 121.974 141.925C121.533 141.925 121.177 141.57 121.177 141.129Z" fill="#1A1A1A"></path> <path d="M114.859 141.135C114.859 140.734 115.184 140.408 115.585 140.408C115.987 140.408 116.312 140.734 116.312 141.135C116.312 141.536 115.987 141.862 115.585 141.862C115.184 141.862 114.859 141.536 114.859 141.135Z" fill="#1A1A1A"></path> <path d="M160.382 147.486C160.382 147.526 160.352 147.556 160.312 147.556C160.272 147.556 160.242 147.526 160.242 147.486C160.242 147.447 160.272 147.417 160.312 147.417C160.352 147.417 160.382 147.447 160.382 147.486Z" fill="#1A1A1A"></path> <path d="M153.729 147.49C153.729 147.383 153.817 147.295 153.924 147.295C154.03 147.295 154.118 147.383 154.118 147.49C154.118 147.596 154.03 147.684 153.924 147.684C153.817 147.684 153.729 147.596 153.729 147.49Z" fill="#1A1A1A"></path> <path d="M147.216 147.496C147.216 147.319 147.359 147.176 147.536 147.176C147.712 147.176 147.855 147.319 147.855 147.496C147.855 147.672 147.712 147.815 147.536 147.815C147.359 147.815 147.216 147.672 147.216 147.496Z" fill="#1A1A1A"></path> <path d="M140.74 147.502C140.74 147.277 140.922 147.094 141.147 147.094C141.372 147.094 141.555 147.277 141.555 147.502C141.555 147.727 141.372 147.909 141.147 147.909C140.922 147.909 140.74 147.727 140.74 147.502Z" fill="#1A1A1A"></path> <path d="M134.279 147.508C134.279 147.243 134.492 147.03 134.756 147.03C135.021 147.03 135.233 147.243 135.233 147.508C135.233 147.772 135.021 147.985 134.756 147.985C134.492 147.985 134.279 147.772 134.279 147.508Z" fill="#1A1A1A"></path> <path d="M127.872 147.514C127.872 147.24 128.094 147.018 128.368 147.018C128.642 147.018 128.863 147.24 128.863 147.514C128.863 147.787 128.642 148.009 128.368 148.009C128.094 148.009 127.872 147.787 127.872 147.514Z" fill="#1A1A1A"></path> <path d="M121.98 147.997C121.715 147.997 121.502 147.784 121.502 147.52C121.502 147.255 121.715 147.042 121.98 147.042C122.244 147.042 122.457 147.255 122.457 147.52C122.457 147.784 122.244 147.997 121.98 147.997Z" fill="#1A1A1A"></path> <path d="M115.166 147.523C115.166 147.289 115.354 147.097 115.591 147.097C115.826 147.097 116.017 147.286 116.017 147.523C116.017 147.757 115.829 147.949 115.591 147.949C115.357 147.949 115.166 147.76 115.166 147.523Z" fill="#1A1A1A"></path> <path d="M153.948 153.878C153.948 153.878 153.939 153.897 153.929 153.897C153.92 153.897 153.911 153.887 153.911 153.878C153.911 153.869 153.92 153.859 153.929 153.859C153.939 153.859 153.948 153.869 153.948 153.878Z" fill="#1A1A1A"></path> <path d="M147.593 153.884C147.593 153.914 147.569 153.936 147.542 153.936C147.511 153.936 147.49 153.911 147.49 153.884C147.49 153.853 147.514 153.829 147.542 153.829C147.569 153.829 147.593 153.853 147.593 153.881V153.884Z" fill="#1A1A1A"></path> <path d="M141.275 153.89C141.275 153.96 141.22 154.014 141.15 154.014C141.08 154.014 141.026 153.96 141.026 153.89C141.026 153.82 141.08 153.765 141.15 153.765C141.22 153.765 141.275 153.82 141.275 153.89Z" fill="#1A1A1A"></path> <path d="M134.939 153.896C134.939 153.993 134.859 154.072 134.762 154.072C134.665 154.072 134.586 153.993 134.586 153.896C134.586 153.799 134.665 153.72 134.762 153.72C134.859 153.72 134.939 153.799 134.939 153.896Z" fill="#1A1A1A"></path> <path d="M128.569 153.902C128.569 154.008 128.48 154.096 128.374 154.096C128.268 154.096 128.179 154.008 128.179 153.902C128.179 153.795 128.268 153.707 128.374 153.707C128.48 153.707 128.569 153.795 128.569 153.902Z" fill="#1A1A1A"></path> <path d="M121.986 154.085C121.888 154.085 121.809 154.006 121.809 153.908C121.809 153.811 121.888 153.732 121.986 153.732C122.083 153.732 122.162 153.811 122.162 153.908C122.162 154.006 122.083 154.085 121.986 154.085Z" fill="#1A1A1A"></path> <path d="M115.598 153.786C115.667 153.786 115.722 153.841 115.722 153.911C115.722 153.981 115.667 154.035 115.598 154.035C115.531 154.035 115.473 153.981 115.473 153.911C115.473 153.844 115.528 153.786 115.598 153.786Z" fill="#1A1A1A"></path> <path d="M102.696 133.747C103.253 133.747 103.706 134.197 103.706 134.756C103.706 135.312 103.256 135.766 102.696 135.766C102.14 135.766 101.687 135.316 101.687 134.756C101.687 134.2 102.137 133.747 102.696 133.747Z" fill="#1A1A1A"></path> <path d="M76.1129 134.78C76.1129 134.212 76.572 133.752 77.1406 133.752C77.7092 133.752 78.1683 134.212 78.1683 134.78C78.1683 135.349 77.7092 135.808 77.1406 135.808C76.572 135.808 76.1129 135.349 76.1129 134.78Z" fill="#1A1A1A"></path> <path d="M108.489 141.141C108.489 140.825 108.732 140.566 109.042 140.542C109.091 140.53 109.142 140.521 109.197 140.521C109.541 140.521 109.817 140.797 109.817 141.141C109.817 141.484 109.541 141.761 109.197 141.761C109.142 141.761 109.094 141.755 109.042 141.74C108.732 141.715 108.489 141.457 108.489 141.141Z" fill="#1A1A1A"></path> <path d="M101.976 141.147C101.976 140.745 102.301 140.42 102.703 140.42C103.104 140.42 103.429 140.745 103.429 141.147C103.429 141.548 103.104 141.873 102.703 141.873C102.301 141.873 101.976 141.548 101.976 141.147Z" fill="#1A1A1A"></path> <path d="M76.42 141.168C76.42 140.767 76.7453 140.441 77.1467 140.441C77.548 140.441 77.8734 140.767 77.8734 141.168C77.8734 141.569 77.548 141.895 77.1467 141.895C76.7453 141.895 76.42 141.569 76.42 141.168Z" fill="#1A1A1A"></path> <path d="M108.778 147.529C108.778 147.353 108.921 147.21 109.097 147.21C109.13 147.197 109.164 147.191 109.2 147.191C109.386 147.191 109.538 147.34 109.538 147.529C109.538 147.714 109.389 147.866 109.2 147.866C109.164 147.866 109.13 147.86 109.097 147.848C108.921 147.848 108.778 147.705 108.778 147.529Z" fill="#1A1A1A"></path> <path d="M102.301 147.535C102.301 147.31 102.484 147.127 102.709 147.127C102.934 147.127 103.116 147.31 103.116 147.535C103.116 147.76 102.934 147.942 102.709 147.942C102.484 147.942 102.301 147.76 102.301 147.535Z" fill="#1A1A1A"></path> <path d="M83.0636 147.55C83.0636 147.286 83.2764 147.073 83.5409 147.073C83.8055 147.073 84.0183 147.286 84.0183 147.55C84.0183 147.815 83.8055 148.027 83.5409 148.027C83.2764 148.027 83.0636 147.815 83.0636 147.55Z" fill="#1A1A1A"></path> <path d="M76.7271 147.557C76.7271 147.322 76.9156 147.131 77.1528 147.131C77.3869 147.131 77.5785 147.319 77.5785 147.557C77.5785 147.791 77.39 147.982 77.1528 147.982C76.9187 147.982 76.7271 147.794 76.7271 147.557Z" fill="#1A1A1A"></path> <path d="M109.155 153.917C109.155 153.887 109.179 153.866 109.206 153.866C109.237 153.866 109.258 153.89 109.258 153.917C109.258 153.948 109.234 153.972 109.206 153.972C109.176 153.972 109.155 153.948 109.155 153.92C109.155 153.951 109.13 153.972 109.103 153.972C109.072 153.972 109.048 153.948 109.048 153.92C109.048 153.89 109.073 153.869 109.1 153.869C109.127 153.869 109.152 153.893 109.152 153.92L109.155 153.917Z" fill="#1A1A1A"></path> <path d="M102.836 153.923C102.836 153.993 102.782 154.048 102.712 154.048C102.642 154.048 102.587 153.993 102.587 153.923C102.587 153.854 102.642 153.799 102.712 153.799C102.779 153.799 102.836 153.854 102.836 153.923Z" fill="#1A1A1A"></path> <path d="M96.3235 153.75C96.4208 153.75 96.4998 153.829 96.4998 153.926C96.4998 154.024 96.4208 154.103 96.3235 154.103C96.2262 154.103 96.1471 154.024 96.1471 153.926C96.1471 153.829 96.2262 153.75 96.3235 153.75Z" fill="#1A1A1A"></path> <path d="M89.7407 153.932C89.7407 153.826 89.8289 153.738 89.9353 153.738C90.0417 153.738 90.1299 153.826 90.1299 153.932C90.1299 154.039 90.0417 154.127 89.9353 154.127C89.8289 154.127 89.7407 154.039 89.7407 153.932Z" fill="#1A1A1A"></path> <path d="M83.7234 153.939C83.7234 154.036 83.6443 154.115 83.547 154.115C83.4497 154.115 83.3707 154.036 83.3707 153.939C83.3707 153.841 83.4497 153.762 83.547 153.762C83.6443 153.762 83.7234 153.841 83.7234 153.939Z" fill="#1A1A1A"></path> <path d="M77.2805 153.944C77.2805 154.014 77.2257 154.069 77.1558 154.069C77.0859 154.069 77.0311 154.014 77.0311 153.944C77.0311 153.875 77.0859 153.82 77.1558 153.82C77.2257 153.82 77.2805 153.875 77.2805 153.944Z" fill="#1A1A1A"></path> <path d="M0.420454 70.9562C0.420454 70.9562 0.429799 70.9375 0.439145 70.9375C0.448491 70.9375 0.457855 70.9468 0.457855 70.9562C0.457855 70.9655 0.448491 70.9749 0.439145 70.9749C0.429799 70.9749 0.420454 70.9655 0.420454 70.9562Z" fill="#1A1A1A"></path> <path d="M0.497299 77.3437C0.497299 77.3741 0.47298 77.3954 0.445615 77.3954C0.41825 77.3954 0.390887 77.371 0.390887 77.3437C0.390887 77.3163 0.415206 77.292 0.442571 77.292C0.472977 77.292 0.494274 77.3163 0.494274 77.3437H0.497299Z" fill="#1A1A1A"></path> <path d="M0.4517 83.6104C0.521633 83.6104 0.576355 83.6651 0.576355 83.735C0.576355 83.805 0.521633 83.8597 0.4517 83.8597C0.381768 83.8597 0.327027 83.805 0.327027 83.735C0.327027 83.6651 0.381768 83.6104 0.4517 83.6104Z" fill="#1A1A1A"></path> <path d="M0.454765 89.9438C0.552062 89.9438 0.631104 90.0229 0.631104 90.1202C0.631104 90.2175 0.552062 90.2965 0.454765 90.2965C0.357467 90.2965 0.278407 90.2175 0.278407 90.1202C0.278407 90.0229 0.357467 89.9438 0.454765 89.9438Z" fill="#1A1A1A"></path> <path d="M0.460811 96.3169C0.56723 96.3169 0.655411 96.4051 0.655411 96.5115C0.655411 96.6179 0.56723 96.7061 0.460811 96.7061C0.354391 96.7061 0.266229 96.6179 0.266229 96.5115C0.266229 96.4051 0.354391 96.3169 0.460811 96.3169Z" fill="#1A1A1A"></path> <path d="M0.290535 102.899C0.290535 102.802 0.369594 102.723 0.466892 102.723C0.56419 102.723 0.64325 102.802 0.64325 102.899C0.64325 102.997 0.56419 103.076 0.466892 103.076C0.369594 103.076 0.290535 102.997 0.290535 102.899Z" fill="#1A1A1A"></path> <path d="M6.86121 108.859C7.09534 108.859 7.28688 109.048 7.28688 109.285C7.28688 109.519 7.09838 109.711 6.86121 109.711C6.62709 109.711 6.43553 109.522 6.43553 109.285C6.43553 109.051 6.62405 108.859 6.86121 108.859Z" fill="#1A1A1A"></path> <path d="M0.348405 109.288C0.348405 109.218 0.403145 109.164 0.473078 109.164C0.543011 109.164 0.597733 109.218 0.597733 109.288C0.597733 109.358 0.543011 109.413 0.473078 109.413C0.403145 109.413 0.348405 109.358 0.348405 109.288Z" fill="#1A1A1A"></path> <path d="M6.52984 115.673C6.52984 115.487 6.67882 115.335 6.86734 115.335C7.05281 115.335 7.20483 115.484 7.20483 115.673C7.20483 115.858 7.05585 116.01 6.86734 116.01C6.67882 116.01 6.52984 115.861 6.52984 115.673Z" fill="#1A1A1A"></path> <path d="M0.424369 115.676C0.424369 115.646 0.448707 115.622 0.476072 115.622C0.503436 115.622 0.527756 115.646 0.527756 115.673C0.527756 115.704 0.503436 115.725 0.476072 115.725C0.448707 115.725 0.421325 115.701 0.421325 115.673L0.424369 115.676Z" fill="#1A1A1A"></path> <path d="M12.7659 122.055C12.7659 121.782 12.9879 121.56 13.2616 121.56C13.5352 121.56 13.7572 121.782 13.7572 122.055C13.7572 122.329 13.5352 122.551 13.2616 122.551C12.9879 122.551 12.7659 122.329 12.7659 122.055Z" fill="#1A1A1A"></path> <path d="M6.66057 122.061C6.66057 121.942 6.75483 121.848 6.87342 121.848C6.992 121.848 7.08626 121.942 7.08626 122.061C7.08626 122.18 6.992 122.274 6.87342 122.274C6.75483 122.274 6.66057 122.18 6.66057 122.061Z" fill="#1A1A1A"></path> <path d="M0.500381 122.065C0.500381 122.065 0.491036 122.084 0.48169 122.084C0.472344 122.084 0.462999 122.074 0.462999 122.065C0.462999 122.056 0.472344 122.046 0.48169 122.046C0.491036 122.046 0.500381 122.056 0.500381 122.065Z" fill="#1A1A1A"></path> <path d="M25.2474 128.434C25.2474 127.993 25.6031 127.638 26.044 127.638C26.4849 127.638 26.8407 127.993 26.8407 128.434C26.8407 128.875 26.4849 129.231 26.044 129.231C25.6031 129.231 25.2474 128.875 25.2474 128.434Z" fill="#1A1A1A"></path> <path d="M19.0873 128.437C19.0873 128.124 19.3397 127.869 19.6529 127.869C19.9661 127.869 20.2215 128.121 20.2215 128.434C20.2215 128.747 19.9691 129.003 19.6559 129.003C19.3427 129.003 19.0873 128.75 19.0873 128.437Z" fill="#1A1A1A"></path> <path d="M12.9484 128.443C12.9484 128.267 13.0913 128.124 13.2677 128.124C13.444 128.124 13.5869 128.267 13.5869 128.443C13.5869 128.62 13.444 128.763 13.2677 128.763C13.0913 128.763 12.9484 128.62 12.9484 128.443Z" fill="#1A1A1A"></path> <path d="M6.94937 128.45C6.94937 128.489 6.91897 128.52 6.87944 128.52C6.83992 128.52 6.8095 128.489 6.8095 128.45C6.8095 128.41 6.83992 128.38 6.87944 128.38C6.91897 128.38 6.94937 128.41 6.94937 128.45Z" fill="#1A1A1A"></path> <path d="M70.7706 133.773C71.3271 133.773 71.7801 134.223 71.7801 134.783C71.7801 135.339 71.3301 135.792 70.7706 135.792C70.2142 135.792 69.7612 135.342 69.7612 134.783C69.7612 134.226 70.2112 133.773 70.7706 133.773Z" fill="#1A1A1A"></path> <path d="M63.2818 134.789C63.2818 134.181 63.7713 133.692 64.3794 133.688C64.9875 133.685 65.477 134.178 65.4801 134.786C65.4801 135.391 64.9905 135.884 64.3824 135.887C63.7743 135.887 63.2848 135.397 63.2818 134.789Z" fill="#1A1A1A"></path> <path d="M57.9912 133.679C58.6084 133.679 59.1071 134.178 59.1071 134.795C59.1071 135.412 58.6084 135.911 57.9912 135.911C57.374 135.911 56.8753 135.412 56.8753 134.795C56.8753 134.178 57.374 133.679 57.9912 133.679Z" fill="#1A1A1A"></path> <path d="M51.603 133.701C52.2111 133.701 52.7006 134.19 52.7037 134.798C52.7037 135.406 52.2141 135.896 51.606 135.899C50.9979 135.899 50.5084 135.409 50.5053 134.801C50.5023 134.193 50.9949 133.704 51.603 133.701Z" fill="#1A1A1A"></path> <path d="M44.187 134.807C44.187 134.238 44.6462 133.779 45.2148 133.779C45.7833 133.779 46.2425 134.238 46.2425 134.807C46.2425 135.376 45.7833 135.835 45.2148 135.835C44.6462 135.835 44.187 135.376 44.187 134.807Z" fill="#1A1A1A"></path> <path d="M37.9236 134.81C37.9236 134.312 38.3279 133.907 38.8266 133.907C39.3252 133.907 39.7296 134.312 39.7296 134.81C39.7296 135.309 39.3252 135.713 38.8266 135.713C38.3279 135.713 37.9236 135.309 37.9236 134.81Z" fill="#1A1A1A"></path> <path d="M31.6934 134.816C31.6934 134.406 32.0249 134.071 32.4384 134.071C32.8489 134.071 33.1833 134.403 33.1833 134.816C33.1833 135.227 32.8519 135.561 32.4384 135.561C32.0279 135.561 31.6934 135.23 31.6934 134.816Z" fill="#1A1A1A"></path> <path d="M25.4816 134.822C25.4816 134.509 25.734 134.257 26.0471 134.254C26.3603 134.254 26.6157 134.506 26.6157 134.819C26.6157 135.133 26.3634 135.388 26.0502 135.388C25.737 135.388 25.4816 135.136 25.4816 134.822Z" fill="#1A1A1A"></path> <path d="M19.3062 134.828C19.3062 134.634 19.4643 134.473 19.6589 134.473C19.8535 134.473 20.0146 134.631 20.0146 134.825C20.0146 135.02 19.8565 135.181 19.6619 135.181C19.4673 135.181 19.3062 135.023 19.3062 134.828Z" fill="#1A1A1A"></path> <path d="M13.149 134.832C13.149 134.762 13.2038 134.707 13.2737 134.707C13.3436 134.707 13.3984 134.762 13.3984 134.832C13.3984 134.902 13.3436 134.956 13.2737 134.956C13.2038 134.956 13.149 134.902 13.149 134.832Z" fill="#1A1A1A"></path> <path d="M70.05 141.174C70.05 140.773 70.3754 140.447 70.7767 140.447C71.1781 140.447 71.5034 140.773 71.5034 141.174C71.5034 141.575 71.1781 141.901 70.7767 141.901C70.3754 141.901 70.05 141.575 70.05 141.174Z" fill="#1A1A1A"></path> <path d="M63.6071 141.177C63.6071 140.745 63.9567 140.399 64.3855 140.396C64.8172 140.396 65.1638 140.745 65.1669 141.174C65.1669 141.606 64.8172 141.952 64.3885 141.955C63.9598 141.958 63.6101 141.606 63.6071 141.177Z" fill="#1A1A1A"></path> <path d="M57.1824 141.184C57.1824 140.734 57.5473 140.369 57.9973 140.369C58.4473 140.369 58.8121 140.734 58.8121 141.184C58.8121 141.634 58.4473 141.998 57.9973 141.998C57.5473 141.998 57.1824 141.634 57.1824 141.184Z" fill="#1A1A1A"></path> <path d="M50.8124 141.189C50.8124 140.748 51.1682 140.393 51.609 140.393C52.0499 140.393 52.4057 140.748 52.4057 141.189C52.4057 141.63 52.0499 141.986 51.609 141.986C51.1682 141.986 50.8124 141.63 50.8124 141.189Z" fill="#1A1A1A"></path> <path d="M44.4942 141.195C44.4942 140.794 44.8195 140.469 45.2209 140.469C45.6222 140.469 45.9476 140.794 45.9476 141.195C45.9476 141.597 45.6222 141.922 45.2209 141.922C44.8195 141.922 44.4942 141.597 44.4942 141.195Z" fill="#1A1A1A"></path> <path d="M38.2124 141.199C38.2124 140.855 38.4891 140.579 38.8327 140.579C39.1763 140.579 39.453 140.855 39.453 141.199C39.453 141.542 39.1763 141.819 38.8327 141.819C38.4891 141.819 38.2124 141.542 38.2124 141.199Z" fill="#1A1A1A"></path> <path d="M31.9458 141.205C31.9458 140.931 32.1677 140.709 32.4414 140.709C32.715 140.709 32.937 140.931 32.937 141.205C32.937 141.478 32.715 141.7 32.4414 141.7C32.1677 141.7 31.9458 141.478 31.9458 141.205Z" fill="#1A1A1A"></path> <path d="M25.737 141.211C25.737 141.035 25.8799 140.892 26.0562 140.892C26.2326 140.892 26.3755 141.035 26.3755 141.211C26.3755 141.387 26.2326 141.53 26.0562 141.53C25.8799 141.53 25.737 141.387 25.737 141.211Z" fill="#1A1A1A"></path> <path d="M19.7896 141.216C19.7896 141.286 19.7349 141.341 19.665 141.341C19.595 141.341 19.5403 141.286 19.5403 141.216C19.5403 141.147 19.595 141.092 19.665 141.092C19.7349 141.092 19.7896 141.147 19.7896 141.216Z" fill="#1A1A1A"></path> <path d="M13.295 141.22C13.295 141.22 13.2857 141.239 13.2763 141.239C13.267 141.239 13.2576 141.23 13.2576 141.22C13.2576 141.211 13.267 141.202 13.2763 141.202C13.2857 141.202 13.295 141.211 13.295 141.22Z" fill="#1A1A1A"></path> <path d="M70.3723 147.563C70.3723 147.338 70.5548 147.155 70.7798 147.155C71.0048 147.155 71.1872 147.338 71.1872 147.563C71.1872 147.788 71.0048 147.97 70.7798 147.97C70.5548 147.97 70.3723 147.788 70.3723 147.563Z" fill="#1A1A1A"></path> <path d="M63.9142 147.566C63.9142 147.301 64.127 147.088 64.3916 147.088C64.6561 147.088 64.8689 147.301 64.8689 147.566C64.8689 147.83 64.6561 148.043 64.3916 148.043C64.127 148.043 63.9142 147.83 63.9142 147.566Z" fill="#1A1A1A"></path> <path d="M57.5078 147.572C57.5078 147.298 57.7297 147.076 58.0034 147.076C58.277 147.076 58.499 147.298 58.499 147.572C58.499 147.845 58.277 148.067 58.0034 148.067C57.7297 148.067 57.5078 147.845 57.5078 147.572Z" fill="#1A1A1A"></path> <path d="M51.1378 147.578C51.1378 147.313 51.3506 147.101 51.6152 147.101C51.8797 147.101 52.0925 147.313 52.0925 147.578C52.0925 147.842 51.8797 148.055 51.6152 148.055C51.3506 148.055 51.1378 147.842 51.1378 147.578Z" fill="#1A1A1A"></path> <path d="M44.8013 147.584C44.8013 147.35 44.9898 147.158 45.227 147.158C45.4611 147.158 45.6526 147.347 45.6526 147.584C45.6526 147.818 45.4641 148.01 45.227 148.01C44.9928 148.01 44.8013 147.821 44.8013 147.584Z" fill="#1A1A1A"></path> <path d="M38.5012 147.59C38.5012 147.404 38.6502 147.252 38.8387 147.252C39.0242 147.252 39.1762 147.401 39.1762 147.59C39.1762 147.775 39.0272 147.927 38.8387 147.927C38.6532 147.927 38.5012 147.778 38.5012 147.59Z" fill="#1A1A1A"></path> <path d="M32.2377 147.593C32.2377 147.474 32.332 147.38 32.4505 147.38C32.5691 147.38 32.6634 147.474 32.6634 147.593C32.6634 147.711 32.5691 147.806 32.4505 147.806C32.332 147.806 32.2377 147.711 32.2377 147.593Z" fill="#1A1A1A"></path> <path d="M26.1323 147.599C26.1323 147.638 26.1019 147.669 26.0624 147.669C26.0228 147.669 25.9924 147.638 25.9924 147.599C25.9924 147.559 26.0228 147.529 26.0624 147.529C26.1019 147.529 26.1323 147.559 26.1323 147.599Z" fill="#1A1A1A"></path> <path d="M70.9105 153.95C70.9105 154.02 70.8558 154.075 70.7859 154.075C70.7159 154.075 70.6612 154.02 70.6612 153.95C70.6612 153.88 70.7159 153.826 70.7859 153.826C70.8558 153.826 70.9105 153.88 70.9105 153.95Z" fill="#1A1A1A"></path> <path d="M64.574 153.954C64.574 154.051 64.4949 154.13 64.3976 154.13C64.3003 154.13 64.2213 154.051 64.2213 153.954C64.2213 153.856 64.3003 153.777 64.3976 153.777C64.4949 153.777 64.574 153.856 64.574 153.954Z" fill="#1A1A1A"></path> <path d="M58.204 153.96C58.204 154.066 58.1159 154.154 58.0094 154.154C57.903 154.154 57.8148 154.066 57.8148 153.96C57.8148 153.853 57.903 153.765 58.0094 153.765C58.1159 153.765 58.204 153.853 58.204 153.96Z" fill="#1A1A1A"></path> <path d="M51.7976 153.966C51.7976 154.063 51.7185 154.142 51.6212 154.142C51.5239 154.142 51.4449 154.063 51.4449 153.966C51.4449 153.869 51.5239 153.79 51.6212 153.79C51.7185 153.79 51.7976 153.869 51.7976 153.966Z" fill="#1A1A1A"></path> <path d="M45.3546 153.972C45.3546 154.042 45.2999 154.096 45.23 154.096C45.1601 154.096 45.1053 154.042 45.1053 153.972C45.1053 153.902 45.1601 153.847 45.23 153.847C45.2999 153.847 45.3546 153.902 45.3546 153.972Z" fill="#1A1A1A"></path> <path d="M38.8965 153.978C38.8965 154.008 38.8722 154.03 38.8448 154.03C38.8144 154.03 38.7931 154.005 38.7901 153.978C38.7901 153.948 38.8144 153.923 38.8418 153.923C38.8691 153.923 38.8935 153.948 38.8965 153.975V153.978Z" fill="#1A1A1A"></path> <path d="M32.4718 153.982C32.4718 153.982 32.4624 154 32.4531 154C32.4437 154 32.4344 153.991 32.4344 153.982C32.4344 153.972 32.4437 153.963 32.4531 153.963C32.4624 153.963 32.4718 153.972 32.4718 153.982Z" fill="#1A1A1A"></path> <path d="M147.374 0.642935C147.374 0.624692 147.39 0.606445 147.411 0.606445C147.432 0.606445 147.447 0.621651 147.447 0.642935C147.447 0.664219 147.432 0.67942 147.411 0.67942C147.39 0.67942 147.374 0.664219 147.374 0.642935Z" fill="#1A1A1A"></path> <path d="M140.931 0.648726C140.931 0.600077 140.971 0.560547 141.02 0.560547C141.068 0.560547 141.108 0.600077 141.108 0.648726C141.108 0.697374 141.068 0.7369 141.02 0.7369C140.971 0.7369 140.931 0.697374 140.931 0.648726Z" fill="#1A1A1A"></path> <path d="M134.492 0.655113C134.492 0.576059 134.555 0.512207 134.634 0.512207C134.714 0.512207 134.777 0.576059 134.777 0.655113C134.777 0.734168 134.714 0.79802 134.634 0.79802C134.555 0.79802 134.492 0.734168 134.492 0.655113Z" fill="#1A1A1A"></path> <path d="M128.085 0.66104C128.085 0.572864 128.155 0.50293 128.243 0.50293C128.331 0.50293 128.401 0.572864 128.401 0.66104C128.401 0.749216 128.331 0.81915 128.243 0.81915C128.155 0.81915 128.085 0.749216 128.085 0.66104Z" fill="#1A1A1A"></path> <path d="M121.712 0.663903C121.712 0.584848 121.776 0.520996 121.855 0.520996C121.934 0.520996 121.998 0.584848 121.998 0.663903C121.998 0.742957 121.934 0.806809 121.855 0.806809C121.776 0.806809 121.712 0.742957 121.712 0.663903Z" fill="#1A1A1A"></path> <path d="M115.36 0.670386C115.36 0.612616 115.409 0.563965 115.467 0.563965C115.525 0.563965 115.573 0.612616 115.573 0.670386C115.573 0.728157 115.525 0.776807 115.467 0.776807C115.409 0.776807 115.36 0.728157 115.36 0.670386Z" fill="#1A1A1A"></path> <path d="M109.024 0.676314C109.024 0.645909 109.048 0.624623 109.076 0.621582C109.106 0.621582 109.127 0.645906 109.127 0.673271C109.127 0.703676 109.103 0.724964 109.076 0.724964C109.045 0.724964 109.024 0.700636 109.021 0.673271L109.024 0.676314Z" fill="#1A1A1A"></path> <path d="M160.139 7.02201C160.139 6.99161 160.163 6.96729 160.19 6.96729C160.218 6.96729 160.242 6.9916 160.242 7.01897C160.242 7.04633 160.218 7.07066 160.19 7.07066C160.16 7.07066 160.136 7.04633 160.136 7.01897L160.139 7.02201Z" fill="#1A1A1A"></path> <path d="M153.644 7.02822C153.644 6.94005 153.714 6.87012 153.802 6.87012C153.89 6.87012 153.96 6.94005 153.96 7.02822C153.96 7.1164 153.89 7.18634 153.802 7.18634C153.714 7.18634 153.644 7.1164 153.644 7.02822Z" fill="#1A1A1A"></path> <path d="M147.718 7.03099C147.718 7.19822 147.584 7.332 147.417 7.332C147.25 7.332 147.116 7.19822 147.116 7.03099C147.116 6.86376 147.25 6.72998 147.417 6.72998C147.584 6.72998 147.718 6.86376 147.718 7.03099Z" fill="#1A1A1A"></path> <path d="M141.418 7.03714C141.418 7.25302 141.245 7.42633 141.029 7.42633C140.813 7.42633 140.64 7.25302 140.64 7.03714C140.64 6.82126 140.813 6.64795 141.029 6.64795C141.245 6.64795 141.418 6.82126 141.418 7.03714Z" fill="#1A1A1A"></path> <path d="M135.081 7.04304C135.081 7.28628 134.884 7.48696 134.638 7.48696C134.394 7.48696 134.194 7.28932 134.194 7.04304C134.194 6.7998 134.391 6.59912 134.638 6.59912C134.881 6.59912 135.081 6.79675 135.081 7.04304Z" fill="#1A1A1A"></path> <path d="M128.708 7.04946C128.708 7.30487 128.502 7.51163 128.249 7.51163C127.994 7.51163 127.787 7.30487 127.787 7.0525C127.787 6.80014 127.994 6.59033 128.246 6.59033C128.502 6.59033 128.708 6.79709 128.708 7.04946Z" fill="#1A1A1A"></path> <path d="M122.302 7.05232C122.302 7.29556 122.104 7.49624 121.858 7.49624C121.615 7.49624 121.414 7.2986 121.414 7.05232C121.414 6.80907 121.612 6.6084 121.858 6.6084C122.101 6.6084 122.302 6.80603 122.302 7.05232Z" fill="#1A1A1A"></path> <path d="M115.862 7.05814C115.862 7.27402 115.689 7.44733 115.473 7.44733C115.257 7.44733 115.084 7.27402 115.084 7.05814C115.084 6.84226 115.257 6.66895 115.473 6.66895C115.689 6.66895 115.862 6.84226 115.862 7.05814Z" fill="#1A1A1A"></path> <path d="M109.386 7.06469C109.386 7.23192 109.252 7.36571 109.085 7.36571C108.917 7.36571 108.784 7.23192 108.784 7.06469C108.784 6.89746 108.917 6.76367 109.085 6.76367C109.252 6.76367 109.386 6.89746 109.386 7.06469Z" fill="#1A1A1A"></path> <path d="M102.517 7.0704C102.517 6.9731 102.596 6.89404 102.693 6.89404C102.791 6.89404 102.87 6.9731 102.87 7.0704C102.87 7.1677 102.791 7.24675 102.693 7.24675C102.596 7.24675 102.517 7.1677 102.517 7.0704Z" fill="#1A1A1A"></path> <path d="M96.2535 7.07659C96.2535 7.04618 96.2778 7.0249 96.3052 7.0249C96.3356 7.0249 96.3569 7.04922 96.3599 7.07659C96.3599 7.10699 96.3356 7.12828 96.3082 7.12828C96.2778 7.12828 96.2565 7.10395 96.2565 7.07659H96.2535Z" fill="#1A1A1A"></path> <path d="M166.499 13.4041C166.499 13.3554 166.539 13.3159 166.588 13.3159C166.636 13.3159 166.676 13.3554 166.676 13.4041C166.676 13.4527 166.636 13.4923 166.588 13.4923C166.539 13.4923 166.499 13.4527 166.499 13.4041Z" fill="#1A1A1A"></path> <path d="M160.464 13.41C160.464 13.556 160.345 13.6746 160.199 13.6746C160.054 13.6746 159.935 13.556 159.935 13.41C159.935 13.2641 160.054 13.1455 160.199 13.1455C160.345 13.1455 160.464 13.2641 160.464 13.41Z" fill="#1A1A1A"></path> <path d="M172.894 19.7893C172.894 19.7407 172.933 19.7012 172.982 19.7012C173.031 19.7012 173.07 19.7407 173.07 19.7893C173.07 19.838 173.031 19.8775 172.982 19.8775C172.933 19.8775 172.894 19.838 172.894 19.7893Z" fill="#1A1A1A"></path> <path d="M166.895 19.7922C166.895 19.9595 166.761 20.0932 166.594 20.0932C166.426 20.0932 166.293 19.9595 166.293 19.7922C166.293 19.625 166.426 19.4912 166.594 19.4912C166.761 19.4912 166.895 19.625 166.895 19.7922Z" fill="#1A1A1A"></path> <path d="M179.321 26.1714C179.321 26.141 179.346 26.1197 179.373 26.1167C179.404 26.1167 179.428 26.141 179.428 26.1684C179.428 26.1958 179.404 26.2201 179.376 26.2231C179.346 26.2231 179.324 26.1988 179.324 26.1714H179.321Z" fill="#1A1A1A"></path> <path d="M173.253 26.1776C173.253 26.3236 173.134 26.4421 172.988 26.4421C172.842 26.4421 172.723 26.3236 172.723 26.1776C172.723 26.0317 172.842 25.9131 172.988 25.9131C173.134 25.9131 173.253 26.0317 173.253 26.1776Z" fill="#1A1A1A"></path> <path d="M179.54 32.5595C179.54 32.6476 179.47 32.7176 179.382 32.7176C179.294 32.7176 179.224 32.6476 179.224 32.5595C179.224 32.4713 179.294 32.4014 179.382 32.4014C179.47 32.4014 179.54 32.4713 179.54 32.5595Z" fill="#1A1A1A"></path> <path d="M173.435 32.5655C173.435 32.8088 173.237 33.0094 172.991 33.0094C172.748 33.0094 172.547 32.8118 172.547 32.5655C172.547 32.3223 172.745 32.1216 172.991 32.1216C173.234 32.1216 173.435 32.3192 173.435 32.5655Z" fill="#1A1A1A"></path> <path d="M185.74 38.9447C185.74 38.9264 185.755 38.9082 185.777 38.9082C185.798 38.9082 185.813 38.9234 185.813 38.9447C185.813 38.966 185.798 38.9812 185.777 38.9812C185.755 38.9812 185.74 38.966 185.74 38.9447Z" fill="#1A1A1A"></path> <path d="M179.686 38.948C179.686 39.1152 179.553 39.249 179.385 39.249C179.218 39.249 179.084 39.1152 179.084 38.948C179.084 38.7808 179.218 38.647 179.385 38.647C179.553 38.647 179.686 38.7808 179.686 38.948Z" fill="#1A1A1A"></path> <path d="M172.997 39.5377C172.675 39.5377 172.413 39.2762 172.413 38.9539C172.413 38.6316 172.675 38.3701 172.997 38.3701C173.319 38.3701 173.581 38.6316 173.581 38.9539C173.581 39.2762 173.319 39.5377 172.997 39.5377Z" fill="#1A1A1A"></path> <path d="M185.868 45.3328C185.868 45.3815 185.828 45.421 185.78 45.421C185.731 45.421 185.691 45.3815 185.691 45.3328C185.691 45.2842 185.731 45.2446 185.78 45.2446C185.828 45.2446 185.868 45.2842 185.868 45.3328Z" fill="#1A1A1A"></path> <path d="M179.391 45.7281C179.176 45.7281 179.002 45.5548 179.002 45.3389C179.002 45.123 179.176 44.9497 179.391 44.9497C179.607 44.9497 179.781 45.123 179.781 45.3389C179.781 45.5548 179.607 45.7281 179.391 45.7281Z" fill="#1A1A1A"></path> <path d="M173.003 46.0352C172.62 46.0352 172.313 45.7251 172.313 45.345C172.313 44.9649 172.623 44.6548 173.003 44.6548C173.386 44.6548 173.693 44.9649 173.693 45.345C173.693 45.7251 173.383 46.0352 173.003 46.0352Z" fill="#1A1A1A"></path> <path d="M185.929 51.721C185.929 51.8001 185.865 51.8639 185.786 51.8639C185.707 51.8639 185.643 51.8001 185.643 51.721C185.643 51.642 185.707 51.5781 185.786 51.5781C185.865 51.5781 185.929 51.642 185.929 51.721Z" fill="#1A1A1A"></path> <path d="M179.398 52.1681C179.154 52.1681 178.954 51.9705 178.954 51.7242C178.954 51.4809 179.151 51.2803 179.398 51.2803C179.641 51.2803 179.841 51.4779 179.841 51.7242C179.841 51.9674 179.644 52.1681 179.398 52.1681Z" fill="#1A1A1A"></path> <path d="M185.792 57.9512C185.88 57.9512 185.95 58.0211 185.95 58.1093C185.95 58.1975 185.88 58.2674 185.792 58.2674C185.704 58.2674 185.634 58.1975 185.631 58.1093C185.631 58.0211 185.701 57.9512 185.789 57.9512H185.792Z" fill="#1A1A1A"></path> <path d="M179.404 58.5746C179.148 58.5746 178.941 58.3679 178.941 58.1155C178.941 57.8601 179.148 57.6533 179.401 57.6533C179.656 57.6533 179.863 57.8601 179.863 58.1124C179.863 58.3679 179.656 58.5746 179.404 58.5746Z" fill="#1A1A1A"></path> <path d="M5.65106 41.587C5.88823 39.7292 6.15579 37.8714 6.47809 36.0167C6.80038 34.162 7.17134 32.3133 7.62742 30.4707C8.08655 28.6281 8.61866 26.7916 9.35143 24.9764C9.43961 24.7484 9.54297 24.5234 9.63723 24.2984C9.74061 24.0734 9.83791 23.8484 9.95041 23.6234C10.1663 23.1734 10.4065 22.7264 10.6771 22.2856C10.9477 21.8447 11.2487 21.4068 11.6075 20.9842C11.7018 20.8808 11.7869 20.7744 11.8872 20.671L12.0362 20.519L12.1122 20.443L12.1791 20.3791L12.7112 19.8866C12.7994 19.8045 12.8876 19.7224 12.9788 19.6403L13.2555 19.4001C13.441 19.242 13.6203 19.0808 13.8119 18.9257L14.3866 18.4666C14.4808 18.3876 14.5812 18.3146 14.6815 18.2416L14.9825 18.0227C15.7852 17.4419 16.6427 16.9098 17.5457 16.4629C18.4457 16.0129 19.3853 15.6541 20.2974 15.35C21.2096 15.046 22.0913 14.7845 22.9336 14.4926C23.7545 14.222 24.5724 13.9909 25.3812 13.8085L25.9893 13.6686C26.193 13.623 26.3937 13.5865 26.5944 13.544C26.9988 13.4649 27.4032 13.3798 27.8045 13.3159C28.6103 13.17 29.416 13.0483 30.2218 12.9267C31.0275 12.8173 31.8302 12.7048 32.6329 12.6136C33.4356 12.5102 34.2414 12.4311 35.0441 12.3429C35.8468 12.2669 36.6495 12.1818 37.4522 12.1149L38.6563 12.0085L39.8603 11.9142C40.663 11.8473 41.4657 11.7926 42.2685 11.7379C48.6901 11.2939 55.1087 11.0507 61.5243 10.8774C67.9399 10.7071 74.3554 10.622 80.771 10.5916C87.1866 10.5581 93.5991 10.5825 100.012 10.6493C106.424 10.7162 112.837 10.8287 119.249 10.9929C125.662 11.1602 132.074 11.376 138.496 11.7014C140.101 11.7835 141.707 11.8777 143.318 11.9872C144.124 12.0419 144.93 12.1027 145.739 12.1696C146.547 12.2365 147.359 12.3125 148.192 12.4159C148.402 12.4433 148.606 12.4646 148.825 12.501C149.044 12.5375 149.247 12.5619 149.494 12.6136L149.67 12.65L149.758 12.6683C149.789 12.6744 149.816 12.6804 149.84 12.6865L150.141 12.7565C150.342 12.8021 150.543 12.8538 150.743 12.9054C151.549 13.1092 152.355 13.3342 153.154 13.5865C153.255 13.62 153.355 13.6534 153.455 13.6869C153.398 13.6109 153.361 13.5196 153.361 13.4163C153.361 13.173 153.559 12.9723 153.805 12.9723C154.048 12.9723 154.249 13.17 154.249 13.4163C154.249 13.623 154.109 13.7933 153.918 13.8419C154.459 14.0304 154.997 14.2281 155.529 14.4409C156.311 14.7632 157.086 15.1007 157.84 15.4869C159.354 16.247 160.814 17.1288 162.179 18.1443L162.687 18.5305L162.939 18.7251C163.027 18.795 163.124 18.8801 163.219 18.9561C163.59 19.2754 163.93 19.6129 164.237 19.9626C164.858 20.6619 165.368 21.4007 165.824 22.1487C166.734 23.6508 167.421 25.2045 168.017 26.7673C168.607 28.3332 169.099 29.9143 169.531 31.5015C170.391 34.6789 171.015 37.8836 171.519 41.0944C172.024 44.3083 172.395 47.5282 172.678 50.7543C172.687 50.8455 172.693 50.9337 172.699 51.0249C172.79 50.9854 172.894 50.9641 173 50.9641C173.42 50.9641 173.763 51.3046 173.763 51.7242C173.763 52.1438 173.423 52.4874 173.003 52.4874C172.939 52.4874 172.875 52.4783 172.818 52.4631C172.942 54.0898 173.046 55.7165 173.125 57.3432C173.499 57.4009 173.788 57.7232 173.788 58.1124C173.788 58.4773 173.535 58.7844 173.195 58.8695C173.265 60.5175 173.31 62.1655 173.338 63.8135C173.596 63.9351 173.772 64.1966 173.772 64.5006C173.772 64.7986 173.602 65.054 173.356 65.1787C173.371 66.8327 173.368 68.4868 173.347 70.1408C173.347 70.1865 173.347 70.2351 173.347 70.2807C173.563 70.3962 173.712 70.6273 173.712 70.8888C173.712 71.1625 173.554 71.3966 173.325 71.5091C173.289 73.2118 173.231 74.9145 173.152 76.6172C173.417 76.675 173.611 76.9061 173.614 77.1888C173.614 77.2041 173.614 77.2193 173.614 77.2345C173.614 77.2497 173.614 77.2649 173.614 77.2801C173.614 77.5811 173.386 77.8304 173.091 77.8608C173.055 78.5206 173.018 79.1774 172.976 79.8372C172.909 80.877 172.833 81.9139 172.748 82.9507C172.836 82.9112 172.93 82.8869 173.034 82.8869C173.414 82.8869 173.724 83.197 173.724 83.5771C173.724 83.9571 173.414 84.2673 173.034 84.2673C172.891 84.2673 172.757 84.2247 172.644 84.1487C172.629 84.325 172.614 84.5014 172.599 84.6777C172.45 86.2923 172.277 87.9038 172.082 89.5122C171.687 92.7322 171.188 95.9491 170.546 99.1477C169.899 102.346 169.108 105.533 168.056 108.68C167.527 110.252 166.928 111.812 166.22 113.35C165.508 114.886 164.693 116.403 163.663 117.847C163.146 118.568 162.577 119.27 161.926 119.933C161.604 120.264 161.254 120.584 160.89 120.891L160.701 121.04C161.033 121.195 161.261 121.529 161.261 121.921C161.261 122.46 160.826 122.898 160.288 122.898C159.792 122.898 159.382 122.527 159.321 122.046C158.071 122.904 156.758 123.658 155.411 124.324C155.222 124.421 155.027 124.512 154.836 124.6C154.641 124.688 154.45 124.783 154.255 124.868C153.866 125.038 153.477 125.208 153.081 125.363C152.297 125.68 151.5 125.975 150.707 126.236C150.308 126.367 149.913 126.494 149.518 126.616L148.931 126.792C148.737 126.85 148.554 126.908 148.347 126.963L147.633 127.157C148.223 127.215 148.685 127.714 148.685 128.319C148.685 128.963 148.162 129.489 147.517 129.489C146.873 129.489 146.347 128.966 146.347 128.322C146.347 127.933 146.538 127.589 146.83 127.376L146.523 127.458C146.319 127.513 146.119 127.553 145.918 127.601C144.75 127.878 143.586 128.115 142.421 128.328C142.421 129.042 141.844 129.62 141.129 129.623C140.56 129.623 140.08 129.258 139.907 128.751L139.861 128.757C139.457 128.821 139.055 128.89 138.651 128.939L136.231 129.264C136.063 129.286 135.896 129.304 135.729 129.322C135.477 129.575 135.127 129.733 134.741 129.733C134.467 129.733 134.215 129.654 133.999 129.52C131.521 129.787 129.043 130.003 126.565 130.189L124.151 130.353L123.546 130.392L122.94 130.426L121.733 130.493C120.125 130.59 118.513 130.654 116.905 130.727C110.885 130.97 104.87 131.077 98.8562 131.101C98.6525 131.545 98.4701 131.995 98.3089 132.451C98.0201 133.272 97.8224 134.117 97.6917 134.972C97.4424 136.683 97.5245 138.447 97.8893 140.183C97.9805 140.618 98.09 141.05 98.2147 141.478C98.3424 141.907 98.4792 142.336 98.6403 142.755C98.7985 143.178 98.9687 143.598 99.1542 144.011L99.2971 144.321C99.3397 144.416 99.3853 144.528 99.4279 144.631C99.4674 144.738 99.5039 144.853 99.5404 144.963C99.6711 145.416 99.7319 145.911 99.6954 146.401C99.6589 146.891 99.5343 147.374 99.3336 147.809C99.1329 148.244 98.8623 148.639 98.54 148.973C97.8924 149.642 97.0258 150.107 96.062 150.235C95.5816 150.299 95.0859 150.275 94.6207 150.168C94.5021 150.141 94.3866 150.114 94.2772 150.074C94.1647 150.038 94.0522 150.001 93.9457 149.952C93.8393 149.91 93.7329 149.861 93.6325 149.809L93.4805 149.73L93.444 149.709L93.4228 149.697L93.3802 149.67L92.693 149.253C92.465 149.113 92.2309 148.979 92.015 148.827C91.4616 148.466 90.9234 148.082 90.4005 147.69C90.3366 147.888 90.1511 148.031 89.9322 148.031C89.6585 148.031 89.4366 147.809 89.4366 147.535C89.4366 147.362 89.5278 147.207 89.6616 147.119C88.7677 146.407 87.9102 145.659 87.0923 144.878C86.0403 143.871 85.046 142.81 84.1065 141.709C83.9606 141.855 83.7599 141.95 83.5379 141.95C83.097 141.95 82.7413 141.594 82.7413 141.153C82.7413 140.876 82.8842 140.63 83.1001 140.487C83.0393 140.408 82.9754 140.332 82.9146 140.253C80.6098 137.307 78.6669 134.108 77.0737 130.739C70.0348 130.535 62.999 130.253 55.9662 129.879C54.7104 129.812 53.4516 129.742 52.1959 129.669C52.0165 129.754 51.8158 129.803 51.603 129.803C51.3324 129.803 51.0769 129.724 50.8641 129.59C49.3013 129.496 47.7415 129.395 46.1816 129.292C45.9414 129.553 45.5979 129.721 45.2148 129.721C44.7678 129.721 44.3725 129.496 44.1354 129.155C42.7337 129.055 41.332 128.954 39.9333 128.845C39.763 129.289 39.3313 129.605 38.8265 129.605C38.2549 129.605 37.7776 129.201 37.6651 128.662C36.3363 128.553 35.0046 128.434 33.6759 128.31C33.5907 128.301 33.5056 128.294 33.4204 128.285C33.4265 128.331 33.4326 128.377 33.4326 128.422C33.4326 128.969 32.9887 129.413 32.4414 129.416C31.8941 129.416 31.4502 128.973 31.4471 128.425C31.4471 128.31 31.4684 128.197 31.5049 128.094C30.3677 127.975 29.2275 127.848 28.0812 127.702C27.613 127.644 27.1417 127.574 26.6674 127.507L25.9498 127.391L25.5849 127.328C25.4633 127.306 25.3417 127.285 25.214 127.258L24.8309 127.179C24.6971 127.148 24.5481 127.109 24.4082 127.072L24.3018 127.045L24.2136 127.017L24.0343 126.963C23.9157 126.926 23.7971 126.89 23.6785 126.85C23.4414 126.771 23.2042 126.695 22.9701 126.607C22.7329 126.525 22.5018 126.434 22.2677 126.339C20.4008 125.601 18.6525 124.6 17.0562 123.454C16.2565 122.879 15.4842 122.274 14.7545 121.636L14.4778 121.399L14.2072 121.155L13.666 120.663C13.2524 120.274 12.8906 119.863 12.5622 119.443C12.2308 119.024 11.9389 118.592 11.6713 118.154C11.3977 117.719 11.1575 117.276 10.9264 116.832C10.4703 115.941 10.0781 115.041 9.72541 114.135C9.02609 112.319 8.47573 110.486 8.00141 108.643C7.5514 106.892 7.1744 105.135 6.84297 103.374C6.58757 103.365 6.38385 103.155 6.38385 102.897C6.38385 102.699 6.50242 102.529 6.67573 102.456C6.3808 100.814 6.12233 99.1721 5.89429 97.5271C5.38347 93.8085 5.01255 90.0808 4.74194 86.3531C4.47133 82.6223 4.29801 78.8916 4.20376 75.1578C4.01828 67.6932 4.14294 60.2226 4.61422 52.7641C4.85443 49.0364 5.18891 45.3086 5.65715 41.59L5.65106 41.587ZM6.99801 70.8523C6.99801 70.9162 6.99801 70.98 6.99801 71.0439C7.01929 72.3878 7.04972 73.7317 7.09228 75.0726C7.21087 78.7608 7.41155 82.449 7.70648 86.122C8.00142 89.795 8.39365 93.4589 8.9227 97.0923C9.19027 98.9075 9.48825 100.717 9.83791 102.514C10.1845 104.308 10.5828 106.089 11.048 107.838C11.5163 109.586 12.0514 111.31 12.7021 112.955C13.0305 113.776 13.3893 114.572 13.7845 115.333C13.9852 115.71 14.192 116.081 14.417 116.43C14.6389 116.783 14.87 117.117 15.1163 117.425C15.3626 117.732 15.618 118.017 15.8856 118.264L16.3782 118.705L16.6275 118.927L16.8798 119.139C17.5518 119.714 18.2481 120.249 18.9596 120.751C19.2423 120.952 19.5312 121.14 19.8201 121.329C19.9538 121.414 20.0876 121.499 20.2244 121.581C21.2704 122.223 22.3589 122.776 23.49 123.211C23.6876 123.287 23.8883 123.363 24.092 123.433C24.2927 123.506 24.4964 123.569 24.7032 123.636C24.8035 123.67 24.9099 123.7 25.0133 123.731L25.1684 123.776L25.2444 123.801L25.3082 123.816L25.5606 123.877L25.8616 123.937C25.9589 123.959 26.0653 123.977 26.1748 123.995L26.4941 124.05L27.1539 124.147C27.5978 124.208 28.0447 124.269 28.4978 124.32C30.3069 124.536 32.1434 124.707 33.9799 124.868C37.6559 125.181 41.3502 125.43 45.0445 125.655C48.7418 125.877 52.4391 126.066 56.1395 126.233C63.5402 126.57 70.95 126.808 78.3568 126.954L79.5578 126.978L80.0626 128.091C80.8531 129.827 81.744 131.517 82.7322 133.15C82.8568 133.354 82.9815 133.558 83.1092 133.761C83.4893 134.373 83.8845 134.972 84.295 135.564C84.8332 136.343 85.3957 137.103 85.9825 137.845C86.9707 139.085 88.0227 140.268 89.1386 141.375C89.3332 141.57 89.5308 141.761 89.7315 141.953C89.7589 141.977 89.7862 142.004 89.8136 142.032C91.1819 143.324 92.6444 144.504 94.189 145.51C94.3775 145.644 94.5782 145.753 94.7728 145.875L95.3626 146.231L95.3991 146.252L95.4174 146.264H95.4204C95.4204 146.264 95.4295 146.27 95.4356 146.273C95.4447 146.279 95.4538 146.282 95.4599 146.285C95.466 146.292 95.4751 146.292 95.4782 146.292C95.4842 146.295 95.4873 146.295 95.4934 146.295C95.5116 146.298 95.5177 146.295 95.5299 146.295C95.5542 146.295 95.612 146.264 95.6545 146.222C95.6758 146.2 95.688 146.176 95.694 146.161C95.7001 146.146 95.7001 146.14 95.7001 146.133C95.7001 146.127 95.7001 146.121 95.694 146.1C95.688 146.094 95.688 146.088 95.688 146.079C95.6819 146.067 95.6819 146.067 95.6728 146.045L95.5025 145.677C95.2805 145.185 95.0738 144.686 94.8822 144.178C94.6907 143.671 94.5174 143.154 94.3623 142.631C94.2042 142.108 94.0674 141.576 93.9549 141.04C93.4866 138.894 93.3711 136.629 93.6903 134.406C93.8575 133.296 94.113 132.202 94.4809 131.147C94.6998 130.511 94.9522 129.891 95.2349 129.286C95.4234 128.884 95.6211 128.492 95.8339 128.106L96.4055 127.066H96.7613L97.6035 127.06C103.989 127.027 110.371 126.92 116.738 126.656C118.328 126.583 119.921 126.519 121.508 126.422L122.7 126.355L123.296 126.321L123.892 126.282L126.27 126.124C129.438 125.889 132.597 125.604 135.732 125.227C138.861 124.834 141.974 124.351 144.981 123.655C145.17 123.612 145.362 123.576 145.544 123.524L146.097 123.375L146.812 123.183L147.201 123.08C147.38 123.034 147.581 122.97 147.77 122.916L148.332 122.745C148.478 122.7 148.624 122.654 148.767 122.612C148.989 122.542 149.211 122.472 149.43 122.399C150.156 122.162 150.865 121.9 151.564 121.62C151.917 121.484 152.261 121.332 152.604 121.183C152.777 121.107 152.945 121.025 153.115 120.949C153.285 120.869 153.455 120.79 153.623 120.705C154.967 120.045 156.262 119.291 157.469 118.425L157.922 118.1L158.035 118.017L158.129 117.941L158.317 117.792C158.564 117.583 158.81 117.364 159.047 117.12C159.242 116.923 159.433 116.71 159.619 116.491C159.883 116.184 160.139 115.859 160.385 115.518C160.592 115.232 160.789 114.937 160.981 114.636C161.571 113.709 162.1 112.712 162.58 111.678C163.219 110.31 163.775 108.878 164.274 107.415C164.772 105.946 165.216 104.447 165.612 102.933C165.682 102.663 165.751 102.389 165.818 102.115C166.129 100.878 166.411 99.6281 166.673 98.3724C166.737 98.0653 166.797 97.7582 166.858 97.4541C166.989 96.7852 167.114 96.1163 167.235 95.4443C167.612 93.322 167.935 91.1876 168.211 89.044C169.008 82.7713 169.437 76.4318 169.573 70.0892C169.704 63.7435 169.549 57.3888 169.05 51.0735C168.798 47.9174 168.461 44.7674 167.998 41.6478C167.576 38.814 167.059 36.0015 166.375 33.2498C166.305 32.9731 166.238 32.6934 166.165 32.4167C166.138 32.3133 166.11 32.2069 166.08 32.1035C165.706 30.7048 165.28 29.3275 164.791 27.9896C164.262 26.5575 163.65 25.165 162.909 23.9214C162.538 23.3011 162.136 22.7143 161.695 22.2126C161.476 21.9572 161.248 21.7291 161.014 21.5254C160.953 21.4737 160.902 21.4281 160.835 21.3734L160.613 21.2001L160.169 20.8534C158.971 19.9443 157.688 19.1538 156.344 18.4666C155.675 18.117 154.985 17.8099 154.286 17.5149C153.586 17.2261 152.872 16.9646 152.148 16.7244C151.421 16.4872 150.689 16.2744 149.941 16.0798C149.755 16.0311 149.567 15.9825 149.378 15.9369L149.095 15.8669C149.071 15.8609 149.05 15.8548 149.031 15.8517L148.974 15.8396L148.858 15.8153C148.715 15.7818 148.518 15.7544 148.344 15.724C148.171 15.6936 147.973 15.6723 147.788 15.645C147.031 15.5446 146.249 15.4656 145.462 15.3926C144.677 15.3196 143.887 15.2527 143.093 15.195C141.509 15.0734 139.919 14.9669 138.326 14.8727C132.962 14.5534 127.58 14.3254 122.199 14.1338C121.964 14.1247 121.727 14.1156 121.493 14.1095C120.718 14.0821 119.942 14.0548 119.167 14.0304C118.103 13.997 117.042 13.9636 115.978 13.9332C115.637 13.924 115.296 13.9119 114.956 13.9027C113.168 13.8511 111.383 13.8024 109.595 13.7568C109.255 13.7477 108.917 13.7416 108.577 13.7325C106.765 13.6899 104.949 13.6504 103.137 13.6139C102.845 13.6078 102.557 13.6017 102.265 13.5987C101.502 13.5835 100.741 13.5683 99.9782 13.5561C98.8502 13.5379 97.7221 13.5227 96.5941 13.5075C96.4086 13.5075 96.2201 13.5014 96.0346 13.5014C94.0309 13.474 92.0271 13.4527 90.0234 13.4375C89.9596 13.4375 89.8927 13.4375 89.8288 13.4375C80.4153 13.3615 71.0017 13.4011 61.5973 13.6169C58.4016 13.6929 55.206 13.7933 52.0165 13.921C48.8239 14.0517 45.6374 14.2098 42.457 14.4288C41.6634 14.4835 40.8668 14.5382 40.0732 14.6021L38.8813 14.6963L37.6924 14.7997C36.8988 14.8666 36.1083 14.9487 35.3178 15.0247C34.5302 15.1098 33.7397 15.1889 32.9522 15.2892C32.1647 15.3805 31.3833 15.4869 30.5988 15.5933L29.4312 15.7696C29.042 15.8244 28.6589 15.9004 28.2697 15.9642C27.8806 16.0281 27.5005 16.1071 27.1204 16.1801C26.9289 16.2196 26.7373 16.2531 26.5488 16.2957L25.9863 16.4234C25.2322 16.5906 24.5086 16.8004 23.8062 17.0284C22.894 17.3447 21.994 17.6122 21.1457 17.898C20.2974 18.1838 19.4978 18.4909 18.7376 18.871C17.9775 19.248 17.2538 19.698 16.5514 20.2058L16.29 20.3974C16.2018 20.4612 16.1136 20.5251 16.0315 20.595L15.5207 21.0055C15.3504 21.1453 15.1862 21.2913 15.019 21.4342L14.7697 21.6501C14.6876 21.7231 14.6055 21.8021 14.5264 21.8751L14.0369 22.3281L13.9761 22.3828L13.9305 22.4315L13.8363 22.5258C13.7724 22.5866 13.7146 22.6626 13.6538 22.7295C13.4105 23.0153 13.1825 23.3437 12.9697 23.6933C12.7538 24.043 12.5562 24.417 12.3707 24.8031C12.2734 24.9947 12.1882 25.1954 12.097 25.39C12.0119 25.5906 11.9237 25.7883 11.8447 25.995C11.5163 26.8099 11.2244 27.6521 10.9629 28.5126C10.7014 29.37 10.4643 30.2457 10.2484 31.1244C9.39095 34.6545 8.81629 38.288 8.36021 41.9336C7.91021 45.5853 7.60004 49.2583 7.37808 52.9404C7.02233 58.903 6.90683 64.8837 6.995 70.8584L6.99801 70.8523Z" fill="#1A1A1A"></path> <path d="M185.798 64.3579C185.877 64.3579 185.941 64.4218 185.941 64.5008C185.941 64.5799 185.877 64.6437 185.798 64.6437C185.719 64.6437 185.655 64.5799 185.655 64.5008C185.655 64.4218 185.719 64.3579 185.798 64.3579Z" fill="#1A1A1A"></path> <path d="M179.407 64.0596C179.65 64.0596 179.851 64.2572 179.851 64.5035C179.851 64.7467 179.653 64.9474 179.407 64.9474C179.163 64.9474 178.963 64.7498 178.963 64.5035C178.963 64.2602 179.16 64.0596 179.407 64.0596Z" fill="#1A1A1A"></path> <path d="M185.801 70.7793C185.859 70.7793 185.907 70.8279 185.907 70.8857C185.907 70.9435 185.859 70.9921 185.801 70.9921C185.743 70.9921 185.695 70.9435 185.695 70.8857C185.695 70.8279 185.743 70.7793 185.801 70.7793Z" fill="#1A1A1A"></path> <path d="M179.413 70.5024C179.629 70.5024 179.802 70.6758 179.802 70.8916C179.802 71.1075 179.629 71.2808 179.413 71.2808C179.197 71.2808 179.023 71.1075 179.023 70.8916C179.023 70.6758 179.197 70.5024 179.413 70.5024Z" fill="#1A1A1A"></path> <path d="M185.862 77.2768C185.862 77.3072 185.837 77.3285 185.81 77.3315C185.78 77.3315 185.755 77.3072 185.755 77.2798C185.755 77.2494 185.78 77.2281 185.807 77.2251C185.837 77.2251 185.862 77.2494 185.862 77.2768Z" fill="#1A1A1A"></path> <path d="M179.419 77.5809C179.252 77.5809 179.118 77.4472 179.118 77.2799C179.118 77.2647 179.118 77.2495 179.121 77.2343C179.121 77.2191 179.118 77.2039 179.118 77.1887C179.118 77.0215 179.252 76.8877 179.419 76.8877C179.586 76.8877 179.72 77.0215 179.72 77.1887C179.72 77.2039 179.72 77.2191 179.717 77.2343C179.717 77.2495 179.72 77.2647 179.72 77.2799C179.72 77.4472 179.586 77.5809 179.419 77.5809Z" fill="#1A1A1A"></path> <path d="M45.1783 6.58703C18.467 6.97014 2.3916 11.984 0.658485 41.0943C-1.75876 15.6783 9.85616 3.40357 45.1783 6.58703Z" fill="#1A1A1A"></path> <path d="M28.0129 60.8306H29.551C30.1271 61.2896 30.4689 61.519 30.5764 61.519C30.7228 61.519 31.2941 61.4604 32.2902 61.3433C36.05 61.3433 39.1262 63.7944 41.5187 68.6968C41.968 70.4253 42.1926 71.7339 42.1926 72.6226C42.1926 76.7534 39.4045 79.771 33.8283 81.6753C32.4807 81.8999 31.1135 82.0708 29.7267 82.188C24.4142 81.9048 21.1086 79.7417 19.8098 75.6987C19.6144 75.0933 19.4435 74.2388 19.2971 73.1353C19.2971 69.6294 21.006 66.3237 24.424 63.2183C24.424 62.6519 24.9367 62.2563 25.9621 62.0317C26.7922 61.231 27.4758 60.8306 28.0129 60.8306ZM22.7248 72.9595C22.7248 74.8345 23.6916 76.3726 25.6252 77.5737C26.7385 78.2573 27.9885 78.5991 29.3752 78.5991H30.2394C32.6027 78.5991 34.7072 77.7446 36.5529 76.0356C37.3537 75.0591 37.7541 74.0337 37.7541 72.9595C37.7541 71.1821 36.6701 69.3022 34.5021 67.3198C32.3439 66.5288 30.3517 65.6206 28.5256 64.5952H28.3498C26.8849 64.5952 25.1808 66.646 23.2375 70.7476C23.0031 71.4019 22.8322 72.1392 22.7248 72.9595ZM62.4221 60.6548C63.6721 60.6548 64.468 61.3384 64.8098 62.7056V63.5698C64.8098 64.439 63.9553 65.2935 62.2463 66.1333C58.6428 67.7446 53.6867 71.8413 47.3781 78.4233C44.7023 81.812 43.0519 83.7505 42.4269 84.2388H41.5773C41.1183 84.0142 40.8889 83.6724 40.8889 83.2134C41.6017 80.0786 46.1574 74.2681 54.5558 65.7817C58.4523 62.3638 61.0744 60.6548 62.4221 60.6548ZM45.8547 63.9067C47.3293 64.063 48.0666 64.7466 48.0666 65.9575C48.0666 67.2173 47.2121 68.1841 45.5031 68.8579H44.8293C43.8234 68.8579 43.1935 68.1206 42.9396 66.646C43.5353 64.8198 44.507 63.9067 45.8547 63.9067ZM56.0939 74.4976H56.9582C58.0519 74.4976 58.6769 75.3521 58.8332 77.061C58.4426 78.8872 57.7004 79.8003 56.6066 79.8003H55.757C54.5754 79.8003 53.8918 79.0581 53.7062 77.5737V77.061C53.7062 75.9868 54.5021 75.1323 56.0939 74.4976ZM95.2639 62.0317H95.7766C99.1945 62.0317 101.587 63.6235 102.954 66.8071L103.13 68.0083C103.13 69.7173 102.334 71.3091 100.742 72.7837V73.1353C104.043 74.2485 105.694 75.8403 105.694 77.9106C105.694 80.7817 102.217 83.1206 95.2639 84.9272C94.3557 85.1519 93.2766 85.2642 92.0266 85.2642H91.675C89.5168 85.2642 87.4709 84.6929 85.5373 83.5503C84.3947 83.5503 83.8234 82.9839 83.8234 81.8511C83.3644 78.0913 83.1349 75.3569 83.1349 73.6479V72.9595C83.1349 68.3599 86.3234 64.8296 92.7004 62.3687C93.7746 62.144 94.6291 62.0317 95.2639 62.0317ZM86.05 73.4722C86.05 77.6909 86.3332 79.8003 86.8996 79.8003C89.8 80.1421 91.5627 80.313 92.1877 80.313C94.8732 80.313 97.7248 79.4585 100.742 77.7495V77.5737C100.479 76.8901 98.7111 76.436 95.4396 76.2114C93.8967 76.2114 91.7336 76.4946 88.9504 77.061C88.1984 77.061 87.5734 76.6606 87.0754 75.8599V74.4976C87.0754 73.7358 88.7795 73.0522 92.1877 72.4468C97.09 71.0601 99.5412 69.522 99.5412 67.8325C98.8576 66.2407 97.8908 65.4448 96.6408 65.4448C96.6408 65.2593 96.1281 65.147 95.1027 65.1079C92.8762 65.1079 90.4836 66.3042 87.925 68.6968C86.675 70.2202 86.05 71.812 86.05 73.4722ZM125.22 61.1675C126.362 61.6167 126.934 62.2466 126.934 63.0571V72.271C126.934 73.5796 127.105 77.3979 127.446 83.7261C127.173 85.0933 126.489 85.7769 125.396 85.7769H124.707C123.115 85.7769 122.32 83.5552 122.32 79.1118V78.2622C122.32 78.0278 122.207 77.9106 121.983 77.9106C119.697 80.8794 117.134 82.3638 114.292 82.3638C111.021 82.3638 108.687 80.3667 107.29 76.3726C106.831 75.2788 106.543 73.7407 106.426 71.7583C106.426 69.0337 107.227 65.9038 108.828 62.3687C109.561 61.6167 110.152 61.4214 110.601 61.7827C111.05 62.144 111.143 62.6812 110.879 63.394C109.238 67.3687 108.696 70.6938 109.253 73.3696C109.82 76.0454 110.816 77.8472 112.241 78.7749C112.691 79.2241 113.374 79.4487 114.292 79.4487C117.945 79.4487 120.679 75.2935 122.495 66.9829C122.495 63.106 123.404 61.1675 125.22 61.1675ZM148.013 60.4937C149.155 60.7183 149.727 61.2847 149.727 62.1929V62.5444C149.727 63.1011 148.13 65.1519 144.937 68.6968C140.034 74.6245 137.017 79.063 135.884 82.0122C135.161 82.6958 134.419 83.0376 133.657 83.0376C131.958 83.0376 131.109 81.9585 131.109 79.8003C131.109 78.9897 132.759 76.3677 136.06 71.9341V71.7583C132.876 71.7583 130.371 69.312 128.545 64.4194C128.311 63.394 128.194 62.6519 128.194 62.1929L129.058 61.519C130.083 61.519 130.938 62.8276 131.621 65.4448C132.94 67.9546 134.473 69.2095 136.221 69.2095H136.734C138.179 69.2095 139.605 68.1841 141.011 66.1333C144.673 62.3735 146.895 60.4937 147.676 60.4937H148.013Z" fill="white"></path> </svg> 