<?xml version="1.0" encoding="UTF-8"?> <svg xmlns="http://www.w3.org/2000/svg" width="186" height="154" viewBox="0 0 186 154" fill="none"> <path d="M8.37272 41.6967C8.8288 38.0511 9.40345 34.4176 10.2609 30.8875C10.4768 30.0058 10.7109 29.1331 10.9754 28.2757C11.2369 27.4152 11.5258 26.573 11.8572 25.7581C11.9362 25.5514 12.0275 25.3568 12.1096 25.153C12.2008 24.9584 12.2859 24.7578 12.3832 24.5662C12.5687 24.1801 12.7694 23.8061 12.9822 23.4564C13.195 23.1067 13.4261 22.7784 13.6663 22.4926C13.7271 22.4257 13.7879 22.3496 13.8488 22.2888L13.943 22.1946L13.9886 22.1459L14.0494 22.0912L14.5389 21.6382C14.621 21.5621 14.7001 21.4861 14.7822 21.4132L15.0315 21.1973C15.1987 21.0544 15.3629 20.9054 15.5332 20.7686L16.044 20.3581C16.1292 20.2882 16.2143 20.2243 16.3025 20.1604L16.564 19.9689C17.2663 19.4611 17.99 19.0111 18.7501 18.6341C19.5103 18.254 20.3099 17.9439 21.1582 17.6611C22.0066 17.3753 22.9066 17.1077 23.8187 16.7915C24.518 16.5635 25.2447 16.3537 25.9988 16.1864L26.5613 16.0587C26.7498 16.0162 26.9414 15.9827 27.1329 15.9432C27.516 15.8672 27.8961 15.7881 28.2823 15.7273C28.6684 15.6635 29.0515 15.5875 29.4437 15.5327L30.6113 15.3564C31.3927 15.25 32.1772 15.1405 32.9647 15.0523C33.7492 14.952 34.5397 14.876 35.3303 14.7878C36.1208 14.7118 36.9113 14.6297 37.7049 14.5628L38.8938 14.4594L40.0857 14.3652C40.8793 14.3013 41.6728 14.2466 42.4695 14.1918C45.6499 13.976 48.8394 13.8148 52.029 13.6841C55.2216 13.5533 58.4141 13.456 61.6098 13.38C71.0142 13.1641 80.4278 13.1246 89.8413 13.2006C89.9052 13.2006 89.9721 13.2006 90.0359 13.2006C92.0396 13.2158 94.0434 13.2401 96.0471 13.2645C96.2326 13.2645 96.4211 13.2705 96.6066 13.2705C97.7346 13.2858 98.8627 13.301 99.9907 13.3192C100.754 13.3314 101.517 13.3496 102.277 13.3618C102.569 13.3679 102.858 13.3739 103.15 13.377C104.962 13.4135 106.777 13.4499 108.589 13.4956C108.93 13.5047 109.267 13.5108 109.608 13.5199C111.396 13.5624 113.181 13.6141 114.968 13.6658C115.309 13.6749 115.65 13.6871 115.99 13.6962C117.054 13.7266 118.115 13.7601 119.18 13.7935C119.955 13.8178 120.73 13.8452 121.506 13.8726C121.74 13.8817 121.977 13.8908 122.211 13.8969C127.593 14.0885 132.975 14.3165 138.338 14.6358C139.931 14.73 141.522 14.8364 143.106 14.9581C143.899 15.0189 144.687 15.0827 145.474 15.1557C146.259 15.2287 147.043 15.3077 147.8 15.4081C147.986 15.4354 148.183 15.4567 148.357 15.4871C148.533 15.5175 148.728 15.5419 148.871 15.5783L148.986 15.6027L149.044 15.6148C149.062 15.6179 149.084 15.6239 149.108 15.63L149.391 15.7C149.579 15.7456 149.768 15.7942 149.953 15.8429C150.701 16.0375 151.434 16.2503 152.161 16.4875C152.884 16.7277 153.596 16.9892 154.298 17.278C154.994 17.5729 155.688 17.88 156.357 18.2297C157.7 18.9169 158.987 19.7074 160.182 20.6165L160.625 20.9632L160.847 21.1365C160.917 21.1912 160.966 21.2399 161.027 21.2885C161.261 21.4922 161.489 21.7203 161.708 21.9757C162.149 22.4774 162.55 23.0642 162.921 23.6844C163.663 24.928 164.274 26.3206 164.803 27.7527C165.296 29.0875 165.718 30.4679 166.092 31.8666C166.12 31.97 166.15 32.0764 166.177 32.1798C166.25 32.4565 166.32 32.7362 166.387 33.0129C167.071 35.7646 167.588 38.5771 168.011 41.4109C168.473 44.5305 168.814 47.6805 169.063 50.8366C169.565 57.1518 169.72 63.5096 169.586 69.8522C169.449 76.1948 169.02 82.5344 168.224 88.8071C167.95 90.9507 167.628 93.0882 167.248 95.2074C167.129 95.8794 167.001 96.5483 166.871 97.2172C166.81 97.5243 166.749 97.8314 166.685 98.1355C166.424 99.3912 166.141 100.638 165.831 101.878C165.764 102.152 165.694 102.423 165.624 102.696C165.226 104.214 164.785 105.71 164.286 107.178C163.788 108.641 163.231 110.07 162.593 111.441C162.112 112.472 161.583 113.472 160.993 114.399C160.802 114.7 160.604 114.995 160.397 115.281C160.154 115.622 159.896 115.944 159.631 116.254C159.446 116.473 159.254 116.683 159.06 116.884C158.825 117.127 158.579 117.346 158.33 117.556L158.141 117.704L158.047 117.781L157.935 117.863L157.482 118.188C156.271 119.055 154.979 119.806 153.635 120.468C153.468 120.553 153.298 120.633 153.127 120.712C152.957 120.791 152.787 120.87 152.617 120.946C152.27 121.095 151.926 121.247 151.577 121.384C150.877 121.663 150.166 121.925 149.442 122.162C149.223 122.235 149.001 122.305 148.779 122.375C148.633 122.42 148.491 122.466 148.345 122.509L147.782 122.679C147.594 122.734 147.393 122.797 147.214 122.843L146.824 122.946L146.11 123.138L145.556 123.287C145.371 123.336 145.179 123.372 144.994 123.418C141.99 124.114 138.873 124.597 135.745 124.99C132.61 125.367 129.451 125.653 126.282 125.887L123.905 126.045L123.309 126.084L122.713 126.118L121.521 126.185C119.934 126.282 118.34 126.346 116.75 126.419C110.383 126.683 104.001 126.79 97.616 126.823H96.7738L96.4181 126.829L95.8464 127.869C95.6336 128.255 95.4329 128.647 95.2474 129.049C94.9647 129.654 94.7123 130.274 94.4934 130.91C94.1255 131.965 93.8701 133.062 93.7028 134.169C93.3836 136.392 93.4991 138.657 93.9674 140.804C94.0829 141.342 94.2197 141.874 94.3748 142.394C94.5299 142.917 94.7032 143.434 94.8947 143.941C95.0863 144.449 95.293 144.948 95.515 145.44L95.6853 145.808C95.6944 145.83 95.6914 145.83 95.7005 145.842C95.7005 145.851 95.7005 145.857 95.7066 145.863C95.7126 145.887 95.7157 145.893 95.7126 145.897C95.7126 145.903 95.7126 145.909 95.7066 145.924C95.7005 145.939 95.6883 145.963 95.667 145.985C95.6245 146.03 95.5667 146.058 95.5424 146.058C95.5302 146.058 95.5211 146.058 95.5059 146.058C95.5029 146.058 95.4968 146.058 95.4907 146.055C95.4846 146.055 95.4785 146.055 95.4724 146.049C95.4664 146.049 95.4572 146.045 95.4481 146.036C95.442 146.036 95.439 146.03 95.4329 146.03H95.4299L95.4116 146.018L95.3751 145.997L94.7853 145.641C94.5907 145.519 94.39 145.413 94.2015 145.276C92.6569 144.27 91.1944 143.09 89.8261 141.798C89.7988 141.774 89.7714 141.746 89.744 141.719C89.5434 141.53 89.3457 141.336 89.1511 141.141C88.0352 140.031 86.9832 138.849 85.995 137.611C85.4082 136.872 84.8457 136.109 84.3075 135.331C83.9001 134.741 83.5048 134.139 83.1217 133.528C82.994 133.324 82.8693 133.12 82.7447 132.916C81.7565 131.287 80.8656 129.596 80.0751 127.857L79.5703 126.744L78.3693 126.72C70.9625 126.571 63.5557 126.334 56.152 125.999C52.4516 125.832 48.7513 125.643 45.057 125.421C41.3627 125.196 37.6685 124.95 33.9924 124.634C32.1559 124.476 30.3194 124.306 28.5103 124.087C28.0573 124.035 27.6103 123.974 27.1664 123.913L26.5066 123.816L26.1873 123.761C26.0809 123.743 25.9714 123.725 25.8741 123.704L25.5731 123.643L25.3208 123.582L25.2569 123.567L25.1809 123.542L25.0258 123.497C24.9224 123.466 24.8191 123.436 24.7157 123.402C24.512 123.336 24.3052 123.272 24.1045 123.199C23.9008 123.129 23.7032 123.053 23.5025 122.977C22.3714 122.542 21.2829 121.989 20.2369 121.347C20.1032 121.265 19.9663 121.18 19.8326 121.095C19.5437 120.909 19.2548 120.718 18.9721 120.517C18.2575 120.015 17.5613 119.48 16.8923 118.906L16.64 118.693L16.3906 118.471L15.8981 118.03C15.6336 117.787 15.3751 117.501 15.1288 117.191C14.8825 116.884 14.6484 116.549 14.4295 116.196C14.2045 115.847 13.9977 115.476 13.7971 115.099C13.3987 114.339 13.04 113.542 12.7146 112.721C12.0639 111.076 11.5258 109.355 11.0606 107.604C10.5923 105.852 10.197 104.074 9.85042 102.28C9.50076 100.486 9.20278 98.6767 8.93521 96.8584C8.40615 93.225 8.01392 89.5611 7.71899 85.8881C7.42406 82.2151 7.22337 78.5269 7.10479 74.8388C7.06222 73.4948 7.03182 72.1539 7.01054 70.81C7.01054 70.7462 7.01054 70.6823 7.01054 70.6185C6.92236 64.6438 7.0379 58.66 7.39365 52.7005C7.61561 49.0184 7.92576 45.3423 8.37576 41.6937L8.37272 41.6967Z" fill="#FAC6FF"></path> <path d="M185.786 76.9584C185.786 76.9401 185.801 76.9219 185.823 76.9219C185.841 76.9219 185.859 76.9371 185.859 76.9584C185.859 76.9766 185.844 76.9948 185.823 76.9948C185.801 76.9948 185.786 76.9796 185.786 76.9584Z" fill="#1A1A1A"></path> <path d="M185.914 83.3494C185.914 83.398 185.874 83.4376 185.826 83.4376C185.777 83.4376 185.737 83.398 185.737 83.3494C185.737 83.3008 185.777 83.2612 185.826 83.2612C185.874 83.2612 185.914 83.3008 185.914 83.3494Z" fill="#1A1A1A"></path> <path d="M179.437 83.7447C179.221 83.7447 179.048 83.5714 179.048 83.3555C179.048 83.1396 179.221 82.9663 179.437 82.9663C179.653 82.9663 179.827 83.1396 179.827 83.3555C179.827 83.5714 179.653 83.7447 179.437 83.7447Z" fill="#1A1A1A"></path> <path d="M185.971 89.7376C185.971 89.8167 185.908 89.8805 185.829 89.8805C185.75 89.8805 185.686 89.8167 185.686 89.7376C185.686 89.6586 185.75 89.5947 185.829 89.5947C185.908 89.5947 185.971 89.6586 185.971 89.7376Z" fill="#1A1A1A"></path> <path d="M179.443 90.1847C179.2 90.1847 178.999 89.9871 178.999 89.7408C178.999 89.4976 179.197 89.2969 179.443 89.2969C179.687 89.2969 179.887 89.4945 179.887 89.7408C179.887 89.984 179.69 90.1847 179.443 90.1847Z" fill="#1A1A1A"></path> <path d="M173.055 90.5101C172.636 90.5101 172.292 90.1696 172.292 89.75C172.292 89.3304 172.633 88.9868 173.052 88.9868C173.472 88.9868 173.815 89.3274 173.815 89.747C173.815 90.1666 173.475 90.5101 173.055 90.5101Z" fill="#1A1A1A"></path> <path d="M185.835 95.9678C185.923 95.9678 185.993 96.0377 185.993 96.1259C185.993 96.2141 185.923 96.284 185.835 96.284C185.746 96.284 185.677 96.2141 185.677 96.1259C185.677 96.0377 185.746 95.9678 185.835 95.9678Z" fill="#1A1A1A"></path> <path d="M179.446 96.5912C179.191 96.5912 178.984 96.3844 178.984 96.1321C178.984 95.8767 179.191 95.6699 179.443 95.6699C179.699 95.6699 179.906 95.8767 179.906 96.129C179.906 96.3814 179.699 96.5912 179.446 96.5912Z" fill="#1A1A1A"></path> <path d="M173.058 96.9163C172.626 96.9163 172.28 96.5666 172.277 96.1379C172.277 95.7061 172.627 95.3595 173.055 95.3564C173.487 95.3564 173.834 95.7061 173.837 96.1348C173.837 96.5666 173.487 96.9132 173.058 96.9163Z" fill="#1A1A1A"></path> <path d="M185.841 102.375C185.92 102.375 185.984 102.438 185.984 102.517C185.984 102.596 185.92 102.66 185.841 102.66C185.762 102.66 185.698 102.596 185.698 102.517C185.698 102.438 185.762 102.375 185.841 102.375Z" fill="#1A1A1A"></path> <path d="M179.009 102.52C179.009 102.277 179.206 102.076 179.453 102.076C179.696 102.076 179.896 102.274 179.896 102.52C179.896 102.763 179.699 102.964 179.453 102.964C179.209 102.964 179.009 102.766 179.009 102.52Z" fill="#1A1A1A"></path> <path d="M173.064 101.763C173.484 101.763 173.827 102.104 173.827 102.523C173.827 102.943 173.487 103.287 173.067 103.287C172.648 103.287 172.304 102.946 172.304 102.526C172.304 102.107 172.645 101.763 173.064 101.763Z" fill="#1A1A1A"></path> <path d="M185.74 108.902C185.74 108.845 185.789 108.796 185.847 108.796C185.905 108.796 185.953 108.845 185.953 108.902C185.953 108.96 185.905 109.009 185.847 109.009C185.789 109.009 185.74 108.96 185.74 108.902Z" fill="#1A1A1A"></path> <path d="M179.459 109.297C179.243 109.297 179.069 109.124 179.069 108.908C179.069 108.692 179.243 108.519 179.459 108.519C179.674 108.519 179.848 108.692 179.848 108.908C179.848 109.124 179.674 109.297 179.459 109.297Z" fill="#1A1A1A"></path> <path d="M173.07 108.224C173.454 108.224 173.761 108.534 173.761 108.914C173.761 109.294 173.45 109.605 173.07 109.605C172.69 109.605 172.38 109.294 172.38 108.914C172.38 108.531 172.69 108.224 173.07 108.224Z" fill="#1A1A1A"></path> <path d="M185.905 115.293C185.905 115.324 185.88 115.345 185.853 115.348C185.822 115.348 185.801 115.324 185.798 115.296C185.798 115.266 185.822 115.245 185.85 115.242C185.88 115.242 185.902 115.266 185.905 115.293Z" fill="#1A1A1A"></path> <path d="M179.465 115.598C179.298 115.598 179.164 115.464 179.164 115.297C179.164 115.129 179.298 114.996 179.465 114.996C179.632 114.996 179.766 115.129 179.766 115.297C179.766 115.464 179.632 115.598 179.465 115.598Z" fill="#1A1A1A"></path> <path d="M173.073 114.719C173.396 114.719 173.657 114.98 173.657 115.303C173.657 115.625 173.396 115.886 173.073 115.886C172.751 115.886 172.49 115.625 172.49 115.303C172.49 114.98 172.751 114.719 173.073 114.719Z" fill="#1A1A1A"></path> <path d="M166.685 114.439C167.166 114.439 167.555 114.829 167.555 115.306C167.555 115.786 167.166 116.176 166.688 116.176C166.208 116.176 165.819 115.786 165.819 115.309C165.819 114.829 166.208 114.439 166.685 114.439Z" fill="#1A1A1A"></path> <path d="M179.291 121.688C179.291 121.591 179.37 121.512 179.468 121.512C179.565 121.512 179.644 121.591 179.644 121.688C179.644 121.785 179.565 121.864 179.468 121.864C179.37 121.864 179.291 121.785 179.291 121.688Z" fill="#1A1A1A"></path> <path d="M172.62 121.691C172.62 121.436 172.827 121.229 173.08 121.229C173.335 121.229 173.542 121.436 173.542 121.688C173.542 121.944 173.335 122.15 173.083 122.15C172.827 122.15 172.62 121.944 172.62 121.691Z" fill="#1A1A1A"></path> <path d="M166.691 120.97C167.093 120.97 167.418 121.296 167.418 121.697C167.418 122.098 167.093 122.424 166.691 122.424C166.29 122.424 165.965 122.098 165.965 121.697C165.965 121.296 166.29 120.97 166.691 120.97Z" fill="#1A1A1A"></path> <path d="M179.529 128.076C179.529 128.107 179.504 128.128 179.477 128.128C179.449 128.128 179.422 128.104 179.422 128.076C179.422 128.046 179.446 128.021 179.474 128.021C179.501 128.021 179.525 128.046 179.529 128.073V128.076Z" fill="#1A1A1A"></path> <path d="M172.803 128.082C172.803 127.927 172.931 127.799 173.086 127.799C173.241 127.799 173.368 127.927 173.368 128.082C173.368 128.237 173.241 128.365 173.086 128.365C172.927 128.365 172.803 128.237 172.803 128.082Z" fill="#1A1A1A"></path> <path d="M166.147 128.085C166.147 127.781 166.393 127.535 166.694 127.535C166.998 127.535 167.245 127.781 167.245 128.082C167.245 128.386 166.998 128.632 166.697 128.632C166.393 128.632 166.147 128.386 166.147 128.085Z" fill="#1A1A1A"></path> <path d="M159.528 128.091C159.528 127.66 159.877 127.313 160.306 127.31C160.738 127.31 161.085 127.66 161.088 128.088C161.088 128.52 160.738 128.867 160.309 128.87C159.877 128.87 159.531 128.52 159.528 128.091Z" fill="#1A1A1A"></path> <path d="M153.918 127.121C154.456 127.121 154.894 127.556 154.894 128.094C154.894 128.632 154.459 129.07 153.921 129.07C153.383 129.07 152.945 128.635 152.945 128.097C152.945 127.559 153.38 127.121 153.918 127.121Z" fill="#1A1A1A"></path> <path d="M173.198 134.47C173.198 134.528 173.149 134.577 173.092 134.577C173.034 134.577 172.985 134.528 172.985 134.47C172.985 134.412 173.034 134.364 173.092 134.364C173.149 134.364 173.198 134.412 173.198 134.47Z" fill="#1A1A1A"></path> <path d="M166.366 134.473C166.366 134.288 166.515 134.136 166.703 134.136C166.889 134.136 167.041 134.285 167.041 134.473C167.041 134.659 166.892 134.811 166.703 134.811C166.518 134.811 166.366 134.662 166.366 134.473Z" fill="#1A1A1A"></path> <path d="M159.765 134.48C159.765 134.175 160.011 133.929 160.312 133.929C160.616 133.929 160.863 134.175 160.863 134.477C160.863 134.781 160.616 135.027 160.315 135.027C160.011 135.027 159.765 134.781 159.765 134.48Z" fill="#1A1A1A"></path> <path d="M153.197 134.485C153.197 134.084 153.523 133.759 153.924 133.759C154.325 133.759 154.651 134.084 154.651 134.485C154.651 134.887 154.325 135.212 153.924 135.212C153.523 135.212 153.197 134.887 153.197 134.485Z" fill="#1A1A1A"></path> <path d="M147.536 133.604C148.025 133.604 148.421 133.999 148.424 134.488C148.424 134.978 148.028 135.373 147.539 135.376C147.049 135.376 146.654 134.981 146.651 134.491C146.651 134.002 147.046 133.607 147.536 133.604Z" fill="#1A1A1A"></path> <path d="M141.148 133.485C141.704 133.485 142.157 133.935 142.157 134.495C142.157 135.051 141.707 135.504 141.148 135.504C140.591 135.504 140.138 135.054 140.138 134.495C140.138 133.938 140.588 133.485 141.148 133.485Z" fill="#1A1A1A"></path> <path d="M133.662 134.504C133.662 133.898 134.151 133.406 134.759 133.403C135.368 133.403 135.857 133.892 135.86 134.5C135.86 135.106 135.371 135.598 134.763 135.601C134.154 135.601 133.665 135.112 133.662 134.504Z" fill="#1A1A1A"></path> <path d="M128.368 133.391C128.985 133.391 129.484 133.889 129.484 134.507C129.484 135.124 128.985 135.622 128.368 135.622C127.751 135.622 127.252 135.124 127.252 134.507C127.252 133.889 127.751 133.391 128.368 133.391Z" fill="#1A1A1A"></path> <path d="M121.98 133.415C122.588 133.415 123.078 133.905 123.081 134.513C123.081 135.118 122.591 135.61 121.983 135.613C121.375 135.613 120.885 135.124 120.882 134.516C120.882 133.908 121.372 133.418 121.98 133.415Z" fill="#1A1A1A"></path> <path d="M114.564 134.519C114.564 133.95 115.023 133.491 115.592 133.491C116.16 133.491 116.62 133.95 116.62 134.519C116.62 135.088 116.16 135.547 115.592 135.547C115.023 135.547 114.564 135.088 114.564 134.519Z" fill="#1A1A1A"></path> <path d="M108.212 134.525C108.212 134.066 108.559 133.689 109.006 133.643C109.07 133.628 109.137 133.622 109.204 133.622C109.702 133.622 110.107 134.026 110.107 134.525C110.107 135.024 109.702 135.428 109.204 135.428C109.137 135.428 109.07 135.419 109.006 135.407C108.559 135.361 108.212 134.984 108.212 134.525Z" fill="#1A1A1A"></path> <path d="M166.813 140.865C166.813 140.922 166.764 140.971 166.706 140.971C166.649 140.971 166.6 140.922 166.6 140.865C166.6 140.807 166.649 140.758 166.706 140.758C166.764 140.758 166.813 140.807 166.813 140.865Z" fill="#1A1A1A"></path> <path d="M160.017 140.867C160.017 140.7 160.151 140.566 160.318 140.566C160.486 140.566 160.619 140.7 160.619 140.867C160.619 141.035 160.486 141.168 160.318 141.168C160.151 141.168 160.017 141.035 160.017 140.867Z" fill="#1A1A1A"></path> <path d="M153.471 140.874C153.471 140.618 153.678 140.412 153.93 140.412C154.186 140.412 154.392 140.618 154.392 140.871C154.392 141.126 154.186 141.333 153.933 141.333C153.678 141.333 153.471 141.126 153.471 140.874Z" fill="#1A1A1A"></path> <path d="M146.94 140.88C146.94 140.548 147.211 140.278 147.542 140.278C147.873 140.278 148.144 140.548 148.144 140.88C148.144 141.211 147.873 141.482 147.542 141.482C147.211 141.482 146.94 141.211 146.94 140.88Z" fill="#1A1A1A"></path> <path d="M140.427 140.886C140.427 140.485 140.752 140.159 141.154 140.159C141.555 140.159 141.88 140.485 141.88 140.886C141.88 141.287 141.555 141.613 141.154 141.613C140.752 141.613 140.427 141.287 140.427 140.886Z" fill="#1A1A1A"></path> <path d="M133.984 140.892C133.984 140.46 134.334 140.113 134.762 140.11C135.194 140.11 135.541 140.46 135.544 140.889C135.547 141.317 135.194 141.667 134.766 141.67C134.334 141.67 133.987 141.32 133.984 140.892Z" fill="#1A1A1A"></path> <path d="M127.559 140.898C127.559 140.448 127.924 140.083 128.374 140.083C128.824 140.083 129.189 140.448 129.189 140.898C129.189 141.348 128.824 141.713 128.374 141.713C127.924 141.713 127.559 141.348 127.559 140.898Z" fill="#1A1A1A"></path> <path d="M121.189 140.901C121.189 140.46 121.545 140.104 121.986 140.104C122.427 140.104 122.783 140.46 122.783 140.901C122.783 141.342 122.427 141.698 121.986 141.698C121.545 141.698 121.189 141.342 121.189 140.901Z" fill="#1A1A1A"></path> <path d="M114.871 140.907C114.871 140.506 115.197 140.181 115.598 140.181C115.999 140.181 116.325 140.506 116.325 140.907C116.325 141.309 115.999 141.634 115.598 141.634C115.197 141.634 114.871 141.309 114.871 140.907Z" fill="#1A1A1A"></path> <path d="M160.394 147.259C160.394 147.298 160.364 147.329 160.324 147.329C160.285 147.329 160.255 147.298 160.255 147.259C160.255 147.219 160.285 147.189 160.324 147.189C160.364 147.189 160.394 147.219 160.394 147.259Z" fill="#1A1A1A"></path> <path d="M153.742 147.262C153.742 147.156 153.83 147.067 153.936 147.067C154.043 147.067 154.131 147.156 154.131 147.262C154.131 147.368 154.043 147.457 153.936 147.457C153.83 147.457 153.742 147.368 153.742 147.262Z" fill="#1A1A1A"></path> <path d="M147.229 147.268C147.229 147.092 147.372 146.949 147.548 146.949C147.724 146.949 147.867 147.092 147.867 147.268C147.867 147.444 147.724 147.587 147.548 147.587C147.372 147.587 147.229 147.444 147.229 147.268Z" fill="#1A1A1A"></path> <path d="M140.752 147.274C140.752 147.049 140.935 146.867 141.16 146.867C141.385 146.867 141.567 147.049 141.567 147.274C141.567 147.499 141.385 147.682 141.16 147.682C140.935 147.682 140.752 147.499 140.752 147.274Z" fill="#1A1A1A"></path> <path d="M134.291 147.28C134.291 147.016 134.504 146.803 134.769 146.803C135.033 146.803 135.246 147.016 135.246 147.28C135.246 147.545 135.033 147.757 134.769 147.757C134.504 147.757 134.291 147.545 134.291 147.28Z" fill="#1A1A1A"></path> <path d="M127.885 147.286C127.885 147.012 128.107 146.791 128.38 146.791C128.654 146.791 128.876 147.012 128.876 147.286C128.876 147.56 128.654 147.782 128.38 147.782C128.107 147.782 127.885 147.56 127.885 147.286Z" fill="#1A1A1A"></path> <path d="M121.992 147.77C121.728 147.77 121.515 147.557 121.515 147.292C121.515 147.028 121.728 146.815 121.992 146.815C122.257 146.815 122.47 147.028 122.47 147.292C122.47 147.557 122.257 147.77 121.992 147.77Z" fill="#1A1A1A"></path> <path d="M115.178 147.295C115.178 147.061 115.367 146.87 115.604 146.87C115.838 146.87 116.03 147.058 116.03 147.295C116.03 147.529 115.841 147.721 115.604 147.721C115.37 147.721 115.178 147.532 115.178 147.295Z" fill="#1A1A1A"></path> <path d="M153.96 153.651C153.96 153.651 153.951 153.669 153.942 153.669C153.932 153.669 153.923 153.66 153.923 153.651C153.923 153.641 153.932 153.632 153.942 153.632C153.951 153.632 153.96 153.641 153.96 153.651Z" fill="#1A1A1A"></path> <path d="M147.606 153.656C147.606 153.687 147.581 153.708 147.554 153.708C147.524 153.708 147.502 153.684 147.502 153.656C147.502 153.626 147.527 153.602 147.554 153.602C147.581 153.602 147.606 153.626 147.606 153.653V153.656Z" fill="#1A1A1A"></path> <path d="M141.287 153.662C141.287 153.732 141.233 153.787 141.163 153.787C141.093 153.787 141.038 153.732 141.038 153.662C141.038 153.592 141.093 153.538 141.163 153.538C141.233 153.538 141.287 153.592 141.287 153.662Z" fill="#1A1A1A"></path> <path d="M134.951 153.669C134.951 153.766 134.872 153.845 134.775 153.845C134.677 153.845 134.598 153.766 134.598 153.669C134.598 153.571 134.677 153.492 134.775 153.492C134.872 153.492 134.951 153.571 134.951 153.669Z" fill="#1A1A1A"></path> <path d="M128.581 153.674C128.581 153.78 128.493 153.869 128.386 153.869C128.28 153.869 128.192 153.78 128.192 153.674C128.192 153.568 128.28 153.479 128.386 153.479C128.493 153.479 128.581 153.568 128.581 153.674Z" fill="#1A1A1A"></path> <path d="M121.998 153.857C121.901 153.857 121.822 153.778 121.822 153.681C121.822 153.583 121.901 153.504 121.998 153.504C122.095 153.504 122.175 153.583 122.175 153.681C122.175 153.778 122.095 153.857 121.998 153.857Z" fill="#1A1A1A"></path> <path d="M115.61 153.559C115.68 153.559 115.735 153.613 115.735 153.683C115.735 153.753 115.68 153.808 115.61 153.808C115.543 153.808 115.485 153.753 115.485 153.683C115.485 153.616 115.54 153.559 115.61 153.559Z" fill="#1A1A1A"></path> <path d="M102.709 133.519C103.265 133.519 103.718 133.969 103.718 134.529C103.718 135.085 103.268 135.538 102.709 135.538C102.152 135.538 101.699 135.088 101.699 134.529C101.699 133.972 102.149 133.519 102.709 133.519Z" fill="#1A1A1A"></path> <path d="M76.1253 134.553C76.1253 133.984 76.5844 133.525 77.153 133.525C77.7216 133.525 78.1807 133.984 78.1807 134.553C78.1807 135.121 77.7216 135.58 77.153 135.58C76.5844 135.58 76.1253 135.121 76.1253 134.553Z" fill="#1A1A1A"></path> <path d="M108.501 140.913C108.501 140.597 108.744 140.339 109.055 140.314C109.103 140.302 109.155 140.293 109.21 140.293C109.553 140.293 109.83 140.57 109.83 140.913C109.83 141.257 109.553 141.534 109.21 141.534C109.155 141.534 109.106 141.527 109.055 141.512C108.744 141.488 108.501 141.229 108.501 140.913Z" fill="#1A1A1A"></path> <path d="M101.988 140.919C101.988 140.518 102.314 140.192 102.715 140.192C103.116 140.192 103.442 140.518 103.442 140.919C103.442 141.32 103.116 141.646 102.715 141.646C102.314 141.646 101.988 141.32 101.988 140.919Z" fill="#1A1A1A"></path> <path d="M76.4324 140.941C76.4324 140.539 76.7578 140.214 77.1591 140.214C77.5605 140.214 77.8858 140.539 77.8858 140.941C77.8858 141.342 77.5605 141.667 77.1591 141.667C76.7578 141.667 76.4324 141.342 76.4324 140.941Z" fill="#1A1A1A"></path> <path d="M108.79 147.301C108.79 147.125 108.933 146.982 109.109 146.982C109.143 146.97 109.176 146.964 109.213 146.964C109.398 146.964 109.55 147.113 109.55 147.301C109.55 147.487 109.401 147.639 109.213 147.639C109.176 147.639 109.143 147.633 109.109 147.621C108.933 147.621 108.79 147.478 108.79 147.301Z" fill="#1A1A1A"></path> <path d="M102.314 147.307C102.314 147.082 102.496 146.9 102.721 146.9C102.946 146.9 103.129 147.082 103.129 147.307C103.129 147.532 102.946 147.715 102.721 147.715C102.496 147.715 102.314 147.532 102.314 147.307Z" fill="#1A1A1A"></path> <path d="M83.076 147.323C83.076 147.058 83.2889 146.845 83.5534 146.845C83.8179 146.845 84.0308 147.058 84.0308 147.323C84.0308 147.587 83.8179 147.8 83.5534 147.8C83.2889 147.8 83.076 147.587 83.076 147.323Z" fill="#1A1A1A"></path> <path d="M76.7396 147.329C76.7396 147.095 76.9281 146.903 77.1652 146.903C77.3994 146.903 77.5909 147.092 77.5909 147.329C77.5909 147.563 77.4024 147.755 77.1652 147.755C76.9311 147.755 76.7396 147.566 76.7396 147.329Z" fill="#1A1A1A"></path> <path d="M109.167 153.69C109.167 153.659 109.191 153.638 109.219 153.638C109.249 153.638 109.27 153.663 109.27 153.69C109.27 153.72 109.246 153.745 109.219 153.745C109.188 153.745 109.167 153.72 109.167 153.693C109.167 153.723 109.143 153.745 109.115 153.745C109.085 153.745 109.061 153.72 109.061 153.693C109.061 153.663 109.085 153.641 109.112 153.641C109.14 153.641 109.164 153.666 109.164 153.693L109.167 153.69Z" fill="#1A1A1A"></path> <path d="M102.849 153.696C102.849 153.766 102.794 153.821 102.724 153.821C102.654 153.821 102.599 153.766 102.599 153.696C102.599 153.626 102.654 153.571 102.724 153.571C102.791 153.571 102.849 153.626 102.849 153.696Z" fill="#1A1A1A"></path> <path d="M96.3359 153.522C96.4332 153.522 96.5123 153.602 96.5123 153.699C96.5123 153.796 96.4332 153.875 96.3359 153.875C96.2386 153.875 96.1596 153.796 96.1596 153.699C96.1596 153.602 96.2386 153.522 96.3359 153.522Z" fill="#1A1A1A"></path> <path d="M89.7531 153.705C89.7531 153.598 89.8413 153.51 89.9477 153.51C90.0542 153.51 90.1423 153.598 90.1423 153.705C90.1423 153.811 90.0542 153.899 89.9477 153.899C89.8413 153.899 89.7531 153.811 89.7531 153.705Z" fill="#1A1A1A"></path> <path d="M83.7358 153.711C83.7358 153.808 83.6568 153.887 83.5595 153.887C83.4622 153.887 83.3831 153.808 83.3831 153.711C83.3831 153.614 83.4622 153.535 83.5595 153.535C83.6568 153.535 83.7358 153.614 83.7358 153.711Z" fill="#1A1A1A"></path> <path d="M77.2929 153.717C77.2929 153.787 77.2382 153.842 77.1683 153.842C77.0983 153.842 77.0436 153.787 77.0436 153.717C77.0436 153.647 77.0983 153.592 77.1683 153.592C77.2382 153.592 77.2929 153.647 77.2929 153.717Z" fill="#1A1A1A"></path> <path d="M0.432905 70.7287C0.432905 70.7287 0.44225 70.71 0.451596 70.71C0.460942 70.71 0.470306 70.7193 0.470306 70.7287C0.470306 70.738 0.460942 70.7473 0.451596 70.7473C0.44225 70.7473 0.432905 70.738 0.432905 70.7287Z" fill="#1A1A1A"></path> <path d="M0.509766 77.1161C0.509766 77.1465 0.485446 77.1678 0.458081 77.1678C0.430716 77.1678 0.403354 77.1435 0.403354 77.1161C0.403354 77.0888 0.427673 77.0645 0.455038 77.0645C0.485443 77.0645 0.506741 77.0888 0.506741 77.1161H0.509766Z" fill="#1A1A1A"></path> <path d="M0.464152 83.3828C0.534084 83.3828 0.588806 83.4376 0.588806 83.5075C0.588806 83.5774 0.534084 83.6321 0.464152 83.6321C0.394219 83.6321 0.339478 83.5774 0.339478 83.5075C0.339478 83.4376 0.394219 83.3828 0.464152 83.3828Z" fill="#1A1A1A"></path> <path d="M0.467216 89.7163C0.564514 89.7163 0.643555 89.7954 0.643555 89.8927C0.643555 89.99 0.564514 90.069 0.467216 90.069C0.369918 90.069 0.290858 89.99 0.290858 89.8927C0.290858 89.7954 0.369918 89.7163 0.467216 89.7163Z" fill="#1A1A1A"></path> <path d="M0.473247 96.0894C0.579666 96.0894 0.667847 96.1775 0.667847 96.2839C0.667847 96.3904 0.579666 96.4785 0.473247 96.4785C0.366827 96.4785 0.278665 96.3904 0.278665 96.2839C0.278665 96.1775 0.366827 96.0894 0.473247 96.0894Z" fill="#1A1A1A"></path> <path d="M0.302986 102.672C0.302986 102.575 0.382046 102.496 0.479343 102.496C0.576641 102.496 0.655701 102.575 0.655701 102.672C0.655701 102.769 0.576641 102.848 0.479343 102.848C0.382046 102.848 0.302986 102.769 0.302986 102.672Z" fill="#1A1A1A"></path> <path d="M6.87365 108.632C7.10777 108.632 7.29932 108.82 7.29932 109.058C7.29932 109.292 7.11081 109.483 6.87365 109.483C6.63953 109.483 6.44796 109.295 6.44796 109.058C6.44796 108.823 6.63649 108.632 6.87365 108.632Z" fill="#1A1A1A"></path> <path d="M0.360841 109.061C0.360841 108.991 0.415581 108.936 0.485514 108.936C0.555447 108.936 0.610168 108.991 0.610168 109.061C0.610168 109.131 0.555447 109.185 0.485514 109.185C0.415581 109.185 0.360841 109.131 0.360841 109.061Z" fill="#1A1A1A"></path> <path d="M6.54229 115.445C6.54229 115.26 6.69127 115.108 6.87979 115.108C7.06526 115.108 7.21729 115.257 7.21729 115.445C7.21729 115.631 7.0683 115.783 6.87979 115.783C6.69127 115.783 6.54229 115.634 6.54229 115.445Z" fill="#1A1A1A"></path> <path d="M0.436835 115.449C0.436835 115.418 0.461173 115.394 0.488538 115.394C0.515903 115.394 0.540222 115.418 0.540222 115.446C0.540222 115.476 0.515903 115.497 0.488538 115.497C0.461173 115.497 0.433792 115.473 0.433792 115.446L0.436835 115.449Z" fill="#1A1A1A"></path> <path d="M12.7784 121.828C12.7784 121.554 13.0004 121.332 13.274 121.332C13.5477 121.332 13.7696 121.554 13.7696 121.828C13.7696 122.101 13.5477 122.323 13.274 122.323C13.0004 122.323 12.7784 122.101 12.7784 121.828Z" fill="#1A1A1A"></path> <path d="M6.67301 121.833C6.67301 121.715 6.76727 121.621 6.88585 121.621C7.00443 121.621 7.09869 121.715 7.09869 121.833C7.09869 121.952 7.00443 122.046 6.88585 122.046C6.76727 122.046 6.67301 121.952 6.67301 121.833Z" fill="#1A1A1A"></path> <path d="M0.512817 121.838C0.512817 121.838 0.503472 121.856 0.494126 121.856C0.48478 121.856 0.475435 121.847 0.475435 121.838C0.475435 121.828 0.48478 121.819 0.494126 121.819C0.503472 121.819 0.512817 121.828 0.512817 121.838Z" fill="#1A1A1A"></path> <path d="M25.2598 128.207C25.2598 127.766 25.6156 127.41 26.0565 127.41C26.4973 127.41 26.8531 127.766 26.8531 128.207C26.8531 128.648 26.4973 129.003 26.0565 129.003C25.6156 129.003 25.2598 128.648 25.2598 128.207Z" fill="#1A1A1A"></path> <path d="M19.0998 128.21C19.0998 127.897 19.3522 127.641 19.6653 127.641C19.9785 127.641 20.2339 127.893 20.2339 128.207C20.2339 128.52 19.9816 128.775 19.6684 128.775C19.3552 128.775 19.0998 128.523 19.0998 128.21Z" fill="#1A1A1A"></path> <path d="M12.9608 128.216C12.9608 128.039 13.1037 127.896 13.2801 127.896C13.4564 127.896 13.5994 128.039 13.5994 128.216C13.5994 128.392 13.4564 128.535 13.2801 128.535C13.1037 128.535 12.9608 128.392 12.9608 128.216Z" fill="#1A1A1A"></path> <path d="M6.96182 128.222C6.96182 128.262 6.93142 128.292 6.8919 128.292C6.85237 128.292 6.82195 128.262 6.82195 128.222C6.82195 128.183 6.85237 128.152 6.8919 128.152C6.93142 128.152 6.96182 128.183 6.96182 128.222Z" fill="#1A1A1A"></path> <path d="M70.7831 133.546C71.3395 133.546 71.7925 133.996 71.7925 134.555C71.7925 135.112 71.3426 135.565 70.7831 135.565C70.2267 135.565 69.7736 135.115 69.7736 134.555C69.7736 133.999 70.2236 133.546 70.7831 133.546Z" fill="#1A1A1A"></path> <path d="M63.2942 134.562C63.2942 133.954 63.7837 133.464 64.3918 133.461C65 133.458 65.4895 133.95 65.4925 134.559C65.4925 135.164 65.003 135.656 64.3949 135.659C63.7868 135.659 63.2972 135.17 63.2942 134.562Z" fill="#1A1A1A"></path> <path d="M58.0037 133.452C58.6209 133.452 59.1195 133.95 59.1195 134.568C59.1195 135.185 58.6209 135.683 58.0037 135.683C57.3864 135.683 56.8878 135.185 56.8878 134.568C56.8878 133.95 57.3864 133.452 58.0037 133.452Z" fill="#1A1A1A"></path> <path d="M51.6154 133.473C52.2236 133.473 52.7131 133.963 52.7161 134.571C52.7161 135.179 52.2266 135.668 51.6185 135.671C51.0104 135.671 50.5209 135.182 50.5178 134.574C50.5148 133.966 51.0073 133.476 51.6154 133.473Z" fill="#1A1A1A"></path> <path d="M44.1995 134.579C44.1995 134.011 44.6586 133.552 45.2272 133.552C45.7958 133.552 46.2549 134.011 46.2549 134.579C46.2549 135.148 45.7958 135.607 45.2272 135.607C44.6586 135.607 44.1995 135.148 44.1995 134.579Z" fill="#1A1A1A"></path> <path d="M37.936 134.583C37.936 134.084 38.3404 133.68 38.839 133.68C39.3377 133.68 39.7421 134.084 39.7421 134.583C39.7421 135.081 39.3377 135.486 38.839 135.486C38.3404 135.486 37.936 135.081 37.936 134.583Z" fill="#1A1A1A"></path> <path d="M31.7059 134.589C31.7059 134.178 32.0373 133.844 32.4508 133.844C32.8613 133.844 33.1957 134.175 33.1957 134.589C33.1957 134.999 32.8643 135.334 32.4508 135.334C32.0403 135.334 31.7059 135.002 31.7059 134.589Z" fill="#1A1A1A"></path> <path d="M25.4941 134.595C25.4941 134.282 25.7464 134.029 26.0596 134.026C26.3728 134.026 26.6282 134.279 26.6282 134.592C26.6282 134.905 26.3758 135.161 26.0626 135.161C25.7495 135.161 25.4941 134.908 25.4941 134.595Z" fill="#1A1A1A"></path> <path d="M19.3186 134.601C19.3186 134.406 19.4767 134.245 19.6713 134.245C19.8659 134.245 20.0271 134.403 20.0271 134.598C20.0271 134.792 19.869 134.954 19.6744 134.954C19.4798 134.954 19.3186 134.795 19.3186 134.601Z" fill="#1A1A1A"></path> <path d="M13.1615 134.604C13.1615 134.534 13.2162 134.479 13.2862 134.479C13.3561 134.479 13.4108 134.534 13.4108 134.604C13.4108 134.674 13.3561 134.729 13.2862 134.729C13.2162 134.729 13.1615 134.674 13.1615 134.604Z" fill="#1A1A1A"></path> <path d="M70.0625 140.946C70.0625 140.545 70.3878 140.22 70.7892 140.22C71.1905 140.22 71.5159 140.545 71.5159 140.946C71.5159 141.348 71.1905 141.673 70.7892 141.673C70.3878 141.673 70.0625 141.348 70.0625 140.946Z" fill="#1A1A1A"></path> <path d="M63.6195 140.949C63.6195 140.518 63.9692 140.171 64.3979 140.168C64.8297 140.168 65.1763 140.518 65.1793 140.946C65.1793 141.378 64.8297 141.725 64.4009 141.728C63.9722 141.731 63.6226 141.378 63.6195 140.949Z" fill="#1A1A1A"></path> <path d="M57.1949 140.956C57.1949 140.506 57.5597 140.141 58.0097 140.141C58.4597 140.141 58.8246 140.506 58.8246 140.956C58.8246 141.406 58.4597 141.771 58.0097 141.771C57.5597 141.771 57.1949 141.406 57.1949 140.956Z" fill="#1A1A1A"></path> <path d="M50.8249 140.962C50.8249 140.521 51.1806 140.165 51.6215 140.165C52.0624 140.165 52.4181 140.521 52.4181 140.962C52.4181 141.403 52.0624 141.758 51.6215 141.758C51.1806 141.758 50.8249 141.403 50.8249 140.962Z" fill="#1A1A1A"></path> <path d="M44.5066 140.968C44.5066 140.567 44.832 140.241 45.2333 140.241C45.6347 140.241 45.96 140.567 45.96 140.968C45.96 141.369 45.6347 141.695 45.2333 141.695C44.832 141.695 44.5066 141.369 44.5066 140.968Z" fill="#1A1A1A"></path> <path d="M38.2249 140.971C38.2249 140.628 38.5016 140.351 38.8451 140.351C39.1887 140.351 39.4654 140.628 39.4654 140.971C39.4654 141.315 39.1887 141.592 38.8451 141.592C38.5016 141.592 38.2249 141.315 38.2249 140.971Z" fill="#1A1A1A"></path> <path d="M31.9583 140.977C31.9583 140.703 32.1802 140.481 32.4539 140.481C32.7275 140.481 32.9495 140.703 32.9495 140.977C32.9495 141.251 32.7275 141.473 32.4539 141.473C32.1802 141.473 31.9583 141.251 31.9583 140.977Z" fill="#1A1A1A"></path> <path d="M25.7494 140.983C25.7494 140.807 25.8923 140.664 26.0687 140.664C26.245 140.664 26.3879 140.807 26.3879 140.983C26.3879 141.16 26.245 141.303 26.0687 141.303C25.8923 141.303 25.7494 141.16 25.7494 140.983Z" fill="#1A1A1A"></path> <path d="M19.8021 140.989C19.8021 141.059 19.7473 141.114 19.6774 141.114C19.6075 141.114 19.5527 141.059 19.5527 140.989C19.5527 140.919 19.6075 140.864 19.6774 140.864C19.7473 140.864 19.8021 140.919 19.8021 140.989Z" fill="#1A1A1A"></path> <path d="M13.3075 140.993C13.3075 140.993 13.2981 141.012 13.2888 141.012C13.2795 141.012 13.2701 141.002 13.2701 140.993C13.2701 140.983 13.2795 140.974 13.2888 140.974C13.2981 140.974 13.3075 140.983 13.3075 140.993Z" fill="#1A1A1A"></path> <path d="M70.3848 147.335C70.3848 147.11 70.5672 146.928 70.7922 146.928C71.0172 146.928 71.1996 147.11 71.1996 147.335C71.1996 147.56 71.0172 147.743 70.7922 147.743C70.5672 147.743 70.3848 147.56 70.3848 147.335Z" fill="#1A1A1A"></path> <path d="M63.9266 147.338C63.9266 147.074 64.1395 146.861 64.404 146.861C64.6685 146.861 64.8814 147.074 64.8814 147.338C64.8814 147.603 64.6685 147.816 64.404 147.816C64.1395 147.816 63.9266 147.603 63.9266 147.338Z" fill="#1A1A1A"></path> <path d="M57.5202 147.344C57.5202 147.071 57.7422 146.849 58.0158 146.849C58.2895 146.849 58.5114 147.071 58.5114 147.344C58.5114 147.618 58.2895 147.84 58.0158 147.84C57.7422 147.84 57.5202 147.618 57.5202 147.344Z" fill="#1A1A1A"></path> <path d="M51.1503 147.35C51.1503 147.086 51.3631 146.873 51.6276 146.873C51.8922 146.873 52.105 147.086 52.105 147.35C52.105 147.615 51.8922 147.828 51.6276 147.828C51.3631 147.828 51.1503 147.615 51.1503 147.35Z" fill="#1A1A1A"></path> <path d="M44.8137 147.356C44.8137 147.122 45.0023 146.931 45.2394 146.931C45.4736 146.931 45.6651 147.119 45.6651 147.356C45.6651 147.59 45.4766 147.782 45.2394 147.782C45.0053 147.782 44.8137 147.594 44.8137 147.356Z" fill="#1A1A1A"></path> <path d="M38.5137 147.362C38.5137 147.177 38.6626 147.025 38.8512 147.025C39.0366 147.025 39.1887 147.174 39.1887 147.362C39.1887 147.548 39.0397 147.7 38.8512 147.7C38.6657 147.7 38.5137 147.551 38.5137 147.362Z" fill="#1A1A1A"></path> <path d="M32.2502 147.365C32.2502 147.247 32.3444 147.152 32.463 147.152C32.5816 147.152 32.6758 147.247 32.6758 147.365C32.6758 147.484 32.5816 147.578 32.463 147.578C32.3444 147.578 32.2502 147.484 32.2502 147.365Z" fill="#1A1A1A"></path> <path d="M26.1447 147.371C26.1447 147.411 26.1143 147.441 26.0748 147.441C26.0353 147.441 26.0049 147.411 26.0049 147.371C26.0049 147.332 26.0353 147.301 26.0748 147.301C26.1143 147.301 26.1447 147.332 26.1447 147.371Z" fill="#1A1A1A"></path> <path d="M70.923 153.723C70.923 153.793 70.8683 153.847 70.7983 153.847C70.7284 153.847 70.6736 153.793 70.6736 153.723C70.6736 153.653 70.7284 153.598 70.7983 153.598C70.8683 153.598 70.923 153.653 70.923 153.723Z" fill="#1A1A1A"></path> <path d="M64.5864 153.726C64.5864 153.823 64.5074 153.903 64.4101 153.903C64.3128 153.903 64.2337 153.823 64.2337 153.726C64.2337 153.629 64.3128 153.55 64.4101 153.55C64.5074 153.55 64.5864 153.629 64.5864 153.726Z" fill="#1A1A1A"></path> <path d="M58.2165 153.732C58.2165 153.839 58.1283 153.927 58.0219 153.927C57.9155 153.927 57.8273 153.839 57.8273 153.732C57.8273 153.626 57.9155 153.538 58.0219 153.538C58.1283 153.538 58.2165 153.626 58.2165 153.732Z" fill="#1A1A1A"></path> <path d="M51.81 153.738C51.81 153.836 51.731 153.915 51.6337 153.915C51.5364 153.915 51.4573 153.836 51.4573 153.738C51.4573 153.641 51.5364 153.562 51.6337 153.562C51.731 153.562 51.81 153.641 51.81 153.738Z" fill="#1A1A1A"></path> <path d="M45.3671 153.744C45.3671 153.814 45.3124 153.869 45.2424 153.869C45.1725 153.869 45.1178 153.814 45.1178 153.744C45.1178 153.674 45.1725 153.62 45.2424 153.62C45.3124 153.62 45.3671 153.674 45.3671 153.744Z" fill="#1A1A1A"></path> <path d="M38.9089 153.751C38.9089 153.781 38.8846 153.802 38.8573 153.802C38.8268 153.802 38.8055 153.778 38.8025 153.751C38.8025 153.72 38.8268 153.696 38.8542 153.696C38.8816 153.696 38.9059 153.72 38.9089 153.748V153.751Z" fill="#1A1A1A"></path> <path d="M32.4842 153.754C32.4842 153.754 32.4749 153.773 32.4655 153.773C32.4562 153.773 32.4468 153.763 32.4468 153.754C32.4468 153.745 32.4562 153.735 32.4655 153.735C32.4749 153.735 32.4842 153.745 32.4842 153.754Z" fill="#1A1A1A"></path> <path d="M147.387 0.415396C147.387 0.397153 147.402 0.378906 147.423 0.378906C147.445 0.378906 147.46 0.394112 147.46 0.415396C147.46 0.43668 147.445 0.451881 147.423 0.451881C147.402 0.451881 147.387 0.43668 147.387 0.415396Z" fill="#1A1A1A"></path> <path d="M140.944 0.421187C140.944 0.372538 140.983 0.333008 141.032 0.333008C141.081 0.333008 141.12 0.372538 141.12 0.421187C141.12 0.469835 141.081 0.509361 141.032 0.509361C140.983 0.509361 140.944 0.469835 140.944 0.421187Z" fill="#1A1A1A"></path> <path d="M134.504 0.427574C134.504 0.34852 134.568 0.284668 134.647 0.284668C134.726 0.284668 134.79 0.34852 134.79 0.427574C134.79 0.506629 134.726 0.570481 134.647 0.570481C134.568 0.570481 134.504 0.506629 134.504 0.427574Z" fill="#1A1A1A"></path> <path d="M128.098 0.433501C128.098 0.345325 128.167 0.275391 128.256 0.275391C128.344 0.275391 128.414 0.345325 128.414 0.433501C128.414 0.521677 128.344 0.591611 128.256 0.591611C128.167 0.591611 128.098 0.521677 128.098 0.433501Z" fill="#1A1A1A"></path> <path d="M121.725 0.436363C121.725 0.357309 121.788 0.293457 121.868 0.293457C121.947 0.293457 122.01 0.357309 122.01 0.436363C122.01 0.515418 121.947 0.57927 121.868 0.57927C121.788 0.57927 121.725 0.515418 121.725 0.436363Z" fill="#1A1A1A"></path> <path d="M115.373 0.442847C115.373 0.385077 115.421 0.336426 115.479 0.336426C115.537 0.336426 115.586 0.385077 115.586 0.442847C115.586 0.500618 115.537 0.549268 115.479 0.549268C115.421 0.549268 115.373 0.500618 115.373 0.442847Z" fill="#1A1A1A"></path> <path d="M109.036 0.448775C109.036 0.41837 109.061 0.397084 109.088 0.394043C109.118 0.394043 109.14 0.418367 109.14 0.445732C109.14 0.476137 109.115 0.497425 109.088 0.497425C109.058 0.497425 109.036 0.473097 109.033 0.445732L109.036 0.448775Z" fill="#1A1A1A"></path> <path d="M160.151 6.79447C160.151 6.76407 160.175 6.73975 160.203 6.73975C160.23 6.73975 160.254 6.76407 160.254 6.79143C160.254 6.8188 160.23 6.84312 160.203 6.84312C160.172 6.84312 160.148 6.8188 160.148 6.79143L160.151 6.79447Z" fill="#1A1A1A"></path> <path d="M153.656 6.80068C153.656 6.71251 153.726 6.64258 153.815 6.64258C153.903 6.64258 153.973 6.71251 153.973 6.80068C153.973 6.88886 153.903 6.9588 153.815 6.9588C153.726 6.9588 153.656 6.88886 153.656 6.80068Z" fill="#1A1A1A"></path> <path d="M147.73 6.80345C147.73 6.97068 147.597 7.10447 147.429 7.10447C147.262 7.10447 147.128 6.97068 147.128 6.80345C147.128 6.63622 147.262 6.50244 147.429 6.50244C147.597 6.50244 147.73 6.63622 147.73 6.80345Z" fill="#1A1A1A"></path> <path d="M141.43 6.8096C141.43 7.02548 141.257 7.19879 141.041 7.19879C140.825 7.19879 140.652 7.02548 140.652 6.8096C140.652 6.59372 140.825 6.42041 141.041 6.42041C141.257 6.42041 141.43 6.59372 141.43 6.8096Z" fill="#1A1A1A"></path> <path d="M135.094 6.8155C135.094 7.05874 134.896 7.25942 134.65 7.25942C134.407 7.25942 134.206 7.06179 134.206 6.8155C134.206 6.57226 134.404 6.37158 134.65 6.37158C134.893 6.37158 135.094 6.56922 135.094 6.8155Z" fill="#1A1A1A"></path> <path d="M128.721 6.82192C128.721 7.07733 128.514 7.28409 128.262 7.28409C128.006 7.28409 127.8 7.07733 127.8 6.82496C127.8 6.5726 128.006 6.36279 128.259 6.36279C128.514 6.36279 128.721 6.56955 128.721 6.82192Z" fill="#1A1A1A"></path> <path d="M122.314 6.82478C122.314 7.06802 122.117 7.2687 121.871 7.2687C121.627 7.2687 121.427 7.07106 121.427 6.82478C121.427 6.58153 121.624 6.38086 121.871 6.38086C122.114 6.38086 122.314 6.57849 122.314 6.82478Z" fill="#1A1A1A"></path> <path d="M115.875 6.8306C115.875 7.04648 115.701 7.21979 115.485 7.21979C115.269 7.21979 115.096 7.04648 115.096 6.8306C115.096 6.61472 115.269 6.44141 115.485 6.44141C115.701 6.44141 115.875 6.61472 115.875 6.8306Z" fill="#1A1A1A"></path> <path d="M109.398 6.83715C109.398 7.00438 109.264 7.13817 109.097 7.13817C108.93 7.13817 108.796 7.00438 108.796 6.83715C108.796 6.66992 108.93 6.53613 109.097 6.53613C109.264 6.53613 109.398 6.66992 109.398 6.83715Z" fill="#1A1A1A"></path> <path d="M102.53 6.84286C102.53 6.74556 102.609 6.6665 102.706 6.6665C102.803 6.6665 102.882 6.74556 102.882 6.84286C102.882 6.94016 102.803 7.01921 102.706 7.01921C102.609 7.01921 102.53 6.94016 102.53 6.84286Z" fill="#1A1A1A"></path> <path d="M96.266 6.84905C96.266 6.81864 96.2903 6.79736 96.3176 6.79736C96.3481 6.79736 96.3693 6.82168 96.3724 6.84905C96.3724 6.87945 96.3481 6.90074 96.3207 6.90074C96.2903 6.90074 96.269 6.87641 96.269 6.84905H96.266Z" fill="#1A1A1A"></path> <path d="M166.512 13.1765C166.512 13.1279 166.551 13.0884 166.6 13.0884C166.649 13.0884 166.688 13.1279 166.688 13.1765C166.688 13.2252 166.649 13.2647 166.6 13.2647C166.551 13.2647 166.512 13.2252 166.512 13.1765Z" fill="#1A1A1A"></path> <path d="M160.476 13.1825C160.476 13.3284 160.358 13.447 160.212 13.447C160.066 13.447 159.947 13.3284 159.947 13.1825C159.947 13.0365 160.066 12.918 160.212 12.918C160.358 12.918 160.476 13.0365 160.476 13.1825Z" fill="#1A1A1A"></path> <path d="M172.906 19.5618C172.906 19.5132 172.946 19.4736 172.994 19.4736C173.043 19.4736 173.083 19.5132 173.083 19.5618C173.083 19.6105 173.043 19.65 172.994 19.65C172.946 19.65 172.906 19.6105 172.906 19.5618Z" fill="#1A1A1A"></path> <path d="M166.907 19.5647C166.907 19.7319 166.773 19.8657 166.606 19.8657C166.439 19.8657 166.305 19.7319 166.305 19.5647C166.305 19.3975 166.439 19.2637 166.606 19.2637C166.773 19.2637 166.907 19.3975 166.907 19.5647Z" fill="#1A1A1A"></path> <path d="M179.334 25.9439C179.334 25.9135 179.358 25.8922 179.386 25.8892C179.416 25.8892 179.44 25.9135 179.44 25.9409C179.44 25.9682 179.416 25.9925 179.389 25.9956C179.358 25.9956 179.337 25.9713 179.337 25.9439H179.334Z" fill="#1A1A1A"></path> <path d="M173.265 25.9501C173.265 26.096 173.146 26.2146 173 26.2146C172.855 26.2146 172.736 26.096 172.736 25.9501C172.736 25.8041 172.855 25.6855 173 25.6855C173.146 25.6855 173.265 25.8041 173.265 25.9501Z" fill="#1A1A1A"></path> <path d="M179.553 32.3319C179.553 32.4201 179.483 32.49 179.395 32.49C179.307 32.49 179.237 32.4201 179.237 32.3319C179.237 32.2438 179.307 32.1738 179.395 32.1738C179.483 32.1738 179.553 32.2438 179.553 32.3319Z" fill="#1A1A1A"></path> <path d="M173.447 32.338C173.447 32.5812 173.25 32.7819 173.003 32.7819C172.76 32.7819 172.56 32.5843 172.56 32.338C172.56 32.0947 172.757 31.894 173.003 31.894C173.247 31.894 173.447 32.0917 173.447 32.338Z" fill="#1A1A1A"></path> <path d="M185.753 38.7171C185.753 38.6989 185.768 38.6807 185.789 38.6807C185.81 38.6807 185.826 38.6959 185.826 38.7171C185.826 38.7384 185.81 38.7536 185.789 38.7536C185.768 38.7536 185.753 38.7384 185.753 38.7171Z" fill="#1A1A1A"></path> <path d="M179.699 38.7204C179.699 38.8877 179.565 39.0215 179.398 39.0215C179.231 39.0215 179.097 38.8877 179.097 38.7204C179.097 38.5532 179.231 38.4194 179.398 38.4194C179.565 38.4194 179.699 38.5532 179.699 38.7204Z" fill="#1A1A1A"></path> <path d="M173.01 39.3102C172.687 39.3102 172.426 39.0487 172.426 38.7264C172.426 38.4041 172.687 38.1426 173.01 38.1426C173.332 38.1426 173.593 38.4041 173.593 38.7264C173.593 39.0487 173.332 39.3102 173.01 39.3102Z" fill="#1A1A1A"></path> <path d="M185.88 45.1053C185.88 45.1539 185.841 45.1934 185.792 45.1934C185.743 45.1934 185.704 45.1539 185.704 45.1053C185.704 45.0566 185.743 45.0171 185.792 45.0171C185.841 45.0171 185.88 45.0566 185.88 45.1053Z" fill="#1A1A1A"></path> <path d="M179.404 45.5005C179.188 45.5005 179.015 45.3272 179.015 45.1114C179.015 44.8955 179.188 44.7222 179.404 44.7222C179.62 44.7222 179.793 44.8955 179.793 45.1114C179.793 45.3272 179.62 45.5005 179.404 45.5005Z" fill="#1A1A1A"></path> <path d="M173.016 45.8077C172.633 45.8077 172.325 45.4975 172.325 45.1175C172.325 44.7374 172.636 44.4272 173.016 44.4272C173.399 44.4272 173.706 44.7374 173.706 45.1175C173.706 45.4975 173.396 45.8077 173.016 45.8077Z" fill="#1A1A1A"></path> <path d="M185.941 51.4935C185.941 51.5725 185.877 51.6364 185.798 51.6364C185.719 51.6364 185.655 51.5725 185.655 51.4935C185.655 51.4144 185.719 51.3506 185.798 51.3506C185.877 51.3506 185.941 51.4144 185.941 51.4935Z" fill="#1A1A1A"></path> <path d="M179.41 51.9406C179.167 51.9406 178.966 51.7429 178.966 51.4967C178.966 51.2534 179.164 51.0527 179.41 51.0527C179.653 51.0527 179.854 51.2504 179.854 51.4967C179.854 51.7399 179.656 51.9406 179.41 51.9406Z" fill="#1A1A1A"></path> <path d="M185.804 57.7236C185.892 57.7236 185.962 57.7936 185.962 57.8817C185.962 57.9699 185.892 58.0399 185.804 58.0399C185.716 58.0399 185.646 57.9699 185.643 57.8817C185.643 57.7936 185.713 57.7236 185.801 57.7236H185.804Z" fill="#1A1A1A"></path> <path d="M179.416 58.3471C179.161 58.3471 178.954 58.1403 178.954 57.888C178.954 57.6325 179.161 57.4258 179.413 57.4258C179.668 57.4258 179.875 57.6325 179.875 57.8849C179.875 58.1403 179.668 58.3471 179.416 58.3471Z" fill="#1A1A1A"></path> <path d="M5.66352 41.3595C5.90068 39.5017 6.16824 37.6439 6.49054 35.7892C6.81284 33.9344 7.18379 32.0858 7.63988 30.2432C8.099 28.4006 8.63111 26.5641 9.36388 24.7489C9.45206 24.5209 9.55542 24.2959 9.64968 24.0709C9.75306 23.8459 9.85036 23.6209 9.96286 23.3959C10.1787 22.9459 10.419 22.4989 10.6896 22.058C10.9602 21.6171 11.2612 21.1793 11.62 20.7567C11.7142 20.6533 11.7994 20.5469 11.8997 20.4435L12.0487 20.2915L12.1247 20.2154L12.1916 20.1516L12.7237 19.659C12.8119 19.5769 12.9 19.4948 12.9912 19.4127L13.2679 19.1725C13.4534 19.0144 13.6328 18.8533 13.8244 18.6982L14.399 18.2391C14.4933 18.16 14.5936 18.087 14.6939 18.0141L14.995 17.7952C15.7977 17.2144 16.6551 16.6823 17.5582 16.2353C18.4582 15.7853 19.3977 15.4266 20.3099 15.1225C21.222 14.8185 22.1038 14.557 22.946 14.2651C23.767 13.9945 24.5849 13.7634 25.3937 13.5809L26.0018 13.4411C26.2055 13.3955 26.4062 13.359 26.6068 13.3164C27.0112 13.2374 27.4156 13.1522 27.817 13.0884C28.6227 12.9424 29.4285 12.8208 30.2342 12.6992C31.04 12.5897 31.8427 12.4772 32.6454 12.386C33.4481 12.2826 34.2539 12.2036 35.0566 12.1154C35.8593 12.0394 36.662 11.9542 37.4647 11.8874L38.6687 11.7809L39.8728 11.6867C40.6755 11.6198 41.4782 11.5651 42.2809 11.5103C48.7026 11.0664 55.1212 10.8232 61.5367 10.6498C67.9523 10.4796 74.3679 10.3944 80.7835 10.364C87.199 10.3306 93.6116 10.3549 100.024 10.4218C106.437 10.4887 112.849 10.6012 119.262 10.7654C125.674 10.9326 132.087 11.1485 138.508 11.4738C140.114 11.5559 141.719 11.6502 143.331 11.7596C144.136 11.8144 144.942 11.8752 145.751 11.9421C146.56 12.009 147.372 12.085 148.205 12.1884C148.415 12.2157 148.618 12.237 148.837 12.2735C149.056 12.31 149.26 12.3343 149.506 12.386L149.682 12.4225L149.771 12.4407C149.801 12.4468 149.828 12.4529 149.853 12.459L150.154 12.5289C150.354 12.5745 150.555 12.6262 150.756 12.6779C151.561 12.8816 152.367 13.1066 153.167 13.359C153.267 13.3924 153.368 13.4259 153.468 13.4593C153.41 13.3833 153.374 13.2921 153.374 13.1887C153.374 12.9455 153.571 12.7448 153.818 12.7448C154.061 12.7448 154.262 12.9424 154.262 13.1887C154.262 13.3955 154.122 13.5657 153.93 13.6144C154.471 13.8029 155.009 14.0005 155.542 14.2134C156.323 14.5357 157.098 14.8732 157.852 15.2593C159.367 16.0195 160.826 16.9012 162.191 17.9168L162.699 18.3029L162.951 18.4975C163.04 18.5675 163.137 18.6526 163.231 18.7286C163.602 19.0479 163.943 19.3854 164.25 19.735C164.87 20.4344 165.381 21.1732 165.837 21.9212C166.746 23.4232 167.433 24.9769 168.029 26.5398C168.619 28.1057 169.112 29.6868 169.543 31.2739C170.404 34.4513 171.027 37.6561 171.532 40.8669C172.037 44.0807 172.408 47.3007 172.69 50.5267C172.699 50.6179 172.706 50.7061 172.712 50.7973C172.803 50.7578 172.906 50.7365 173.013 50.7365C173.432 50.7365 173.776 51.0771 173.776 51.4967C173.776 51.9163 173.435 52.2598 173.016 52.2598C172.952 52.2598 172.888 52.2507 172.83 52.2355C172.955 53.8622 173.058 55.4889 173.137 57.1156C173.511 57.1734 173.8 57.4957 173.8 57.8849C173.8 58.2497 173.548 58.5568 173.207 58.642C173.277 60.2899 173.323 61.9379 173.35 63.5859C173.609 63.7075 173.785 63.969 173.785 64.2731C173.785 64.5711 173.615 64.8265 173.368 64.9511C173.384 66.6052 173.381 68.2592 173.359 69.9133C173.359 69.9589 173.359 70.0076 173.359 70.0532C173.575 70.1687 173.724 70.3998 173.724 70.6613C173.724 70.9349 173.566 71.1691 173.338 71.2816C173.301 72.9843 173.244 74.687 173.165 76.3897C173.429 76.4475 173.624 76.6785 173.627 76.9613C173.627 76.9765 173.627 76.9917 173.627 77.0069C173.627 77.0221 173.627 77.0373 173.627 77.0525C173.627 77.3535 173.399 77.6029 173.104 77.6333C173.067 78.2931 173.031 78.9498 172.988 79.6096C172.921 80.6495 172.845 81.6863 172.76 82.7232C172.848 82.6836 172.943 82.6593 173.046 82.6593C173.426 82.6593 173.736 82.9694 173.736 83.3495C173.736 83.7296 173.426 84.0397 173.046 84.0397C172.903 84.0397 172.769 83.9972 172.657 83.9211C172.642 84.0975 172.626 84.2738 172.611 84.4502C172.462 86.0647 172.289 87.6762 172.094 89.2847C171.699 92.5046 171.2 95.7215 170.559 98.9202C169.911 102.119 169.121 105.305 168.069 108.452C167.54 110.024 166.941 111.584 166.232 113.123C165.521 114.658 164.706 116.175 163.675 117.62C163.158 118.34 162.59 119.043 161.939 119.705C161.617 120.037 161.267 120.356 160.902 120.663L160.714 120.812C161.045 120.967 161.273 121.302 161.273 121.694C161.273 122.232 160.838 122.67 160.3 122.67C159.804 122.67 159.394 122.299 159.333 121.819C158.083 122.676 156.77 123.43 155.423 124.096C155.234 124.193 155.04 124.284 154.848 124.373C154.654 124.461 154.462 124.555 154.268 124.64C153.878 124.811 153.489 124.981 153.094 125.136C152.309 125.452 151.513 125.747 150.719 126.008C150.321 126.139 149.926 126.267 149.53 126.389L148.944 126.565C148.749 126.623 148.567 126.68 148.36 126.735L147.645 126.93C148.235 126.988 148.697 127.486 148.697 128.091C148.697 128.736 148.174 129.262 147.53 129.262C146.885 129.262 146.359 128.739 146.359 128.094C146.359 127.705 146.551 127.362 146.843 127.149L146.535 127.231C146.332 127.286 146.131 127.325 145.93 127.374C144.763 127.65 143.598 127.888 142.434 128.1C142.434 128.815 141.856 129.393 141.142 129.396C140.573 129.396 140.093 129.031 139.919 128.523L139.874 128.529C139.469 128.593 139.068 128.663 138.663 128.712L136.243 129.037C136.076 129.058 135.909 129.076 135.741 129.095C135.489 129.347 135.139 129.505 134.753 129.505C134.48 129.505 134.227 129.426 134.011 129.292C131.533 129.56 129.055 129.776 126.577 129.961L124.163 130.125L123.558 130.165L122.953 130.198L121.746 130.265C120.137 130.363 118.526 130.426 116.917 130.499C110.897 130.743 104.883 130.849 98.8687 130.873C98.665 131.317 98.4825 131.767 98.3214 132.223C98.0325 133.044 97.8349 133.89 97.7041 134.744C97.4548 136.456 97.5369 138.219 97.9018 139.956C97.993 140.39 98.1025 140.822 98.2271 141.251C98.3548 141.68 98.4916 142.108 98.6528 142.528C98.8109 142.95 98.9812 143.37 99.1667 143.784L99.3096 144.094C99.3521 144.188 99.3977 144.3 99.4403 144.404C99.4798 144.51 99.5163 144.626 99.5528 144.735C99.6836 145.188 99.7443 145.684 99.7079 146.173C99.6714 146.663 99.5467 147.146 99.346 147.581C99.1454 148.016 98.8748 148.411 98.5525 148.746C97.9048 149.415 97.0383 149.88 96.0744 150.008C95.594 150.071 95.0984 150.047 94.6332 149.941C94.5146 149.913 94.3991 149.886 94.2896 149.846C94.1771 149.81 94.0646 149.773 93.9582 149.725C93.8518 149.682 93.7453 149.634 93.645 149.582L93.493 149.503L93.4565 149.482L93.4352 149.469L93.3926 149.442L92.7055 149.025C92.4774 148.886 92.2433 148.752 92.0274 148.6C91.4741 148.238 90.9359 147.855 90.4129 147.463C90.3491 147.66 90.1636 147.803 89.9446 147.803C89.671 147.803 89.449 147.581 89.449 147.308C89.449 147.134 89.5402 146.979 89.674 146.891C88.7801 146.18 87.9227 145.432 87.1048 144.65C86.0527 143.644 85.0585 142.583 84.119 141.482C83.973 141.628 83.7723 141.722 83.5504 141.722C83.1095 141.722 82.7537 141.366 82.7537 140.925C82.7537 140.649 82.8966 140.402 83.1125 140.26C83.0517 140.181 82.9879 140.105 82.927 140.025C80.6223 137.079 78.6794 133.88 77.0861 130.512C70.0473 130.308 63.0114 130.025 55.9786 129.651C54.7229 129.584 53.4641 129.514 52.2083 129.441C52.0289 129.526 51.8283 129.575 51.6154 129.575C51.3448 129.575 51.0894 129.496 50.8766 129.362C49.3137 129.268 47.7539 129.168 46.1941 129.064C45.9539 129.326 45.6103 129.493 45.2272 129.493C44.7802 129.493 44.385 129.268 44.1478 128.927C42.7461 128.827 41.3444 128.727 39.9458 128.617C39.7755 129.061 39.3437 129.377 38.839 129.377C38.2674 129.377 37.79 128.973 37.6775 128.435C36.3488 128.325 35.017 128.207 33.6883 128.082C33.6032 128.073 33.518 128.067 33.4329 128.058C33.439 128.103 33.4451 128.149 33.4451 128.195C33.4451 128.742 33.0011 129.186 32.4538 129.189C31.9065 129.189 31.4626 128.745 31.4596 128.198C31.4596 128.082 31.4809 127.97 31.5174 127.866C30.3802 127.748 29.24 127.62 28.0937 127.474C27.6254 127.416 27.1541 127.346 26.6798 127.279L25.9623 127.164L25.5974 127.1C25.4758 127.079 25.3541 127.057 25.2264 127.03L24.8433 126.951C24.7095 126.921 24.5606 126.881 24.4207 126.845L24.3143 126.817L24.2261 126.79L24.0467 126.735C23.9281 126.699 23.8095 126.662 23.691 126.623C23.4538 126.544 23.2166 126.468 22.9825 126.379C22.7453 126.297 22.5143 126.206 22.2801 126.112C20.4132 125.373 18.6649 124.373 17.0686 123.226C16.269 122.652 15.4967 122.047 14.7669 121.408L14.4903 121.171L14.2196 120.928L13.6784 120.435C13.2649 120.046 12.9031 119.636 12.5747 119.216C12.2433 118.796 11.9514 118.365 11.6838 117.927C11.4101 117.492 11.17 117.048 10.9389 116.604C10.4828 115.713 10.0906 114.813 9.73787 113.907C9.03854 112.092 8.48818 110.258 8.01386 108.416C7.56386 106.664 7.18685 104.907 6.85543 103.147C6.60002 103.137 6.3963 102.928 6.3963 102.669C6.3963 102.472 6.51487 102.301 6.68818 102.228C6.39325 100.586 6.13478 98.9445 5.90674 97.2996C5.39592 93.581 5.025 89.8533 4.75439 86.1255C4.48378 82.3948 4.31047 78.664 4.21621 74.9302C4.03073 67.4657 4.15539 59.995 4.62668 52.5365C4.86688 48.8088 5.20136 45.0811 5.6696 41.3625L5.66352 41.3595ZM7.01046 70.6248C7.01046 70.6886 7.01046 70.7525 7.01046 70.8164C7.03174 72.1603 7.06217 73.5042 7.10474 74.8451C7.22332 78.5333 7.424 82.2215 7.71893 85.8945C8.01387 89.5675 8.4061 93.2313 8.93516 96.8648C9.20272 98.68 9.5007 100.489 9.85037 102.286C10.197 104.08 10.5953 105.862 11.0605 107.61C11.5287 109.358 12.0639 111.082 12.7145 112.727C13.0429 113.548 13.4017 114.345 13.797 115.105C13.9977 115.482 14.2044 115.853 14.4294 116.203C14.6514 116.555 14.8825 116.89 15.1288 117.197C15.375 117.504 15.6305 117.79 15.898 118.036L16.3906 118.477L16.6399 118.699L16.8923 118.912C17.5642 119.487 18.2605 120.022 18.972 120.523C19.2548 120.724 19.5436 120.913 19.8325 121.101C19.9663 121.186 20.1001 121.271 20.2369 121.353C21.2828 121.995 22.3714 122.548 23.5025 122.983C23.7001 123.059 23.9008 123.135 24.1045 123.205C24.3052 123.278 24.5089 123.342 24.7156 123.409C24.816 123.442 24.9224 123.473 25.0258 123.503L25.1808 123.549L25.2568 123.573L25.3207 123.588L25.5731 123.649L25.8741 123.71C25.9714 123.731 26.0778 123.749 26.1873 123.768L26.5065 123.822L27.1663 123.92C27.6102 123.98 28.0572 124.041 28.5102 124.093C30.3194 124.309 32.1559 124.479 33.9924 124.64C37.6684 124.953 41.3627 125.203 45.0569 125.428C48.7542 125.65 52.4516 125.838 56.1519 126.005C63.5526 126.343 70.9625 126.58 78.3693 126.726L79.5703 126.75L80.075 127.863C80.8656 129.599 81.7564 131.29 82.7446 132.923C82.8693 133.126 82.9939 133.33 83.1216 133.534C83.5017 134.145 83.897 134.744 84.3075 135.337C84.8456 136.115 85.4081 136.875 85.995 137.617C86.9831 138.858 88.0352 140.041 89.1511 141.147C89.3457 141.342 89.5433 141.534 89.744 141.725C89.7713 141.749 89.7987 141.777 89.8261 141.804C91.1943 143.096 92.6568 144.276 94.2014 145.283C94.3899 145.416 94.5906 145.526 94.7852 145.647L95.3751 146.003L95.4116 146.024L95.4298 146.037H95.4328C95.4328 146.037 95.442 146.043 95.4481 146.046C95.4572 146.052 95.4663 146.055 95.4724 146.058C95.4785 146.064 95.4876 146.064 95.4906 146.064C95.4967 146.067 95.4998 146.067 95.5058 146.067C95.5241 146.07 95.5302 146.067 95.5423 146.067C95.5666 146.067 95.6244 146.037 95.667 145.994C95.6883 145.973 95.7004 145.948 95.7065 145.933C95.7126 145.918 95.7126 145.912 95.7126 145.906C95.7126 145.9 95.7126 145.894 95.7065 145.872C95.7004 145.866 95.7004 145.86 95.7004 145.851C95.6943 145.839 95.6943 145.839 95.6852 145.818L95.5149 145.45C95.293 144.957 95.0862 144.459 94.8947 143.951C94.7031 143.443 94.5298 142.926 94.3747 142.403C94.2166 141.88 94.0798 141.348 93.9673 140.813C93.4991 138.666 93.3835 136.401 93.7028 134.178C93.87 133.069 94.1254 131.974 94.4933 130.919C94.7122 130.284 94.9646 129.663 95.2474 129.058C95.4359 128.657 95.6335 128.265 95.8464 127.878L96.418 126.839H96.7737L97.616 126.832C104.001 126.799 110.383 126.693 116.75 126.428C118.34 126.355 119.934 126.291 121.521 126.194L122.713 126.127L123.309 126.094L123.905 126.054L126.282 125.896C129.451 125.662 132.61 125.376 135.745 124.999C138.873 124.607 141.987 124.123 144.994 123.427C145.182 123.384 145.374 123.348 145.556 123.296L146.11 123.147L146.824 122.956L147.213 122.852C147.393 122.807 147.594 122.743 147.782 122.688L148.345 122.518C148.491 122.472 148.636 122.427 148.779 122.384C149.001 122.314 149.223 122.244 149.442 122.171C150.169 121.934 150.877 121.673 151.577 121.393C151.929 121.256 152.273 121.104 152.617 120.955C152.79 120.879 152.957 120.797 153.127 120.721C153.298 120.642 153.468 120.563 153.635 120.478C154.979 119.818 156.274 119.064 157.481 118.197L157.934 117.872L158.047 117.79L158.141 117.714L158.33 117.565C158.576 117.355 158.822 117.136 159.059 116.893C159.254 116.695 159.446 116.482 159.631 116.264C159.896 115.956 160.151 115.631 160.397 115.291C160.604 115.005 160.802 114.71 160.993 114.409C161.583 113.481 162.112 112.484 162.593 111.45C163.231 110.082 163.788 108.65 164.286 107.187C164.785 105.719 165.229 104.22 165.624 102.706C165.694 102.435 165.764 102.161 165.831 101.888C166.141 100.65 166.424 99.4006 166.685 98.1448C166.749 97.8377 166.81 97.5307 166.871 97.2266C167.001 96.5577 167.126 95.8888 167.248 95.2168C167.625 93.0945 167.947 90.96 168.224 88.8164C169.02 82.5438 169.449 76.2042 169.586 69.8616C169.717 63.516 169.562 57.1612 169.063 50.846C168.811 47.6899 168.473 44.5399 168.011 41.4203C167.588 38.5865 167.071 35.774 166.387 33.0223C166.317 32.7456 166.25 32.4658 166.177 32.1891C166.15 32.0858 166.123 31.9793 166.092 31.876C165.718 30.4773 165.293 29.0999 164.803 27.7621C164.274 26.33 163.663 24.9374 162.921 23.6938C162.55 23.0736 162.149 22.4867 161.708 21.985C161.489 21.7296 161.261 21.5016 161.027 21.2979C160.966 21.2462 160.914 21.2006 160.847 21.1458L160.625 20.9725L160.181 20.6259C158.983 19.7168 157.7 18.9262 156.356 18.2391C155.688 17.8894 154.997 17.5823 154.298 17.2874C153.599 16.9985 152.884 16.737 152.16 16.4968C151.434 16.2597 150.701 16.0468 149.953 15.8522C149.768 15.8036 149.579 15.7549 149.391 15.7093L149.108 15.6394C149.083 15.6333 149.062 15.6272 149.044 15.6242L148.986 15.612L148.871 15.5877C148.728 15.5543 148.53 15.5269 148.357 15.4965C148.183 15.4661 147.986 15.4448 147.8 15.4174C147.043 15.3171 146.262 15.238 145.474 15.1651C144.69 15.0921 143.899 15.0252 143.106 14.9674C141.522 14.8458 139.931 14.7394 138.338 14.6451C132.975 14.3259 127.593 14.0978 122.211 13.9063C121.977 13.8972 121.74 13.888 121.506 13.882C120.73 13.8546 119.955 13.8272 119.18 13.8029C118.115 13.7695 117.054 13.736 115.99 13.7056C115.65 13.6965 115.309 13.6843 114.968 13.6752C113.181 13.6235 111.396 13.5749 109.608 13.5293C109.267 13.5201 108.93 13.5141 108.589 13.5049C106.777 13.4624 104.962 13.4228 103.15 13.3863C102.858 13.3803 102.569 13.3742 102.277 13.3711C101.514 13.3559 100.754 13.3407 99.9907 13.3286C98.8626 13.3103 97.7346 13.2951 96.6065 13.2799C96.421 13.2799 96.2325 13.2738 96.047 13.2738C94.0433 13.2465 92.0396 13.2252 90.0359 13.21C89.972 13.21 89.9051 13.21 89.8413 13.21C80.4277 13.134 71.0142 13.1735 61.6097 13.3894C58.4141 13.4654 55.2185 13.5657 52.0289 13.6934C48.8363 13.8242 45.6498 13.9823 42.4694 14.2012C41.6758 14.256 40.8792 14.3107 40.0856 14.3745L38.8937 14.4688L37.7049 14.5722C36.9113 14.6391 36.1207 14.7212 35.3302 14.7972C34.5427 14.8823 33.7522 14.9614 32.9647 15.0617C32.1772 15.1529 31.3957 15.2593 30.6113 15.3658L29.4437 15.5421C29.0545 15.5968 28.6714 15.6728 28.2822 15.7367C27.893 15.8006 27.5129 15.8796 27.1329 15.9526C26.9413 15.9921 26.7498 16.0256 26.5613 16.0681L25.9987 16.1958C25.2447 16.3631 24.521 16.5729 23.8187 16.8009C22.9065 17.1171 22.0065 17.3847 21.1582 17.6705C20.3099 17.9563 19.5102 18.2634 18.7501 18.6435C17.9899 19.0205 17.2663 19.4705 16.5639 19.9783L16.3024 20.1698C16.2142 20.2337 16.1261 20.2975 16.044 20.3675L15.5331 20.7779C15.3629 20.9178 15.1987 21.0637 15.0314 21.2067L14.7821 21.4225C14.7 21.4955 14.6179 21.5746 14.5389 21.6475L14.0494 22.1006L13.9886 22.1553L13.9429 22.204L13.8487 22.2982C13.7849 22.359 13.7271 22.435 13.6662 22.5019C13.423 22.7877 13.195 23.1161 12.9821 23.4658C12.7662 23.8154 12.5686 24.1894 12.3831 24.5756C12.2858 24.7671 12.2007 24.9678 12.1095 25.1624C12.0243 25.3631 11.9362 25.5607 11.8571 25.7675C11.5287 26.5824 11.2368 27.4246 10.9754 28.2851C10.7139 29.1425 10.4767 30.0182 10.2608 30.8969C9.4034 34.427 8.82874 38.0605 8.37266 41.7061C7.92266 45.3578 7.61249 49.0308 7.39053 52.7129C7.03478 58.6754 6.91928 64.6562 7.00745 70.6309L7.01046 70.6248Z" fill="#1A1A1A"></path> <path d="M185.81 64.1304C185.889 64.1304 185.953 64.1942 185.953 64.2733C185.953 64.3523 185.889 64.4162 185.81 64.4162C185.731 64.4162 185.667 64.3523 185.667 64.2733C185.667 64.1942 185.731 64.1304 185.81 64.1304Z" fill="#1A1A1A"></path> <path d="M179.419 63.832C179.662 63.832 179.863 64.0297 179.863 64.2759C179.863 64.5192 179.665 64.7199 179.419 64.7199C179.176 64.7199 178.975 64.5222 178.975 64.2759C178.975 64.0327 179.173 63.832 179.419 63.832Z" fill="#1A1A1A"></path> <path d="M185.813 70.5518C185.871 70.5518 185.92 70.6004 185.92 70.6582C185.92 70.7159 185.871 70.7646 185.813 70.7646C185.756 70.7646 185.707 70.7159 185.707 70.6582C185.707 70.6004 185.756 70.5518 185.813 70.5518Z" fill="#1A1A1A"></path> <path d="M179.425 70.2749C179.641 70.2749 179.814 70.4482 179.814 70.6641C179.814 70.88 179.641 71.0533 179.425 71.0533C179.209 71.0533 179.036 70.88 179.036 70.6641C179.036 70.4482 179.209 70.2749 179.425 70.2749Z" fill="#1A1A1A"></path> <path d="M185.874 77.0492C185.874 77.0796 185.85 77.1009 185.822 77.104C185.792 77.104 185.768 77.0797 185.768 77.0523C185.768 77.0219 185.792 77.0006 185.819 76.9976C185.85 76.9976 185.874 77.0219 185.874 77.0492Z" fill="#1A1A1A"></path> <path d="M179.431 77.3534C179.264 77.3534 179.13 77.2196 179.13 77.0524C179.13 77.0372 179.13 77.022 179.133 77.0068C179.133 76.9916 179.13 76.9764 179.13 76.9612C179.13 76.7939 179.264 76.6602 179.431 76.6602C179.598 76.6602 179.732 76.7939 179.732 76.9612C179.732 76.9764 179.732 76.9916 179.729 77.0068C179.729 77.022 179.732 77.0372 179.732 77.0524C179.732 77.2196 179.598 77.3534 179.431 77.3534Z" fill="#1A1A1A"></path> <path d="M45.1907 6.3595C18.4795 6.74261 2.40405 11.7565 0.670936 40.8668C-1.7463 15.4508 9.86861 3.17603 45.1907 6.3595Z" fill="#1A1A1A"></path> <path d="M28.1721 63.9463H29.6076C30.1454 64.3747 30.4644 64.5889 30.5647 64.5889C30.7014 64.5889 31.2346 64.5342 32.1643 64.4248C35.6734 64.4248 38.5445 66.7126 40.7776 71.2881C41.1968 72.9014 41.4065 74.1227 41.4065 74.9521C41.4065 78.8076 38.8043 81.624 33.5998 83.4014C32.342 83.611 31.066 83.7705 29.7717 83.8799C24.8134 83.6156 21.7281 81.5967 20.5158 77.8232C20.3335 77.2581 20.174 76.4606 20.0373 75.4307C20.0373 72.1585 21.6324 69.0732 24.8225 66.1748C24.8225 65.6462 25.301 65.277 26.258 65.0674C27.0328 64.32 27.6708 63.9463 28.1721 63.9463ZM23.2365 75.2666C23.2365 77.0166 24.1389 78.4521 25.9436 79.5732C26.9826 80.2113 28.1493 80.5303 29.4436 80.5303H30.2502C32.4559 80.5303 34.4201 79.7327 36.1428 78.1377C36.8902 77.2262 37.2639 76.2692 37.2639 75.2666C37.2639 73.6077 36.2522 71.8532 34.2287 70.0029C32.2144 69.2646 30.355 68.417 28.6506 67.46H28.4865C27.1194 67.46 25.5289 69.374 23.7151 73.2021C23.4963 73.8128 23.3368 74.501 23.2365 75.2666ZM60.2873 63.7822C61.454 63.7822 62.1968 64.4202 62.5158 65.6963V66.5029C62.5158 67.3141 61.7183 68.1117 60.1233 68.8955C56.76 70.3994 52.1343 74.223 46.2463 80.3662C43.7489 83.529 42.2085 85.3382 41.6252 85.7939H40.8322C40.4039 85.5843 40.1897 85.2653 40.1897 84.8369C40.855 81.9111 45.107 76.488 52.9455 68.5674C56.5822 65.3773 59.0295 63.7822 60.2873 63.7822ZM44.8244 66.8174C46.2007 66.9632 46.8889 67.6012 46.8889 68.7314C46.8889 69.9072 46.0914 70.8096 44.4963 71.4385H43.8674C42.9286 71.4385 42.3407 70.7503 42.1037 69.374C42.6597 67.6696 43.5666 66.8174 44.8244 66.8174ZM54.3811 76.7021H55.1877C56.2085 76.7021 56.7919 77.4997 56.9377 79.0947C56.5731 80.7992 55.8804 81.6514 54.8596 81.6514H54.0666C52.9638 81.6514 52.3257 80.9587 52.1526 79.5732V79.0947C52.1526 78.0921 52.8954 77.2946 54.3811 76.7021ZM95.4104 63.6318C99.0835 63.6318 101.476 64.3747 102.588 65.8604C102.907 66.2705 103.067 66.749 103.067 67.2959V67.7744C103.067 68.7861 102.324 69.529 100.838 70.0029H100.196C99.6669 69.7113 99.4026 69.2327 99.4026 68.5674C97.8622 67.9294 96.1076 67.6104 94.1389 67.6104H92.7033C88.7932 67.6104 85.4983 68.9411 82.8186 71.6025L82.6545 72.2451C82.6545 73.0381 85.4162 73.9404 90.9397 74.9521C96.0438 76.4014 98.5959 78.1559 98.5959 80.2158V81.3232C98.5959 83.1917 96.3127 84.8962 91.7463 86.4365C90.8895 86.6462 89.9826 86.751 89.0256 86.751H88.2326C84.6233 86.751 82.1806 85.0511 80.9045 81.6514C80.6858 81.1592 80.5764 80.626 80.5764 80.0518C80.8589 78.9854 81.3921 78.4521 82.176 78.4521H82.4904C82.9553 78.4521 83.2242 79.3044 83.2971 81.0088C84.2177 83.1325 86.077 84.1943 88.8752 84.1943C90.8987 84.1943 93.077 83.292 95.4104 81.4873C95.5197 81.305 95.5744 81.0908 95.5744 80.8447C95.5744 79.6325 91.3726 78.1468 82.969 76.3877C80.7359 75.3213 79.6194 74.2048 79.6194 73.0381V71.7666C79.6194 69.488 82.1168 67.2549 87.1115 65.0674C90.0829 64.1104 92.8492 63.6318 95.4104 63.6318ZM113.498 63.4678H115.412C117.454 63.4678 119.528 63.9463 121.633 64.9033L122.262 65.6963V66.5029C122.262 66.667 122.052 66.8766 121.633 67.1318C118.188 66.6032 115.845 66.3389 114.606 66.3389C110.249 66.5667 108.071 67.5238 108.071 69.21C107.651 70.3766 107.332 72.0765 107.113 74.3096C107.332 74.346 107.442 74.4508 107.442 74.624C109.365 74.305 112.605 74.0954 117.162 73.9951C118.438 74.2594 119.076 74.8428 119.076 75.7451V76.7021C118.803 77.2673 118.379 77.6911 117.805 77.9736H113.649C112.473 77.9736 110.294 77.8688 107.113 77.6592L106.799 78.1377V78.4521C106.799 80.7946 107.487 81.9658 108.863 81.9658C110.13 81.9658 114.173 81.4326 120.99 80.3662C121.638 80.266 122.435 80.2158 123.383 80.2158C124.449 80.5986 124.983 81.182 124.983 81.9658C124.983 83.4515 123.438 84.1943 120.348 84.1943C115.399 84.9417 111.785 85.3154 109.506 85.3154C105.678 85.3154 103.764 83.137 103.764 78.7803V78.3018C104.429 69.8981 105.386 65.6963 106.635 65.6963C108.294 64.2106 110.582 63.4678 113.498 63.4678ZM128.223 63.6318C129.18 63.7959 129.658 64.2744 129.658 65.0674L128.537 77.6592C128.537 79.5732 129.23 80.5303 130.615 80.5303H131.244C136.494 80.2113 139.315 80.0518 139.707 80.0518H141.143C142.1 80.5804 142.578 81.2184 142.578 81.9658V82.2803C142.578 83.8753 141.248 84.6729 138.586 84.6729C138.586 84.7822 137.893 84.8369 136.508 84.8369C131.705 84.8369 128.679 84.3037 127.43 83.2373C126.254 82.3805 125.666 80.8402 125.666 78.6162V77.9736C126.24 68.4124 127.038 63.6318 128.059 63.6318H128.223ZM145.832 63.6318C146.789 63.7959 147.268 64.2744 147.268 65.0674L146.147 77.6592C146.147 79.5732 146.839 80.5303 148.225 80.5303H148.854C154.104 80.2113 156.925 80.0518 157.317 80.0518H158.752C159.709 80.5804 160.188 81.2184 160.188 81.9658V82.2803C160.188 83.8753 158.857 84.6729 156.196 84.6729C156.196 84.7822 155.503 84.8369 154.117 84.8369C149.314 84.8369 146.288 84.3037 145.039 83.2373C143.863 82.3805 143.276 80.8402 143.276 78.6162V77.9736C143.85 68.4124 144.647 63.6318 145.668 63.6318H145.832Z" fill="black"></path> </svg> 