<?xml version="1.0" encoding="UTF-8"?> <svg xmlns="http://www.w3.org/2000/svg" width="612" height="355" viewBox="0 0 612 355" fill="none"> <path d="M28.7236 158.218C28.928 159.669 29.1984 161.099 29.4358 162.543C29.5478 163.262 29.7061 163.981 29.838 164.7L30.2534 166.849C30.8468 169.704 31.4732 172.553 32.2051 175.375C33.6491 181.019 35.3504 186.591 37.4208 192.011L38.1988 194.042C38.4626 194.721 38.7462 195.38 39.0165 196.053L39.4319 197.055L39.6363 197.556L39.8539 198.051L40.7309 200.036C41.0144 200.702 41.3375 201.348 41.6408 202.001C41.9507 202.653 42.254 203.306 42.5705 203.952L43.553 205.878L44.041 206.84L44.5618 207.79L45.5971 209.682L46.6851 211.542L47.2323 212.472C47.4104 212.781 47.6082 213.078 47.7994 213.388L48.9401 215.208C50.516 217.595 52.1381 219.962 53.9118 222.191C57.3933 226.707 61.343 230.809 65.6356 234.468C72.1766 239.968 79.4824 244.537 87.3158 248.071C89.2675 248.975 91.2589 249.786 93.27 250.57C95.2877 251.348 97.3318 252.067 99.4154 252.773L100.998 253.3L101.796 253.564L102.567 253.808L104.11 254.296L104.882 254.54L105.666 254.764L107.229 255.212C107.75 255.364 108.271 255.516 108.798 255.654L111.963 256.478C120.456 258.569 129.166 260.138 137.93 261.417L141.22 261.885L144.517 262.32C146.712 262.617 148.921 262.868 151.13 263.138C155.548 263.639 159.966 264.114 164.404 264.516C174.182 265.433 183.994 266.138 193.818 266.705C194.939 266.771 196.054 266.83 197.175 266.89C200.979 267.094 204.784 267.279 208.588 267.444C210.916 267.543 213.244 267.642 215.578 267.727C216.323 267.754 217.068 267.787 217.813 267.813C219.956 267.892 222.099 267.965 224.242 268.031C227.209 268.123 230.183 268.209 233.15 268.288C235.544 268.347 237.944 268.406 240.344 268.459C243.674 268.532 246.997 268.591 250.327 268.644C252.476 268.677 254.633 268.703 256.789 268.729C260.251 268.769 263.719 268.795 267.181 268.815C268.598 268.822 270.009 268.835 271.427 268.835H273.563L273.886 268.842L275.06 270.971C275.799 272.317 276.498 273.688 277.144 275.086C278.159 277.255 279.063 279.484 279.841 281.759C279.94 282.023 280.025 282.293 280.111 282.57C280.177 282.768 280.236 282.972 280.296 283.17C280.441 283.645 280.592 284.113 280.731 284.588L281.12 286.018C281.186 286.256 281.252 286.493 281.311 286.737L281.482 287.456L281.819 288.9L281.97 289.665L282.109 290.35L282.247 291.076L282.366 291.808L282.597 293.271C283.131 297.188 283.329 301.151 283.137 305.088L283.105 305.826L283.052 306.565C283.012 307.052 282.986 307.547 282.94 308.035C282.841 309.011 282.749 309.993 282.604 310.963C282.485 311.938 282.313 312.901 282.155 313.87C281.97 314.833 281.799 315.796 281.581 316.745C281.443 317.391 281.285 318.038 281.127 318.684C280.817 319.937 280.487 321.176 280.111 322.409C280.098 322.456 280.085 322.502 280.071 322.548C279.518 324.361 278.918 326.161 278.245 327.928C277.553 329.742 276.808 331.529 276.003 333.282L275.7 333.942L275.548 334.272C275.502 334.377 275.436 334.515 275.423 334.555C275.377 334.674 275.317 334.792 275.278 334.905C275.245 335.023 275.199 335.135 275.166 335.254C275.04 335.716 274.994 336.164 275.034 336.606C275.106 337.483 275.508 338.386 276.221 339.092C276.57 339.441 276.972 339.738 277.408 339.962C277.843 340.186 278.304 340.311 278.759 340.371C279.214 340.424 279.676 340.397 280.137 340.285C280.256 340.272 280.368 340.219 280.48 340.186C280.599 340.16 280.711 340.094 280.83 340.054C280.948 340.015 281.06 339.942 281.179 339.889L281.265 339.843L281.311 339.823L281.384 339.784L281.674 339.619C283.21 338.736 284.727 337.819 286.217 336.843C292.184 332.966 297.776 328.429 302.998 323.491C308.22 318.545 313.073 313.178 317.57 307.514C322.041 301.87 326.142 295.922 329.881 289.75C329.894 289.724 329.914 289.704 329.927 289.678C330.586 288.59 331.226 287.495 331.859 286.394C334.839 281.212 337.549 275.877 340.009 270.431L340.932 268.38L342.554 268.334L343.141 268.321C344.677 268.281 346.207 268.228 347.743 268.189C351.581 268.077 355.418 267.958 359.249 267.833C360.377 267.793 361.511 267.754 362.639 267.721C367.241 267.562 371.843 267.391 376.446 267.206C377.198 267.173 377.949 267.147 378.694 267.121C390.708 266.633 402.715 266.059 414.723 265.393C426.644 264.727 438.559 263.982 450.468 263.112C462.369 262.228 474.264 261.246 486.094 259.973C489.048 259.643 492.002 259.314 494.936 258.931C497.87 258.549 500.804 258.147 503.66 257.639C504.372 257.514 505.071 257.368 505.77 257.23L506.778 256.999C506.943 256.96 507.128 256.927 507.273 256.881L507.728 256.749L508.183 256.623C508.341 256.577 508.519 256.511 508.691 256.452L509.713 256.109C509.713 256.109 509.759 256.089 509.785 256.083C510.431 255.845 511.084 255.614 511.724 255.364C512.284 255.146 512.838 254.922 513.385 254.691C515.469 253.814 517.5 252.832 519.485 251.737C521.99 250.353 524.417 248.803 526.764 247.128C529.118 245.46 531.36 243.614 533.562 241.715L535.191 240.264C535.732 239.776 536.253 239.268 536.787 238.767C537.861 237.778 538.877 236.723 539.912 235.695C540.037 235.563 540.176 235.438 540.294 235.306L540.657 234.91L541.382 234.125C541.626 233.862 541.87 233.604 542.108 233.341L542.8 232.523C543.75 231.448 544.613 230.301 545.497 229.173C547.218 226.866 548.807 224.446 550.297 221.966C551.768 219.467 553.126 216.896 554.405 214.272C555.895 211.133 557.26 207.922 558.5 204.651C559.014 203.293 559.509 201.921 559.983 200.543C560.28 199.68 560.57 198.809 560.847 197.939C561.77 195.15 562.562 192.314 563.333 189.472C564.065 186.624 564.777 183.762 565.377 180.874C566.004 177.993 566.538 175.091 567.045 172.184C567.52 169.269 567.982 166.348 568.344 163.42C569.867 151.697 570.481 139.841 570.322 128.012C570.23 122.097 569.933 116.183 569.426 110.288C568.911 104.393 568.173 98.5246 567.204 92.7023C566.696 89.7945 566.168 86.8932 565.522 84.0183C565.225 82.5743 564.863 81.15 564.533 79.7125L563.986 77.5762L563.709 76.508L563.412 75.4464C561.856 69.7758 559.977 64.204 557.656 58.8564L556.766 56.8586L555.823 54.8936L555.585 54.4057L555.335 53.9243L554.834 52.9617L554.333 51.999L553.798 51.0561C552.381 48.5372 550.838 46.1041 549.11 43.8359L547.778 42.1677C547.323 41.6204 546.849 41.106 546.38 40.5719C546.156 40.3082 545.886 40.0444 545.642 39.7807L544.884 38.9895C544.376 38.4686 543.881 37.9279 543.361 37.4201L541.791 35.9036C541.527 35.653 541.27 35.3893 541 35.1519L540.189 34.4265L539.378 33.7013C539.108 33.4639 538.844 33.2133 538.56 32.9891L536.892 31.6242C534.637 29.8505 532.283 28.2416 529.797 26.8635C527.318 25.4788 524.7 24.3447 521.97 23.3161C519.241 22.2808 516.399 21.3314 513.537 20.2434C512.805 19.9599 512.159 19.7422 511.48 19.5048L510.471 19.1488C510.299 19.0895 510.134 19.0301 509.963 18.9708L509.442 18.8191L507.365 18.1993L506.844 18.0411L506.317 17.9026L505.255 17.6322C499.598 16.1816 493.769 15.1398 487.914 14.2496C482.052 13.3661 476.157 12.6342 470.236 12.0209L468.02 11.7836L465.798 11.5726L461.354 11.1506C458.387 10.9 455.419 10.6297 452.446 10.4121C446.505 9.93731 440.551 9.56805 434.603 9.21199C422.695 8.53283 410.767 8.02511 398.832 7.64267C374.962 6.89098 351.073 6.58108 327.184 6.57448C303.295 6.56129 279.399 6.80528 255.51 7.29322C236.948 7.67566 218.387 8.18997 199.832 8.85594C199.113 8.88232 198.394 8.90869 197.676 8.93506C193.073 9.1065 188.471 9.27794 183.868 9.46916C183.862 9.46916 183.849 9.46916 183.842 9.46916C182.846 9.50872 181.851 9.55488 180.855 9.59444C176.398 9.78566 171.94 9.97689 167.489 10.1879C166.467 10.2341 165.439 10.2868 164.417 10.3329C159.775 10.5571 155.126 10.7945 150.491 11.0517C149.884 11.0846 149.271 11.1176 148.658 11.1506C148.466 11.1637 148.282 11.1703 148.091 11.1835C142.13 11.5132 136.182 11.8759 130.235 12.2847C124.294 12.6935 118.353 13.1419 112.445 13.6892C109.491 13.9595 106.55 14.2694 103.642 14.6189L101.473 14.8958L99.3428 15.2123L98.3209 15.3969L97.8132 15.4893L97.5559 15.5354L97.3252 15.5882L96.4152 15.7992C96.3427 15.8123 96.257 15.8387 96.1647 15.8651L95.9009 15.9376L95.3733 16.0827C89.7423 17.6256 84.3024 19.4983 79.0868 21.8852C78.4274 22.1688 77.7878 22.4984 77.1416 22.8017C76.4955 23.1182 75.8492 23.415 75.2228 23.7578L73.3238 24.7601C72.6974 25.1096 72.0842 25.4656 71.4578 25.8217L70.5281 26.3558L69.6181 26.9228L67.7982 28.0504L66.018 29.2439L65.1278 29.8439C64.8311 30.0417 64.5475 30.2659 64.2574 30.4703L62.5298 31.7363C62.2397 31.9407 61.9628 32.1649 61.6793 32.3891L60.8419 33.0551C60.288 33.5035 59.7143 33.932 59.1736 34.4002L57.5516 35.8047L56.7406 36.5036C56.4702 36.7344 56.2328 36.9784 55.9757 37.2223L55.2174 37.941C54.9668 38.1784 54.7096 38.4158 54.4723 38.6729L53.0217 40.1829C52.7843 40.4401 52.5535 40.7038 52.3227 40.9676C52.0919 41.2313 51.8612 41.4951 51.6238 41.7588C51.149 42.2731 50.7204 42.8336 50.272 43.3809L49.883 43.8622L49.6061 44.1985C49.3819 44.4689 49.1775 44.759 48.9665 45.0425C48.5445 45.6096 48.1159 46.17 47.7071 46.7437L46.5004 48.4977C46.296 48.7878 46.1048 49.0845 45.9136 49.3878L45.3399 50.2846L44.7663 51.1813C44.5816 51.4846 44.4036 51.7945 44.2189 52.1044C43.8563 52.7177 43.4871 53.3309 43.1376 53.9507L42.109 55.8365C40.777 58.3685 39.5044 60.9467 38.3769 63.604L37.9483 64.5931C37.8099 64.9228 37.6779 65.2591 37.5394 65.5953L36.7284 67.6064L35.9702 69.6372L35.5943 70.6527L35.2448 71.6814L34.8228 72.9012L34.5393 73.732L33.8865 75.8091L33.5569 76.8443L33.4843 77.1014L33.2535 77.8861L32.6469 79.9763C31.8886 82.7787 31.1633 85.6008 30.5567 88.4493C29.9237 91.2912 29.4027 94.1661 28.9082 97.041C28.4532 99.9225 28.0247 102.811 27.7016 105.718C26.3499 117.33 26.1059 129.087 26.818 140.764C27.1939 146.606 27.8137 152.429 28.6973 158.205L28.7236 158.218ZM47.7862 92.5045C48.0104 91.4363 48.2412 90.3878 48.4918 89.346C49.461 85.2843 50.6017 81.4599 51.9205 77.8465C52.4282 76.4552 52.9557 75.0969 53.5162 73.7649C65.3916 45.4117 88.2587 31.8352 114.528 27.5427C116.065 27.2921 117.608 27.0745 119.164 26.8833C122.817 26.4415 126.522 26.1646 130.261 26.0459C132.127 25.9866 134.006 25.9667 135.892 25.9799C139.525 26.0063 143.185 26.1778 146.851 26.4613C148.565 26.5998 150.273 26.758 151.987 26.9492C152.568 27.0152 153.155 27.0811 153.735 27.147C153.128 27.1273 152.522 27.1141 151.915 27.1009C150.299 27.0679 148.691 27.0679 147.088 27.1009C142.974 27.1734 138.932 27.4438 134.969 27.9053C133.894 28.0306 132.833 28.1691 131.771 28.3208C106.853 31.9012 85.3509 43.104 69.8819 60.3796C69.7105 60.5709 69.539 60.7687 69.3676 60.9599C62.3386 68.945 56.5889 78.2091 52.3623 88.5943C51.5513 90.5922 50.7929 92.6297 50.094 94.7068C47.5488 102.309 45.7751 110.453 44.8783 119.084C45.1091 109.319 46.1114 100.483 47.7796 92.4979L47.7862 92.5045Z" fill="white"></path> <path d="M577.642 69.8157C577.642 69.664 577.516 69.5388 577.365 69.5388C577.213 69.5388 577.088 69.664 577.088 69.8157C577.088 69.9674 577.213 70.0927 577.365 70.0927C577.516 70.0927 577.642 69.9674 577.642 69.8157Z" fill="#1A1A1A"></path> <path d="M576.58 86.4846C576.58 86.9198 576.93 87.2693 577.365 87.2693C577.8 87.2693 578.149 86.9198 578.149 86.4846C578.149 86.0494 577.8 85.7 577.365 85.7C576.93 85.7 576.58 86.0494 576.58 86.4846Z" fill="#1A1A1A"></path> <path d="M594.027 86.6693C594.126 86.6693 594.212 86.5836 594.212 86.4847C594.212 86.3858 594.126 86.3 594.027 86.3C593.928 86.3 593.843 86.3858 593.843 86.4847C593.843 86.5836 593.928 86.6693 594.027 86.6693Z" fill="#1A1A1A"></path> <path d="M576.165 103.147C576.165 103.813 576.705 104.347 577.365 104.347C578.024 104.347 578.565 103.807 578.565 103.147C578.565 102.488 578.024 101.947 577.365 101.947C576.705 101.947 576.165 102.488 576.165 103.147Z" fill="#1A1A1A"></path> <path d="M594.027 103.655C594.311 103.655 594.535 103.424 594.535 103.147C594.535 102.87 594.304 102.639 594.027 102.639C593.75 102.639 593.519 102.864 593.519 103.147C593.519 103.431 593.75 103.655 594.027 103.655Z" fill="#1A1A1A"></path> <path d="M610.736 103.147C610.736 103.147 610.716 103.101 610.69 103.101C610.663 103.101 610.644 103.121 610.644 103.147C610.644 103.174 610.663 103.193 610.69 103.193C610.716 103.193 610.736 103.174 610.736 103.147Z" fill="#1A1A1A"></path> <path d="M577.365 121.386C578.235 121.386 578.934 120.68 578.934 119.816C578.934 118.953 578.228 118.247 577.365 118.247C576.501 118.247 575.795 118.953 575.795 119.816C575.795 120.68 576.501 121.386 577.365 121.386Z" fill="#1A1A1A"></path> <path d="M594.027 120.647C594.489 120.647 594.858 120.278 594.858 119.816C594.858 119.355 594.489 118.985 594.027 118.985C593.565 118.985 593.196 119.355 593.196 119.816C593.196 120.278 593.565 120.647 594.027 120.647Z" fill="#1A1A1A"></path> <path d="M610.69 119.955C610.769 119.955 610.828 119.895 610.828 119.816C610.828 119.737 610.769 119.678 610.69 119.678C610.61 119.678 610.551 119.737 610.551 119.816C610.551 119.895 610.61 119.955 610.69 119.955Z" fill="#1A1A1A"></path> <path d="M594.027 137.54C594.614 137.54 595.089 137.066 595.089 136.479C595.089 135.892 594.614 135.417 594.027 135.417C593.44 135.417 592.966 135.892 592.966 136.479C592.966 137.066 593.44 137.54 594.027 137.54Z" fill="#1A1A1A"></path> <path d="M610.689 136.802C610.867 136.802 611.013 136.657 611.013 136.479C611.013 136.301 610.867 136.156 610.689 136.156C610.511 136.156 610.366 136.301 610.366 136.479C610.366 136.657 610.511 136.802 610.689 136.802Z" fill="#1A1A1A"></path> <path d="M577.365 151.11C576.244 151.11 575.334 152.02 575.334 153.141C575.334 154.262 576.244 155.172 577.365 155.172C578.485 155.172 579.395 154.262 579.395 153.141C579.395 152.02 578.485 151.11 577.365 151.11Z" fill="#1A1A1A"></path> <path d="M594.027 154.387C594.715 154.387 595.273 153.829 595.273 153.141C595.273 152.453 594.715 151.895 594.027 151.895C593.339 151.895 592.781 152.453 592.781 153.141C592.781 153.829 593.339 154.387 594.027 154.387Z" fill="#1A1A1A"></path> <path d="M610.689 153.603C610.947 153.603 611.151 153.398 611.151 153.141C611.151 152.884 610.947 152.679 610.689 152.679C610.432 152.679 610.228 152.884 610.228 153.141C610.228 153.398 610.432 153.603 610.689 153.603Z" fill="#1A1A1A"></path> <path d="M577.365 167.68C576.191 167.68 575.242 168.63 575.242 169.803C575.242 170.977 576.191 171.927 577.365 171.927C578.539 171.927 579.488 170.977 579.488 169.803C579.488 168.63 578.539 167.68 577.365 167.68Z" fill="#1A1A1A"></path> <path d="M594.027 171.103C594.739 171.103 595.32 170.522 595.32 169.81C595.32 169.098 594.739 168.518 594.027 168.518C593.315 168.518 592.735 169.098 592.735 169.81C592.735 170.522 593.315 171.103 594.027 171.103Z" fill="#1A1A1A"></path> <path d="M610.69 170.318C610.973 170.318 611.197 170.087 611.197 169.81C611.197 169.533 610.967 169.302 610.69 169.302C610.413 169.302 610.182 169.526 610.182 169.81C610.182 170.094 610.413 170.318 610.69 170.318Z" fill="#1A1A1A"></path> <path d="M577.365 184.396C576.217 184.396 575.288 185.325 575.288 186.473C575.288 187.62 576.217 188.55 577.365 188.55C578.512 188.55 579.442 187.62 579.442 186.473C579.442 185.325 578.512 184.396 577.365 184.396Z" fill="#1A1A1A"></path> <path d="M594.027 185.226C593.335 185.226 592.781 185.787 592.781 186.473C592.781 187.158 593.341 187.719 594.027 187.719C594.713 187.719 595.273 187.158 595.273 186.473C595.273 185.787 594.713 185.226 594.027 185.226Z" fill="#1A1A1A"></path> <path d="M611.158 186.472C611.158 186.215 610.953 186.011 610.696 186.011C610.439 186.011 610.235 186.215 610.235 186.472C610.235 186.729 610.439 186.934 610.696 186.934C610.953 186.934 611.158 186.729 611.158 186.472Z" fill="#1A1A1A"></path> <path d="M577.364 201.242C576.316 201.242 575.472 202.093 575.472 203.135C575.472 204.177 576.323 205.027 577.364 205.027C578.406 205.027 579.257 204.177 579.257 203.135C579.257 202.093 578.406 201.242 577.364 201.242Z" fill="#1A1A1A"></path> <path d="M594.027 202.027C593.414 202.027 592.919 202.522 592.919 203.135C592.919 203.748 593.414 204.243 594.027 204.243C594.64 204.243 595.135 203.748 595.135 203.135C595.135 202.522 594.64 202.027 594.027 202.027Z" fill="#1A1A1A"></path> <path d="M611.019 203.135C611.019 202.957 610.874 202.812 610.696 202.812C610.518 202.812 610.373 202.957 610.373 203.135C610.373 203.313 610.518 203.458 610.696 203.458C610.874 203.458 611.019 203.313 611.019 203.135Z" fill="#1A1A1A"></path> <path d="M560.696 217.443C559.397 217.443 558.342 218.498 558.342 219.797C558.342 221.096 559.397 222.151 560.696 222.151C561.995 222.151 563.05 221.096 563.05 219.797C563.05 218.498 561.995 217.443 560.696 217.443Z" fill="#1A1A1A"></path> <path d="M577.364 218.182C576.474 218.182 575.749 218.907 575.749 219.797C575.749 220.688 576.474 221.413 577.364 221.413C578.255 221.413 578.98 220.688 578.98 219.797C578.98 218.907 578.255 218.182 577.364 218.182Z" fill="#1A1A1A"></path> <path d="M594.027 218.927C593.539 218.927 593.15 219.322 593.15 219.804C593.15 220.285 593.546 220.681 594.027 220.681C594.509 220.681 594.904 220.285 594.904 219.804C594.904 219.322 594.509 218.927 594.027 218.927Z" fill="#1A1A1A"></path> <path d="M610.835 219.804C610.835 219.725 610.775 219.666 610.696 219.666C610.617 219.666 610.558 219.725 610.558 219.804C610.558 219.883 610.617 219.942 610.696 219.942C610.775 219.942 610.835 219.883 610.835 219.804Z" fill="#1A1A1A"></path> <path d="M560.696 234.528C559.621 234.528 558.757 235.398 558.757 236.466C558.757 237.535 559.628 238.405 560.696 238.405C561.764 238.405 562.635 237.535 562.635 236.466C562.635 235.398 561.764 234.528 560.696 234.528Z" fill="#1A1A1A"></path> <path d="M578.657 236.466C578.657 235.754 578.077 235.174 577.365 235.174C576.652 235.174 576.072 235.754 576.072 236.466C576.072 237.179 576.652 237.759 577.365 237.759C578.077 237.759 578.657 237.179 578.657 236.466Z" fill="#1A1A1A"></path> <path d="M594.027 235.913C593.724 235.913 593.473 236.163 593.473 236.466C593.473 236.77 593.724 237.02 594.027 237.02C594.33 237.02 594.581 236.77 594.581 236.466C594.581 236.163 594.33 235.913 594.027 235.913Z" fill="#1A1A1A"></path> <path d="M610.644 236.467C610.644 236.467 610.663 236.513 610.69 236.513C610.716 236.513 610.736 236.493 610.736 236.467C610.736 236.44 610.716 236.42 610.69 236.42C610.663 236.42 610.644 236.44 610.644 236.467Z" fill="#1A1A1A"></path> <path d="M544.033 251.052C542.886 251.052 541.956 251.981 541.956 253.129C541.956 254.276 542.886 255.206 544.033 255.206C545.181 255.206 546.11 254.276 546.11 253.129C546.11 251.981 545.181 251.052 544.033 251.052Z" fill="#1A1A1A"></path> <path d="M562.179 253.129C562.179 252.311 561.52 251.652 560.702 251.652C559.885 251.652 559.225 252.311 559.225 253.129C559.225 253.947 559.885 254.606 560.702 254.606C561.52 254.606 562.179 253.947 562.179 253.129Z" fill="#1A1A1A"></path> <path d="M577.365 253.96C577.823 253.96 578.195 253.588 578.195 253.129C578.195 252.67 577.823 252.298 577.365 252.298C576.906 252.298 576.534 252.67 576.534 253.129C576.534 253.588 576.906 253.96 577.365 253.96Z" fill="#1A1A1A"></path> <path d="M594.027 252.944C593.928 252.944 593.843 253.03 593.843 253.129C593.843 253.228 593.928 253.314 594.027 253.314C594.126 253.314 594.212 253.228 594.212 253.129C594.212 253.03 594.126 252.944 594.027 252.944Z" fill="#1A1A1A"></path> <path d="M496.717 269.798C496.717 268.321 495.516 267.121 494.039 267.121C492.562 267.121 491.362 268.321 491.362 269.798C491.362 271.275 492.562 272.475 494.039 272.475C495.516 272.475 496.717 271.275 496.717 269.798Z" fill="#1A1A1A"></path> <path d="M513.062 269.798C513.062 268.499 512.007 267.444 510.708 267.444C509.409 267.444 508.354 268.499 508.354 269.798C508.354 271.097 509.409 272.152 510.708 272.152C512.007 272.152 513.062 271.097 513.062 269.798Z" fill="#1A1A1A"></path> <path d="M529.309 269.798C529.309 268.723 528.439 267.86 527.371 267.86C526.303 267.86 525.432 268.73 525.432 269.798C525.432 270.866 526.303 271.737 527.371 271.737C528.439 271.737 529.309 270.866 529.309 269.798Z" fill="#1A1A1A"></path> <path d="M545.51 269.798C545.51 268.98 544.851 268.321 544.033 268.321C543.216 268.321 542.556 268.98 542.556 269.798C542.556 270.615 543.216 271.275 544.033 271.275C544.851 271.275 545.51 270.615 545.51 269.798Z" fill="#1A1A1A"></path> <path d="M560.696 270.721C561.206 270.721 561.619 270.308 561.619 269.798C561.619 269.288 561.206 268.875 560.696 268.875C560.186 268.875 559.773 269.288 559.773 269.798C559.773 270.308 560.186 270.721 560.696 270.721Z" fill="#1A1A1A"></path> <path d="M577.688 269.798C577.688 269.62 577.543 269.475 577.365 269.475C577.187 269.475 577.042 269.62 577.042 269.798C577.042 269.976 577.187 270.121 577.365 270.121C577.543 270.121 577.688 269.976 577.688 269.798Z" fill="#1A1A1A"></path> <path d="M446.076 286.461C446.076 285.34 445.166 284.43 444.045 284.43C442.924 284.43 442.015 285.34 442.015 286.461C442.015 287.582 442.924 288.491 444.045 288.491C445.166 288.491 446.076 287.582 446.076 286.461Z" fill="#1A1A1A"></path> <path d="M462.838 286.46C462.838 285.287 461.888 284.337 460.714 284.337C459.541 284.337 458.591 285.287 458.591 286.46C458.591 287.634 459.541 288.584 460.714 288.584C461.888 288.584 462.838 287.634 462.838 286.46Z" fill="#1A1A1A"></path> <path d="M479.454 286.461C479.454 285.313 478.524 284.384 477.377 284.384C476.229 284.384 475.3 285.313 475.3 286.461C475.3 287.608 476.229 288.538 477.377 288.538C478.524 288.538 479.454 287.608 479.454 286.461Z" fill="#1A1A1A"></path> <path d="M495.932 286.461C495.932 285.412 495.081 284.568 494.039 284.568C492.997 284.568 492.147 285.419 492.147 286.461C492.147 287.502 492.997 288.353 494.039 288.353C495.081 288.353 495.932 287.502 495.932 286.461Z" fill="#1A1A1A"></path> <path d="M512.324 286.46C512.324 285.57 511.598 284.845 510.708 284.845C509.818 284.845 509.093 285.57 509.093 286.46C509.093 287.351 509.818 288.076 510.708 288.076C511.598 288.076 512.324 287.351 512.324 286.46Z" fill="#1A1A1A"></path> <path d="M528.663 286.461C528.663 285.748 528.083 285.168 527.371 285.168C526.659 285.168 526.078 285.748 526.078 286.461C526.078 287.173 526.659 287.753 527.371 287.753C528.083 287.753 528.663 287.173 528.663 286.461Z" fill="#1A1A1A"></path> <path d="M544.864 286.46C544.864 285.999 544.495 285.63 544.033 285.63C543.572 285.63 543.203 285.999 543.203 286.46C543.203 286.922 543.578 287.291 544.033 287.291C544.488 287.291 544.864 286.922 544.864 286.46Z" fill="#1A1A1A"></path> <path d="M560.373 286.46C560.373 286.638 560.518 286.783 560.696 286.783C560.874 286.783 561.019 286.638 561.019 286.46C561.019 286.282 560.874 286.137 560.696 286.137C560.518 286.137 560.373 286.282 560.373 286.46Z" fill="#1A1A1A"></path> <path d="M577.319 286.46C577.319 286.46 577.338 286.506 577.365 286.506C577.391 286.506 577.411 286.487 577.411 286.46C577.411 286.434 577.391 286.414 577.365 286.414C577.338 286.414 577.319 286.434 577.319 286.46Z" fill="#1A1A1A"></path> <path d="M445.292 303.13C445.292 302.444 444.731 301.883 444.045 301.883C443.359 301.883 442.799 302.444 442.799 303.13C442.799 303.815 443.359 304.376 444.045 304.376C444.731 304.376 445.292 303.815 445.292 303.13Z" fill="#1A1A1A"></path> <path d="M462 303.13C462 302.417 461.42 301.837 460.708 301.837C459.996 301.837 459.415 302.417 459.415 303.13C459.415 303.842 459.996 304.422 460.708 304.422C461.42 304.422 462 303.842 462 303.13Z" fill="#1A1A1A"></path> <path d="M478.623 303.13C478.623 302.444 478.063 301.883 477.377 301.883C476.691 301.883 476.131 302.444 476.131 303.13C476.131 303.815 476.691 304.376 477.377 304.376C478.063 304.376 478.623 303.815 478.623 303.13Z" fill="#1A1A1A"></path> <path d="M495.147 303.13C495.147 302.517 494.653 302.022 494.039 302.022C493.426 302.022 492.932 302.517 492.932 303.13C492.932 303.743 493.426 304.237 494.039 304.237C494.653 304.237 495.147 303.743 495.147 303.13Z" fill="#1A1A1A"></path> <path d="M511.579 303.129C511.579 302.642 511.183 302.252 510.702 302.252C510.221 302.252 509.825 302.648 509.825 303.129C509.825 303.611 510.221 304.006 510.702 304.006C511.183 304.006 511.579 303.611 511.579 303.129Z" fill="#1A1A1A"></path> <path d="M527.924 303.13C527.924 302.826 527.674 302.576 527.371 302.576C527.067 302.576 526.817 302.826 526.817 303.13C526.817 303.433 527.067 303.683 527.371 303.683C527.674 303.683 527.924 303.433 527.924 303.13Z" fill="#1A1A1A"></path> <path d="M543.849 303.129C543.849 303.235 543.934 303.314 544.033 303.314C544.132 303.314 544.218 303.228 544.218 303.129C544.218 303.031 544.132 302.945 544.033 302.945C543.934 302.945 543.849 303.031 543.849 303.129Z" fill="#1A1A1A"></path> <path d="M443.584 319.792C443.584 320.049 443.788 320.254 444.046 320.254C444.303 320.254 444.507 320.049 444.507 319.792C444.507 319.535 444.303 319.331 444.046 319.331C443.788 319.331 443.584 319.535 443.584 319.792Z" fill="#1A1A1A"></path> <path d="M460.2 319.792C460.2 320.075 460.431 320.3 460.708 320.3C460.985 320.3 461.216 320.075 461.216 319.792C461.216 319.508 460.985 319.284 460.708 319.284C460.431 319.284 460.2 319.515 460.2 319.792Z" fill="#1A1A1A"></path> <path d="M476.909 319.792C476.909 320.049 477.113 320.254 477.37 320.254C477.628 320.254 477.832 320.049 477.832 319.792C477.832 319.535 477.628 319.331 477.37 319.331C477.113 319.331 476.909 319.535 476.909 319.792Z" fill="#1A1A1A"></path> <path d="M493.716 319.792C493.716 319.97 493.861 320.115 494.039 320.115C494.217 320.115 494.362 319.97 494.362 319.792C494.362 319.614 494.217 319.469 494.039 319.469C493.861 319.469 493.716 319.614 493.716 319.792Z" fill="#1A1A1A"></path> <path d="M510.563 319.792C510.563 319.871 510.623 319.93 510.702 319.93C510.781 319.93 510.84 319.871 510.84 319.792C510.84 319.713 510.781 319.653 510.702 319.653C510.623 319.653 510.563 319.713 510.563 319.792Z" fill="#1A1A1A"></path> <path d="M527.325 319.792C527.325 319.792 527.345 319.838 527.371 319.838C527.397 319.838 527.417 319.818 527.417 319.792C527.417 319.766 527.397 319.746 527.371 319.746C527.345 319.746 527.325 319.766 527.325 319.792Z" fill="#1A1A1A"></path> <path d="M34.4868 9.16626C34.3615 9.16626 34.2559 9.26519 34.2559 9.39707C34.2559 9.52894 34.3549 9.62783 34.4868 9.62783C34.6186 9.62783 34.7175 9.52894 34.7175 9.39707C34.7175 9.26519 34.6186 9.16626 34.4868 9.16626Z" fill="#1A1A1A"></path> <path d="M50.2393 9.39033C50.2393 9.76617 50.5427 10.0761 50.9251 10.0761C51.3075 10.0761 51.6109 9.77277 51.6109 9.39033C51.6109 9.00789 51.3075 8.70459 50.9251 8.70459C50.5427 8.70459 50.2393 9.00789 50.2393 9.39033Z" fill="#1A1A1A"></path> <path d="M66.2093 9.39022C66.2093 10.0166 66.717 10.5309 67.35 10.5309C67.983 10.5309 68.4907 10.0232 68.4907 9.39022C68.4907 8.75722 67.983 8.24951 67.35 8.24951C66.717 8.24951 66.2093 8.75722 66.2093 9.39022Z" fill="#1A1A1A"></path> <path d="M82.2784 9.39036C82.2784 10.2212 82.9509 10.8937 83.7817 10.8937C84.6125 10.8937 85.2852 10.2212 85.2852 9.39036C85.2852 8.55955 84.6125 7.88696 83.7817 7.88696C82.9509 7.88696 82.2784 8.55955 82.2784 9.39036Z" fill="#1A1A1A"></path> <path d="M17.8307 25.8218C17.8307 25.9471 17.9296 26.0526 18.0615 26.0526C18.1933 26.0526 18.2922 25.9537 18.2922 25.8218C18.2922 25.69 18.1933 25.5911 18.0615 25.5911C17.9296 25.5911 17.8307 25.69 17.8307 25.8218Z" fill="#1A1A1A"></path> <path d="M33.7153 25.822C33.7153 26.2506 34.0648 26.5935 34.4868 26.5935C34.9088 26.5935 35.2583 26.244 35.2583 25.822C35.2583 25.4 34.9088 25.0505 34.4868 25.0505C34.0648 25.0505 33.7153 25.4 33.7153 25.822Z" fill="#1A1A1A"></path> <path d="M49.5996 25.8219C49.5996 26.5538 50.193 27.1407 50.9184 27.1407C51.6437 27.1407 52.2371 26.5472 52.2371 25.8219C52.2371 25.0966 51.6437 24.5032 50.9184 24.5032C50.193 24.5032 49.5996 25.0966 49.5996 25.8219Z" fill="#1A1A1A"></path> <path d="M1.76171 42.2534C1.76171 42.1809 1.70231 42.115 1.62318 42.115C1.54406 42.115 1.48474 42.1743 1.48474 42.2534C1.48474 42.3326 1.54406 42.3919 1.62318 42.3919C1.70231 42.3919 1.76171 42.3326 1.76171 42.2534Z" fill="#1A1A1A"></path> <path d="M17.3761 42.2539C17.3761 42.6297 17.6794 42.9396 18.0619 42.9396C18.4443 42.9396 18.7476 42.6363 18.7476 42.2539C18.7476 41.8714 18.4443 41.5681 18.0619 41.5681C17.6794 41.5681 17.3761 41.8714 17.3761 42.2539Z" fill="#1A1A1A"></path> <path d="M34.4867 43.5723C35.2186 43.5723 35.8055 42.9789 35.8055 42.2536C35.8055 41.5283 35.212 40.9348 34.4867 40.9348C33.7614 40.9348 33.168 41.5283 33.168 42.2536C33.168 42.9789 33.7614 43.5723 34.4867 43.5723Z" fill="#1A1A1A"></path> <path d="M1.2146 58.6854C1.2146 58.9096 1.39922 59.0942 1.62341 59.0942C1.8476 59.0942 2.03222 58.9096 2.03222 58.6854C2.03222 58.4612 1.8476 58.2766 1.62341 58.2766C1.39922 58.2766 1.2146 58.4612 1.2146 58.6854Z" fill="#1A1A1A"></path> <path d="M16.9208 58.6851C16.9208 59.3116 17.4285 59.8259 18.0615 59.8259C18.6945 59.8259 19.2023 59.3181 19.2023 58.6851C19.2023 58.0521 18.6945 57.5444 18.0615 57.5444C17.4285 57.5444 16.9208 58.0521 16.9208 58.6851Z" fill="#1A1A1A"></path> <path d="M1.62994 74.3389C1.20134 74.3389 0.858521 74.6884 0.858521 75.1104C0.858521 75.5324 1.20794 75.8819 1.62994 75.8819C2.05194 75.8819 2.40144 75.5324 2.40144 75.1104C2.40144 74.6884 2.05194 74.3389 1.62994 74.3389Z" fill="#1A1A1A"></path> <path d="M18.0553 76.614C18.8861 76.614 19.5587 75.9414 19.5587 75.1106C19.5587 74.2798 18.8861 73.6072 18.0553 73.6072C17.2245 73.6072 16.5519 74.2798 16.5519 75.1106C16.5519 75.9414 17.2245 76.614 18.0553 76.614Z" fill="#1A1A1A"></path> <path d="M1.62995 90.5396C1.07607 90.5396 0.627686 90.9879 0.627686 91.5418C0.627686 92.0957 1.07607 92.5441 1.62995 92.5441C2.18383 92.5441 2.63222 92.0957 2.63222 91.5418C2.63222 90.9879 2.18383 90.5396 1.62995 90.5396Z" fill="#1A1A1A"></path> <path d="M18.055 93.3224C19.0375 93.3224 19.8287 92.5245 19.8287 91.5487C19.8287 90.5728 19.0309 89.7749 18.055 89.7749C17.0791 89.7749 16.2747 90.5728 16.2747 91.5487C16.2747 92.5245 17.0726 93.3224 18.055 93.3224Z" fill="#1A1A1A"></path> <path d="M0.489197 107.973C0.489197 108.6 0.996904 109.114 1.62991 109.114C2.26291 109.114 2.77061 108.606 2.77061 107.973C2.77061 107.34 2.26291 106.833 1.62991 106.833C0.996904 106.833 0.489197 107.34 0.489197 107.973Z" fill="#1A1A1A"></path> <path d="M1.63001 123.219C0.977223 123.219 0.443176 123.746 0.443176 124.405C0.443176 125.065 0.970629 125.592 1.63001 125.592C2.28938 125.592 2.81692 125.065 2.81692 124.405C2.81692 123.746 2.28938 123.219 1.63001 123.219Z" fill="#1A1A1A"></path> <path d="M1.62991 139.696C1.0035 139.696 0.489197 140.204 0.489197 140.837C0.489197 141.47 0.996904 141.978 1.62991 141.978C2.26291 141.978 2.77061 141.47 2.77061 140.837C2.77061 140.204 2.26291 139.696 1.62991 139.696Z" fill="#1A1A1A"></path> <path d="M1.62995 156.266C1.07607 156.266 0.627686 156.715 0.627686 157.269C0.627686 157.822 1.07607 158.271 1.62995 158.271C2.18383 158.271 2.63222 157.822 2.63222 157.269C2.63222 156.715 2.18383 156.266 1.62995 156.266Z" fill="#1A1A1A"></path> <path d="M2.40144 173.694C2.40144 173.265 2.05194 172.922 1.62994 172.922C1.20794 172.922 0.858521 173.272 0.858521 173.694C0.858521 174.116 1.20794 174.465 1.62994 174.465C2.05194 174.465 2.40144 174.116 2.40144 173.694Z" fill="#1A1A1A"></path> <path d="M18.0553 175.204C18.8861 175.204 19.5587 174.531 19.5587 173.7C19.5587 172.87 18.8861 172.197 18.0553 172.197C17.2245 172.197 16.5519 172.87 16.5519 173.7C16.5519 174.531 17.2245 175.204 18.0553 175.204Z" fill="#1A1A1A"></path> <path d="M2.08493 190.126C2.08493 189.875 1.88048 189.671 1.62992 189.671C1.37936 189.671 1.17499 189.875 1.17499 190.126C1.17499 190.376 1.37936 190.581 1.62992 190.581C1.88048 190.581 2.08493 190.376 2.08493 190.126Z" fill="#1A1A1A"></path> <path d="M18.055 191.312C18.7077 191.312 19.2418 190.785 19.2418 190.126C19.2418 189.466 18.7143 188.939 18.055 188.939C17.3956 188.939 16.868 189.466 16.868 190.126C16.868 190.785 17.3956 191.312 18.055 191.312Z" fill="#1A1A1A"></path> <path d="M1.49146 206.557C1.49146 206.63 1.55077 206.696 1.6299 206.696C1.70902 206.696 1.76834 206.636 1.76834 206.557C1.76834 206.478 1.70902 206.419 1.6299 206.419C1.55077 206.419 1.49146 206.478 1.49146 206.557Z" fill="#1A1A1A"></path> <path d="M18.0552 207.289C18.4574 207.289 18.7871 206.966 18.7871 206.557C18.7871 206.148 18.464 205.825 18.0552 205.825C17.6464 205.825 17.3233 206.148 17.3233 206.557C17.3233 206.966 17.6464 207.289 18.0552 207.289Z" fill="#1A1A1A"></path> <path d="M18.055 223.259C18.2067 223.259 18.3254 223.134 18.3254 222.989C18.3254 222.844 18.2001 222.718 18.055 222.718C17.91 222.718 17.7847 222.844 17.7847 222.989C17.7847 223.134 17.91 223.259 18.055 223.259Z" fill="#1A1A1A"></path> <path d="M35.3569 222.989C35.3569 222.514 34.9678 222.125 34.4931 222.125C34.0183 222.125 33.6293 222.514 33.6293 222.989C33.6293 223.464 34.0183 223.853 34.4931 223.853C34.9678 223.853 35.3569 223.464 35.3569 222.989Z" fill="#1A1A1A"></path> <path d="M34.2166 239.421C34.2166 239.572 34.3419 239.691 34.487 239.691C34.632 239.691 34.7573 239.566 34.7573 239.421C34.7573 239.275 34.632 239.15 34.487 239.15C34.3419 239.15 34.2166 239.275 34.2166 239.421Z" fill="#1A1A1A"></path> <path d="M51.6967 239.42C51.6967 238.992 51.3472 238.649 50.9252 238.649C50.5032 238.649 50.1537 238.998 50.1537 239.42C50.1537 239.842 50.5032 240.198 50.9252 240.198C51.3472 240.198 51.6967 239.849 51.6967 239.42Z" fill="#1A1A1A"></path> <path d="M50.7339 255.852C50.7339 255.951 50.813 256.037 50.9185 256.037C51.024 256.037 51.1032 255.958 51.1032 255.852C51.1032 255.747 51.024 255.667 50.9185 255.667C50.813 255.667 50.7339 255.747 50.7339 255.852Z" fill="#1A1A1A"></path> <path d="M67.8513 255.852C67.8513 255.575 67.6271 255.351 67.3501 255.351C67.0732 255.351 66.849 255.575 66.849 255.852C66.849 256.129 67.0732 256.353 67.3501 256.353C67.6271 256.353 67.8513 256.129 67.8513 255.852Z" fill="#1A1A1A"></path> <path d="M67.304 272.277C67.304 272.277 67.3238 272.324 67.3502 272.324C67.3765 272.324 67.3963 272.304 67.3963 272.277C67.3963 272.251 67.3765 272.231 67.3502 272.231C67.3238 272.231 67.304 272.251 67.304 272.277Z" fill="#1A1A1A"></path> <path d="M83.6435 272.277C83.6435 272.35 83.7028 272.416 83.7819 272.416C83.8611 272.416 83.9205 272.356 83.9205 272.277C83.9205 272.198 83.8611 272.139 83.7819 272.139C83.7028 272.139 83.6435 272.198 83.6435 272.277Z" fill="#1A1A1A"></path> <path d="M99.8903 272.277C99.8903 272.455 100.035 272.594 100.207 272.594C100.378 272.594 100.523 272.449 100.523 272.277C100.523 272.106 100.378 271.961 100.207 271.961C100.035 271.961 99.8903 272.106 99.8903 272.277Z" fill="#1A1A1A"></path> <path d="M116.183 272.277C116.183 272.528 116.388 272.732 116.638 272.732C116.889 272.732 117.093 272.528 117.093 272.277C117.093 272.027 116.889 271.822 116.638 271.822C116.388 271.822 116.183 272.027 116.183 272.277Z" fill="#1A1A1A"></path> <path d="M132.569 272.277C132.569 272.554 132.793 272.778 133.07 272.778C133.347 272.778 133.571 272.554 133.571 272.277C133.571 272 133.347 271.776 133.07 271.776C132.793 271.776 132.569 272 132.569 272.277Z" fill="#1A1A1A"></path> <path d="M149.047 272.277C149.047 272.528 149.251 272.732 149.502 272.732C149.752 272.732 149.957 272.528 149.957 272.277C149.957 272.027 149.752 271.822 149.502 271.822C149.251 271.822 149.047 272.027 149.047 272.277Z" fill="#1A1A1A"></path> <path d="M361.953 284.838C361.669 284.667 361.34 284.568 360.984 284.568C359.935 284.568 359.091 285.419 359.091 286.461C359.091 287.45 359.85 288.261 360.812 288.346C361.129 288.577 361.524 288.716 361.946 288.716C363.021 288.716 363.885 287.845 363.885 286.777C363.885 285.709 363.021 284.838 361.953 284.838Z" fill="#1A1A1A"></path> <path d="M379.908 286.777C379.908 286.474 379.802 286.19 379.624 285.966C379.4 285.083 378.609 284.43 377.653 284.43C376.532 284.43 375.622 285.34 375.622 286.461C375.622 287.582 376.532 288.491 377.653 288.491C378.147 288.491 378.602 288.313 378.952 288.023C379.499 287.872 379.908 287.371 379.908 286.777Z" fill="#1A1A1A"></path> <path d="M396.445 286.46C396.445 285.287 395.495 284.337 394.322 284.337C393.148 284.337 392.199 285.287 392.199 286.46C392.199 287.634 393.148 288.584 394.322 288.584C395.495 288.584 396.445 287.634 396.445 286.46Z" fill="#1A1A1A"></path> <path d="M413.061 286.461C413.061 285.313 412.132 284.384 410.984 284.384C409.837 284.384 408.907 285.313 408.907 286.461C408.907 287.608 409.837 288.538 410.984 288.538C412.132 288.538 413.061 287.608 413.061 286.461Z" fill="#1A1A1A"></path> <path d="M429.539 286.461C429.539 285.412 428.688 284.568 427.647 284.568C427.6 284.568 427.554 284.568 427.515 284.575C427.469 284.575 427.429 284.568 427.383 284.568C426.334 284.568 425.49 285.419 425.49 286.461C425.49 287.502 426.341 288.353 427.383 288.353C427.429 288.353 427.475 288.353 427.515 288.346C427.561 288.346 427.6 288.353 427.647 288.353C428.695 288.353 429.539 287.502 429.539 286.461Z" fill="#1A1A1A"></path> <path d="M379.446 303.439C379.446 303.044 379.169 302.714 378.8 302.628C378.609 302.187 378.167 301.877 377.653 301.877C376.961 301.877 376.407 302.437 376.407 303.123C376.407 303.809 376.967 304.369 377.653 304.369C377.884 304.369 378.095 304.303 378.279 304.198C378.378 304.244 378.49 304.27 378.609 304.27C379.071 304.27 379.44 303.901 379.44 303.439H379.446Z" fill="#1A1A1A"></path> <path d="M395.608 303.13C395.608 302.417 395.027 301.837 394.315 301.837C393.603 301.837 393.023 302.417 393.023 303.13C393.023 303.842 393.603 304.422 394.315 304.422C395.027 304.422 395.608 303.842 395.608 303.13Z" fill="#1A1A1A"></path> <path d="M412.231 303.13C412.231 302.444 411.67 301.883 410.984 301.883C410.299 301.883 409.738 302.444 409.738 303.13C409.738 303.815 410.299 304.376 410.984 304.376C411.67 304.376 412.231 303.815 412.231 303.13Z" fill="#1A1A1A"></path> <path d="M428.754 303.13C428.754 302.517 428.26 302.022 427.647 302.022C427.534 302.022 427.429 302.042 427.33 302.075C426.763 302.101 426.315 302.563 426.315 303.13C426.315 303.697 426.763 304.165 427.33 304.185C427.429 304.218 427.534 304.237 427.647 304.237C428.26 304.237 428.754 303.743 428.754 303.13Z" fill="#1A1A1A"></path> <path d="M377.191 319.792C377.191 320.049 377.395 320.254 377.653 320.254C377.91 320.254 378.114 320.049 378.114 319.792C378.114 319.535 377.91 319.331 377.653 319.331C377.395 319.331 377.191 319.535 377.191 319.792Z" fill="#1A1A1A"></path> <path d="M393.807 319.792C393.807 320.075 394.038 320.3 394.315 320.3C394.592 320.3 394.823 320.075 394.823 319.792C394.823 319.508 394.592 319.284 394.315 319.284C394.038 319.284 393.807 319.515 393.807 319.792Z" fill="#1A1A1A"></path> <path d="M410.516 319.792C410.516 320.049 410.72 320.254 410.978 320.254C411.235 320.254 411.439 320.049 411.439 319.792C411.439 319.535 411.235 319.331 410.978 319.331C410.72 319.331 410.516 319.535 410.516 319.792Z" fill="#1A1A1A"></path> <path d="M427.515 319.495C427.475 319.476 427.429 319.469 427.383 319.469C427.205 319.469 427.06 319.614 427.06 319.792C427.06 319.97 427.205 320.115 427.383 320.115C427.429 320.115 427.475 320.102 427.515 320.089C427.554 320.109 427.6 320.115 427.647 320.115C427.825 320.115 427.97 319.97 427.97 319.792C427.97 319.614 427.825 319.469 427.647 319.469C427.6 319.469 427.554 319.482 427.515 319.495Z" fill="#1A1A1A"></path> <path d="M111.838 270.115C111.838 270.194 111.898 270.253 111.977 270.253C112.056 270.253 112.115 270.194 112.115 270.115C112.115 270.035 112.056 269.976 111.977 269.976C111.898 269.976 111.838 270.035 111.838 270.115Z" fill="#1A1A1A"></path> <path d="M129.424 270.114C129.424 269.679 129.075 269.33 128.639 269.33C128.204 269.33 127.855 269.679 127.855 270.114C127.855 270.55 128.204 270.899 128.639 270.899C129.075 270.899 129.424 270.55 129.424 270.114Z" fill="#1A1A1A"></path> <path d="M128.639 287.238C128.894 287.238 129.101 287.032 129.101 286.777C129.101 286.522 128.894 286.315 128.639 286.315C128.384 286.315 128.177 286.522 128.177 286.777C128.177 287.032 128.384 287.238 128.639 287.238Z" fill="#1A1A1A"></path> <path d="M146.508 286.777C146.508 286.111 145.967 285.577 145.308 285.577C144.649 285.577 144.108 286.117 144.108 286.777C144.108 287.436 144.649 287.977 145.308 287.977C145.967 287.977 146.508 287.436 146.508 286.777Z" fill="#1A1A1A"></path> <path d="M161.971 288.669C163.016 288.669 163.863 287.822 163.863 286.777C163.863 285.732 163.016 284.885 161.971 284.885C160.926 284.885 160.078 285.732 160.078 286.777C160.078 287.822 160.926 288.669 161.971 288.669Z" fill="#1A1A1A"></path> <path d="M178.633 284.238C177.229 284.238 176.095 285.379 176.095 286.777C176.095 288.175 177.235 289.315 178.633 289.315C180.031 289.315 181.172 288.175 181.172 286.777C181.172 285.379 180.031 284.238 178.633 284.238Z" fill="#1A1A1A"></path> <path d="M195.302 283.632C193.568 283.632 192.157 285.036 192.157 286.777C192.157 288.518 193.561 289.922 195.302 289.922C197.043 289.922 198.447 288.518 198.447 286.777C198.447 285.036 197.043 283.632 195.302 283.632Z" fill="#1A1A1A"></path> <path d="M211.965 283.078C209.921 283.078 208.266 284.733 208.266 286.777C208.266 288.821 209.921 290.476 211.965 290.476C214.009 290.476 215.664 288.821 215.664 286.777C215.664 284.733 214.009 283.078 211.965 283.078Z" fill="#1A1A1A"></path> <path d="M228.627 282.616C226.332 282.616 224.466 284.476 224.466 286.777C224.466 289.078 226.326 290.938 228.627 290.938C230.928 290.938 232.788 289.078 232.788 286.777C232.788 284.476 230.928 282.616 228.627 282.616Z" fill="#1A1A1A"></path> <path d="M245.296 282.339C242.843 282.339 240.859 284.324 240.859 286.777C240.859 289.23 242.843 291.215 245.296 291.215C247.749 291.215 249.734 289.23 249.734 286.777C249.734 284.324 247.749 282.339 245.296 282.339Z" fill="#1A1A1A"></path> <path d="M261.958 282.247C259.459 282.247 257.428 284.271 257.428 286.777C257.428 289.283 259.453 291.307 261.958 291.307C264.464 291.307 266.488 289.276 266.488 286.777C266.488 284.278 264.464 282.247 261.958 282.247Z" fill="#1A1A1A"></path> <path d="M345.284 284.186C343.853 284.186 342.699 285.346 342.699 286.77C342.699 288.195 343.86 289.355 345.284 289.355C346.708 289.355 347.869 288.195 347.869 286.77C347.869 285.346 346.708 284.186 345.284 284.186Z" fill="#1A1A1A"></path> <path d="M128.5 303.439C128.5 303.519 128.56 303.578 128.639 303.578C128.718 303.578 128.777 303.519 128.777 303.439C128.777 303.36 128.718 303.301 128.639 303.301C128.56 303.301 128.5 303.36 128.5 303.439Z" fill="#1A1A1A"></path> <path d="M146.047 303.439C146.047 303.031 145.717 302.701 145.308 302.701C144.899 302.701 144.57 303.031 144.57 303.439C144.57 303.848 144.899 304.178 145.308 304.178C145.717 304.178 146.047 303.848 146.047 303.439Z" fill="#1A1A1A"></path> <path d="M161.971 304.87C162.761 304.87 163.401 304.229 163.401 303.439C163.401 302.649 162.761 302.008 161.971 302.008C161.18 302.008 160.54 302.649 160.54 303.439C160.54 304.229 161.18 304.87 161.971 304.87Z" fill="#1A1A1A"></path> <path d="M180.671 303.439C180.671 302.318 179.761 301.408 178.64 301.408C177.519 301.408 176.609 302.318 176.609 303.439C176.609 304.56 177.519 305.47 178.64 305.47C179.761 305.47 180.671 304.56 180.671 303.439Z" fill="#1A1A1A"></path> <path d="M195.302 300.901C193.898 300.901 192.764 302.042 192.764 303.439C192.764 304.837 193.904 305.978 195.302 305.978C196.7 305.978 197.841 304.837 197.841 303.439C197.841 302.042 196.7 300.901 195.302 300.901Z" fill="#1A1A1A"></path> <path d="M211.964 300.393C210.283 300.393 208.911 301.758 208.911 303.446C208.911 305.134 210.276 306.499 211.964 306.499C213.652 306.499 215.017 305.134 215.017 303.446C215.017 301.758 213.652 300.393 211.964 300.393Z" fill="#1A1A1A"></path> <path d="M228.627 300.07C226.761 300.07 225.251 301.58 225.251 303.446C225.251 305.312 226.761 306.822 228.627 306.822C230.493 306.822 232.003 305.312 232.003 303.446C232.003 301.58 230.493 300.07 228.627 300.07Z" fill="#1A1A1A"></path> <path d="M245.296 299.793C243.278 299.793 241.643 301.428 241.643 303.446C241.643 305.464 243.278 307.099 245.296 307.099C247.314 307.099 248.949 305.464 248.949 303.446C248.949 301.428 247.314 299.793 245.296 299.793Z" fill="#1A1A1A"></path> <path d="M261.959 299.7C259.888 299.7 258.214 301.375 258.214 303.446C258.214 305.516 259.888 307.191 261.959 307.191C264.029 307.191 265.704 305.516 265.704 303.446C265.704 301.375 264.029 299.7 261.959 299.7Z" fill="#1A1A1A"></path> <path d="M345.284 301.363C344.136 301.363 343.207 302.292 343.207 303.44C343.207 304.587 344.136 305.517 345.284 305.517C346.431 305.517 347.361 304.587 347.361 303.44C347.361 302.292 346.431 301.363 345.284 301.363Z" fill="#1A1A1A"></path> <path d="M363.43 303.439C363.43 302.622 362.771 301.962 361.953 301.962C361.722 301.962 361.498 302.015 361.3 302.114C361.201 302.081 361.096 302.061 360.99 302.061C360.403 302.061 359.929 302.536 359.929 303.123C359.929 303.584 360.225 303.98 360.641 304.125C360.885 304.6 361.379 304.916 361.953 304.916C362.771 304.916 363.43 304.257 363.43 303.439Z" fill="#1A1A1A"></path> <path d="M145.025 320.109C145.025 320.26 145.15 320.385 145.302 320.385C145.453 320.385 145.579 320.26 145.579 320.109C145.579 319.957 145.453 319.832 145.302 319.832C145.15 319.832 145.025 319.957 145.025 320.109Z" fill="#1A1A1A"></path> <path d="M162.848 320.108C162.848 319.621 162.452 319.231 161.971 319.231C161.489 319.231 161.094 319.627 161.094 320.108C161.094 320.59 161.489 320.985 161.971 320.985C162.452 320.985 162.848 320.59 162.848 320.108Z" fill="#1A1A1A"></path> <path d="M180.064 320.108C180.064 319.317 179.424 318.677 178.633 318.677C177.842 318.677 177.202 319.317 177.202 320.108C177.202 320.9 177.842 321.539 178.633 321.539C179.424 321.539 180.064 320.9 180.064 320.108Z" fill="#1A1A1A"></path> <path d="M197.195 320.108C197.195 319.06 196.344 318.216 195.302 318.216C194.26 318.216 193.41 319.066 193.41 320.108C193.41 321.15 194.26 322.001 195.302 322.001C196.344 322.001 197.195 321.15 197.195 320.108Z" fill="#1A1A1A"></path> <path d="M214.272 320.108C214.272 318.829 213.237 317.801 211.964 317.801C210.692 317.801 209.657 318.836 209.657 320.108C209.657 321.381 210.692 322.416 211.964 322.416C213.237 322.416 214.272 321.381 214.272 320.108Z" fill="#1A1A1A"></path> <path d="M228.627 317.471C227.17 317.471 225.996 318.651 225.996 320.102C225.996 321.552 227.176 322.733 228.627 322.733C230.078 322.733 231.258 321.552 231.258 320.102C231.258 318.651 230.078 317.471 228.627 317.471Z" fill="#1A1A1A"></path> <path d="M245.296 317.24C243.714 317.24 242.428 318.526 242.428 320.108C242.428 321.691 243.714 322.977 245.296 322.977C246.879 322.977 248.164 321.691 248.164 320.108C248.164 318.526 246.879 317.24 245.296 317.24Z" fill="#1A1A1A"></path> <path d="M261.958 317.194C260.35 317.194 259.051 318.5 259.051 320.109C259.051 321.717 260.356 323.023 261.958 323.023C263.561 323.023 264.873 321.717 264.873 320.109C264.873 318.5 263.567 317.194 261.958 317.194Z" fill="#1A1A1A"></path> <path d="M330.56 320.109C330.56 319.034 329.69 318.17 328.622 318.17C327.553 318.17 326.683 319.04 326.683 320.109C326.683 321.177 327.553 322.047 328.622 322.047C329.69 322.047 330.56 321.177 330.56 320.109Z" fill="#1A1A1A"></path> <path d="M346.761 320.109C346.761 319.291 346.102 318.632 345.284 318.632C344.466 318.632 343.807 319.291 343.807 320.109C343.807 320.926 344.466 321.586 345.284 321.586C346.102 321.586 346.761 320.926 346.761 320.109Z" fill="#1A1A1A"></path> <path d="M362.869 320.108C362.869 319.601 362.454 319.185 361.946 319.185C361.643 319.185 361.373 319.337 361.208 319.561C361.149 319.508 361.069 319.469 360.984 319.469C360.806 319.469 360.661 319.614 360.661 319.792C360.661 319.97 360.806 320.115 360.984 320.115C360.997 320.115 361.01 320.115 361.023 320.115C361.023 320.623 361.439 321.032 361.946 321.032C362.454 321.032 362.869 320.616 362.869 320.108Z" fill="#1A1A1A"></path> <path d="M378.938 320.108C378.938 319.93 378.793 319.785 378.615 319.785C378.437 319.785 378.292 319.93 378.292 320.108C378.292 320.287 378.437 320.432 378.615 320.432C378.793 320.432 378.938 320.287 378.938 320.108Z" fill="#1A1A1A"></path> <path d="M161.694 336.771C161.694 336.922 161.819 337.048 161.971 337.048C162.122 337.048 162.248 336.922 162.248 336.771C162.248 336.619 162.122 336.494 161.971 336.494C161.819 336.494 161.694 336.619 161.694 336.771Z" fill="#1A1A1A"></path> <path d="M179.418 336.771C179.418 336.336 179.068 335.986 178.633 335.986C178.198 335.986 177.848 336.336 177.848 336.771C177.848 337.206 178.198 337.556 178.633 337.556C179.068 337.556 179.418 337.206 179.418 336.771Z" fill="#1A1A1A"></path> <path d="M196.502 336.771C196.502 336.105 195.961 335.571 195.302 335.571C194.643 335.571 194.102 336.111 194.102 336.771C194.102 337.43 194.643 337.971 195.302 337.971C195.961 337.971 196.502 337.43 196.502 336.771Z" fill="#1A1A1A"></path> <path d="M213.534 336.771C213.534 335.901 212.828 335.202 211.964 335.202C211.101 335.202 210.395 335.907 210.395 336.771C210.395 337.635 211.101 338.34 211.964 338.34C212.828 338.34 213.534 337.635 213.534 336.771Z" fill="#1A1A1A"></path> <path d="M230.526 336.771C230.526 335.722 229.675 334.878 228.634 334.878C227.592 334.878 226.741 335.729 226.741 336.771C226.741 337.813 227.592 338.663 228.634 338.663C229.675 338.663 230.526 337.813 230.526 336.771Z" fill="#1A1A1A"></path> <path d="M247.327 336.771C247.327 335.65 246.417 334.74 245.296 334.74C244.175 334.74 243.265 335.65 243.265 336.771C243.265 337.892 244.175 338.802 245.296 338.802C246.417 338.802 247.327 337.892 247.327 336.771Z" fill="#1A1A1A"></path> <path d="M264.082 336.771C264.082 335.597 263.132 334.647 261.959 334.647C260.785 334.647 259.835 335.597 259.835 336.771C259.835 337.944 260.785 338.894 261.959 338.894C263.132 338.894 264.082 337.944 264.082 336.771Z" fill="#1A1A1A"></path> <path d="M313.568 336.771C313.568 335.881 312.843 335.156 311.953 335.156C311.063 335.156 310.337 335.881 310.337 336.771C310.337 337.661 311.063 338.386 311.953 338.386C312.843 338.386 313.568 337.661 313.568 336.771Z" fill="#1A1A1A"></path> <path d="M329.914 336.771C329.914 336.059 329.333 335.479 328.621 335.479C327.909 335.479 327.329 336.059 327.329 336.771C327.329 337.483 327.909 338.063 328.621 338.063C329.333 338.063 329.914 337.483 329.914 336.771Z" fill="#1A1A1A"></path> <path d="M346.115 336.771C346.115 336.309 345.745 335.94 345.284 335.94C344.822 335.94 344.453 336.309 344.453 336.771C344.453 337.232 344.829 337.602 345.284 337.602C345.739 337.602 346.115 337.232 346.115 336.771Z" fill="#1A1A1A"></path> <path d="M361.623 336.771C361.623 336.949 361.768 337.094 361.946 337.094C362.124 337.094 362.269 336.949 362.269 336.771C362.269 336.593 362.124 336.448 361.946 336.448C361.768 336.448 361.623 336.593 361.623 336.771Z" fill="#1A1A1A"></path> <path d="M378.569 336.771C378.569 336.771 378.589 336.817 378.615 336.817C378.642 336.817 378.661 336.797 378.661 336.771C378.661 336.745 378.642 336.725 378.615 336.725C378.589 336.725 378.569 336.745 378.569 336.771Z" fill="#1A1A1A"></path> <path d="M178.448 353.433C178.448 353.532 178.534 353.618 178.633 353.618C178.732 353.618 178.818 353.532 178.818 353.433C178.818 353.334 178.732 353.249 178.633 353.249C178.534 353.249 178.448 353.334 178.448 353.433Z" fill="#1A1A1A"></path> <path d="M195.81 353.433C195.81 353.15 195.579 352.926 195.302 352.926C195.025 352.926 194.794 353.15 194.794 353.433C194.794 353.717 195.025 353.941 195.302 353.941C195.579 353.941 195.81 353.71 195.81 353.433Z" fill="#1A1A1A"></path> <path d="M212.795 353.433C212.795 352.972 212.42 352.603 211.965 352.603C211.51 352.603 211.134 352.972 211.134 353.433C211.134 353.895 211.503 354.264 211.965 354.264C212.426 354.264 212.795 353.895 212.795 353.433Z" fill="#1A1A1A"></path> <path d="M229.689 353.433C229.689 352.847 229.214 352.372 228.627 352.372C228.04 352.372 227.565 352.847 227.565 353.433C227.565 354.02 228.04 354.495 228.627 354.495C229.214 354.495 229.689 354.02 229.689 353.433Z" fill="#1A1A1A"></path> <path d="M246.542 353.433C246.542 352.747 245.982 352.187 245.296 352.187C244.61 352.187 244.05 352.747 244.05 353.433C244.05 354.119 244.61 354.679 245.296 354.679C245.982 354.679 246.542 354.119 246.542 353.433Z" fill="#1A1A1A"></path> <path d="M263.251 353.433C263.251 352.721 262.671 352.141 261.958 352.141C261.246 352.141 260.666 352.721 260.666 353.433C260.666 354.145 261.246 354.726 261.958 354.726C262.671 354.726 263.251 354.145 263.251 353.433Z" fill="#1A1A1A"></path> <path d="M279.874 353.433C279.874 352.747 279.313 352.187 278.627 352.187C277.942 352.187 277.381 352.747 277.381 353.433C277.381 354.119 277.942 354.679 278.627 354.679C279.313 354.679 279.874 354.119 279.874 353.433Z" fill="#1A1A1A"></path> <path d="M296.398 353.433C296.398 352.82 295.903 352.326 295.29 352.326C294.677 352.326 294.182 352.82 294.182 353.433C294.182 354.047 294.677 354.541 295.29 354.541C295.903 354.541 296.398 354.047 296.398 353.433Z" fill="#1A1A1A"></path> <path d="M312.83 353.433C312.83 352.945 312.434 352.556 311.953 352.556C311.471 352.556 311.076 352.952 311.076 353.433C311.076 353.914 311.471 354.31 311.953 354.31C312.434 354.31 312.83 353.914 312.83 353.433Z" fill="#1A1A1A"></path> <path d="M329.175 353.433C329.175 353.13 328.925 352.88 328.621 352.88C328.318 352.88 328.068 353.13 328.068 353.433C328.068 353.737 328.318 353.987 328.621 353.987C328.925 353.987 329.175 353.737 329.175 353.433Z" fill="#1A1A1A"></path> <path d="M345.099 353.433C345.099 353.532 345.185 353.618 345.284 353.618C345.383 353.618 345.469 353.532 345.469 353.433C345.469 353.334 345.383 353.249 345.284 353.249C345.185 353.249 345.099 353.334 345.099 353.433Z" fill="#1A1A1A"></path> <path d="M52.3625 88.6012C56.5825 78.216 62.3388 68.9584 69.3678 60.9667C69.5392 60.7689 69.7107 60.5777 69.8821 60.3865C85.3445 43.1108 106.853 31.908 131.771 28.3275C132.833 28.1759 133.894 28.0374 134.969 27.9121C138.932 27.4506 142.974 27.1803 147.089 27.1077C148.684 27.0813 150.293 27.0813 151.915 27.1077C152.522 27.1209 153.128 27.1341 153.735 27.1539C153.155 27.0813 152.568 27.0154 151.988 26.9561C150.273 26.7714 148.559 26.6066 146.851 26.4681C143.185 26.178 139.526 26.0131 135.892 25.9868C134.007 25.9736 132.134 25.9868 130.261 26.0527C126.516 26.1714 122.81 26.4483 119.164 26.8901C117.608 27.0813 116.065 27.2989 114.528 27.5495C88.2589 31.842 65.3918 45.4252 53.5164 73.7718C52.9626 75.0971 52.4284 76.4555 51.9207 77.8534C50.6086 81.4602 49.4613 85.2911 48.492 89.3529C48.248 90.3881 48.0106 91.4431 47.7864 92.5113C46.1182 100.496 45.1159 109.339 44.8851 119.097C45.7819 110.466 47.5556 102.323 50.1008 94.7202C50.7998 92.6432 51.5515 90.6057 52.3691 88.6078L52.3625 88.6012Z" fill="#1A1A1A"></path> <path d="M18.0553 155.488C17.0728 155.488 16.2749 156.286 16.2749 157.269C16.2749 158.251 17.0728 159.043 18.0553 159.043C18.9059 159.043 19.618 158.442 19.7895 157.645C19.8752 158.271 19.9675 158.904 20.0598 159.53C20.2708 161.047 20.5478 162.55 20.7917 164.06C20.9104 164.819 21.0687 165.564 21.2071 166.315L21.6357 168.57C22.2555 171.571 22.9017 174.564 23.6666 177.531C25.17 183.472 26.9568 189.361 29.1328 195.124L29.957 197.28C30.2339 197.998 30.5373 198.711 30.8274 199.423L31.2692 200.491L31.4868 201.025L31.7176 201.553L32.6539 203.669C32.9243 204.295 33.2209 204.915 33.5111 205.535C33.2407 205.792 33.0759 206.155 33.0759 206.557C33.0759 207.335 33.7089 207.968 34.487 207.968C34.5463 207.968 34.6056 207.968 34.6716 207.955L35.6804 209.933L36.208 210.968L36.7618 211.99L37.8761 214.035L39.0498 216.046L39.6367 217.048C39.8279 217.384 40.0455 217.707 40.2499 218.037L41.4896 220.015C43.1974 222.613 44.9645 225.191 46.9096 227.644C50.7274 232.596 55.0991 237.165 59.9059 241.267C66.9019 247.142 74.7089 252.041 82.9643 255.832C82.9643 255.832 82.9643 255.832 82.9643 255.839C82.9643 256.294 83.3336 256.657 83.7819 256.657C83.9929 256.657 84.1775 256.578 84.3226 256.446C86.2216 257.296 88.1405 258.081 90.0725 258.833C92.2353 259.67 94.4177 260.435 96.5805 261.16L98.1893 261.694L98.9871 261.958L99.8179 262.222L101.48 262.749L102.31 263.013L103.141 263.25L104.809 263.732C105.363 263.89 105.917 264.055 106.478 264.193L109.814 265.064C114.272 266.171 118.742 267.095 123.213 267.932C127.69 268.776 132.167 269.475 136.651 270.128L140.014 270.602L143.376 271.044C143.653 271.084 143.924 271.117 144.201 271.15C144.478 271.44 144.867 271.618 145.302 271.618C145.599 271.618 145.876 271.532 146.113 271.387C147.445 271.545 148.777 271.704 150.109 271.862C154.599 272.363 159.089 272.831 163.58 273.233C172.561 274.058 181.548 274.691 190.535 275.198C199.522 275.706 208.51 276.095 217.497 276.392C234.634 276.952 251.771 277.163 268.902 277.163C270.102 279.53 271.144 281.97 272.021 284.463C272.173 284.865 272.298 285.28 272.43 285.689C272.562 286.098 272.693 286.507 272.819 286.922L273.168 288.162C273.228 288.366 273.287 288.577 273.34 288.781L273.491 289.408L273.795 290.661L274.052 291.927L274.177 292.56L274.283 293.193L274.494 294.465C274.889 297.162 275.074 299.885 275.067 302.615C275.008 302.879 274.968 303.156 274.968 303.433C274.968 303.677 274.995 303.921 275.041 304.152C274.935 307.804 274.487 311.464 273.716 315.077C273.353 316.779 272.931 318.48 272.43 320.155C271.935 321.829 271.388 323.498 270.768 325.146C270.155 326.794 269.482 328.423 268.764 330.032L268.196 331.285C268.065 331.595 267.933 331.898 267.821 332.215C267.715 332.538 267.603 332.854 267.511 333.184C267.148 334.503 267.016 335.927 267.148 337.325C267.28 338.723 267.662 340.088 268.262 341.334C268.856 342.58 269.667 343.694 270.63 344.65C271.586 345.607 272.7 346.404 273.92 347.004C275.14 347.611 276.485 348 277.863 348.152C279.241 348.303 280.659 348.205 281.991 347.868C282.327 347.796 282.65 347.684 282.973 347.578C283.303 347.479 283.606 347.341 283.916 347.209C284.233 347.084 284.516 346.925 284.813 346.774L285.03 346.655L285.136 346.596L285.215 346.549L285.525 346.365C287.187 345.396 288.828 344.387 290.424 343.325C296.833 339.099 302.735 334.239 308.207 328.984C313.68 323.722 318.724 318.058 323.373 312.104C324.949 310.079 326.479 308.016 327.962 305.932C328.167 305.985 328.378 306.011 328.595 306.011C330.026 306.011 331.18 304.85 331.18 303.426C331.18 302.872 331.009 302.365 330.712 301.943C336.383 293.496 341.328 284.581 345.535 275.33C366.879 274.565 388.21 273.55 409.527 272.257C409.949 272.501 410.437 272.64 410.958 272.64C411.604 272.64 412.198 272.422 412.673 272.066C413.47 272.02 414.268 271.967 415.059 271.921C418.429 271.71 421.805 271.486 425.174 271.262C425.59 271.868 426.249 272.297 427.021 272.389C427.212 272.436 427.41 272.455 427.621 272.455C428.689 272.455 429.612 271.829 430.04 270.919C433.753 270.662 437.465 270.391 441.177 270.114C441.349 271.539 442.555 272.64 444.019 272.64C445.602 272.64 446.888 271.354 446.888 269.772C446.888 269.739 446.888 269.706 446.888 269.673C448.226 269.567 449.571 269.468 450.91 269.356C453.264 269.165 455.611 268.974 457.965 268.769C457.853 269.079 457.787 269.416 457.787 269.772C457.787 271.38 459.093 272.686 460.695 272.686C462.297 272.686 463.609 271.38 463.609 269.772C463.609 269.244 463.464 268.743 463.22 268.314C467.618 267.925 472.016 267.517 476.415 267.068C475.3 267.464 474.502 268.519 474.502 269.765C474.502 271.348 475.788 272.633 477.371 272.633C478.953 272.633 480.232 271.348 480.232 269.765C480.232 268.321 479.158 267.128 477.766 266.93C480.753 266.626 483.747 266.303 486.734 265.96C489.721 265.611 492.701 265.255 495.695 264.846C498.688 264.437 501.675 264.009 504.702 263.448C505.46 263.31 506.225 263.145 506.99 262.993L508.163 262.716C508.361 262.67 508.546 262.631 508.757 262.571L509.377 262.393L509.997 262.209C510.194 262.149 510.366 262.083 510.557 262.017L511.658 261.635C512.39 261.365 513.122 261.101 513.847 260.811C516.749 259.663 519.577 258.318 522.294 256.795C523.382 256.188 524.45 255.549 525.505 254.89C525.973 255.371 526.633 255.674 527.358 255.674C528.789 255.674 529.943 254.514 529.943 253.089C529.943 252.72 529.863 252.371 529.725 252.054C529.857 251.962 529.989 251.87 530.121 251.771C532.633 249.964 535.007 247.992 537.314 245.968L539.022 244.425C539.589 243.911 540.13 243.37 540.691 242.843C541.811 241.794 542.866 240.693 543.941 239.612C544.073 239.473 544.212 239.341 544.344 239.203L544.574 238.952C545.636 238.715 546.453 237.831 546.585 236.737L547.073 236.157C548.095 234.983 549.032 233.737 549.981 232.51C551.821 230.011 553.509 227.42 555.085 224.776C556.634 222.118 558.059 219.389 559.384 216.632C561.982 211.087 564.191 205.384 566.017 199.588C566.953 196.693 567.765 193.765 568.549 190.831C569.294 187.89 570.013 184.943 570.62 181.976C571.253 179.015 571.793 176.035 572.301 173.048C572.782 170.061 573.237 167.067 573.6 164.067C574.352 158.067 574.886 152.047 575.189 146.013C575.341 142.98 575.453 139.94 575.506 136.901C575.71 137.725 576.455 138.338 577.345 138.338C578.394 138.338 579.238 137.487 579.238 136.446C579.238 135.404 578.387 134.553 577.345 134.553C576.475 134.553 575.743 135.14 575.519 135.938C575.558 133.261 575.558 130.584 575.512 127.907C575.4 121.867 575.09 115.834 574.563 109.813C574.022 103.793 573.257 97.793 572.248 91.8256C571.721 88.8452 571.174 85.8649 570.508 82.9043C570.198 81.4207 569.828 79.9502 569.485 78.4732L568.918 76.2643L568.635 75.1632L568.332 74.062C566.723 68.2068 564.764 62.4174 562.325 56.7929L561.388 54.6896L560.755 53.3774C560.874 53.3444 560.96 53.2389 560.96 53.1136C560.96 52.962 560.835 52.8367 560.683 52.8367C560.624 52.8367 560.571 52.8631 560.525 52.896L560.386 52.6125L560.136 52.0916L559.872 51.5773L559.338 50.5552L558.804 49.5332L558.237 48.5244C556.72 45.8341 555.052 43.2098 553.153 40.7174C552.671 40.0975 552.177 39.4909 551.682 38.8777C551.181 38.271 550.647 37.6908 550.126 37.0974C549.869 36.7941 549.599 36.5303 549.335 36.2534L548.537 35.4291C548.003 34.8819 547.489 34.3214 546.935 33.7873L545.28 32.185C545.003 31.9213 544.732 31.6443 544.449 31.3872L543.585 30.6157L542.721 29.8442C542.431 29.5871 542.154 29.3233 541.844 29.0859L540.044 27.6089C537.605 25.6902 535.013 23.9099 532.264 22.3867C529.521 20.8569 526.639 19.6041 523.778 18.5227C520.916 17.4347 518.087 16.4919 515.357 15.45C514.698 15.1929 513.926 14.9291 513.195 14.6654L512.087 14.2763C511.902 14.2104 511.718 14.1445 511.533 14.0851L510.979 13.9203L508.764 13.2609L508.21 13.0961L507.656 12.951L506.541 12.6674L504.319 12.1004L502.091 11.6059C501.346 11.4476 500.607 11.2696 499.862 11.1245L497.633 10.6893C496.888 10.5508 496.143 10.3926 495.405 10.2607L493.169 9.87829L490.934 9.49584L488.699 9.153C482.738 8.23646 476.771 7.48474 470.797 6.85174C446.901 4.33292 422.965 3.09329 399.03 2.19654C387.062 1.75476 375.095 1.42509 363.127 1.18771C351.159 0.950337 339.192 0.778893 327.224 0.68658C303.289 0.495361 279.353 0.594253 255.418 0.877785C231.482 1.16791 207.554 1.66904 183.625 2.44711C171.657 2.84273 159.696 3.29112 147.728 3.86478C141.741 4.14831 135.761 4.45823 129.774 4.82089C123.786 5.18354 117.799 5.57916 111.792 6.08688C108.792 6.33744 105.779 6.62099 102.746 6.97046L100.464 7.24739L98.1565 7.57708L96.9696 7.78148L96.376 7.88696L96.0793 7.93972L95.7628 8.01225L94.4903 8.29577C94.3782 8.32215 94.2859 8.34196 94.1936 8.36834L93.9166 8.44086L93.3628 8.5859C87.4482 10.1552 81.5269 12.1399 75.8563 14.6917C75.1376 14.995 74.4452 15.3445 73.7396 15.6742C73.0407 16.0105 72.3286 16.3336 71.6429 16.7028L69.5658 17.7776C68.8801 18.1535 68.2075 18.5359 67.5218 18.9184L66.4997 19.492L65.4974 20.0986L63.4996 21.3185L61.5478 22.6109L60.5719 23.257C60.2488 23.4746 59.9389 23.712 59.6158 23.9362L57.7168 25.3077C57.3937 25.5319 57.0904 25.7759 56.7871 26.0133L55.8639 26.732C55.2507 27.2199 54.6309 27.6881 54.0309 28.1892L52.2506 29.7058L51.3604 30.4641C51.0637 30.7146 50.7735 31.0047 50.4834 31.2685L49.6065 32.0861C49.3163 32.3564 49.0196 32.6268 48.7492 32.9169L47.0811 34.6247C46.5404 35.2116 46.0195 35.805 45.492 36.3918C44.9513 36.9721 44.4634 37.5985 43.9622 38.2051L43.2105 39.1216C42.96 39.4249 42.7291 39.7481 42.4918 40.058C42.017 40.691 41.5291 41.3108 41.0742 41.9504L39.7224 43.8824C39.4916 44.1989 39.2806 44.5285 39.0696 44.8582L38.4301 45.8473L37.7904 46.8364C37.586 47.166 37.3882 47.5023 37.1838 47.8386C36.7816 48.5112 36.3728 49.1771 35.9837 49.8497L34.8496 51.8938C33.3792 54.6368 31.988 57.4193 30.7681 60.2679L30.2999 61.3294C30.1482 61.6855 30.0032 62.0416 29.8582 62.4042L28.9811 64.5538L28.1569 66.7166L27.7481 67.798L27.3657 68.886L26.6008 71.0684L25.8953 73.2641L25.5392 74.3653L25.2095 75.4731L24.5567 77.682C23.7391 80.6426 22.9544 83.6164 22.3017 86.61C21.6159 89.597 21.0555 92.6103 20.5214 95.6236C20.0268 98.6436 19.5719 101.67 19.2224 104.703C19.1631 105.218 19.1037 105.738 19.0444 106.253C18.7542 106.081 18.418 105.982 18.0553 105.982C16.9739 105.982 16.097 106.859 16.097 107.941C16.097 109.022 16.9739 109.899 18.0553 109.899C18.2729 109.899 18.4839 109.86 18.6817 109.794C18.2861 113.981 18.0289 118.174 17.9037 122.375C16.8684 122.454 16.0574 123.317 16.0574 124.372C16.0574 125.427 16.8289 126.245 17.8245 126.364C17.7784 130.524 17.8443 134.692 18.0421 138.846C16.9739 138.859 16.1101 139.729 16.1101 140.804C16.1101 141.879 16.9871 142.762 18.0685 142.762C18.1344 142.762 18.2003 142.762 18.2663 142.749C18.5696 147.312 19.0312 151.862 19.6378 156.398C19.3411 155.838 18.7477 155.455 18.0685 155.455L18.0553 155.488ZM27.7284 105.732C28.0515 102.824 28.4801 99.936 28.935 97.0545C29.4296 94.1796 29.9439 91.3047 30.5835 88.4628C31.1901 85.6143 31.9154 82.7922 32.6737 79.9898L33.2803 77.8996L33.5111 77.115L33.5836 76.8578L33.9133 75.8225L34.5661 73.7456L34.8496 72.9147L35.2716 71.6949L35.6211 70.6662L35.9969 69.6508L36.7552 67.6199L37.5662 65.6088C37.7047 65.2725 37.83 64.9363 37.9751 64.6066L38.4037 63.6175C39.5246 60.9603 40.7972 58.3821 42.1358 55.8501L43.1643 53.9642C43.5138 53.3444 43.8897 52.7312 44.2457 52.118C44.4304 51.8147 44.6018 51.4981 44.793 51.1948L45.3667 50.2981L45.9404 49.4013C46.1316 49.098 46.3227 48.8013 46.5271 48.5112L47.7339 46.7572C48.1427 46.177 48.5779 45.6231 48.9933 45.056C49.2043 44.7725 49.4087 44.4824 49.6329 44.212L49.9098 43.8758L50.2988 43.3944C50.7472 42.8537 51.1758 42.2867 51.6505 41.7723C51.8813 41.5086 52.1187 41.2448 52.3495 40.9811C52.5803 40.7173 52.811 40.4602 53.0484 40.1964L54.4991 38.6865C54.7364 38.4293 54.9936 38.1919 55.2442 37.9546L56.0024 37.2358C56.2595 36.9985 56.4969 36.7545 56.7673 36.5171L57.5783 35.8182L59.2004 34.4137C59.7411 33.9522 60.3147 33.5169 60.8686 33.0686L61.706 32.4026C61.983 32.1784 62.2599 31.9542 62.5566 31.7498L64.2842 30.4838C64.5743 30.2728 64.8578 30.0552 65.1545 29.8574L66.0448 29.2574L67.8251 28.0639L69.6449 26.9364L70.5549 26.3693L71.4846 25.8352C72.1044 25.4857 72.7242 25.1231 73.3506 24.7736L75.2496 23.7714C75.876 23.4285 76.5289 23.1252 77.1685 22.8153C77.8146 22.5054 78.4542 22.1757 79.1136 21.8987C84.3358 19.5052 89.7757 17.6326 95.4002 16.0962L95.9277 15.9512L96.1914 15.8786C96.2837 15.8522 96.3695 15.8259 96.442 15.8127L97.3519 15.6017L97.5827 15.5489L97.8398 15.5028L98.3475 15.4105L99.3696 15.2258L101.499 14.9093L103.669 14.6324C106.577 14.2829 109.518 13.973 112.472 13.7027C118.373 13.1554 124.314 12.707 130.261 12.2982C136.209 11.8894 142.163 11.5267 148.117 11.197C148.309 11.1839 148.493 11.1773 148.684 11.1641C149.291 11.1311 149.904 11.0981 150.518 11.0652C155.16 10.808 159.801 10.5707 164.443 10.3465C165.466 10.3003 166.494 10.2475 167.516 10.2014C171.974 9.99038 176.424 9.79919 180.882 9.60797C181.878 9.5684 182.873 9.52225 183.869 9.48268C183.875 9.48268 183.888 9.48268 183.895 9.48268C188.498 9.29806 193.1 9.12003 197.703 8.94859C198.421 8.92222 199.14 8.89584 199.859 8.86947C218.414 8.2035 236.975 7.68915 255.536 7.30671C279.426 6.81218 303.321 6.57482 327.211 6.58801C351.1 6.6012 374.996 6.90451 398.859 7.6562C410.793 8.04523 422.715 8.54636 434.63 9.22552C440.584 9.58817 446.538 9.95084 452.472 10.4256C455.446 10.6432 458.413 10.9135 461.381 11.1641L465.825 11.5861L468.047 11.7971L470.262 12.0345C476.184 12.6477 482.079 13.373 487.94 14.2632C493.796 15.1533 499.625 16.2017 505.282 17.6458L506.344 17.9161L506.871 18.0546L507.392 18.2128L509.469 18.8326L509.99 18.9843C510.161 19.037 510.326 19.103 510.498 19.1623L511.507 19.5184C512.186 19.7623 512.832 19.9733 513.564 20.2569C516.419 21.3448 519.267 22.2944 521.997 23.3296C524.727 24.3582 527.338 25.4989 529.824 26.877C532.31 28.2551 534.657 29.864 536.919 31.6377L538.587 33.0026C538.871 33.2268 539.134 33.4774 539.405 33.7148L540.216 34.4401L541.027 35.1654C541.297 35.4028 541.554 35.6665 541.818 35.9171L543.387 37.4336C543.908 37.9414 544.403 38.482 544.91 39.003L545.669 39.7942C545.919 40.058 546.183 40.3217 546.407 40.5855C546.869 41.1196 547.35 41.6339 547.805 42.1812L549.137 43.8494C550.865 46.1177 552.408 48.5508 553.825 51.0696L554.359 52.0125L554.861 52.9751L555.362 53.9379L555.612 54.4192L555.85 54.9071L556.792 56.872L557.683 58.87C560.004 64.2175 561.883 69.7893 563.439 75.4599L563.736 76.5215L564.013 77.5897L564.56 79.7261C564.89 81.1635 565.252 82.5878 565.549 84.0318C566.195 86.9067 566.723 89.8145 567.23 92.7158C568.2 98.5381 568.938 104.407 569.452 110.301C569.954 116.196 570.25 122.111 570.349 128.025C570.514 139.861 569.894 151.71 568.371 163.434C568.002 166.368 567.547 169.289 567.072 172.197C566.564 175.105 566.03 178.006 565.404 180.888C564.804 183.776 564.092 186.637 563.36 189.486C562.588 192.328 561.797 195.163 560.874 197.952C560.597 198.823 560.307 199.693 560.01 200.557C559.536 201.935 559.041 203.306 558.527 204.665C557.287 207.929 555.922 211.14 554.432 214.285C553.159 216.903 551.801 219.481 550.324 221.98C548.834 224.466 547.245 226.879 545.524 229.187C544.64 230.315 543.77 231.462 542.827 232.537L542.135 233.354C541.897 233.625 541.653 233.875 541.409 234.139L540.684 234.924L540.321 235.319C540.196 235.451 540.064 235.576 539.939 235.708C538.904 236.737 537.888 237.792 536.813 238.781C536.279 239.275 535.758 239.79 535.218 240.278L533.589 241.728C531.393 243.627 529.145 245.467 526.791 247.142C524.443 248.817 522.017 250.366 519.511 251.751C517.527 252.845 515.496 253.828 513.412 254.705C512.858 254.936 512.304 255.16 511.751 255.377C511.111 255.628 510.458 255.859 509.812 256.096C509.785 256.103 509.766 256.116 509.739 256.123L508.717 256.465C508.553 256.518 508.374 256.584 508.21 256.637L507.755 256.762L507.3 256.894C507.148 256.94 506.97 256.973 506.805 257.013L505.796 257.243C505.097 257.382 504.398 257.52 503.686 257.652C500.831 258.16 497.897 258.569 494.963 258.945C492.028 259.327 489.075 259.657 486.121 259.986C474.291 261.259 462.39 262.242 450.494 263.125C438.593 264.002 426.678 264.741 414.75 265.407C402.749 266.073 390.735 266.646 378.721 267.134C377.97 267.167 377.218 267.193 376.473 267.22C371.87 267.404 367.268 267.576 362.665 267.734C361.538 267.774 360.404 267.813 359.276 267.846C355.439 267.972 351.601 268.09 347.77 268.202C346.234 268.248 344.704 268.295 343.168 268.334L342.581 268.347L340.959 268.394L340.036 270.444C337.583 275.891 334.866 281.232 331.886 286.408C331.253 287.509 330.613 288.603 329.954 289.691C329.94 289.718 329.921 289.738 329.908 289.764C326.169 295.929 322.068 301.883 317.597 307.528C313.107 313.192 308.247 318.559 303.025 323.504C297.803 328.443 292.204 332.979 286.244 336.857C284.754 337.832 283.237 338.749 281.701 339.633L281.41 339.797L281.338 339.837L281.292 339.857L281.206 339.903C281.087 339.956 280.975 340.035 280.856 340.068C280.738 340.107 280.626 340.173 280.507 340.2C280.388 340.233 280.276 340.285 280.164 340.299C279.703 340.411 279.248 340.437 278.786 340.384C278.331 340.332 277.87 340.2 277.434 339.976C276.999 339.758 276.597 339.461 276.247 339.105C275.542 338.4 275.133 337.496 275.061 336.619C275.021 336.177 275.061 335.729 275.193 335.268C275.226 335.155 275.272 335.037 275.305 334.918C275.344 334.799 275.41 334.687 275.45 334.569C275.463 334.529 275.529 334.391 275.575 334.285L275.727 333.955L276.03 333.296C276.834 331.535 277.579 329.749 278.272 327.942C278.944 326.175 279.551 324.381 280.098 322.561C280.111 322.515 280.125 322.469 280.138 322.423C280.514 321.196 280.85 319.95 281.153 318.697C281.311 318.051 281.463 317.405 281.608 316.759C281.826 315.809 281.997 314.84 282.182 313.884C282.34 312.915 282.511 311.952 282.63 310.976C282.769 310.007 282.861 309.024 282.966 308.048C283.013 307.561 283.039 307.066 283.079 306.578L283.131 305.84L283.164 305.101C283.356 301.165 283.164 297.202 282.624 293.285L282.393 291.821L282.274 291.089L282.136 290.364L281.997 289.678L281.846 288.913L281.509 287.469L281.338 286.751C281.278 286.513 281.213 286.276 281.147 286.032L280.758 284.601C280.619 284.126 280.467 283.658 280.322 283.183C280.256 282.986 280.197 282.781 280.138 282.583C280.052 282.313 279.966 282.043 279.867 281.772C279.089 279.497 278.186 277.269 277.171 275.099C276.518 273.702 275.825 272.33 275.087 270.985L273.913 268.855H273.59L271.454 268.849C270.036 268.849 268.625 268.835 267.207 268.829C263.739 268.809 260.277 268.783 256.816 268.743C254.659 268.717 252.51 268.69 250.354 268.657C247.024 268.605 243.701 268.545 240.371 268.473C237.971 268.42 235.577 268.367 233.177 268.301C230.203 268.222 227.236 268.143 224.269 268.044C222.126 267.978 219.983 267.906 217.84 267.826C217.095 267.8 216.35 267.767 215.605 267.741C213.277 267.648 210.949 267.556 208.615 267.457C204.811 267.292 200.999 267.108 197.201 266.903C196.08 266.844 194.966 266.778 193.845 266.719C184.02 266.152 174.209 265.446 164.43 264.53C159.999 264.127 155.575 263.653 151.157 263.152C148.955 262.881 146.746 262.631 144.544 262.334L141.247 261.899L137.956 261.431C129.187 260.151 120.483 258.582 111.99 256.492L108.825 255.668C108.298 255.536 107.777 255.377 107.256 255.226L105.693 254.777L104.908 254.553L104.137 254.309L102.594 253.821L101.822 253.577L101.025 253.314L99.4422 252.786C97.352 252.081 95.3079 251.362 93.2968 250.584C91.2857 249.799 89.2878 248.981 87.3426 248.085C79.5158 244.55 72.2033 239.981 65.6623 234.482C61.3763 230.822 57.4267 226.721 53.9386 222.204C52.1649 219.975 50.5494 217.608 48.9669 215.221L47.8262 213.401C47.635 213.098 47.4372 212.801 47.2591 212.485L46.7118 211.555L45.6238 209.696L44.5886 207.803L44.0677 206.854L43.5798 205.891L42.5973 203.966C42.2808 203.32 41.9775 202.66 41.6675 202.014C41.3576 201.361 41.0411 200.715 40.7576 200.049L39.8807 198.064L39.6631 197.57L39.4586 197.069L39.0432 196.067C38.7729 195.394 38.4828 194.735 38.2256 194.055L37.4476 192.025C35.3837 186.604 33.6759 181.033 32.2319 175.388C31.5 172.566 30.8736 169.718 30.2802 166.863L29.8648 164.713C29.7329 163.994 29.5812 163.282 29.4625 162.557C29.2251 161.113 28.9548 159.682 28.7504 158.232C27.8668 152.455 27.247 146.633 26.8712 140.791C26.159 129.113 26.403 117.357 27.7547 105.745L27.7284 105.732Z" fill="#1A1A1A"></path> <path d="M169.584 109.631C186.674 109.631 195.219 112.479 195.219 118.176C195.219 122.343 192.745 124.426 187.797 124.426C174.971 123.287 166.247 122.717 161.625 122.717L160.453 124.426V134.094C160.453 146.106 161.023 160.722 162.162 177.942C162.162 184.42 160.274 187.658 156.498 187.658C151.941 186.584 149.662 181.457 149.662 172.278C149.401 171.106 149.011 163.13 148.49 148.352L149.662 124.426C148.881 124.426 148.49 124.052 148.49 123.303C134.004 125.191 125.476 126.135 122.904 126.135H122.318C120.267 126.135 118.933 125.37 118.314 123.84V119.885C120.202 115.002 137.292 111.584 169.584 109.631ZM260.355 108.459C264.164 109.957 266.068 112.056 266.068 114.758V145.471C266.068 149.833 266.638 162.561 267.777 183.655C266.866 188.212 264.587 190.49 260.941 190.49H258.646C253.34 190.49 250.687 183.085 250.687 168.274V165.442C250.687 164.66 250.313 164.27 249.564 164.27C241.947 174.166 233.402 179.114 223.929 179.114C213.024 179.114 205.245 172.457 200.59 159.143C199.06 155.497 198.099 150.37 197.709 143.762C197.709 134.68 200.378 124.247 205.717 112.463C208.158 109.957 210.127 109.306 211.625 110.51C213.122 111.714 213.431 113.505 212.552 115.881C207.084 129.13 205.277 140.214 207.133 149.133C209.021 158.052 212.341 164.058 217.094 167.151C218.591 168.648 220.87 169.397 223.929 169.397C236.104 169.397 245.219 155.546 251.273 127.844C251.273 114.921 254.301 108.459 260.355 108.459ZM334.769 107.922H335.306C344.421 107.922 349.743 109.631 351.273 113.049C352.022 114.416 352.396 115.93 352.396 117.59C352.396 122.961 343.477 132.255 325.638 145.471L298.881 167.688C297.22 168.632 296.081 169.966 295.463 171.692C295.821 171.692 296 171.887 296 172.278C324.906 168.469 344.47 166.565 354.691 166.565H358.109C361.136 168.713 362.65 170.796 362.65 172.815V173.987C362.65 178.544 357.719 180.823 347.855 180.823L282.377 185.364C278.177 185.364 275.508 183.085 274.369 178.528V176.819C274.369 172.88 286.136 161.308 309.672 142.102C327.901 128.528 337.015 120.731 337.015 118.713C336.202 118.355 333.353 117.981 328.47 117.59C310.795 118.339 297.139 119.852 287.504 122.131C284.444 121.773 282.914 120.259 282.914 117.59C282.914 112.545 300.199 109.322 334.769 107.922ZM378.519 105.041H381.937C383.239 105.041 384.183 107.141 384.769 111.34C380.993 146.008 379.105 165.181 379.105 168.86C379.463 168.86 379.642 169.039 379.642 169.397C380.554 169.397 385.681 163.326 395.023 151.184C420.284 122.701 435.095 108.459 439.457 108.459H441.166C444.974 109.208 446.879 111.112 446.879 114.172V115.295C446.879 118.062 441.556 123.01 430.912 130.139C421.049 139.058 416.117 144.559 416.117 146.643C425.199 157.711 432.979 165.116 439.457 168.86L442.875 173.401V177.405C442.875 180.888 440.401 182.971 435.453 183.655H434.916C427.559 183.655 418.054 174.735 406.4 156.897H405.277C404.366 156.929 398.295 163.765 387.064 177.405C384.102 182.32 380.879 184.778 377.396 184.778C372.058 183.248 369.388 178.69 369.388 171.106C369.388 163.228 371.862 141.597 376.81 106.213L378.519 105.041ZM459.623 115.295H460.795C465.71 115.979 468.168 118.078 468.168 121.594V123.303C464.392 144.625 462.504 162.463 462.504 176.819C462.504 180.888 461.169 183.541 458.5 184.778H454.496C451.078 184.778 449.369 177.372 449.369 162.561V151.184C450.606 128.039 452.885 116.467 456.205 116.467C457.442 115.686 458.581 115.295 459.623 115.295Z" fill="black"></path> </svg> 